<?xml version="1.0" standalone="no"?>
<!DOCTYPE svg PUBLIC "-//W3C//DTD SVG 1.1//EN" "http://www.w3.org/Graphics/SVG/1.1/DTD/svg11.dtd" >
<svg xmlns="http://www.w3.org/2000/svg">
<metadata>
This is a custom SVG webfont generated by Font Squirrel.
Copyright   :  19992001 WolfBainX  Apostrophic Labs All rights reserved Visit wwwapsotrophiclabcom or email infoapostrophiclabcom for more info
Designer    : WolfBainX  Apostrophe
Foundry URL : wwwapostrophiclabcom
</metadata>
<defs>
<font id="webfontg59eTXqd" horiz-adv-x="342" >
<font-face units-per-em="1000" ascent="800" descent="-200" />
<missing-glyph horiz-adv-x="297" />
<glyph unicode=" "  horiz-adv-x="297" />
<glyph unicode="&#x09;" horiz-adv-x="297" />
<glyph unicode="&#xa0;" horiz-adv-x="297" />
<glyph unicode="!" horiz-adv-x="350" d="M44 94q0 -31 23 -59q24 -27 55 -27q41 0 74 26l-1 -1q37 27 37 74q0 82 -79 82q-39 0 -70 -21q-39 -27 -39 -74zM109 282q0 -28 15 -45t42 -17q20 0 34 10h-2q22 13 41 74q12 42 20.5 76.5l15.5 60.5v-1q3 9 5 18t4 16q4 13 48 134q37 101 37 126q0 27 -20 50 q-23 24 -45 24q-29 0 -47 -25l1 1l-8.5 -14t-11.5 -25q-6 -14 -9.5 -25.5l-7.5 -24.5q-2 -7 -4.5 -15t-5.5 -16q-3 -10 -5.5 -19.5l-4.5 -17.5v1l-13 -45l-10 -33l-45 -180v1q-24 -84 -24 -89z" />
<glyph unicode="&#x22;" d="M49 701q0 -9 3 -31q1 -2 1.5 -5.5t1.5 -6.5l-1 1q8 -45 16.5 -74t16.5 -46q6 -11 14 -21.5t20 -19.5l-2 1q25 -24 50 -24q22 0 40 18q14 11 14 43q0 20 -7.5 36l-15.5 33l-11.5 23.5t-8.5 22.5q-6 22 -8.5 40t-5.5 32l-2 14q-3 6 -9.5 13t-15 12t-16.5 8.5t-14 3.5 q-29 0 -47 -26v1q-13 -16 -13 -48zM197 717q0 -53 27 -123q34 -91 91 -91q22 0 37.5 18.5t15.5 40.5q0 18 -16 53q-4 9 -7.5 16t-5.5 13q-5 11 -8 18.5t-1 5.5l2 -7q-5 33 -7.5 58.5t-2.5 42.5q-9 49 -59 49q-19 0 -37.5 -12t-22.5 -31q-6 -29 -6 -51z" />
<glyph unicode="#" horiz-adv-x="572" d="M44 430q0 -12 4 -22t12 -20v1q4 -7 13 -13t19.5 -11t21 -8t18.5 -3h10t11 1q5 1 10 1.5t8 0.5q1 0 1.5 -0.5t1.5 -0.5q-1 -2 -1 -29q0 -5 -0.5 -7.5t-0.5 -4.5h-16q-7 1 -11 1t-9 1t-9 1.5t-11 0.5q-21 0 -40 -12q-19 -14 -19 -39q0 -21 17 -41q16 -18 36 -20 q17 -2 29 -3t22 -2h3q5 -18 7 -32.5t4 -26.5q7 -22 19 -36q19 -19 34 -19q29 0 40 37l-1 -1q5 11 6 21t1 22q0 6 -2 16q-1 5 -1 7v5q0 3 -1 3h-1q29 8 98 8q15 0 15 -13q0 -3 -0.5 -6.5t-0.5 -5.5v-12q0 -6 1 -15t5 -21l-1 2q2 -10 5 -17l5 -12q1 -2 1 -3t1 -3 q3 -4 8.5 -8.5t12 -9t13 -7.5t10.5 -3q7 0 15 5t15 12.5t11.5 16t4.5 16.5v66q0 2 -0.5 4.5t-0.5 4.5q-1 4 -1 9q0 4 12 4h23q20 4 42 28q22 28 22 47q0 14 -10 29t-27 15h-66q-8 0 -8 13q0 6 3 20l-1 -1q1 2 1 3t1 3q21 5 38.5 6.5t33.5 3.5q2 0 3 0.5t3 0.5q10 2 17 8.5 t14 15.5q13 16 13 31q0 16 -15 39q-17 24 -37 24h-67q0 10 3 28q1 9 2 19t1 15q0 58 -52 58q-24 0 -36 -16q-12 -22 -14 -64q-1 -20 -3 -31t-4 -18l1 1q0 -1 -1 -1v-1v1q-2 -3 -22 -3h-72v56q0 19 -0.5 30t-0.5 16q-9 45 -46 45q-40 0 -44 -45l-3 -42q-2 -21 -3 -38t-1 -29 h1q-7 -7 -24 -7q-4 0 -14.5 1t-21.5 3h1q-11 1 -20.5 1.5t-16.5 0.5q-47 0 -47 -46zM162 209q1 0 1 -3v2zM281 358q18 9 58 9q11 0 18.5 -1t12.5 -3q3 -2 3 -14q0 -17 -6 -29q0 -1 -65 -1q-2 0 -5.5 -0.5t-5.5 -0.5q-5 -1 -9 -1q1 0 1 2v35q0 4 -2 4zM284 477v2h1l-0.5 -0.5 t-0.5 -1.5z" />
<glyph unicode="$" horiz-adv-x="451" d="M43 294q0 -43 38 -70q16 -13 63 -32v1q26 -11 30 -18q1 -1 1 -2v0q2 -5 2.5 -7.5l0.5 -2.5v-74q0 -16 19 -40q18 -25 38 -25q21 0 39 27l-1 -1q8 11 12 21.5t4 19.5v83q2 -3 29 9q26 10 38.5 14t13.5 4q106 65 106 147v1t1 3q1 4 2.5 9.5l1.5 5.5q0 45 -20 77v-1 q-19 32 -27 38q-39 34 -121 52q-20 0 -37.5 1t-36.5 3q-37 2 -37 4q0 6 14 18q17 16 29 17q42 8 67 10.5t36 2.5h6q28 0 42 5h-1q8 3 13 11t10 21l-1 -2q6 12 8 20t2 13q0 26 -20.5 38.5t-43.5 12.5h-8t-10 -1q-3 -1 -6 -1h-3q-3 -1 -8 -1h-35v4q0 3 0.5 7t0.5 7 q0 5 0.5 9.5t0.5 7.5v14q0 10 -2 14q-5 20 -22.5 33t-35.5 13q-14 0 -30.5 -12t-19.5 -26q-3 -9 -3 -18v-33q0 -5 0.5 -10.5t0.5 -10.5q0 -27 -9 -36l1 1l-25 -19t-19 -13q-68 -63 -68 -110q0 -43 30 -73q26 -31 107 -41q16 -3 31.5 -4.5t30.5 -3.5t30 -4.5t32 -4.5l-3 1 q46 -12 46 -29q0 -3 -5 -10q-9 -12 -18 -20.5t-18 -11.5q-18 -7 -29 -10.5t-19 -3.5q-23 0 -39.5 1t-30.5 6q-16 4 -30 9t-25 13q-8 4 -16 12q-14 13 -28 13q-24 0 -45 -26v1q-21 -23 -21 -47z" />
<glyph unicode="%" horiz-adv-x="673" d="M55 546q0 -21 6.5 -40.5t22.5 -35.5q17 -19 38 -26.5t44 -7.5q17 0 33 2.5t31 8.5h-1q22 7 41 15.5t36.5 21t33 31t30.5 47.5q8 14 10.5 26.5t2.5 26.5q0 20 -6 37t-14 34q-15 29 -41.5 41t-56.5 12q-10 0 -20 -1t-22 -4v1q-44 -8 -81.5 -38t-61.5 -67q-25 -44 -25 -84z M112 76q0 -26 21.5 -40t50.5 -28v2q12 -6 22 -6q27 0 53 36q20 42 37.5 75l36.5 67l12 22l14 25q14 28 30.5 53t36.5 51l6.5 9.5l5.5 7.5l-1 -1l18 25l18 26q3 6 7 12l9 13l22.5 35.5l23.5 35.5l2.5 5t3.5 6q28 41 51.5 79t35.5 77q5 14 5 27v3q0 13 -8 21.5t-20.5 14t-29 8 t-32.5 4.5q-23 0 -41.5 -7.5t-26.5 -28.5q-6 -28 -22.5 -58.5t-36.5 -62.5v1q-2 -2 -3 -5t-3 -6q-15 -23 -28 -47l-44.5 -76l-44.5 -73.5l-50 -79.5l-61 -94q-14 -20 -29.5 -44.5l-33.5 -52.5q-7 -14 -7 -31zM192 577q0 2 1 3v-1v1q5 13 17 20t21 9h12h9q-1 -5 -5 -11 t-9 -11q-7 -9 -17.5 -12.5t-18.5 -3.5q-2 0 -3 0.5t-3 0.5q-3 3 -3 7q0 -1 -1 -1v-1zM252 618q0 -1 0.5 -1.5t0.5 -1.5v-1zM360 134q0 -21 6 -38.5t14 -34.5q15 -29 42.5 -41.5t58.5 -12.5q21 0 40 4h-1q45 9 82.5 38.5t60.5 66.5q25 40 25 84q0 43 -30 78 q-17 17 -37.5 24.5t-42.5 7.5q-35 0 -64 -10h2q-21 -6 -40.5 -14t-37.5 -21t-34 -32.5t-31 -48.5l1 1q-8 -14 -11 -27t-3 -24zM492 136v1q0 5 3.5 11t8.5 11q7 10 18 13.5t19 3.5h2l6 -4t3 -5v-1q0 -1 -1 -1v0v-1v-1q-5 -11 -18.5 -17t-24.5 -8q-2 -1 -8 -1q-7 0 -8 -1z" />
<glyph unicode="&#x26;" horiz-adv-x="721" d="M42 227q0 -85 49 -139q52 -60 136 -60q145 0 223 77q9 9 24 27.5l30.5 39l29.5 40t21 32.5q11 27 18.5 48.5t14.5 45.5v-2q2 5 3 8t3 8l-1 -1q2 5 2.5 8t3.5 5q11 5 49 6q51 0 75 18.5t24 50.5q0 86 -58 86q-1 0 -2.5 -0.5t-3.5 -0.5h-8q-4 0 -9 -1q-16 -3 -29 -5t-23 -4 q-13 -4 -19 -10l1 4q-3 0 -11.5 1t-16.5 3q-17 3 -31 3q-47 0 -64 -35l-7.5 -30t-5.5 -25v1v-4t-1 -4v1l-14 -42q-8 -25 -14.5 -40.5t-10.5 -23.5l2 2l-32 -47t-24 -33q-48 -67 -144 -67q-23 0 -36.5 11.5t-13.5 31.5q0 28 21 70q20 35 45 62q14 14 24.5 25.5t18.5 22.5 q21 18 56 40l1.5 1t3.5 2q8 5 25 13l13 6q6 4 11 6.5t11 7.5q23 20 23 36q0 84 -72 84q-4 0 -18.5 -5t-37.5 -16h1q-35 -16 -39 -16q-6 0 -6 14q0 34 58 84q54 47 95 47q20 0 43 -30q43 -45 65 -45q17 0 31 9.5t14 30.5q0 41 -40 90q-24 21 -43.5 34t-33.5 16h1q-2 1 -6 1.5 t-10 2.5q-16 4 -35.5 8t-23.5 4q-17 0 -71 -18q-18 -5 -33 -13t-26 -16q-4 -4 -7 -6l-16.5 -14t-24.5 -24q-64 -61 -64 -151q0 -41 11 -83q2 -4 2.5 -5.5t4.5 -9.5q2 -4 2 -7q0 -6 -20 -34q-7 -7 -8 -11l-12.5 -16.5t-14.5 -17.5q-49 -79 -49 -163zM340 433l2 1 q-1 0 -1.5 -0.5z" />
<glyph unicode="'" d="M51 574q0 -22 15.5 -41t36.5 -19q85 0 114 188q2 18 4 19q0 18 -1.5 31.5t-4.5 27.5v-1q-3 20 -22 32t-37 12q-40 0 -54 -34q-7 -20 -7 -55q-2 -32 -3 -39q-6 -20 -10 -32t-6 -17t-6 -13t-9 -20v1q-10 -19 -10 -40zM195 548q0 -30 13 -43q18 -18 41 -18q37 0 70 49 q12 18 20.5 36t11.5 37l-1 -1q3 10 4.5 20t3.5 18t2.5 13.5t2.5 11.5q5 20 6 30t1 12q0 73 -61 73q-7 0 -29 -10h1q-18 -7 -25 -21q-10 -35 -13.5 -56.5l-5.5 -34.5q-2 -8 -3 -11q-4 -10 -7 -20t-8 -16q-2 -3 -3.5 -6l-1.5 -3q-2 -3 -5 -8.5t-5 -7.5q-6 -13 -7.5 -23 t-1.5 -21z" />
<glyph unicode="(" d="M48 329h36q0 -45 -2 -85.5t-6 -55.5q22 -58 67 -107l18 -17.5l13 -12.5q23 -20 56 -20q51 0 51 53q0 29 -30 67l1 -1q-20 26 -31.5 42.5t-15.5 23.5l1 -1q-23 46 -23 99q0 81 34 196l-1 -2q3 7 6.5 14t5.5 12l-1 -1q11 26 17 36q19 35 71 93h-1l24 24l11 12q26 32 26 68 q0 61 -62 61q-29 0 -54 -21l-11 -9h1q-8 -7 -14.5 -13.5t-13.5 -14.5q-5 -5 -8 -8.5t-5 -6.5q-4 -7 -7 -9l1 1q-36 -33 -66 -90q-14 -29 -24.5 -54t-15.5 -49v1q-2 -7 -3.5 -15t-3.5 -14l-10 -41l-10 -41v1q-11 -38 -16 -66.5t-5 -48.5zM55 269q1 -3 1 -8q0 5 -1 8zM56 261 q6 -57 10.5 -72t9.5 -1q-8 17 -12.5 35.5t-7.5 37.5z" />
<glyph unicode=")" horiz-adv-x="339" d="M47 95q0 -62 62 -62q22 0 39 14q5 3 11 9.5l14 15.5q14 15 29 27q3 6 7.5 11l11.5 13q16 15 23 28q8 8 17 23l20 35q2 4 3 7l2 6q5 8 9.5 19l9.5 24v-2q6 13 10 22.5l6 14.5v-1v1v0q1 0 1 1v1h2l15 62t12 45q4 17 6 34l4 34v-1q5 32 7 69t2 67q-5 -7 -5 -15q-2 6 -3 10 t-2 9l-4 22q-8 23 -19.5 46.5t-28.5 49.5q-13 18 -27.5 35.5t-29.5 31t-30.5 21.5t-30.5 8q-50 0 -50 -52q0 -26 11 -44t25 -33l-1 1q6 -8 9 -11q10 -11 16.5 -21t11.5 -20l-1 1q1 -3 3 -7q0 -5 3 -8l7 -22v2q3 -12 6 -21q2 -9 4 -15.5t2 -11.5q2 -8 2 -16v-16q0 -20 -5 -51 t-14 -75v1q-4 -14 -7.5 -29.5t-5.5 -23.5q0 -4 -2 -8l-24 -66l1 2q-6 -14 -16 -27.5t-22 -26.5q-96 -87 -96 -137zM316 303l5 -1l-1 -1z" />
<glyph unicode="*" horiz-adv-x="452" d="M44 697q0 -39 31 -65q16 -14 32.5 -20.5t32.5 -6.5q6 0 16 2q5 1 9 1.5t5 0.5q8 0 10 -2t2 -17q0 -3 -0.5 -7t-0.5 -8q-1 -5 -1 -11v-11q0 -52 48 -83q12 -6 30 -6q40 0 50 55q1 14 3 24t4 17l11 -4.5t14 -5.5h-1q18 -8 28 -13t16 -5q21 0 36.5 18t15.5 39q0 28 -33 52 q-3 2 -5 3.5t-4 3.5q1 0 1.5 0.5t1.5 0.5l-1 -1q16 1 37 9q51 15 51 69q0 69 -73 69q-4 0 -14 -1l-20 -2q-11 -1 -20 -1.5t-14 -0.5q-16 0 -20 2h1h-1v1q-2 7 -3 18.5t-3 28.5q-1 24 -3.5 39.5t-5.5 24.5q-14 39 -62 39q-27 -3 -44 -24t-17 -48v-6v-7q-3 4 -6 7.5t-5 6.5 q-11 11 -25 15.5t-29 4.5q-23 0 -37.5 -15.5t-14.5 -36.5q0 -24 28 -61l-1 1q9 -17 21 -30h-20q-20 -5 -35.5 -20t-15.5 -33zM322 792v1v-1z" />
<glyph unicode="+" horiz-adv-x="483" d="M42 458q0 -27 13 -47l-1 1q19 -36 78 -36q2 0 6.5 0.5t9.5 0.5q5 1 10 1h8q12 0 12 -5v-10q0 -4 -1 -12q0 -4 -0.5 -8t-0.5 -9v2q-1 -14 -1.5 -24t-0.5 -18q0 -92 69 -92q30 0 43 16q6 7 11.5 19.5t10.5 34.5v-1q10 29 11 43l-1 -2q1 3 1.5 7t1.5 6q4 24 18 41 q11 17 30 17h75q30 0 53 27q18 23 18 55q0 55 -50 66q-23 4 -43.5 5t-36.5 2q-29 1 -27 0q-10 10 -10 22q0 5 1 14t3 20q1 11 2 20.5t1 17.5q0 80 -69 80q-48 0 -63 -55q-3 -10 -4.5 -27.5t-3.5 -43.5q-2 -18 -3 -26t-1 -15q0 -6 -1 -12q-2 -8 -46 -8q-25 0 -42.5 -1 t-28.5 -4q-51 -14 -51 -62z" />
<glyph unicode="," horiz-adv-x="170" d="M49 10q0 -39 37 -39q13 0 44 22q11 8 18.5 15l15.5 15q30 34 30 70q0 31 -27 51l1 -1q-21 17 -50 17q-19 0 -35.5 -15.5t-22.5 -36.5q-3 -19 -4.5 -36.5t-2.5 -33.5v1q0 -4 -2 -10t-2 -19z" />
<glyph unicode="." horiz-adv-x="176" d="M47 92q0 -32 18 -53t51 -21q30 0 55 25t25 54t-28 48l1 -1q-22 16 -49 16q-48 0 -63 -31q-6 -11 -8 -20t-2 -17z" />
<glyph unicode="/" horiz-adv-x="539" d="M44 120q0 -29 29 -58q27 -34 56 -34q23 0 41 27l2 3l-1 -1l3.5 7t3.5 5l52 93t39 65q9 18 16 33.5l12 26.5v-1l2 6v-1q13 25 30 51l37 56q5 8 10.5 18t12.5 19v-1l48 69l24 34l25 35l12.5 18.5t11.5 17.5l14.5 23.5t13.5 18.5q6 10 10 16l6.5 10t5 7t5.5 8q11 17 11 44 q0 36 -19 59t-54 23q-25 0 -44 -15q-10 -12 -18 -23t-12 -20l1 2l-42 -64l-9 -14t-8 -11q-4 -6 -7.5 -12.5t-3.5 -5.5l2 3l-62.5 -89t-67.5 -104q-2 -3 -11.5 -20l-27.5 -47v1l-33.5 -59l-45.5 -78q-3 -7 -7 -12.5t-7 -11.5q-7 -11 -12.5 -21t-13.5 -21q-16 -28 -23 -46.5 t-7 -28.5z" />
<glyph unicode="0" horiz-adv-x="869" d="M53 270q0 -27 10 -54.5t30 -56.5q18 -28 37.5 -48.5t41.5 -36.5q16 -14 34 -21t35 -12h-1q6 -2 10 -3.5t8 -3.5q22 -6 49 -7t59 -1q41 0 76.5 3.5t66.5 12.5l-2 -1q5 1 9 1.5t8 1.5q18 3 26 6h-1q39 14 79.5 36t84.5 54l18.5 12t12.5 8v-1l8.5 5t6.5 4q77 72 112 175 q23 68 23 97q0 110 -49 204q-14 23 -26 38.5l-20 25.5l1 -3q-19 26 -42.5 45t-55.5 32q-27 11 -56.5 17t-64.5 6h-37q-118 0 -228 -74q-96 -67 -164 -175q-25 -40 -42.5 -71.5t-28.5 -57.5h1q-14 -34 -21.5 -72.5t-7.5 -84.5zM219 275q0 62 49 151h-1q25 42 49.5 72.5 t50.5 51.5q48 36 88 50q15 9 20 10.5t9 2.5l10 2q30 8 54.5 12t45.5 4q41 0 95 -37q19 -12 34 -54q15 -41 15 -71q0 -19 -12 -43l-11 -23.5l-11 -22.5v-2q-10 -20 -25 -38.5t-35 -38.5q-37 -33 -85 -59l1 1q-20 -11 -36.5 -16t-28.5 -9q-38 -14 -73 -20t-70 -6q-53 0 -91 20 q-42 22 -42 63z" />
<glyph unicode="1" horiz-adv-x="287" d="M49 609q0 -32 25 -50l-3 1q22 -22 47 -22q7 0 19 4h1l-55 -424q-1 -4 -1 -11q0 -32 18 -57l-1 1q18 -27 51 -27q47 0 63 85q5 20 7 39t5 39q1 5 1 10q0 6 1 11v-1q10 54 18 93l13 65l12 55.5t10 43.5q1 12 5 24q6 31 10.5 57.5t6.5 47.5q2 13 4 28t4 25l4.5 33t3.5 20 q1 6 1.5 10t0.5 7q0 18 -4 33t-9 31q-18 43 -55 43q-19 0 -37 -12q-15 -15 -27 -24l-17 -16.5t-13 -13.5l1 1l-50 -48.5t-32 -32.5q-10 -12 -19 -32q-9 -24 -9 -36z" />
<glyph unicode="2" horiz-adv-x="642" d="M43 90q0 -30 28 -57q31 -26 56 -26q12 0 80 26h-1q48 16 85 24.5t68 8.5h155q12 0 42 -3h-1l26 -3.5t21 -1.5q63 0 63 56q0 26 -18 56v-1q-17 29 -43 37q-17 3 -45 5t-68 2h-152v1q0 8 19 26q11 9 19.5 18l19.5 20q12 14 23 25t20 22l18 19.5l15 16.5q140 135 171 214 q14 36 14 80q0 33 -9.5 60.5t-27.5 48t-44 31.5t-59 11q-58 0 -148 -24q-26 -7 -55 -17.5t-64 -24.5q-81 -35 -129 -103q-19 -24 -27.5 -48.5t-8.5 -48.5q0 -37 11 -54q17 -28 56 -28t51 31l17 41q37 63 165 106q29 11 52 14q31 6 47 8t21 2q8 0 11 -1v-2q0 -33 -70 -110 l1 1l-54.5 -56l-53.5 -56l-45.5 -48l-49.5 -52h1l-57 -60l-82 -84q-32 -33 -48 -59t-16 -43z" />
<glyph unicode="3" horiz-adv-x="715" d="M51 179q0 -50 55 -74q5 -2 9 -4.5t8 -4.5q3 -1 6.5 -2t1.5 -1q25 -14 31 -20l30.5 -11.5t38.5 -11.5l27 -7.5t24 -5.5q7 -2 14 -3t12 -3q8 -1 12.5 -1.5t8.5 -1.5t7 -1h6q103 0 213 59q121 62 163 150q5 10 16 46q5 16 7 28t2 21q0 21 -3.5 41t-12.5 40q-18 49 -52 71 l-6 4t-7 4l-20 11l1 -1l-14 11l6 6.5t17 19.5l18 18q14 14 22 23.5l12 14.5l-1 -1q31 46 31 76q0 81 -79 125q-31 16 -65.5 25.5t-73.5 10.5h-35q-47 0 -89 -4t-78 -11q-48 -11 -90 -28t-80 -43v1q-9 -6 -19 -15.5t-21 -25.5q-14 -16 -19 -29.5t-5 -23.5q0 -15 6.5 -28.5 t17 -23.5t24.5 -16t28 -6q20 0 34 7q25 16 42 33q29 20 51.5 31t38.5 17q8 3 14 4.5t9 2.5q28 9 51 13t41 4h35q62 0 62 -29q0 -6 -38 -30h1l-15 -9l-14 -8h2q-10 -5 -19 -10.5t-19 -12.5l2 1l-20 -12l-47 -27t-30 -19l-21 -13.5l-14 -8.5h1q-6 -4 -9 -6.5t-5 -3.5 q-32 -27 -32 -62q0 -36 24.5 -59.5t60.5 -23.5q8 0 31 5q5 2 10 2.5t9 1.5q3 1 6.5 1.5t6.5 1.5l14 3q5 1 9.5 1.5t11.5 2.5l-2 -1l30 6q1 0 1.5 0.5l0.5 0.5h11t13 1q6 1 11.5 1.5t8.5 0.5q71 0 71 -42q0 -32 -54 -71q-19 -15 -42 -29.5t-51 -27.5q-20 -8 -33 -12t-22 -5 q-2 -1 -6 -1h-13q-27 0 -49 2t-40 6v-1l-10 4t-9 4q-6 3 -10 3q-45 19 -73 29t-40 10q-27 0 -60 -24q-22 -22 -22 -50z" />
<glyph unicode="4" horiz-adv-x="622" d="M42 393q0 -55 39 -91q37 -38 89 -38q29 0 70.5 7t98.5 22l-1 -1q15 3 27 6l-1 -1l31.5 7t24.5 5h8q8 1 14 3t14 4q2 1 5.5 1.5t5.5 1.5l-5 -2q5 0 7 1q3 -3 3 -13v-5l-12 -143v-4q0 -5 1.5 -14.5t3.5 -23.5q2 -18 4 -28.5t5 -16.5q10 -17 29 -31t39 -14q19 0 37 16t23 35 q2 29 3 51.5t1 36.5q1 27 1 47q0 21 1 35l-1 -1q2 5 2 12v23l8 49l-1 -1l3 12q1 2 1 4t1 4t2 4.5t3 4.5q8 12 14.5 26t6.5 33q0 7 -3.5 18.5l-8.5 28.5q-5 5 -7.5 9.5t-4.5 8.5q-2 16 -3 27.5t-1 20.5q-2 11 -2 20q0 10 -1 21t-1.5 22t-1.5 22q-4 59 -28 92v-1q-7 9 -23 22 l-16.5 6.5t-11.5 2.5q-17 0 -30.5 -8t-22.5 -25q-5 -12 -8.5 -23.5t-3.5 -27.5v-5l5 -154q-1 -11 -38 -20q-26 -5 -46.5 -10l-37.5 -9q-5 -2 -10 -2q-4 0 -8 -1q-23 -5 -43 -10l-40 -10l1 1q-17 -3 -27 -4.5t-15 -2.5l16 31.5l40 77.5l69 134q8 19 12.5 34.5t4.5 30.5 q0 13 -3.5 26.5t-11.5 27.5q-20 35 -50 35q-5 0 -11.5 -2t-17.5 -7q-17 -8 -40 -52q-2 -4 -3 -8t-3 -7l1 1l-7.5 -17t-10.5 -19l-40.5 -78l-31.5 -61l1 1l-6 -12t-6 -11q-8 -14 -17 -28t-17 -28q-2 -5 -4.5 -8t-4.5 -8v1q-14 -26 -20.5 -47t-6.5 -39z" />
<glyph unicode="5" horiz-adv-x="734" d="M49 201q0 -67 130 -125q108 -48 177 -48q68 0 130 17.5t118 53.5q132 81 132 218q0 39 -8 74t-24 70q-38 74 -104 108l2 -1q-14 10 -35 17t-47 12q-4 0 -6 1q-4 1 -10.5 2.5t-13.5 4.5h1q-11 4 -20.5 5.5t-16.5 1.5h-136q1 22 35 22q5 0 12.5 -0.5t15.5 -1.5t15 -1h13 q18 0 34.5 1.5t33.5 6.5v-2q5 0 9 0.5t9 0.5q18 1 33 1t23 2h-1q2 0 3.5 0.5t3.5 0.5q37 3 59 4t30 3q7 2 13 3.5t11 3.5q15 5 25 7.5t24 7.5l9 10.5t7 5.5q2 2 3.5 3t3.5 3q21 21 21 36q0 26 -17 57v-1q-18 40 -50 40h-1h-5q-2 0 -7 -2h1h-2l-70 -12q-20 -3 -30 -3.5 t-15 -0.5h-83q1 0 -8.5 -1t-15.5 -2t-12 -1.5t-9 -0.5q-9 -1 -23 -1.5t-32 -0.5h-27h-18q-9 0 -20 1q-9 0 -18 0.5t-17 0.5h-25q-21 0 -45 -18q-10 -11 -17.5 -20t-12.5 -17q-1 -3 -2.5 -8t-2.5 -9l1 2q-3 -10 -4 -15.5t-2 -9.5l-7 -20.5l-6 -16.5q-1 -2 -1 -4q0 -1 -1 -2 q-21 -57 -31 -92.5t-10 -51.5q0 -48 18.5 -66.5t66.5 -18.5h6q6 0 10.5 1t9.5 6l-12 -6h4l133 8l69 3q62 0 105 -20h-1q46 -22 46 -77q0 -66 -75 -111q-34 -21 -69.5 -30.5t-75.5 -9.5q-48 0 -99 23h1l-33 18q-8 3 -12.5 5.5t-9.5 4.5q-21 13 -37 18.5t-26 5.5h-15 q-9 0 -13 -2q-18 -3 -39 -29q-21 -23 -21 -42z" />
<glyph unicode="6" horiz-adv-x="710" d="M50 206q0 -73 72 -127q63 -43 134 -44q-2 0 6 -1t12 -2l-1 1q7 -2 12 -2.5t10 -0.5q22 0 51.5 5.5t68.5 18.5q19 6 37 12.5t35 15.5h-1q5 2 13.5 6t19.5 10q8 4 15 8t16 8q29 14 58.5 38.5t61.5 57.5q72 79 72 137q0 40 -25 84q-29 49 -61 66v-1q-73 44 -172 44 q-14 0 -22.5 -2t-21.5 -4h2h-2h-1q-2 -1 -5 -1h-4q-7 -2 -11 -2h-8q-10 -1 -21.5 -3t-34.5 -10q19 32 41 58t51 51v-1q33 27 53 33q11 3 27.5 5t42.5 2q3 0 9 -0.5t13 -1.5q8 -1 15 -1.5t14 -0.5q56 0 56 62q0 25 -9.5 45.5t-25.5 34t-38 21t-47 7.5q-32 0 -67 -8t-70 -26 q-27 -12 -57 -38q-4 -4 -9.5 -8.5t-12.5 -11.5q-6 -5 -12.5 -11l-14.5 -13l-14.5 -14l-12.5 -12l-49 -50q-22 -22 -36.5 -44t-28.5 -46q-2 -6 -5.5 -11l-7.5 -11q-10 -17 -20.5 -37.5t-21.5 -45.5v1q-7 -13 -11.5 -24.5t-7.5 -21.5l-3 -9v1q-46 -113 -46 -186zM218 233l4 4 q2 13 8.5 25t14.5 22t16.5 17.5t15.5 12.5q15 11 29 19t36 19q22 13 80 26l-4 -1q14 1 26 1h23h37q56 0 56 -25q0 -27 -68 -71q-22 -15 -48.5 -29.5t-57.5 -28.5v1q-44 -19 -56 -19q-26 -5 -38 -6.5t-14 -1.5q-58 0 -58 29q-2 4 -2 6z" />
<glyph unicode="7" horiz-adv-x="694" d="M45 646q0 -31 21 -62q25 -34 56 -34q20 0 43 19q10 10 18 17t18 13q16 8 50.5 14.5l85.5 15.5q96 15 142 15q15 0 15 -4q0 -28 -148 -239l-24 -36q-3 -5 -4.5 -8t-3.5 -5q-4 -4 -6 -8l-47 -89t-38 -64q-28 -43 -28 -71q0 -45 22 -71l-1 1q26 -32 67 -32q38 0 84 73 l19 37.5l18 36.5q3 5 6.5 11.5l6.5 12.5l-1 -1q39 68 64 105q2 5 4.5 9t4.5 8q11 17 17.5 29.5l10.5 20.5l21 32.5l20 31.5l43 67.5l42 64.5h-1q73 107 73 150q0 25 -17 57q-18 34 -43 43q-39 15 -67 15q-14 0 -27 -3q-3 -1 -8 -1q-5 -1 -11 -1t-22.5 -0.5t-44.5 -3.5h2 q-45 -3 -71.5 -6.5t-40.5 -5.5l-20 -4.5t-17 -3.5l-18.5 -4t-11.5 -3q-4 -1 -11.5 -1.5t-18.5 -2.5h1q-5 -1 -12 -2t-15 -2q-16 -2 -29 -4t-23 -4h2q-2 -1 -4 -1h-1q-31 -10 -52 -17.5t-32 -14.5q-27 -17 -39 -31q-11 -14 -15 -29t-4 -30z" />
<glyph unicode="8" horiz-adv-x="608" d="M50 242q0 -110 101 -187q21 -16 59.5 -23t93.5 -7q20 0 45 4t56 13q87 22 144 66q80 59 80 140v7q0 9 3 20v-1q2 6 2 11v13q0 19 -6 43l1 -1q-9 43 -31 71q-13 19 -24.5 29t-18.5 15v-7q0 13 -30 33q-8 5 -10 5q2 2 7.5 6l13.5 10q23 18 38.5 31.5t24.5 25.5l-1 -2 q36 40 36 85q0 106 -82 150q-28 14 -69 22t-95 8q-134 0 -237 -83q-67 -55 -67 -119q0 -32 22 -70q19 -31 89 -80q-2 -3 -12 -12.5l-27 -24.5q-4 -4 -6 -5q-9 -8 -14 -14l1 1l-7.5 -9.5l-6.5 -8.5l-7 -9q-6 -6 -10 -11t-8 -8q-48 -65 -48 -127zM93 363l1.5 2t3.5 4 q1 1 2 1.5t2 2.5q-7 0 -8 -1t-1 -9zM198 223q0 30 53 90q52 65 80 73q31 9 39 9q6 0 29 -13q15 -8 29 -19.5t28 -25.5h-1q28 -33 28 -54q0 -12 -11.5 -26.5t-23.5 -23.5l1 1q-32 -21 -81 -36q-28 -8 -51.5 -12t-42.5 -4q-25 0 -51 13q-25 12 -25 28zM245 614q0 2 1 4v-1 q2 10 12 14q12 25 43 37q40 17 53 17q3 0 7 0.5t8 0.5q8 1 18 1q11 0 22 1q4 1 13 1q21 0 47 -6q21 -6 21 -19q0 -11 -43 -44q-27 -22 -45 -33t-32 -16h1q-3 -2 -22 -5q-3 0 -9 -2h-6q-8 0 -19 2.5t-25 7.5q-4 3 -7 6.5t-8 6.5l-21 16t-9 11zM292 573l2 -1q-1 0 -2 1z" />
<glyph unicode="9" horiz-adv-x="600" d="M43 521q0 -24 3 -48t10.5 -46.5t20.5 -41.5t33 -34q33 -27 72.5 -43t84.5 -16h3q25 1 46 4t42 8l32 9v-1q1 -4 1 -14q0 -23 -3 -48l-2 -22.5t-1 -22.5q0 -8 -1 -16l-2 -16q-2 -12 -3 -23.5t-1 -25.5q0 -20 4.5 -39.5t18.5 -37.5q15 -12 32.5 -16t34.5 -5q13 0 26.5 5 t24.5 13.5t18.5 20.5t7.5 26v8v10t-1 9t-1.5 8t-0.5 5l1 3l3 46q1 11 1 21t1 21v12t1 13q0 6 0.5 12.5t1.5 12.5q1 5 1.5 10t0.5 11q0 1 0.5 4.5t1.5 8.5v6l2 19.5t2 20.5t1.5 22t1.5 22v-2q2 9 4 19l4 20q3 15 5.5 31t7.5 30q1 5 1.5 9.5t1.5 9.5q2 9 3.5 17.5t3.5 15.5 q10 27 13.5 51.5t7.5 48.5q2 13 3 28q2 2 2 5t1 7l1 8l1 3l-1 -4q6 11 7 17.5t1 14.5v4q0 2 0.5 4.5t0.5 4.5q0 28 -16 49.5t-41 31.5q-20 8 -41 9.5t-42 2.5h-13q-76 0 -149 -22l-9 -3q-4 -2 -6.5 -3t-6.5 -3h1q-5 -2 -9.5 -3t-6.5 -2h-7t-8 -1l-21 -11l-10 -5l-16.5 -6.5 t-16.5 -8.5h2q-24 -11 -46 -22.5t-41 -26.5l-8 -8q-8 -8 -12.5 -13l-9.5 -11q-26 -25 -38.5 -58.5t-14.5 -67.5v1q-1 -8 -1 -18v-18zM184 533q0 12 4.5 24.5t14.5 22.5h-1q23 24 50.5 39.5t59.5 28.5q29 11 56.5 19t56.5 8h12q13 0 26 -5q4 -5 4 -10v-10q0 -4 -1 -9 q-5 -39 -17.5 -77.5t-40.5 -70.5h1q-20 -20 -46.5 -32.5t-54.5 -12.5h-9q-1 0 -1.5 0.5l-0.5 0.5h2q-12 2 -24 3t-27 2q-12 2 -22 10t-19 17q-11 9 -17 23t-6 29z" />
<glyph unicode=":" horiz-adv-x="206" d="M51 162q0 -44 21 -71.5t60 -27.5q36 0 65 33q30 31 30 74q0 40 -32 63v-1q-28 23 -59 23q-10 0 -20 -1.5t-21 -7.5l2 1q-26 -11 -36 -33v1q-6 -15 -8 -28t-2 -25zM53 445q0 -44 21 -69q20 -31 60 -31q37 0 67 33t30 75q0 41 -34 64q-27 21 -57 21q-21 0 -40 -8 q-29 -11 -35 -33q-7 -15 -9.5 -28t-2.5 -24z" />
<glyph unicode=";" horiz-adv-x="208" d="M56 77q0 -8 4 -17t13 -18q17 -16 33 -16q45 0 84 75q32 64 32 115q0 39 -21.5 59.5t-55.5 20.5q-69 0 -76 -99q-1 -3 -1 -7v-5v-18q-5 -30 -7.5 -50.5t-4.5 -34.5v-5zM62 487q0 -43 21.5 -72t59.5 -29q37 0 67 34t30 76q0 38 -33 64q-28 22 -59 22q-11 0 -19.5 -2 t-19.5 -8q-28 -9 -36 -33l1 2q-6 -14 -9 -26.5t-3 -27.5z" />
<glyph unicode="&#x3c;" horiz-adv-x="376" d="M38 438q0 -31 14 -58q8 -15 20 -34.5t28 -39.5v1q11 -14 18.5 -25.5l13.5 -20.5h-1q3 -4 4.5 -6.5t6.5 -9.5q2 -3 4 -6.5l5 -8.5h1q32 -58 71 -102l11 -11l2 -1q2 -3 4.5 -6t7.5 -6l31 -40q32 -34 59 -34q53 0 53 71q0 25 -23 57q-2 4 -7 9t-13 15l1 -1q-6 8 -14.5 17.5 l-18.5 20.5q-4 4 -7.5 8l-7.5 9q-21 23 -35.5 42.5t-22.5 35.5l-4 6q-1 1 -2 2.5t-3 3.5l-38 56t-13 21q0 9 74 75l51 45q4 4 8.5 8t8.5 7q8 8 17 15.5t17 15.5q49 48 49 85q0 15 -6 28t-15.5 23t-21.5 16t-24 6q-27 0 -92 -65q-11 -13 -22 -24.5t-25 -23.5l-25 -27 q-18 -14 -45 -32.5l-69 -47.5h11q-36 -39 -36 -69zM238 323l1 -3q0 -1 1 -1.5l1 -0.5z" />
<glyph unicode="=" horiz-adv-x="397" d="M49 424q3 -22 15 -43.5t26 -31.5q8 -2 18.5 -4t24.5 -2h10q6 0 12 1h-1l162 9h4q3 0 5 1q5 1 10 1.5t12 2.5h-1q18 3 25 3q29 0 39 10.5t10 39.5v13q-1 2 -1 5q0 35 -43 57q-27 10 -61 10q-39 0 -85 -4t-101 -13q-8 -1 -13 -2.5t-9 -2.5h-7q-17 -6 -30 -15l2 1 q-23 -13 -23 -36zM61 258q0 -39 33 -63q26 -23 65 -23q4 0 46 3q40 2 74 4.5t63 5.5q9 1 14 1h8h4q22 6 33 29q7 15 7 33q0 26 -8.5 41.5t-26.5 26.5q-28 13 -71 13q-2 0 -12 -0.5t-27 -2.5h1l-43 -2q-11 -1 -23 -1.5t-23 -2.5q-30 -5 -48 -6q-11 -2 -15 -1t-14 -4 q-16 -4 -26.5 -19.5t-10.5 -31.5z" />
<glyph unicode="&#x3e;" horiz-adv-x="375" d="M48 623q0 -25 18 -52q8 -8 14 -15.5l12 -14.5q5 -6 10.5 -11.5t9.5 -10.5q30 -32 53.5 -54.5t42.5 -37.5l-1 1q10 -9 15 -13l7.5 -6t3.5 -3t4 -3l9 -6q17 -19 17 -15q0 -5 -41 -66q-4 -4 -6 -5l2 2q-5 -6 -10 -14l-11 -18q-8 -13 -19.5 -28l-26.5 -33h1 q-24 -26 -39.5 -44.5t-22.5 -27.5q-1 -2 -3.5 -5t-1.5 -1l3 4q-27 -33 -27 -56q0 -18 14 -40h-2q10 -17 20 -22l7 -8.5t7 -7.5v10q3 -1 9 -1q29 0 59 36l16 20q3 3 9 11q2 3 3.5 5.5t3.5 3.5q8 12 18 25t21 26l2 3q5 8 9.5 13t6.5 8l4 6l2 3l8.5 11.5t5.5 6.5l-1 -1l10 14 t10 15v-1l13.5 18l12.5 17q7 10 12 16t8 11q13 19 19 28.5t10 16.5v-1q2 3 6 13v-2q21 32 21 73q0 48 -66 89q-15 10 -32.5 23t-38.5 32l-22 25l-23 24l-23 24q-62 62 -86 62q-13 0 -25 -6.5t-21 -16.5t-14.5 -23t-5.5 -26z" />
<glyph unicode="?" horiz-adv-x="657" d="M48 664q0 -22 14 -35.5t37 -13.5q26 0 65 16h-1q12 5 21.5 8.5t16.5 5.5q10 4 16 6t8 4l-3 -1q32 9 98 18q32 5 55.5 7.5t41.5 2.5h1q123 0 123 -38q0 -3 -1 -7q-11 -50 -129 -92q-17 -5 -26.5 -8.5t-17.5 -5.5l2 1q-19 -3 -47.5 -9.5l-63.5 -14.5q-2 -1 -2.5 -0.5 t-2.5 -0.5h1l-20 -3.5t-16 -3.5q-5 -1 -9 -2.5t-7 -2.5q-24 -7 -41.5 -28t-23.5 -47v-38q0 -132 55 -132q45 0 75 86l5 13q2 3 5.5 5t8.5 4q-1 -1 10 1q4 1 7.5 1.5t8.5 1.5q32 5 69 16.5t82 31.5q89 40 139 83q13 12 26.5 29t28.5 42q0 2 4 8q9 18 15.5 33t10.5 29l-1 -1 q2 8 2.5 14.5t0.5 13.5q0 47 -38 93q-47 50 -104 62q-20 4 -47 5.5t-65 1.5q-29 0 -51.5 -1t-39.5 -5h1q-45 -7 -76.5 -12.5t-48.5 -11.5q-79 -23 -121 -52t-50 -65l1 2q-2 -5 -2 -9v-5zM107 106q0 -76 71 -76q20 0 38 8t37 23l-1 -1q37 29 46 69l-1 -2q2 4 2 8v7 q0 27 -27 50q-27 21 -58 21q-61 0 -85 -37h1q-8 -11 -11 -16t-7 -11l-3.5 -23.5t-1.5 -19.5z" />
<glyph unicode="@" horiz-adv-x="831" d="M52 309q0 -75 26 -122v1q6 -12 14.5 -25.5t23.5 -29.5q28 -37 49 -49q99 -60 241 -60q19 0 35.5 8t27.5 21t17.5 30.5t6.5 36.5q0 28 -28 45q-22 10 -43 10h-13q-7 0 -15 -1q-9 -1 -16.5 -1.5t-12.5 -0.5q-18 0 -40 4t-50 12q-46 13 -70 72q-17 38 -17 78q0 6 1 14.5 t3 16.5v-1q62 297 304 300h36q17 0 31 -1.5t26 -3.5h-1q50 -10 70 -23q46 -26 56 -39q11 -16 17.5 -39t6.5 -53q0 -10 -6 -44q-4 -43 -36 -85q-34 -44 -70 -44q-21 0 -21 48q0 23 1.5 44.5t7.5 44.5q1 4 2.5 11.5t5.5 21.5v-1q7 15 9.5 25.5t2.5 15.5q0 37 -47 58 q-33 14 -66 14q-36 0 -79 -15q-8 -4 -15 -5l-30 -13t-28 -18h1q-22 -15 -41 -36.5t-35 -51.5l1 1q-41 -73 -41 -135q0 -66 50 -110q44 -37 113 -37q11 0 27 3t38 8l33 8.5t20 3.5q9 0 21 -7q11 -5 22 -9t25 -4h10q4 -1 12 -1h7q53 0 89 24q68 42 106 121q35 72 35 156v52 q0 44 -21 78q-9 17 -15.5 26.5t-8.5 14.5l1 -2q-20 35 -53 62t-80 48q-42 17 -82.5 26t-84.5 9q-63 0 -144 -24h1q-86 -25 -131 -65q-21 -18 -40 -37.5t-37 -44.5q-115 -159 -115 -335zM386 376q0 30 39 66h-1q41 37 69 38q0 -9 -1.5 -25t-6.5 -41q-3 -23 -5 -37t-4 -21 q-3 -2 -10.5 -5.5t-15.5 -6.5h-1q-14 -5 -21 -6.5t-9 -1.5q-14 0 -23.5 12.5t-9.5 27.5z" />
<glyph unicode="A" horiz-adv-x="589" d="M47 95q0 -33 27 -51l-2 1q20 -17 49 -17q36 0 50 23q14 27 19 46v-1l29 85q5 18 8.5 27t5.5 11q4 11 22 19l-2 -1l3 0.5t8 1.5q6 2 14 4t17 5l35.5 12t34.5 11q34 11 57 14l2 -4q4 -11 6 -20t4 -16q1 -2 1.5 -5.5t1.5 -4.5q5 -20 8.5 -36l6.5 -30l5.5 -22l4.5 -18 l10.5 -46.5t3.5 -17.5q16 -43 83 -43q60 0 60 60q0 16 -2 33t-8 36q-2 5 -3 10t-2 9q-4 12 -7 22.5l-6 21.5v-1q-7 23 -12.5 52l-8.5 44q-1 0 -1 3q5 7 7.5 10t7.5 7l7 8q12 19 12 48q0 10 -2 15q-7 16 -18 25t-27 14l2 -1q-20 9 -25 14l-7 27t-8 33l-46 178l-3 12 q-8 29 -12 45.5t-6 20.5q-23 50 -72 50q-12 0 -29 -7h1q-11 -3 -17 -8t-11 -12l-8 -14l-7 -12l1 1q-3 -5 -5.5 -10l-4.5 -9q-23 -40 -40 -76t-30 -70q-36 -96 -65 -164q-21 -51 -37.5 -95.5t-27.5 -80.5v1q-5 -11 -8 -21t-7 -20t-7 -20.5t-7 -20.5v1q-23 -55 -23 -86z M304 408q2 7 10 29t20 59q6 17 11.5 30.5t10.5 23.5q2 -9 4.5 -21.5t6.5 -29.5q5 -21 8 -37l5 -27q0 -4 2 -10q-4 -2 -9 -4t-13 -4h1l-45 -10l3 1h-15z" />
<glyph unicode="B" horiz-adv-x="644" d="M58 120q0 -54 85 -78h-1q60 -18 111 -18q31 0 62 4.5t70 12.5q57 14 104.5 33.5t87.5 43.5q108 72 108 173q0 45 -31 98h1q-26 48 -62 80h1l-22 21l-7 7l11 12q12 13 17.5 20.5t10.5 15.5q7 29 11 54t4 45q0 29 -6.5 51t-21.5 38v-1q-44 50 -105 65h1q-6 2 -26 6t-54 9 t-54 7t-32 2q-77 0 -127 -8t-76 -37q-7 -7 -14 -17.5t-12 -27.5q-1 -3 -1 -9v-10q0 -9 2.5 -17.5t6.5 -16.5q2 -4 3 -7q-2 -23 -3 -47t-1 -50v-109q0 -4 0.5 -9.5t0.5 -10.5q1 -6 1 -12v-10v-125v-32q0 -11 1 -17q1 -17 1.5 -27.5t0.5 -14.5v-3q0 -24 -15 -33 q-31 -19 -31 -51zM249.5 351.5q-0.5 3.5 0.5 6.5q3 2 7.5 3.5t9.5 3.5l21 7l-2 -1q11 2 20.5 4.5l16.5 4.5t12 3t8 2l-2 -1q6 1 17.5 4t30.5 11l14 6q20 8 31 13l11 5q4 0 62 -64v1q26 -29 26 -51q0 -24 -35 -56l1 1q-20 -16 -40.5 -27.5t-44.5 -19.5q-14 -5 -32.5 -9 t-44.5 -9q-45 -9 -70 -9h-7q-5 30 -7 62t-2 68v16q0 5 -0.5 9.5t-0.5 7.5q0 5 -0.5 8.5zM251 550v9q0 50 2.5 78.5t9.5 36.5q5 3 10 4t9 2h1q15 1 23.5 2t14.5 1.5t11 1t14 1.5q126 0 126 -47q0 -24 -66 -76q-11 -10 -28.5 -17.5t-41.5 -14.5q-23 -7 -42 -10.5t-36 -3.5h-4 q0 5 -0.5 9t-1.5 10v-1v6q-1 5 -1 9z" />
<glyph unicode="C" horiz-adv-x="635" d="M51 257q0 -68 17 -105v1q19 -44 70 -83q53 -44 156 -44q14 0 42 5.5t72 18.5q16 5 28 11t26 16q206 110 206 191q0 32 -19 51.5t-51 19.5q-16 0 -31 -6t-30 -17h1q-9 -6 -16 -11.5t-12 -10.5v1l-31.5 -25t-29.5 -21l-56 -35t-36 -19q-23 -11 -44.5 -17.5t-41.5 -6.5 q-40 0 -62 25h1q-20 26 -20 69q0 40 21 85l3 4.5t3 6.5q5 10 15.5 29l27.5 48q44 82 93 140q67 81 115 81q9 0 12 -12q1 -6 2.5 -13.5t5.5 -18.5q2 -5 2.5 -10.5t2.5 -10.5q7 -20 19.5 -30t29.5 -10q61 0 61 97q0 37 -5 64t-13 47q-30 59 -102 59q-59 0 -111 -35h1 q-12 -7 -25 -18.5t-30 -28.5v1q-14 -13 -26.5 -26.5l-22.5 -24.5q-50 -60 -81 -103t-48 -72l-30.5 -59.5l-22.5 -43.5l1 1q-17 -31 -27 -76q-10 -41 -10 -79z" />
<glyph unicode="D" horiz-adv-x="605" d="M58 126q0 -57 25 -80.5t81 -23.5q13 0 28.5 4.5t31.5 14.5l9.5 5t17.5 8q6 3 12 6.5t12 7.5l-3 -1l66.5 29t44.5 23v-1q259 142 259 347q0 117 -28 168q-19 29 -36 50t-33 35q-20 18 -43.5 30.5t-47.5 23.5l-21.5 6l-20.5 6q-13 4 -25 7t-25 8h1q-7 2 -16.5 4t-21.5 3 q-21 3 -31 7q-17 5 -41 8.5t-56 3.5q-85 0 -85 -63v-16q0 -10 0.5 -19t1.5 -17q1 -7 1 -12v-6q0 -14 -1 -29.5t-3 -37.5q-2 -16 -2 -28q0 -11 -1 -20q-1 -6 -1.5 -10.5t-0.5 -10.5v-14t-1 -13q-2 -20 -3 -35.5t-3 -24.5q-2 -14 -5 -28.5t-5 -27.5l1 1q-1 -2 -1.5 -6t-1.5 -6 l-7 -68.5t-5 -55.5q-2 -17 -3.5 -32t-3.5 -27l-7 -63q-3 -26 -3 -30zM213 209q1 0 1 5q0 6 3 38v-1q1 5 1 11q0 7 1 13q2 23 3 39t2 27q4 11 4 12v3v1q0 2 1 4q3 29 4.5 50t2.5 38q1 5 1 10v11q2 21 4.5 43t7.5 45q2 8 2.5 16t1.5 14q0 3 1 8.5t1 6.5q2 6 2.5 9.5t0.5 6.5 q2 10 2.5 13.5t0.5 4.5v2v3q0 2 0.5 4.5t0.5 4.5q1 2 1.5 4.5t1.5 4.5v1h1q104 0 158 -30q67 -40 67 -139q-3 -14 -3 -17q0 -2 -2 -9v-3q0 -2 -0.5 -2.5t-0.5 -1.5v3q-4 -26 -8 -36q-23 -62 -94 -125q-60 -48 -138 -82q-26 -10 -32 -10zM253 597q0 1 1 2zM261 647v3v-3z" />
<glyph unicode="E" horiz-adv-x="667" d="M51 164q0 -25 7.5 -49t22.5 -43.5t37 -32t51 -13.5h-1q9 -1 19 -1.5t19 -0.5q29 0 55 6q69 15 135.5 27t135.5 12h20q12 0 23 0.5t22 1.5h-1q4 0 12.5 0.5t15.5 1t9.5 1t-5.5 0.5q26 7 46.5 25.5t22.5 45.5v9q0 27 -14 50.5t-41 34.5q-23 -4 -43 -6t-37 -2h-12 q-13 -1 -25.5 -1.5t-26.5 -1.5q-11 -1 -23 -1q-11 0 -23 -1q-16 -3 -32 -6.5t-32 -7.5q-28 -5 -55 -10.5t-53 -8.5q-3 -1 -7 -1q-5 0 -10 -0.5t-9 -0.5q-5 0 -11 0.5t-14 1.5l3 -1q-18 5 -18 13v0q0 1 1 2q2 4 2.5 7.5t0.5 8.5v17q0 16 1.5 33t3.5 34l3 34q0 9 3.5 19.5 t12.5 12.5q11 1 18.5 2t14.5 3q8 2 15 3t16 3q8 2 16.5 3.5t16.5 2.5q21 5 41.5 8.5t40.5 3.5q5 0 9 -0.5t8 -0.5q17 0 35 -0.5t35 -2.5h5q21 0 41 12t21 38l-1 -1q2 4 2 7v7q0 24 -13 42t-33 26q-13 3 -22.5 5t-18.5 2l2 -1q-20 5 -39.5 7t-36.5 2q-34 0 -66.5 -4t-64.5 -9 h1q-11 -1 -20.5 -2.5t-20.5 -3.5v6q2 4 2 7v7q0 5 -1 8q0 9 0.5 17t1.5 18l2 6l1 13v4q8 1 14 3.5t12 6.5q16 7 33 10t34 5q14 3 30.5 4.5t34.5 2.5q23 5 43.5 6t40.5 1h9q26 0 52 2t58 16q15 22 15 44q0 15 -5 30t-14 29t-21 25.5t-26 18.5l1 -1q-17 10 -40 10 q-6 0 -11 -0.5t-10 -1.5q-7 -2 -12.5 -2.5t-11.5 -0.5q-15 0 -27 -3h3q-33 -2 -64.5 -6.5t-66.5 -14.5h1q-19 -4 -36.5 -7l-36.5 -6q-8 -3 -17 -5.5t-17 -4.5l1 1q-20 -4 -43 -12h-2q-16 0 -32 -4.5t-28.5 -13.5t-20.5 -22.5t-8 -30.5v-14q1 -11 1.5 -21t0.5 -23v-120 q1 -6 1 -12v-11v-26q0 -24 -3 -48q-2 -28 -5.5 -55t-8.5 -56v1q-5 -28 -8 -56l-6 -57v2q-3 -12 -3 -30zM242 525v1v-1z" />
<glyph unicode="F" horiz-adv-x="556" d="M40 651l12 -37q10 -6 17.5 -8t15.5 -3q10 -8 10 -14q0 -41 -0.5 -69t-1.5 -48q-3 -6 -7 -13t-12 -14q-7 -17 -10 -31t-3 -23q0 -16 10 -37q1 -3 1 -7t1 -7v1q1 -9 1.5 -15.5t3.5 -14.5q0 -2 0.5 -4t0.5 -5t-0.5 -7t-0.5 -7v2q-3 -33 -3 -50v-110q-1 -5 -1 -12v-7 q0 -19 1 -24q-1 -5 -1 -10v-7q0 -32 29 -41h-1q26 -10 53 -10q10 0 16 1t9 7q19 16 26 58q3 25 5 54t4 66q6 114 6 119q0 10 12 15q16 5 44 10.5t67 11.5l71.5 10.5t48.5 10.5l-2 -1l53 12q39 16 39 61q0 69 -84 69q-5 0 -21.5 -1.5t-44.5 -6.5q-62 -7 -94 -13 q-8 -2 -15 -2.5t-14 -1.5q-14 -4 -21 -7h-13v24q0 10 -0.5 18.5t-0.5 16.5q0 34 3.5 51t12.5 23h-1q7 5 20 8.5l33 8.5l20 4l20 4l14.5 3.5t10.5 2.5q54 12 92 19.5l65 12.5q31 7 43 21.5t12 46.5q0 70 -72 70q-43 0 -103 -7.5t-139 -25.5q-93 -20 -148 -40.5t-72 -39.5 q-17 -23 -17 -61z" />
<glyph unicode="G" horiz-adv-x="760" d="M52 291q0 -85 37 -147q44 -72 117 -101q17 -9 35.5 -11.5t38.5 -2.5h15q11 0 28 2q29 3 42 4t18 2q18 5 25 7.5t12 4.5q2 1 3.5 1.5t3.5 1.5l-2 -2q17 5 30 8q4 1 10.5 3t9.5 3q14 5 36.5 18l53.5 32q55 37 95 75.5t67 80.5q10 16 17 35.5t14 43.5q5 26 7.5 45.5 t2.5 39.5q0 60 -18 84l1 -1q-22 34 -83 34q-11 0 -32 -3.5t-50 -11.5q-41 -10 -76 -21.5t-65 -23.5q-107 -44 -107 -103q0 -28 20 -53q22 -27 50 -27q11 0 30.5 5.5t51.5 19.5l-1 -1l19 7.5t20 6.5q9 4 19 7.5t21 8.5l-1 -1q14 4 21.5 7t9.5 4q-5 -12 -48 -60v1 q-117 -124 -276 -124q-33 0 -54 33h1q-22 33 -22 69q0 37 33 109q14 30 46 69t83 88q106 100 155 100q19 0 36 -17q13 -14 23 -19.5t16 -5.5q46 0 46 74q0 57 -22 85l1 -1q-28 43 -78 43q-30 0 -57.5 -8t-52.5 -20t-48 -27.5l-44 -30.5v1l-11 -8.5t-11 -7.5 q-140 -103 -217 -270v1q-45 -92 -45 -155z" />
<glyph unicode="H" horiz-adv-x="545" d="M76 198q0 -22 1 -41t5 -34q-2 -5 -2 -9v-9q0 -26 18 -50q33 -29 68 -29q68 0 75 124v-1q1 8 1 17v22q0 8 -0.5 19t-1.5 24v8q-1 15 -1 28v25v19t1 16q1 31 7 32q18 3 28 3q13 2 21.5 3t15.5 2h4l98 9q6 -8 6 -32v-6l-1 -23v-5q0 -2 -1 -5v-19q-1 -5 -1 -11v-11v-12 l-3 -42q0 -4 0.5 -7.5t0.5 -6.5q0 -4 -1 -6v-1v-1q-1 -5 -1 -12v-5q0 -15 -0.5 -28t-0.5 -24q0 -38 3 -54q6 -27 32 -41q27 -13 45 -13q46 0 63 42q2 4 2.5 8t1.5 6t3 6.5l2 4.5l34 624v12q0 106 -84 106q-8 0 -16 -1t-14 -3q-8 -5 -16 -12t-15 -15q-11 -12 -17 -20t-6 -14 l-4 -95q-1 -3 -1 -7v-5v-10q-1 -5 -1 -13v-14q0 -8 0.5 -14t0.5 -12t-0.5 -10.5t-0.5 -8.5q-2 -26 -7 -31q-1 -3 -47 -7q-14 -2 -25 -2.5t-22 -2.5q-20 -2 -35 -4t-23 -2q-13 0 -17 1v1v3l8 169q0 17 -3.5 34.5t-13.5 33.5l1 -1h-1v1v1v-1q-20 42 -62 42q-80 0 -87 -161 q-1 -17 -2 -59.5t-3 -109.5v-89q0 -33 -2 -66t-5 -68q-1 -13 -1.5 -26t-0.5 -24zM245 520q2 -2 3 -2q-3 1 -3 2z" />
<glyph unicode="I" horiz-adv-x="637" d="M42 70q0 -24 10.5 -40t30.5 -20q4 0 6 -1h-2q27 -6 44 -6t34.5 2.5t49.5 7.5q2 1 10 3l-1 -1l55 9.5t49 7.5q165 27 184 29q42 5 67.5 10t38.5 8h-1q5 1 11 1.5t8 0.5q23 40 23 68q0 45 -51 76q-29 -4 -52 -7.5t-34 -5.5q-6 -1 -11 -1t-3 0q-6 -1 -15 -1.5t-20 -0.5 q-27 0 -43 -6q-1 0 -1 6v4l31 299q1 4 1 11v7q0 82 13 111l32.5 5t48.5 8q4 1 7.5 2t8.5 2q93 0 93 68q0 30 -39 75l-69 6q-22 -2 -42 -3t-36 -3q-71 -5 -82 -7h1q-13 -2 -24 -2.5t-22 -1.5l-34 -3h1q-14 -1 -27.5 -2.5t-25.5 -5.5l1 1q-13 -2 -27.5 -4.5t-28.5 -4.5 q-6 -2 -12.5 -3t-11.5 -3l1 1q-59 -9 -88.5 -27t-29.5 -54q0 -77 99 -77q3 0 11 1t22 3q22 2 39 5l28 5h-3q2 0 3 0.5t3 0.5q4 1 9 1h10t22 2v-32q0 -34 -3 -74.5t-8 -86.5v1l-20 -163v1q0 4 -0.5 1t-1 -8t-1 -11.5t-0.5 -10.5l-3 -26q-2 -14 -6 -22.5t-9 -13.5l2 1 q-11 -8 -34 -12q-4 -1 -14.5 -3t-30.5 -5l-25.5 -5.5t-23.5 -5.5l1 1q-20 -3 -32.5 -6t-23.5 -8q-36 -16 -36 -57q0 -3 -0.5 -6t-0.5 -5z" />
<glyph unicode="J" horiz-adv-x="785" d="M42 280q0 -75 130 -155q106 -68 183 -87q29 -8 49.5 -11t32.5 -3q60 0 113 23q61 28 88 80h-1q7 10 12 25q-1 0 0 2t8 15q1 8 3 16.5t6 20.5q9 41 14 92t5 113l-0.5 7t-1.5 14q-1 8 -1.5 16.5t-2.5 21.5q-3 9 -4.5 20t-3.5 23q-2 11 -3 21.5t-3 21.5v-1q-4 25 -6 45 t-2 36v19q0 12 37 12h21q3 0 8 -0.5t10 -1.5h-1q8 -2 13.5 -2.5t9.5 -1.5l-1 1q6 -2 7 -2h3q13 0 20 10q14 13 21 30t7 43q0 78 -131 78q-87 0 -143.5 -2t-98 -5t-75.5 -7.5l-77 -10.5q-30 -6 -51.5 -12t-33.5 -13q-51 -27 -51 -84q0 -33 32 -51l-2 1q19 -13 49 -13 q8 0 31 3t64 10q32 5 63.5 8t62.5 3q25 0 34 -15q8 -11 25 -105q8 -46 11 -75t3 -44q0 -36 -1 -62.5t-4 -44.5q-6 -55 -31 -77.5t-76 -22.5q-40 0 -91 21q-45 19 -84 50l-27.5 26l-27.5 27h1q-41 36 -80 36q-29 0 -48 -33q-13 -23 -13 -49z" />
<glyph unicode="K" horiz-adv-x="620" d="M58 297q0 -24 2 -51t4 -59q4 -41 9.5 -67.5t11.5 -42.5q4 -8 11 -16.5t18 -16.5q20 -14 40 -14q18 0 38 15h-1q12 8 18.5 14.5t9.5 11.5q5 14 8.5 29.5t3.5 32.5q0 4 -3 51l-7 96q-1 11 -1.5 18.5t-0.5 12.5v8q0 16 11 27.5t26 11.5q14 0 100 -101l-1 1l27 -34.5 l28 -34.5l-1 1l27.5 -34l27.5 -34q76 -92 123 -92q60 0 60 58q0 62 -51 145q-41 61 -78 110t-75 90q-4 4 -7 7.5t-6 6.5h1q-18 18 -18 28q0 6 12 15h-1q10 9 19 16l17 13q5 5 10 8.5t10 7.5q41 33 72 62.5t55 55.5q5 7 11 13.5t9 10.5q6 6 8 9q10 19 10 42q0 13 -5.5 27 t-14.5 28q-25 36 -51 36q-29 0 -53 -24l1 1l-44 -40.5t-31 -29.5h1l-71.5 -62.5l-90.5 -73.5l-9.5 -7.5l-9.5 -7.5t-10 -7.5t-10 -7.5q-23 -17 -30 -17q-5 0 -5 9q0 17 2.5 48.5t10.5 79.5q6 36 6 41q0 40 -30 72v-1q-29 33 -67 33q-20 0 -28.5 -7.5t-16.5 -18.5 q-1 -1 -4 -4.5t-4 -4.5q-1 -5 -2 -15t-2 -18l-6.5 -40.5t-7.5 -51.5q-2 -29 -3 -42q-1 -7 -1.5 -13l-0.5 -6v-307z" />
<glyph unicode="L" horiz-adv-x="617" d="M50 194q0 -41 9 -71t26 -51q20 -23 50.5 -34t69.5 -11q17 0 40.5 3.5t57.5 11.5l35.5 11.5t39.5 14.5l19 7.5t18 7.5l16.5 6.5t16.5 7.5l37 16t31 14q13 5 23 9.5l19 8.5q13 7 25.5 12.5t26.5 10.5q41 24 41 62q0 31 -16 56q-22 33 -55 33q-16 0 -91 -34q-17 -8 -31 -14 t-27 -11l-22.5 -9t-18.5 -8l1 1q-11 -5 -21 -8.5t-21 -6.5q-11 -4 -21 -8t-21 -8q-48 -14 -81 -14q1 0 -3 15l1 -1l-3 11l81 490l1 3v9q0 36 -24 65q-29 32 -66 32q-39 0 -57 -33q-6 -8 -11.5 -21.5t-8.5 -32.5l1 1q-1 -3 -2 -7t-2 -6q-2 -11 -4 -20.5t-4 -20.5l1 2 l-7.5 -35t-7.5 -32q-6 -31 -12 -59t-11 -47q-19 -109 -28.5 -185.5t-9.5 -132.5z" />
<glyph unicode="M" horiz-adv-x="673" d="M50 120q0 -36 13 -62v1q16 -41 57 -41q3 0 10 1t21 8t21.5 11.5t11.5 11.5q5 30 7 57.5t3 56.5q5 29 8.5 64t7.5 79l5 86l3 33.5t1 15.5q1 -8 21 -52h-1q18 -48 30.5 -78t22.5 -47l-1 1q39 -76 81 -76q29 0 48 31v-1l19 30t13 23l15.5 28l15.5 28l19 33l17 31l15 28.5 t11 19.5v-11v-19q0 -10 0.5 -22.5t1.5 -23.5q1 -8 1 -14v-8v-151l-1 -2v-13q0 -145 86 -145q29 0 46 19t17 48q0 2 -0.5 10t-1.5 22v-1q-2 20 -3 40l-2 40q-1 14 -1.5 26.5t-1.5 26.5q0 16 -0.5 31.5t-0.5 32.5q-1 30 -1.5 60.5t-0.5 60.5q-1 59 -2.5 105t-6.5 84 q-1 7 -4.5 20t-8 27.5t-9 26.5t-7.5 18q-7 10 -16.5 19t-21.5 19q-31 22 -52 22q-31 0 -56 -43l-18 -46.5l-12 -32.5q-70 -198 -82 -202q3 0 -1 19l1 -2q-1 4 -1.5 5.5l-1.5 4.5q-3 10 -6 18.5t-3 11.5q-4 14 -9 28.5l-9 25.5l-12.5 40.5t-10.5 31.5l-28 76t-20 42 q-38 51 -96 51q-32 0 -48 -39q-13 -42 -13 -49q-9 -39 -14.5 -69l-9.5 -51q0 -2 -0.5 -4.5t-0.5 -4.5l-3.5 -38t-3.5 -28q-12 -75 -20 -155t-16 -172q0 -11 -6 -41l-3.5 -25t-1.5 -21z" />
<glyph unicode="N" horiz-adv-x="642" d="M48 433q0 -13 3 -65q2 -40 4.5 -72t5.5 -57q0 -20 0.5 -38.5t1.5 -38.5q-3 -26 -3 -45q0 -20 3 -35q9 -29 48 -53q20 -2 36.5 -2.5t22.5 -0.5q31 0 48 33l-1 -1q12 18 12 40v5q0 4 -2 9l1 -1l-8 100l-1.5 20t-1 11.5t-1 8.5t-0.5 10v99q1 5 1 12v29q0 6 -1 8q3 -3 6 -6.5 l7 -8.5q2 -2 2 -5l-1 2q1 -2 1 -3l2 -2l-1 -1q1 -2 1 -3t2 -3q0 -9 7 -9q2 -4 3 -4l26.5 -40.5t19.5 -31.5l18.5 -23t13.5 -16q7 -10 11.5 -18t9.5 -16l-1 1l8.5 -13l9.5 -15q17 -23 41.5 -48.5t58.5 -54.5q84 -69 127 -69q34 0 52 32q9 19 15 116q2 36 3 64.5t1 48.5v34 t-0.5 29.5t-1 41t-1.5 68.5q0 15 -0.5 25.5t-1.5 15.5q0 8 -0.5 15t-0.5 15q-1 15 -1 27v21q-2 57 -6.5 98t-10.5 68q-11 35 -37 54q-30 27 -59 27q-32 0 -49 -19t-17 -51v-9l21 -263v-10q0 -24 -3 -85q-1 -29 -2 -49.5t-3 -31.5q-7 6 -23 29l-44 63h1l-18 27l-18 27 l-24.5 35.5l-25.5 36.5v-1q-17 23 -35.5 62t-40.5 93l1 -1q-16 41 -26.5 63.5t-18.5 34.5q-27 38 -79 38q-63 0 -72 -80q0 -3 -1 -8q0 -2 -0.5 -4.5t-0.5 -4.5v1q-3 -12 -3 -24v-81q0 -3 -3 -49l-4 -86q-3 -38 -3 -42zM255 404v3l3 -1zM484 292q0 3 1 4q-1 -2 -1 -4z" />
<glyph unicode="O" horiz-adv-x="803" d="M56 309q0 -31 14 -81q13 -38 26 -60.5t25 -30.5q8 -11 17.5 -20t21.5 -18q6 -4 56 -29l13 -5.5l11 -4.5q12 -5 20.5 -8t16.5 -5v1q67 -18 94 -18q94 0 152 23l21 11.5t18 8.5q6 4 12.5 6.5t11.5 5.5q26 11 46.5 24t37.5 27q69 60 107 157l-1 -1q21 49 30 95t9 94 q0 23 -11 69q-1 2 -2 8t-3 14q-1 5 -3.5 13l-5.5 18l1 -2q-5 23 -13 42.5t-19 38.5q-19 32 -42.5 57.5t-55.5 45.5q-67 43 -135 43q-4 0 -13 -0.5t-15 -1.5q-14 -3 -16 -3q-82 0 -207 -88q-43 -30 -84 -82.5t-85 -133.5q-14 -26 -23 -52.5t-14 -53.5q-5 -24 -6.5 -41 t-1.5 -26q-5 -20 -5 -37zM218 351q0 29 12.5 60.5t36.5 69.5q25 38 54 67.5t63 56.5q67 51 123 51q68 0 110 -62q41 -61 41 -135q0 -77 -49 -150q-49 -76 -118 -103q-33 -17 -95 -17q-4 0 -14 1t-24 3l1 -1q-38 9 -64.5 20.5t-41.5 28.5q-35 35 -35 110z" />
<glyph unicode="P" horiz-adv-x="566" d="M48 715q0 -13 4.5 -23t12.5 -20t12 -17.5t6.5 -15t3 -16.5t0.5 -21q0 -5 0.5 -9.5t0.5 -9.5v-14q0 -7 -1 -18q0 -3 -0.5 -6.5t-0.5 -7.5v3q-2 -17 -3 -27.5t-1 -20.5l-9 -372v-7q0 -89 77 -89q49 0 59 60q2 19 2.5 37t1.5 35q0 5 1 13l3 23v-1q2 11 3 21.5t1 19.5 q0 17 1 27t3 14q2 5 38 17h-1l28 9q7 2 14 4.5t15 4.5q21 8 45.5 20t52.5 30l14 9v-1q6 4 11.5 7t12.5 9q11 8 18.5 14.5t12.5 11.5q23 21 41.5 44.5t33.5 51.5q36 64 36 117q0 16 -1 30.5t-4 27.5q-8 31 -29 55l2 -2q-34 51 -137 73l1 -1q-35 8 -72.5 11.5t-78.5 3.5 q-61 0 -128 -18q-102 -27 -102 -86zM224 445q0 174 10 198q16 15 110 15q104 0 104 -44q0 -23 -17.5 -49t-52.5 -54q-29 -21 -60.5 -40t-66.5 -33q-20 -9 -25 -9q-2 0 -2 16zM233 641v0q0 1 1 1z" />
<glyph unicode="Q" horiz-adv-x="808" d="M51 318q0 -52 9.5 -91t28.5 -68q42 -59 129 -94q25 -11 40 -14q2 -1 7.5 -2.5t13.5 -3.5q16 -3 24.5 -4t13.5 -2t9 -1q5 0 13 -1q45 0 95.5 11.5t107.5 34.5l11.5 -12t26.5 -30q51 -55 89 -55q28 0 46.5 20t18.5 48q0 40 -32 89q-28 40 -28 45q0 1 22 31q5 5 8.5 10 t6.5 10q5 5 9 11.5t9 12.5q27 37 45.5 73t29.5 78v-1q11 36 16 62t5 41v21q0 13 -1 25t-5 24v-1l-12.5 48.5t-7.5 22.5h1l-17 31t-14 22l1 -1q-20 31 -46.5 54.5t-59.5 41.5q-33 17 -65.5 26.5t-65.5 9.5q-54 0 -108 -19h1q-67 -20 -101 -44h1q-54 -38 -101 -86t-85 -109 q-89 -136 -89 -264zM204 310q0 68 72 172q35 51 66 86t60 55q78 48 157 48q54 0 83 -36.5t29 -96.5q0 -56 -14 -94q-6 -17 -27 -52l-11 -16l-6 -9v7q-3 25 -5.5 38.5t-9.5 24.5l1 -2q-18 40 -69 40h-15q-60 0 -60 -97q0 -16 3 -49v1q0 -2 0.5 -4t0.5 -3q3 -20 3.5 -31 t0.5 -19v-22q-5 -15 -53 -30q-44 -15 -73 -15q-56 0 -93 25q-40 28 -40 79z" />
<glyph unicode="R" horiz-adv-x="619" d="M52 694q0 -28 17 -54q6 -8 10 -19q4 -6 6 -10t4 -6q7 -20 11 -66t4 -119q0 -155 -6 -212q-2 -15 -12 -83v1q-4 -20 -4 -40q0 -24 7.5 -40.5t23.5 -22.5q12 -5 22.5 -8.5t20.5 -3.5q9 0 18 3l-1 -1q28 6 44.5 22.5t21.5 27.5q2 5 3.5 12.5t4.5 15.5q6 25 8.5 43.5 t4.5 36.5q1 3 1 6t1 7q3 30 5 44.5t4 22.5q0 1 0.5 3.5t0.5 7.5q1 5 1 12q0 8 2 19q1 5 1 8t1 7q2 16 1 15q4 6 12 6t16 -1.5t14 -3.5q11 -5 23.5 -21t26.5 -40q2 -3 7.5 -14.5l14.5 -30.5v1q4 -8 7.5 -17t8.5 -19q3 -6 7 -12q6 -12 11 -23t9 -15l-1 3q6 -15 11 -25l-1 1 q2 -6 3.5 -9.5t2.5 -6.5q36 -76 98 -76q48 6 67 31l6 27q7 8 7 22q0 15 -10.5 49t-33.5 88l-48.5 77t-31.5 47q-8 11 -13 19t-8 14q-1 2 -2 2.5t-1 1.5q3 2 12 11t25 23l10 11l23 23.5t20.5 23.5t24 31.5l32.5 46.5l20 82v3q0 58 -63 106l1 -1q-52 46 -108 54l2 -1 q-23 5 -47.5 6.5t-56.5 1.5q-72 0 -134.5 -9.5t-117.5 -30.5q4 2 -4 -1t-12 -4h1q-8 -2 -13 -5.5t-10 -6.5l2 1q-35 -19 -35 -69zM251 592q0 42 5 52v-1q2 6 60 15q8 2 19.5 4l27.5 5q18 4 47 9h1q55 0 67 -37q-12 -81 -132 -119q-65 -27 -78 -27q-17 0 -17 99zM320 324 q1 -1 3 -1z" />
<glyph unicode="S" horiz-adv-x="632" d="M41 545q0 -36 22 -73q28 -47 92 -64q37 -10 105 -10q10 0 31 0.5t44 1.5t42 1h28q19 0 34.5 -2.5t29.5 -7.5h-1q30 -11 30 -30q0 -51 -114 -130l1 1q-1 -1 0 -0.5t-1 -0.5l-23 -14.5t-12 -7.5q-28 -14 -69 -14q-7 0 -35 9q-13 5 -21.5 7.5t-12.5 4.5q-13 11 -19 15 l-15 11q-25 19 -50 19q-13 0 -25.5 -5.5t-22.5 -15t-16 -22.5t-6 -27q0 -69 84 -121q71 -43 139 -43q97 0 214 83q59 43 96.5 86.5t52.5 88.5v-1q6 14 7.5 33.5t1.5 44.5q0 123 -70 169q-50 35 -175 35q-28 0 -80 -6l-44.5 -3.5t-30.5 -1.5q-20 0 -20 2q0 14 52 48 q22 14 41.5 24t39.5 18l14.5 5.5l14.5 5.5l16.5 6.5l16.5 6.5q17 8 29 10.5t23 2.5q6 0 15 -15q13 -36 42 -36h5t8 2q16 6 18 6q20 0 33 16.5t13 38.5q0 38 -45 80q-43 43 -77 49h-13q-2 0 -4.5 0.5t-5.5 0.5h-18q-27 -1 -52.5 -5.5t-48.5 -11.5q-14 -5 -37 -15.5t-55 -26.5 q-21 -11 -33 -18q-6 -2 -12.5 -6t-10.5 -6l-21.5 -16.5l-17.5 -13.5q-5 -5 -9.5 -8.5t-9.5 -6.5q-20 -14 -35.5 -28.5t-29.5 -32.5q-37 -49 -37 -86z" />
<glyph unicode="T" horiz-adv-x="688" d="M40 648q0 -20 11.5 -28.5t24.5 -16.5l-2 1q2 -2 5 -3t4 -3q9 -2 14 -2h12q12 0 21.5 1t19.5 3q31 10 61.5 14.5t62.5 8.5q5 1 8.5 1.5t7.5 1.5v-5q1 -6 1 -11v-9q0 -16 -3 -31q-2 -48 -4.5 -95t-5.5 -95q-5 -84 -8.5 -171.5t-3.5 -172.5q14 -15 33 -25.5t40 -10.5h10 q13 3 25.5 7t20.5 18q17 11 21.5 26t4.5 32v25q0 6 1 10q-2 23 -3 45.5t-1 45.5q0 57 4.5 114.5t9.5 115.5q2 17 3 34t3 34q1 4 1 11v49q1 5 1 10v11q1 16 3 32.5t10 26.5q12 0 15 3h1l3 2q32 8 61 11t58 7l45 6q5 1 9 1.5t6 0.5q7 0 19 -3h8q5 0 10 0.5t13 3.5 q11 9 18.5 22t8.5 27q2 10 2 20q0 17 -6.5 34t-17.5 30.5t-26.5 22t-34.5 8.5h-7t-10 -2l2 1q-10 -2 -18.5 -2.5t-17.5 -1.5l-18.5 -2l-18.5 -2q-14 -1 -28.5 -4t-28.5 -8q-16 -5 -31.5 -8.5t-34.5 -3.5q-28 -5 -54.5 -8t-53.5 -5l-65.5 -6t-63.5 -9q-24 -9 -34 -11 q-18 -4 -35 -9t-35 -14q-23 -14 -36.5 -36.5t-14.5 -48.5q-2 -5 -2 -9v-6zM454 648q1 1 2 1.5t2 1.5q-3 -3 -4 -3z" />
<glyph unicode="U" horiz-adv-x="706" d="M52 212q0 -53 10 -87q11 -42 42 -64l-1 1q52 -42 154 -42q23 0 67 9t107 29l57 18l25.5 8t14.5 5l21.5 -22t20.5 -25q37 -18 59 -18q15 0 27 10q29 14 29 57q0 6 -1 14t-3 17q-1 10 -2 18.5t-1 10.5l2 20q2 13 4.5 33l5.5 46q8 69 16 148.5t16 176.5q2 14 2.5 25.5 t1.5 22.5t1.5 19.5t2.5 17.5q2 20 3.5 32.5t1.5 17.5q0 97 -72 97q-97 0 -97 -101v-17q1 -2 1 -3v0v-4q0 2 -0.5 -4t-1.5 -14q-1 -7 -2 -16.5t-2 -20.5q0 -5 -0.5 -12t-1.5 -17v1q-5 -45 -12 -142q-3 -53 -8.5 -94t-12.5 -70q-6 -23 -22 -31l1 1l-14.5 -7.5t-12.5 -5.5h1 q-5 -2 -9.5 -3t-7.5 -3q-78 -28 -131 -42.5t-85 -14.5q-30 0 -30 43q0 34 3.5 75.5t11.5 91.5v-1q4 22 7 43.5t7 42.5q4 20 7 40.5t7 40.5l-1 -2q1 3 2 6.5t2 5.5h-1q2 9 5.5 22l8.5 33q7 25 10 42.5t3 33.5q0 39 -31 64l2 -1q-29 30 -67 30q-32 0 -50 -39q0 1 -1.5 -5.5 t-4 -16.5t-5.5 -20.5t-5 -18.5l1 3q-1 -1 -2 -4t-2 -5q-15 -75 -28 -147.5t-24 -147.5q-9 -63 -14 -108.5t-5 -75.5z" />
<glyph unicode="V" horiz-adv-x="616" d="M49 704q0 -11 19 -68l29.5 -94l22.5 -72q2 -9 5 -17t5 -16v1l20.5 -76l14.5 -54q28 -99 68 -184q46 -100 102 -100q6 0 13.5 2t19.5 6t19.5 8.5l12.5 7.5q19 19 27 30q18 24 34 51t31 59l5.5 16t8.5 21q5 15 13 34.5l18 45.5l41 109q14 37 22.5 61.5t12.5 38.5 q18 72 26 125.5t8 91.5q0 93 -61 93q-69 0 -88 -112l1 2l-14 -56t-11 -39q-7 -29 -16.5 -60.5t-23.5 -72.5l-5 -12.5t-8 -21.5q-5 -17 -13.5 -40.5l-19.5 -55.5l-18 -47l-9 -23q-21 -44 -23 -44q-7 0 -28 75l-13 45.5t-11 39.5q-4 12 -7 22.5l-6 21.5q-12 46 -21.5 76.5 t-15.5 47.5v-2q-15 61 -29 104.5t-27 72.5q-2 4 -5 8.5t-4 6.5q2 -2 2 0q-24 24 -51 24q-14 0 -27 -7t-23 -18t-16.5 -25.5t-6.5 -29.5z" />
<glyph unicode="W" horiz-adv-x="869" d="M57 665q0 -82 4 -161t12 -160q25 -232 74 -291q13 -12 34.5 -22t39.5 -10q38 0 99 91h-1q21 32 37 59l31 53q54 106 59 108q-2 -5 30 -64l44 -82.5t36 -58.5q59 -84 119 -84q53 0 101 94q8 14 17.5 39l23.5 61l4.5 13t5.5 14q9 28 16.5 47.5l13.5 34.5l2 4q11 42 18.5 76 t12.5 62v-1q5 26 6.5 57t1.5 69q0 203 -97 203q-66 0 -66 -73q0 -10 1 -29t3 -39t3 -37.5t1 -27.5q0 -30 -6 -57l1 1q-5 -20 -6.5 -29.5t-3.5 -17.5q-1 -5 -1.5 -8.5t-1.5 -7.5l-15 -69t-15 -63v1q-27 -90 -42 -90q-4 0 -23 28q-16 24 -24 49q-14 46 -23 78.5t-14 55.5 q-8 19 -7.5 23t-1.5 12l-4 18l-4 18l-14 44.5t-14 29.5q-23 32 -66 32q-36 0 -57 -38q-3 -7 -7 -13t-6 -12l1 1l-8 -20v1l-19 -37h3l-28 -57.5l-21.5 -43l-17 -32.5l-14.5 -26q-2 -7 -6 -13.5t-7 -13.5v1q-5 -9 -9.5 -19t-9.5 -20q-21 -40 -25 -40q-3 0 -4 20l-3 54 q-1 9 -1.5 15t-1.5 11v-3q0 2 -0.5 3t-0.5 3l-4 307q-3 16 -3 19q-19 79 -81 79q-71 0 -71 -119z" />
<glyph unicode="X" horiz-adv-x="677" d="M51 97q0 -27 23 -50q22 -27 50 -27q36 0 81 59l52 77l-1 -1q83 113 100 118q30 -6 68 -50h-1q15 -18 32.5 -35l36.5 -34h-1q10 -9 20 -17t19 -18l-2 1q60 -74 111 -74q13 0 33 8q9 21 13 40t4 36q0 18 -16 50q-2 2 -5.5 7t-4.5 5q-10 17 -22 26q-8 14 -39 44 q-15 10 -24.5 17.5t-19.5 17.5l-89 88h1l-13 14q12 24 94 112l10 12l-1 1l25 30.5t23 24.5l10 11.5t9 7.5q82 79 82 128q0 13 -3.5 27t-11.5 28q-20 31 -53 31q-58 0 -245 -226q-7 -8 -13 -16l-11 -15q-6 -7 -10.5 -13t-7.5 -9q-8 -8 -7 -8q-20 0 -54 75q-8 15 -13.5 29.5 t-12.5 30.5v-1q-5 14 -11.5 28.5l-12.5 28.5q-20 43 -32 66.5t-16 29.5q-29 33 -56 33q-61 0 -61 -79q0 -17 10 -47.5t30 -73.5l30 -59l30 -60q3 -2 18 -28q5 -8 10 -17l11 -19v1q29 -53 29 -56q0 -11 -54 -89v1l-40 -57t-35 -45l-20 -26.5t-13 -15.5l-7 -10 q-26 -40 -26 -68z" />
<glyph unicode="Y" horiz-adv-x="674" d="M50 741q0 -26 28 -90l19.5 -43.5t20.5 -37.5q47 -81 120 -137q12 -12 24 -18q1 -3 6 -5h-1q14 -11 14 -18l-60 -268v-7q0 -19 5.5 -34t14.5 -27q27 -31 59 -31q19 0 35 11q17 14 37 71q8 24 13 42.5t7 31.5q10 45 17 73t12 42q1 2 2 6.5t3 9.5v-1q3 14 12 40q8 32 18 53 v-1q53 114 212 267q10 11 17 18t11 13q8 8 10.5 19t2.5 25q0 76 -70 76q-36 0 -115 -77v1q-22 -21 -46 -48.5l-50 -58.5q-2 -4 -4 -6.5l-5 -6.5l-17 -23t-17 -24l1 1q-31 -41 -32 -41q-9 0 -43 36l-26.5 28.5t-21.5 26.5l1 -2l-14 27t-11 20l-3 4q4 -5 2.5 -2t-5.5 9t-8 13 t-5 10l2 -3q-2 5 -4 8l-4 6l1 -3l-27 67q-23 42 -66 42q-35 0 -53.5 -24.5t-18.5 -59.5z" />
<glyph unicode="Z" horiz-adv-x="669" d="M43 116q0 -36 34 -63q31 -25 67 -25q1 0 21 5l61 16q8 2 16 3.5t16 3.5h-1q20 5 36 9.5t29 7.5l-1 -1q65 14 140 18l35.5 2t34.5 3q18 2 36 2.5t37 2.5q2 0 5 0.5t6 0.5q13 1 27 3t24.5 9t17.5 20t7 36q0 96 -77 96h-6l-330 -40q3 11 20 34q7 8 12 15t10 15l5 7.5t6 9.5 q37 67 110 152q9 10 18 19t17 18l90 102l10 11.5t9 10.5l26 32.5t20 28.5v-1q28 44 28 64q0 54 -58 72q-12 5 -28.5 6.5t-38.5 1.5h-17l-183 -7q-6 -1 -11.5 -1.5t-10.5 -1.5h1q-6 -1 -10 -0.5t-12 -2.5q-19 -2 -33 -3t-24 -3h1q-11 -2 -18.5 -2.5t-10.5 -1.5 q-28 -5 -48.5 -10.5t-36.5 -12.5q-48 -26 -48 -83q0 -80 66 -80q5 0 19.5 4t37.5 12h-1q53 17 89 27t56 10l17 1l25.5 3.5t21.5 1.5q18 0 20 3q-1 -8 -70 -78q-40 -45 -77.5 -93.5t-72.5 -100.5l-37 -59.5l-31 -50.5q-11 -19 -21 -34l-18 -27q-54 -83 -54 -117z" />
<glyph unicode="[" horiz-adv-x="338" d="M49 717q0 -12 2 -26t10 -35l-1 1l9.5 -28l9.5 -28q3 -10 6.5 -19l6.5 -17l-1 1q1 -5 2.5 -7.5t1.5 -3.5q3 -23 5 -41.5t4 -32.5l3 -26v1q1 -20 1.5 -31.5t0.5 -15.5t-0.5 -9.5t-0.5 -15.5q0 -9 -0.5 -20t-0.5 -25v-17v-21q0 -4 -1.5 -13.5t-3.5 -24.5q-2 -11 -3.5 -23.5 t-3.5 -27.5q-5 -27 -7 -51t-3 -44v-7q0 -20 8.5 -35t26.5 -24q14 -6 30 -10t35 -8q15 -3 32 -3q6 -1 14 -1.5t16 -1.5q14 -2 22 -3t12 -1q30 0 55 28v-1q26 28 26 58q0 16 -7 30q-7 11 -16 19t-20 10q-7 3 -19 5t-32 4q-16 2 -26 2.5t-13 2.5h1q-2 1 -4 3.5t-2 3.5 q0 5 1 15.5t3 21.5q3 16 3 29q2 42 3.5 85.5t1.5 88.5q0 24 -0.5 39t-1.5 23q-4 35 -6.5 60.5l-4.5 44.5q-1 2 -1 7q-2 6 -4 13.5l-5 18.5v-1q-1 2 -1.5 4t-1.5 4q-2 10 -4 16l-3 9l19 3.5t15 1.5q5 1 10.5 2l11.5 2q15 2 31 4.5t30 11.5l-1 -1q44 23 44 61q0 29 -22 48 q-12 9 -44 9h-115q-5 -1 -10 -1h-25q-98 0 -98 -90zM203 667v1h1z" />
<glyph unicode="\" horiz-adv-x="539" d="M48 722q0 -28 13 -49l11.5 -16.5t10.5 -15.5h-1q11 -15 19.5 -28.5t15.5 -23.5v1l63 -91.5l49 -69.5v1q5 -7 9 -14t8 -12v1l50 -78.5t27 -45.5l42.5 -82t39.5 -69l22 -36t10 -18q30 -60 59 -60q24 0 56 34q28 33 28 59q0 31 -200 369l-23.5 34.5t-17.5 23.5l1 -1 l-45.5 64t-33.5 45l-8 13t-13 22q-5 7 -9.5 15t-10.5 17l-24 39t-22 29q-22 26 -38 26q-88 0 -88 -83z" />
<glyph unicode="]" horiz-adv-x="338" d="M68 115q0 -36 22 -65q24 -30 60 -30v38q39 0 70.5 -2t44.5 -5.5t3 -8.5t-53 -12l52 8q22 5 35 9t21 12v-1q22 22 22 42q0 12 -1 17l-5.5 52t-4.5 45l-5.5 48l-4.5 39q-1 3 -1 6v22q-3 57 -3 78q0 38 4 74t11 72q2 8 8.5 27.5l17.5 51.5q11 29 16 50.5t5 32.5 q0 51 -19.5 67t-67.5 16q-11 0 -29.5 1.5l-44.5 3.5h2h-11q-5 0 -10 1l-58 8q-7 0 -13 0.5t-9 0.5h-3q-15 0 -48 -27q0 -46 14 -72t47 -36h-1q11 -5 54 -8q31 0 39 -5h3l-7 -25v1q-5 -15 -7.5 -25.5t-3.5 -15.5l-8 -74q-6 -53 -6 -72q0 -96 2 -157t7 -93v2q1 -7 1 -13 q0 -5 1 -6v-1q0 -5 -8 -7q-22 -4 -39 -6.5l-31 -4.5q-5 -1 -9 -1.5t-7 -1.5q-15 -5 -29.5 -20.5t-14.5 -29.5z" />
<glyph unicode="^" horiz-adv-x="606" d="M95 673q0 -18 11 -32q11 -18 28.5 -27t38.5 -9q13 0 27 4t26 13q23 14 37 24t28 19l17.5 11l21.5 14q21 -2 37 -5t30 -7.5t28.5 -10.5t31.5 -14q10 -6 24 -12h-1q12 -5 23.5 -9t25.5 -4q20 0 46 12q18 8 25.5 23t7.5 32q0 11 -4 24t-11 24q-8 12 -17 17t-19 10 q-4 2 -9.5 4.5l-5.5 2.5q-19 11 -29 15t-22 6h1l-17 5t-30 11q-23 11 -54.5 23t-58.5 14h2h-17q-25 0 -42.5 -11t-26.5 -39q-2 -2 -5 -3q-3 -2 -7.5 -4t-11.5 -7l2 1q-16 -9 -25 -13t-16 -6q-8 -4 -17 -8t-27 -15q-19 -11 -32.5 -30.5t-13.5 -42.5z" />
<glyph unicode="_" horiz-adv-x="477" d="M51 5q0 -42 27.5 -65t77.5 -23h78h23l95.5 5.5t74.5 5.5q22 2 27 3h-1q23 3 40 33q9 21 9 38q0 49 -71 58q-3 2 -11 2h-13l-129 -10q-16 -1 -25 -1.5t-15 -1t-10.5 -1t-12.5 -0.5h-115q-16 0 -34 -15q-15 -17 -15 -28z" />
<glyph unicode="`" horiz-adv-x="216" d="M33 682q0 -7 2 -16.5t8 -20.5q12 -22 22 -38.5l17 -27.5q2 -5 4 -8.5t4 -6.5v1q1 -6 5 -10q1 -5 2 -8t3 -6q0 -2 8 -15h-1q13 -25 22.5 -41t15.5 -25q20 -23 48 -23q50 0 50 53q0 42 -51 137l1 -1l-33 66q-32 54 -66 54q-25 0 -43 -19t-18 -45z" />
<glyph unicode="a" horiz-adv-x="589" d="M47 95q0 -33 27 -51l-2 1q20 -17 49 -17q36 0 50 23q14 27 19 46v-1l29 85q5 18 8.5 27t5.5 11q4 11 22 19l-2 -1l3 0.5t8 1.5q6 2 14 4t17 5l35.5 12t34.5 11q34 11 57 14l2 -4q4 -11 6 -20t4 -16q1 -2 1.5 -5.5t1.5 -4.5q5 -20 8.5 -36l6.5 -30l5.5 -22l4.5 -18 l10.5 -46.5t3.5 -17.5q16 -43 83 -43q60 0 60 60q0 16 -2 33t-8 36q-2 5 -3 10t-2 9q-4 12 -7 22.5l-6 21.5v-1q-7 23 -12.5 52l-8.5 44q-1 0 -1 3q5 7 7.5 10t7.5 7l7 8q12 19 12 48q0 10 -2 15q-7 16 -18 25t-27 14l2 -1q-20 9 -25 14l-7 27t-8 33l-46 178l-3 12 q-8 29 -12 45.5t-6 20.5q-23 50 -72 50q-12 0 -29 -7h1q-11 -3 -17 -8t-11 -12l-8 -14l-7 -12l1 1q-3 -5 -5.5 -10l-4.5 -9q-23 -40 -40 -76t-30 -70q-36 -96 -65 -164q-21 -51 -37.5 -95.5t-27.5 -80.5v1q-5 -11 -8 -21t-7 -20t-7 -20.5t-7 -20.5v1q-23 -55 -23 -86z M304 408q2 7 10 29t20 59q6 17 11.5 30.5t10.5 23.5q2 -9 4.5 -21.5t6.5 -29.5q5 -21 8 -37l5 -27q0 -4 2 -10q-4 -2 -9 -4t-13 -4h1l-45 -10l3 1h-15z" />
<glyph unicode="b" horiz-adv-x="644" d="M58 120q0 -54 85 -78h-1q60 -18 111 -18q31 0 62 4.5t70 12.5q57 14 104.5 33.5t87.5 43.5q108 72 108 173q0 45 -31 98h1q-26 48 -62 80h1l-22 21l-7 7l11 12q12 13 17.5 20.5t10.5 15.5q7 29 11 54t4 45q0 29 -6.5 51t-21.5 38v-1q-44 50 -105 65h1q-6 2 -26 6t-54 9 t-54 7t-32 2q-77 0 -127 -8t-76 -37q-7 -7 -14 -17.5t-12 -27.5q-1 -3 -1 -9v-10q0 -9 2.5 -17.5t6.5 -16.5q2 -4 3 -7q-2 -23 -3 -47t-1 -50v-109q0 -4 0.5 -9.5t0.5 -10.5q1 -6 1 -12v-10v-125v-32q0 -11 1 -17q1 -17 1.5 -27.5t0.5 -14.5v-3q0 -24 -15 -33 q-31 -19 -31 -51zM249.5 351.5q-0.5 3.5 0.5 6.5q3 2 7.5 3.5t9.5 3.5l21 7l-2 -1q11 2 20.5 4.5l16.5 4.5t12 3t8 2l-2 -1q6 1 17.5 4t30.5 11l14 6q20 8 31 13l11 5q4 0 62 -64v1q26 -29 26 -51q0 -24 -35 -56l1 1q-20 -16 -40.5 -27.5t-44.5 -19.5q-14 -5 -32.5 -9 t-44.5 -9q-45 -9 -70 -9h-7q-5 30 -7 62t-2 68v16q0 5 -0.5 9.5t-0.5 7.5q0 5 -0.5 8.5zM251 550v9q0 50 2.5 78.5t9.5 36.5q5 3 10 4t9 2h1q15 1 23.5 2t14.5 1.5t11 1t14 1.5q126 0 126 -47q0 -24 -66 -76q-11 -10 -28.5 -17.5t-41.5 -14.5q-23 -7 -42 -10.5t-36 -3.5h-4 q0 5 -0.5 9t-1.5 10v-1v6q-1 5 -1 9z" />
<glyph unicode="c" horiz-adv-x="635" d="M51 257q0 -68 17 -105v1q19 -44 70 -83q53 -44 156 -44q14 0 42 5.5t72 18.5q16 5 28 11t26 16q206 110 206 191q0 32 -19 51.5t-51 19.5q-16 0 -31 -6t-30 -17h1q-9 -6 -16 -11.5t-12 -10.5v1l-31.5 -25t-29.5 -21l-56 -35t-36 -19q-23 -11 -44.5 -17.5t-41.5 -6.5 q-40 0 -62 25h1q-20 26 -20 69q0 40 21 85l3 4.5t3 6.5q5 10 15.5 29l27.5 48q44 82 93 140q67 81 115 81q9 0 12 -12q1 -6 2.5 -13.5t5.5 -18.5q2 -5 2.5 -10.5t2.5 -10.5q7 -20 19.5 -30t29.5 -10q61 0 61 97q0 37 -5 64t-13 47q-30 59 -102 59q-59 0 -111 -35h1 q-12 -7 -25 -18.5t-30 -28.5v1q-14 -13 -26.5 -26.5l-22.5 -24.5q-50 -60 -81 -103t-48 -72l-30.5 -59.5l-22.5 -43.5l1 1q-17 -31 -27 -76q-10 -41 -10 -79z" />
<glyph unicode="d" horiz-adv-x="605" d="M58 126q0 -57 25 -80.5t81 -23.5q13 0 28.5 4.5t31.5 14.5l9.5 5t17.5 8q6 3 12 6.5t12 7.5l-3 -1l66.5 29t44.5 23v-1q259 142 259 347q0 117 -28 168q-19 29 -36 50t-33 35q-20 18 -43.5 30.5t-47.5 23.5l-21.5 6l-20.5 6q-13 4 -25 7t-25 8h1q-7 2 -16.5 4t-21.5 3 q-21 3 -31 7q-17 5 -41 8.5t-56 3.5q-85 0 -85 -63v-16q0 -10 0.5 -19t1.5 -17q1 -7 1 -12v-6q0 -14 -1 -29.5t-3 -37.5q-2 -16 -2 -28q0 -11 -1 -20q-1 -6 -1.5 -10.5t-0.5 -10.5v-14t-1 -13q-2 -20 -3 -35.5t-3 -24.5q-2 -14 -5 -28.5t-5 -27.5l1 1q-1 -2 -1.5 -6t-1.5 -6 l-7 -68.5t-5 -55.5q-2 -17 -3.5 -32t-3.5 -27l-7 -63q-3 -26 -3 -30zM213 209q1 0 1 5q0 6 3 38v-1q1 5 1 11q0 7 1 13q2 23 3 39t2 27q4 11 4 12v3v1q0 2 1 4q3 29 4.5 50t2.5 38q1 5 1 10v11q2 21 4.5 43t7.5 45q2 8 2.5 16t1.5 14q0 3 1 8.5t1 6.5q2 6 2.5 9.5t0.5 6.5 q2 10 2.5 13.5t0.5 4.5v2v3q0 2 0.5 4.5t0.5 4.5q1 2 1.5 4.5t1.5 4.5v1h1q104 0 158 -30q67 -40 67 -139q-3 -14 -3 -17q0 -2 -2 -9v-3q0 -2 -0.5 -2.5t-0.5 -1.5v3q-4 -26 -8 -36q-23 -62 -94 -125q-60 -48 -138 -82q-26 -10 -32 -10zM253 597q0 1 1 2zM261 647v3v-3z" />
<glyph unicode="e" horiz-adv-x="667" d="M51 164q0 -25 7.5 -49t22.5 -43.5t37 -32t51 -13.5h-1q9 -1 19 -1.5t19 -0.5q29 0 55 6q69 15 135.5 27t135.5 12h20q12 0 23 0.5t22 1.5h-1q4 0 12.5 0.5t15.5 1t9.5 1t-5.5 0.5q26 7 46.5 25.5t22.5 45.5v9q0 27 -14 50.5t-41 34.5q-23 -4 -43 -6t-37 -2h-12 q-13 -1 -25.5 -1.5t-26.5 -1.5q-11 -1 -23 -1q-11 0 -23 -1q-16 -3 -32 -6.5t-32 -7.5q-28 -5 -55 -10.5t-53 -8.5q-3 -1 -7 -1q-5 0 -10 -0.5t-9 -0.5q-5 0 -11 0.5t-14 1.5l3 -1q-18 5 -18 13v0q0 1 1 2q2 4 2.5 7.5t0.5 8.5v17q0 16 1.5 33t3.5 34l3 34q0 9 3.5 19.5 t12.5 12.5q11 1 18.5 2t14.5 3q8 2 15 3t16 3q8 2 16.5 3.5t16.5 2.5q21 5 41.5 8.5t40.5 3.5q5 0 9 -0.5t8 -0.5q17 0 35 -0.5t35 -2.5h5q21 0 41 12t21 38l-1 -1q2 4 2 7v7q0 24 -13 42t-33 26q-13 3 -22.5 5t-18.5 2l2 -1q-20 5 -39.5 7t-36.5 2q-34 0 -66.5 -4t-64.5 -9 h1q-11 -1 -20.5 -2.5t-20.5 -3.5v6q2 4 2 7v7q0 5 -1 8q0 9 0.5 17t1.5 18l2 6l1 13v4q8 1 14 3.5t12 6.5q16 7 33 10t34 5q14 3 30.5 4.5t34.5 2.5q23 5 43.5 6t40.5 1h9q26 0 52 2t58 16q15 22 15 44q0 15 -5 30t-14 29t-21 25.5t-26 18.5l1 -1q-17 10 -40 10 q-6 0 -11 -0.5t-10 -1.5q-7 -2 -12.5 -2.5t-11.5 -0.5q-15 0 -27 -3h3q-33 -2 -64.5 -6.5t-66.5 -14.5h1q-19 -4 -36.5 -7l-36.5 -6q-8 -3 -17 -5.5t-17 -4.5l1 1q-20 -4 -43 -12h-2q-16 0 -32 -4.5t-28.5 -13.5t-20.5 -22.5t-8 -30.5v-14q1 -11 1.5 -21t0.5 -23v-120 q1 -6 1 -12v-11v-26q0 -24 -3 -48q-2 -28 -5.5 -55t-8.5 -56v1q-5 -28 -8 -56l-6 -57v2q-3 -12 -3 -30zM242 525v1v-1z" />
<glyph unicode="f" horiz-adv-x="556" d="M40 651l12 -37q10 -6 17.5 -8t15.5 -3q10 -8 10 -14q0 -41 -0.5 -69t-1.5 -48q-3 -6 -7 -13t-12 -14q-7 -17 -10 -31t-3 -23q0 -16 10 -37q1 -3 1 -7t1 -7v1q1 -9 1.5 -15.5t3.5 -14.5q0 -2 0.5 -4t0.5 -5t-0.5 -7t-0.5 -7v2q-3 -33 -3 -50v-110q-1 -5 -1 -12v-7 q0 -19 1 -24q-1 -5 -1 -10v-7q0 -32 29 -41h-1q26 -10 53 -10q10 0 16 1t9 7q19 16 26 58q3 25 5 54t4 66q6 114 6 119q0 10 12 15q16 5 44 10.5t67 11.5l71.5 10.5t48.5 10.5l-2 -1l53 12q39 16 39 61q0 69 -84 69q-5 0 -21.5 -1.5t-44.5 -6.5q-62 -7 -94 -13 q-8 -2 -15 -2.5t-14 -1.5q-14 -4 -21 -7h-13v24q0 10 -0.5 18.5t-0.5 16.5q0 34 3.5 51t12.5 23h-1q7 5 20 8.5l33 8.5l20 4l20 4l14.5 3.5t10.5 2.5q54 12 92 19.5l65 12.5q31 7 43 21.5t12 46.5q0 70 -72 70q-43 0 -103 -7.5t-139 -25.5q-93 -20 -148 -40.5t-72 -39.5 q-17 -23 -17 -61z" />
<glyph unicode="g" horiz-adv-x="760" d="M52 291q0 -85 37 -147q44 -72 117 -101q17 -9 35.5 -11.5t38.5 -2.5h15q11 0 28 2q29 3 42 4t18 2q18 5 25 7.5t12 4.5q2 1 3.5 1.5t3.5 1.5l-2 -2q17 5 30 8q4 1 10.5 3t9.5 3q14 5 36.5 18l53.5 32q55 37 95 75.5t67 80.5q10 16 17 35.5t14 43.5q5 26 7.5 45.5 t2.5 39.5q0 60 -18 84l1 -1q-22 34 -83 34q-11 0 -32 -3.5t-50 -11.5q-41 -10 -76 -21.5t-65 -23.5q-107 -44 -107 -103q0 -28 20 -53q22 -27 50 -27q11 0 30.5 5.5t51.5 19.5l-1 -1l19 7.5t20 6.5q9 4 19 7.5t21 8.5l-1 -1q14 4 21.5 7t9.5 4q-5 -12 -48 -60v1 q-117 -124 -276 -124q-33 0 -54 33h1q-22 33 -22 69q0 37 33 109q14 30 46 69t83 88q106 100 155 100q19 0 36 -17q13 -14 23 -19.5t16 -5.5q46 0 46 74q0 57 -22 85l1 -1q-28 43 -78 43q-30 0 -57.5 -8t-52.5 -20t-48 -27.5l-44 -30.5v1l-11 -8.5t-11 -7.5 q-140 -103 -217 -270v1q-45 -92 -45 -155z" />
<glyph unicode="h" horiz-adv-x="543" d="M47 181q0 -18 1 -32.5t3 -26.5q-1 -5 -1.5 -9t-0.5 -9q0 -26 15 -48q34 -30 71 -30q69 0 76 124v7q1 10 1.5 21t0.5 24q0 8 -0.5 17t-1.5 20q0 11 -0.5 21.5t-0.5 18.5q0 28 3 46q1 32 8 34q18 3 28 3q11 2 18.5 2.5t14.5 1.5q2 0 4 0.5t4 0.5l99 9q4 -7 4 -26v-12 l-1 -19v-3l2 8q-2 -5 -2 -9v-5t-1 -5v-19q-1 -5 -1 -11v-11q0 -9 -1 -12l-2 -42v-14q0 -4 -1 -7q0 -2 -0.5 -6.5t-0.5 -6.5v-4q-3 -38 -3 -64q0 -11 0.5 -20.5t1.5 -16.5q7 -35 31 -48q21 -12 46 -12q44 0 63 41q1 5 2.5 10.5t2.5 8.5v0q0 1 3 4l46 627q0 5 0.5 9.5t0.5 8.5 q0 100 -84 100q-16 0 -30 -5q-8 -4 -15.5 -10.5t-16.5 -15.5h1q-10 -10 -15.5 -18.5t-7.5 -13.5l-7 -99v-20q-1 -5 -1 -13v-40q0 -9 -1 -14q-2 -30 -8 -36q-1 -3 -48 -7q-13 -2 -24.5 -2.5t-21.5 -2.5h1q-20 -2 -36 -4t-24 -2q-13 0 -17 1v4l11 169v7q0 15 -3 30.5t-12 30.5 l1 -1q-22 43 -63 43q-79 0 -89 -162q0 -5 -0.5 -13.5t-1.5 -19.5q-2 -23 -3.5 -56.5l-3.5 -78.5v-38v-31q-2 -75 -9 -153q-2 -19 -3 -35.5t-1 -32.5zM221 519v1l1 -1h-1z" />
<glyph unicode="i" horiz-adv-x="637" d="M42 70q0 -24 10.5 -40t30.5 -20q4 0 6 -1h-2q27 -6 44 -6t34.5 2.5t49.5 7.5q2 1 10 3l-1 -1l55 9.5t49 7.5q165 27 184 29q42 5 67.5 10t38.5 8h-1q5 1 11 1.5t8 0.5q23 40 23 68q0 45 -51 76q-29 -4 -52 -7.5t-34 -5.5q-6 -1 -11 -1t-3 0q-6 -1 -15 -1.5t-20 -0.5 q-27 0 -43 -6q-1 0 -1 6v4l31 299q1 4 1 11v7q0 82 13 111l32.5 5t48.5 8q4 1 7.5 2t8.5 2q93 0 93 68q0 30 -39 75l-69 6q-22 -2 -42 -3t-36 -3q-71 -5 -82 -7h1q-13 -2 -24 -2.5t-22 -1.5l-34 -3h1q-14 -1 -27.5 -2.5t-25.5 -5.5l1 1q-13 -2 -27.5 -4.5t-28.5 -4.5 q-6 -2 -12.5 -3t-11.5 -3l1 1q-59 -9 -88.5 -27t-29.5 -54q0 -77 99 -77q3 0 11 1t22 3q22 2 39 5l28 5h-3q2 0 3 0.5t3 0.5q4 1 9 1h10t22 2v-32q0 -34 -3 -74.5t-8 -86.5v1l-20 -163v1q0 4 -0.5 1t-1 -8t-1 -11.5t-0.5 -10.5l-3 -26q-2 -14 -6 -22.5t-9 -13.5l2 1 q-11 -8 -34 -12q-4 -1 -14.5 -3t-30.5 -5l-25.5 -5.5t-23.5 -5.5l1 1q-20 -3 -32.5 -6t-23.5 -8q-36 -16 -36 -57q0 -3 -0.5 -6t-0.5 -5z" />
<glyph unicode="j" horiz-adv-x="785" d="M42 280q0 -75 130 -155q106 -68 183 -87q29 -8 49.5 -11t32.5 -3q60 0 113 23q61 28 88 80h-1q7 10 12 25v-1v1l0.5 0.5t2 4l5.5 12.5q1 8 3 16.5t6 20.5q9 41 14 92t5 113l-0.5 7t-1.5 14q-1 8 -1.5 16.5t-2.5 21.5q-3 9 -4.5 20t-3.5 23q-2 11 -3 21.5t-3 21.5v-1 q-4 25 -6 45t-2 36v19q0 12 37 12h21q3 0 8 -0.5t10 -1.5h-1q8 -2 13.5 -2.5t9.5 -1.5l-1 1q6 -2 7 -2h3q13 0 20 10q14 13 21 30t7 43q0 78 -131 78h-16h-6q-2 0 -7 -2h-18l-176 -3q-14 -2 -24.5 -2.5t-18.5 -1.5h1q-3 0 -7.5 -0.5t-6.5 -0.5q-15 -2 -27 -2t-22 -1h1 q-5 0 -11 -0.5t-9 -0.5q-27 -4 -47 -11q-30 -6 -51.5 -12t-33.5 -13q-51 -27 -51 -84q0 -33 32 -51l-2 1q19 -13 49 -13q8 0 31 3t64 10q32 5 63.5 8t62.5 3q25 0 34 -15q8 -11 25 -105q8 -46 11 -75t3 -44q0 -36 -1 -62.5t-4 -44.5q-6 -55 -31 -77.5t-76 -22.5 q-40 0 -91 21q-45 19 -84 50l-27.5 26l-27.5 27h1q-41 36 -80 36q-29 0 -48 -33q-13 -23 -13 -49z" />
<glyph unicode="k" horiz-adv-x="707" d="M49 127q0 -15 2 -30t8 -30q4 -12 10.5 -18.5t16.5 -11.5l-2 2q1 -1 2 -1.5t2 -1.5q9 -7 16.5 -9.5t15.5 -4.5q2 -1 4 -1t3 -1q1 0 5.5 0.5t5.5 0.5q11 2 19 4.5t18 9.5q8 5 15 10.5t17 12.5q7 10 9.5 20t4.5 21q1 5 2.5 11.5t3.5 12.5q1 6 1.5 12t0.5 13v12q0 8 1 12 q0 17 0.5 33t1.5 32q0 8 0.5 14.5t0.5 14.5q1 5 1 13v27q3 17 16.5 28.5t30.5 12.5q24 -12 42.5 -33l36.5 -42q5 -7 10.5 -13t10.5 -12l28 -37l28 -36l25 -31l24 -31q5 -5 9 -10.5t9 -11.5q20 -27 43 -51.5t49 -24.5q8 0 18 5q1 0 1.5 -0.5l0.5 -0.5q23 0 40.5 14.5 t19.5 38.5q4 11 6.5 20.5t2.5 17.5q0 25 -11 47t-24 42l-12 18.5t-7 12.5q-47 43 -81.5 86.5t-69.5 93.5l1 -1q-2 5 -5 9.5t-6 9.5l-12 19.5t-5 18.5v-3q1 4 3.5 7.5l4.5 6.5q2 2 4 3.5t4 3.5l15 11.5l14 10.5l16 12.5l17 13.5q3 2 6.5 5t6.5 5l73 58.5t71 64.5q17 15 32 32 t17 43v12q0 25 -17 47l1 -2q-1 1 -3 5l-21 22t-29 10h-4q-32 -5 -57 -25l-39.5 -32.5l-38.5 -33.5l-8.5 -7t-7.5 -7l-92.5 -74l-95.5 -71l1 1l-17 -13l-14 -10t-13 -10l1 1q-20 -13 -39 -17h-1q-4 0 -4 6v4q2 33 7 65.5t12 62.5v-1q2 5 2 8v6q0 1 2 7l4 22v7q0 19 -9 37 t-23.5 32.5t-32.5 23.5t-37 9h-4q-37 0 -56 -35q-14 -25 -17 -55t-4 -60q-1 -20 -2.5 -38.5t-6.5 -35.5q0 -155 -15 -315v2q-2 -10 -2.5 -21.5t-0.5 -23.5q0 -13 -1 -28.5t-6 -32.5v-54z" />
<glyph unicode="l" horiz-adv-x="617" d="M50 194q0 -41 9 -71t26 -51q20 -23 50.5 -34t69.5 -11q17 0 40.5 3.5t57.5 11.5l35.5 11.5t39.5 14.5l19 7.5t18 7.5l16.5 6.5t16.5 7.5l37 16t31 14q13 5 23 9.5l19 8.5q13 7 25.5 12.5t26.5 10.5q41 24 41 62q0 31 -16 56q-22 33 -55 33q-16 0 -91 -34q-17 -8 -31 -14 t-27 -11l-22.5 -9t-18.5 -8l1 1q-11 -5 -21 -8.5t-21 -6.5q-11 -4 -21 -8t-21 -8q-48 -14 -81 -14q1 0 -3 15l1 -1l-3 11l81 490l1 3v9q0 36 -24 65q-29 32 -66 32q-39 0 -57 -33q-6 -8 -11.5 -21.5t-8.5 -32.5l1 1q-1 -3 -2 -7t-2 -6q-2 -11 -4 -20.5t-4 -20.5l1 2 l-7.5 -35t-7.5 -32q-6 -31 -12 -59t-11 -47q-19 -109 -28.5 -185.5t-9.5 -132.5z" />
<glyph unicode="m" horiz-adv-x="673" d="M50 120q0 -36 13 -62v1q16 -41 57 -41q3 0 10 1t21 8t21.5 11.5t11.5 11.5q5 30 7 57.5t3 56.5q5 29 8.5 64t7.5 79l5 86l3 33.5t1 15.5q1 -8 21 -52h-1q18 -48 30.5 -78t22.5 -47l-1 1q39 -76 81 -76q29 0 48 31v-1l19 30t13 23l15.5 28l15.5 28l19 33l17 31l15 28.5 t11 19.5v-11v-19q0 -10 0.5 -22.5t1.5 -23.5q1 -8 1 -14v-8v-151l-1 -2v-13q0 -145 86 -145q29 0 46 19t17 48q0 2 -0.5 10t-1.5 22v-1q-2 20 -3 40l-2 40q-1 14 -1.5 26.5t-1.5 26.5q0 16 -0.5 31.5t-0.5 32.5q-1 30 -1.5 60.5t-0.5 60.5q-1 59 -2.5 105t-6.5 84 q-1 7 -4.5 20t-8 27.5t-9 26.5t-7.5 18q-7 10 -16.5 19t-21.5 19q-31 22 -52 22q-31 0 -56 -43l-18 -46.5l-12 -32.5q-70 -198 -82 -202q3 0 -1 19l1 -2q-1 4 -1.5 5.5l-1.5 4.5q-3 10 -6 18.5t-3 11.5q-4 14 -9 28.5l-9 25.5l-12.5 40.5t-10.5 31.5l-28 76t-20 42 q-38 51 -96 51q-32 0 -48 -39q-13 -42 -13 -49q-9 -39 -14.5 -69l-9.5 -51q0 -2 -0.5 -4.5t-0.5 -4.5l-3.5 -38t-3.5 -28q-12 -75 -20 -155t-16 -172q0 -11 -6 -41l-3.5 -25t-1.5 -21z" />
<glyph unicode="n" horiz-adv-x="642" d="M48 433q0 -13 3 -65q2 -40 4.5 -72t5.5 -57q0 -20 0.5 -38.5t1.5 -38.5q-3 -26 -3 -45q0 -20 3 -35q9 -29 48 -53q20 -2 36.5 -2.5t22.5 -0.5q31 0 48 33l-1 -1q12 18 12 40v5q0 4 -2 9l1 -1l-8 100l-1.5 20t-1 11.5t-1 8.5t-0.5 10v99q1 5 1 12v29q0 6 -1 8q3 -3 6 -6.5 l7 -8.5q2 -2 2 -5l-1 2q1 -2 1 -3l2 -2l-1 -1q1 -2 1 -3t2 -3q0 -9 7 -9q2 -4 3 -4l26.5 -40.5t19.5 -31.5l18.5 -23t13.5 -16q7 -10 11.5 -18t9.5 -16l-1 1l8.5 -13l9.5 -15q17 -23 41.5 -48.5t58.5 -54.5q84 -69 127 -69q34 0 52 32q9 19 15 116q2 36 3 64.5t1 48.5v34 t-0.5 29.5t-1 41t-1.5 68.5q0 15 -0.5 25.5t-1.5 15.5q0 8 -0.5 15t-0.5 15q-1 15 -1 27v21q-2 57 -6.5 98t-10.5 68q-11 35 -37 54q-30 27 -59 27q-32 0 -49 -19t-17 -51v-9l21 -263v-10q0 -24 -3 -85q-1 -29 -2 -49.5t-3 -31.5q-7 6 -23 29l-44 63h1l-18 27l-18 27 l-24.5 35.5l-25.5 36.5v-1q-17 23 -35.5 62t-40.5 93l1 -1q-16 41 -26.5 63.5t-18.5 34.5q-27 38 -79 38q-63 0 -72 -80q0 -3 -1 -8q0 -2 -0.5 -4.5t-0.5 -4.5v1q-3 -12 -3 -24v-81q0 -3 -3 -49l-4 -86q-3 -38 -3 -42zM255 404v3l3 -1zM484 292q0 3 1 4q-1 -2 -1 -4z" />
<glyph unicode="o" horiz-adv-x="803" d="M56 309q0 -31 14 -81q13 -38 26 -60.5t25 -30.5q8 -11 17.5 -20t21.5 -18q6 -4 56 -29l13 -5.5l11 -4.5q12 -5 20.5 -8t16.5 -5v1q67 -18 94 -18q94 0 152 23l21 11.5t18 8.5q6 4 12.5 6.5t11.5 5.5q26 11 46.5 24t37.5 27q69 60 107 157l-1 -1q21 49 30 95t9 94 q0 23 -11 69q-1 2 -2 8t-3 14q-1 5 -3.5 13l-5.5 18l1 -2q-5 23 -13 42.5t-19 38.5q-19 32 -42.5 57.5t-55.5 45.5q-67 43 -135 43q-4 0 -13 -0.5t-15 -1.5q-14 -3 -16 -3q-82 0 -207 -88q-43 -30 -84 -82.5t-85 -133.5q-14 -26 -23 -52.5t-14 -53.5q-5 -24 -6.5 -41 t-1.5 -26q-5 -20 -5 -37zM218 351q0 29 12.5 60.5t36.5 69.5q25 38 54 67.5t63 56.5q67 51 123 51q68 0 110 -62q41 -61 41 -135q0 -77 -49 -150q-49 -76 -118 -103q-33 -17 -95 -17q-4 0 -14 1t-24 3l1 -1q-38 9 -64.5 20.5t-41.5 28.5q-35 35 -35 110z" />
<glyph unicode="p" horiz-adv-x="566" d="M48 715q0 -13 4.5 -23t12.5 -20t12 -17.5t6.5 -15t3 -16.5t0.5 -21q0 -5 0.5 -9.5t0.5 -9.5v-14q0 -7 -1 -18q0 -3 -0.5 -6.5t-0.5 -7.5v3q-2 -17 -3 -27.5t-1 -20.5l-9 -372v-7q0 -89 77 -89q49 0 59 60q2 19 2.5 37t1.5 35q0 5 1 13l3 23v-1q2 11 3 21.5t1 19.5 q0 17 1 27t3 14q2 5 38 17h-1l28 9q7 2 14 4.5t15 4.5q21 8 45.5 20t52.5 30l14 9v-1q6 4 11.5 7t12.5 9q11 8 18.5 14.5t12.5 11.5q23 21 41.5 44.5t33.5 51.5q36 64 36 117q0 16 -1 30.5t-4 27.5q-8 31 -29 55l2 -2q-34 51 -137 73l1 -1q-35 8 -72.5 11.5t-78.5 3.5 q-61 0 -128 -18q-102 -27 -102 -86zM224 445q0 174 10 198q16 15 110 15q104 0 104 -44q0 -23 -17.5 -49t-52.5 -54q-29 -21 -60.5 -40t-66.5 -33q-20 -9 -25 -9q-2 0 -2 16zM233 641v0q0 1 1 1z" />
<glyph unicode="q" horiz-adv-x="809" d="M52 303q0 -53 9.5 -93t27.5 -69q42 -57 131 -93h-1q17 -8 33.5 -13t28.5 -7q16 -3 25 -4t15 -2t10 -1t12 -1q45 0 96.5 11.5t108.5 34.5q3 -5 39 -43v1q48 -57 88 -57q29 0 47.5 21t18.5 50q0 41 -32 88q-28 42 -28 46q0 2 5.5 9l16.5 22q5 5 8.5 9.5t6.5 9.5q5 6 9 12 t9 12q27 38 45.5 74.5t29.5 78.5v-1q12 37 17 63t5 41v22q0 24 -6 48q-8 25 -12 42q-3 13 -4 20.5t-3 9.5q-9 17 -16 28l-12 19v2q-43 64 -109 99l1 -1q-33 20 -66.5 28.5t-67.5 8.5q-26 0 -53 -4t-56 -15h1q-33 -9 -58 -20t-43 -24q-108 -72 -188 -196q-89 -139 -89 -266z M206 295q0 64 74 173q67 104 126 143q76 48 158 48q56 0 85 -36.5t29 -97.5q0 -27 -3.5 -50.5t-12.5 -45.5q-3 -10 -9 -23t-17 -29q-5 -8 -9.5 -14t-6.5 -9v8q-2 7 -3 11.5t-1 9.5q-3 13 -5.5 22.5t-7.5 17.5l1 -2q-20 40 -69 40h-15q-60 0 -60 -97q0 -11 0.5 -24.5 t2.5 -32.5q3 -18 4 -30t1 -20q0 -7 -0.5 -13t-1.5 -11q-4 -16 -50 -29q-23 -7 -41.5 -10.5t-33.5 -3.5q-57 0 -94 25q-41 27 -41 80z" />
<glyph unicode="r" horiz-adv-x="619" d="M52 694q0 -28 17 -54q6 -8 10 -19q4 -6 6 -10t4 -6q7 -20 11 -66t4 -119q0 -155 -6 -212q-2 -15 -12 -83v1q-4 -20 -4 -40q0 -24 7.5 -40.5t23.5 -22.5q12 -5 22.5 -8.5t20.5 -3.5q9 0 18 3l-1 -1q28 6 44.5 22.5t21.5 27.5q2 5 3.5 12.5t4.5 15.5q6 25 8.5 43.5 t4.5 36.5q1 3 1 6t1 7q3 30 5 44.5t4 22.5q0 1 0.5 3.5t0.5 7.5q1 5 1 12q0 8 2 19q1 5 1 8t1 7q2 16 1 15q4 6 12 6t16 -1.5t14 -3.5q11 -5 23.5 -21t26.5 -40q2 -3 7.5 -14.5l14.5 -30.5v1q4 -8 7.5 -17t8.5 -19q3 -6 7 -12q6 -12 11 -23t9 -15l-1 3q6 -15 11 -25l-1 1 q2 -6 3.5 -9.5t2.5 -6.5q36 -76 98 -76q48 6 67 31l6 27q7 8 7 22q0 15 -10.5 49t-33.5 88l-48.5 77t-31.5 47q-8 11 -13 19t-8 14q-1 2 -2 2.5t-1 1.5q3 2 12 11t25 23l10 11l23 23.5t20.5 23.5t24 31.5l32.5 46.5l20 82v3q0 58 -63 106l1 -1q-52 46 -108 54l2 -1 q-23 5 -47.5 6.5t-56.5 1.5q-72 0 -134.5 -9.5t-117.5 -30.5q4 2 -4 -1t-12 -4h1q-8 -2 -13 -5.5t-10 -6.5l2 1q-35 -19 -35 -69zM251 592q0 42 5 52v-1q2 6 60 15q8 2 19.5 4l27.5 5q18 4 47 9h1q55 0 67 -37q-12 -81 -132 -119q-65 -27 -78 -27q-17 0 -17 99zM320 324 q1 -1 3 -1z" />
<glyph unicode="s" horiz-adv-x="632" d="M41 545q0 -36 22 -73q28 -47 92 -64q37 -10 105 -10q10 0 31 0.5t44 1.5t42 1h28q19 0 34.5 -2.5t29.5 -7.5h-1q30 -11 30 -30q0 -51 -114 -130l1 1q-1 -1 0 -0.5t-1 -0.5l-23 -14.5t-12 -7.5q-28 -14 -69 -14q-7 0 -35 9q-13 5 -21.5 7.5t-12.5 4.5q-13 11 -19 15 l-15 11q-25 19 -50 19q-13 0 -25.5 -5.5t-22.5 -15t-16 -22.5t-6 -27q0 -69 84 -121q71 -43 139 -43q97 0 214 83q59 43 96.5 86.5t52.5 88.5v-1q6 14 7.5 33.5t1.5 44.5q0 123 -70 169q-50 35 -175 35q-28 0 -80 -6l-44.5 -3.5t-30.5 -1.5q-20 0 -20 2q0 14 52 48 q22 14 41.5 24t39.5 18l14.5 5.5l14.5 5.5l16.5 6.5l16.5 6.5q17 8 29 10.5t23 2.5q6 0 15 -15q13 -36 42 -36h5t8 2q16 6 18 6q20 0 33 16.5t13 38.5q0 38 -45 80q-43 43 -77 49h-13q-2 0 -4.5 0.5t-5.5 0.5h-18q-27 -1 -52.5 -5.5t-48.5 -11.5q-14 -5 -37 -15.5t-55 -26.5 q-21 -11 -33 -18q-6 -2 -12.5 -6t-10.5 -6l-21.5 -16.5l-17.5 -13.5q-5 -5 -9.5 -8.5t-9.5 -6.5q-20 -14 -35.5 -28.5t-29.5 -32.5q-37 -49 -37 -86z" />
<glyph unicode="t" horiz-adv-x="719" d="M43 683q0 -13 6 -20t20 -18q3 -2 8.5 -6t8.5 -7q15 -2 27.5 -3t21.5 -1h15q21 4 44 5t45 1h49q2 0 2.5 -8t0.5 -19q0 -16 -5 -31q-2 -41 -3.5 -80t-3.5 -77q-5 -84 -8.5 -169.5t-3.5 -179.5q14 -19 35.5 -32.5t41.5 -14.5q15 0 29 3.5t24 17.5q17 12 20 29.5t3 35.5v6v10 q0 6 1 11q-3 43 -3 88q0 47 3 92t7 91l4 51l4 50l-1 -1q1 5 1 7v6v44q1 5 1 11v15q0 14 2.5 29t10.5 23l14 1h-1q52 6 86 6h37h20t20 1h2q1 0 9.5 -0.5t13.5 -1.5q2 0 3.5 -0.5t3.5 -0.5q5 0 7.5 -0.5t4.5 -0.5q1 0 1.5 -0.5l0.5 -0.5q8 0 9 0.5l5 2.5q27 17 29 47 q1 4 1.5 7.5t0.5 10.5q0 19 -8.5 36.5t-22 31t-31 21.5t-36.5 8h-16t-16 1q-6 1 -13 1h-15h-10q-17 0 -27.5 -1.5t-21.5 -3.5t-22.5 -3t-22.5 -1h-11t-12 1q-22 -2 -42 -3t-40 -1q-17 0 -34 0.5t-34 1.5q-20 1 -41 1.5t-42 0.5q-8 -1 -14.5 -2l-13.5 -2q-18 -2 -36.5 -4.5 t-35.5 -8.5q-26 -14 -40 -36t-14 -50v-2q0 -2 -1 -3v3q-1 -4 -1 -9v-7z" />
<glyph unicode="u" horiz-adv-x="703" d="M52 206q0 -46 10 -82q12 -45 40 -64q55 -40 150 -40q44 0 169 36l10.5 3.5l10 3.5t13.5 4.5t21 7.5q3 1 6 2.5t6 2.5q9 3 15.5 4.5t10.5 2.5q21 -19 43 -46q39 -17 58 -17q8 0 15 2.5t12 6.5q27 13 27 56v13q0 7 -2 16q-3 10 -4 18t-1 12q0 -1 0.5 4l1.5 15q2 12 4.5 32 l5.5 46q8 66 15.5 144t15.5 174q1 10 1.5 18.5t1.5 17.5q1 13 1.5 24t2.5 22q2 20 3.5 31.5t1.5 16.5q0 96 -70 96q-94 0 -94 -100v-23q0 -5 -6 -53q0 -8 -0.5 -12l-1.5 -12q-2 -20 -4.5 -55l-6.5 -88v1q-5 -51 -10 -90.5t-13 -71.5q-5 -20 -20 -29l3 1q-15 -7 -24 -10.5 t-17 -5.5q-75 -29 -128 -43.5t-84 -14.5q-28 0 -28 42q0 33 3 73.5t10 89.5v-1q4 21 7.5 43t7.5 43l6 37.5t7 38.5l-1 -1q1 3 2 6.5t2 5.5h-1q2 9 5.5 22l8.5 33q13 43 13 72q0 41 -31 65l2 -1q-29 27 -64 27q-31 0 -49 -32q-8 -17 -10.5 -31t-5.5 -25q-1 -5 -2 -8.5 t-2 -7.5q-15 -74 -27 -144t-23 -142q-9 -63 -14 -107t-5 -75z" />
<glyph unicode="v" horiz-adv-x="616" d="M49 704q0 -11 19 -68l29.5 -94l22.5 -72q2 -9 5 -17t5 -16v1l20.5 -76l14.5 -54q28 -99 68 -184q46 -100 102 -100q6 0 13.5 2t19.5 6t19.5 8.5l12.5 7.5q19 19 27 30q18 24 34 51t31 59l5.5 16t8.5 21q5 15 13 34.5l18 45.5l41 109q14 37 22.5 61.5t12.5 38.5 q18 72 26 125.5t8 91.5q0 93 -61 93q-69 0 -88 -112l1 2l-14 -56t-11 -39q-7 -29 -16.5 -60.5t-23.5 -72.5l-5 -12.5t-8 -21.5q-5 -17 -13.5 -40.5l-19.5 -55.5l-18 -47l-9 -23q-21 -44 -23 -44q-7 0 -28 75l-13 45.5t-11 39.5q-4 12 -7 22.5l-6 21.5q-12 46 -21.5 76.5 t-15.5 47.5v-2q-15 61 -29 104.5t-27 72.5q-2 4 -5 8.5t-4 6.5q2 -2 2 0q-24 24 -51 24q-14 0 -27 -7t-23 -18t-16.5 -25.5t-6.5 -29.5z" />
<glyph unicode="w" horiz-adv-x="869" d="M57 665q0 -82 4 -161t12 -160q25 -232 74 -291q13 -12 34.5 -22t39.5 -10q38 0 99 91h-1q21 32 37 59l31 53q54 106 59 108q-2 -5 30 -64l44 -82.5t36 -58.5q59 -84 119 -84q53 0 101 94q8 14 17.5 39l23.5 61l4.5 13t5.5 14q9 28 16.5 47.5l13.5 34.5l2 4q11 42 18.5 76 t12.5 62v-1q5 26 6.5 57t1.5 69q0 203 -97 203q-66 0 -66 -73q0 -10 1 -29t3 -39t3 -37.5t1 -27.5q0 -30 -6 -57l1 1q-5 -20 -6.5 -29.5t-3.5 -17.5q-1 -5 -1.5 -8.5t-1.5 -7.5l-15 -69t-15 -63v1q-27 -90 -42 -90q-4 0 -23 28q-16 24 -24 49q-14 46 -23 78.5t-14 55.5 q-8 19 -7.5 23t-1.5 12l-4 18l-4 18l-14 44.5t-14 29.5q-23 32 -66 32q-36 0 -57 -38q-3 -7 -7 -13t-6 -12l1 1l-8 -20v1l-19 -37h3l-28 -57.5l-21.5 -43l-17 -32.5l-14.5 -26q-2 -7 -6 -13.5t-7 -13.5v1q-5 -9 -9.5 -19t-9.5 -20q-21 -40 -25 -40q-3 0 -4 20l-3 54 q-1 9 -1.5 15t-1.5 11v-3q0 2 -0.5 3t-0.5 3l-4 307q-3 16 -3 19q-19 79 -81 79q-71 0 -71 -119z" />
<glyph unicode="x" horiz-adv-x="677" d="M51 97q0 -27 23 -50q22 -27 50 -27q36 0 81 59l52 77l-1 -1q83 113 100 118q30 -6 68 -50h-1q15 -18 32.5 -35l36.5 -34h-1q10 -9 20 -17t19 -18l-2 1q60 -74 111 -74q13 0 33 8q9 21 13 40t4 36q0 18 -16 50q-2 2 -5.5 7t-4.5 5q-10 17 -22 26q-8 14 -39 44 q-15 10 -24.5 17.5t-19.5 17.5l-89 88h1l-13 14q12 24 94 112l10 12l-1 1l25 30.5t23 24.5l10 11.5t9 7.5q82 79 82 128q0 13 -3.5 27t-11.5 28q-20 31 -53 31q-58 0 -245 -226q-7 -8 -13 -16l-11 -15q-6 -7 -10.5 -13t-7.5 -9q-8 -8 -7 -8q-20 0 -54 75q-8 15 -13.5 29.5 t-12.5 30.5v-1q-5 14 -11.5 28.5l-12.5 28.5q-20 43 -32 66.5t-16 29.5q-29 33 -56 33q-61 0 -61 -79q0 -17 10 -47.5t30 -73.5l30 -59l30 -60q3 -2 18 -28q5 -8 10 -17l11 -19v1q29 -53 29 -56q0 -11 -54 -89v1l-40 -57t-35 -45l-20 -26.5t-13 -15.5l-7 -10 q-26 -40 -26 -68z" />
<glyph unicode="y" horiz-adv-x="674" d="M50 741q0 -26 28 -90l19.5 -43.5t20.5 -37.5q47 -81 120 -137q12 -12 24 -18q1 -3 6 -5h-1q14 -11 14 -18l-60 -268v-7q0 -19 5.5 -34t14.5 -27q27 -31 59 -31q19 0 35 11q17 14 37 71q8 24 13 42.5t7 31.5q10 45 17 73t12 42q1 2 2 6.5t3 9.5v-1q3 14 12 40q8 32 18 53 v-1q53 114 212 267q10 11 17 18t11 13q8 8 10.5 19t2.5 25q0 76 -70 76q-36 0 -115 -77v1q-22 -21 -46 -48.5l-50 -58.5q-2 -4 -4 -6.5l-5 -6.5l-17 -23t-17 -24l1 1q-31 -41 -32 -41q-9 0 -43 36l-26.5 28.5t-21.5 26.5l1 -2l-14 27t-11 20l-3 4q4 -5 2.5 -2t-5.5 9t-8 13 t-5 10l2 -3q-2 5 -4 8l-4 6l1 -3l-27 67q-23 42 -66 42q-35 0 -53.5 -24.5t-18.5 -59.5z" />
<glyph unicode="z" horiz-adv-x="669" d="M43 116q0 -36 34 -63q31 -25 67 -25q1 0 21 5l61 16q8 2 16 3.5t16 3.5h-1q20 5 36 9.5t29 7.5l-1 -1q65 14 140 18l35.5 2t34.5 3q18 2 36 2.5t37 2.5q2 0 5 0.5t6 0.5q13 1 27 3t24.5 9t17.5 20t7 36q0 96 -77 96h-6l-330 -40q3 11 20 34q7 8 12 15t10 15l5 7.5t6 9.5 q37 67 110 152q9 10 18 19t17 18l90 102l10 11.5t9 10.5l26 32.5t20 28.5v-1q28 44 28 64q0 54 -58 72q-12 5 -28.5 6.5t-38.5 1.5h-17l-183 -7q-6 -1 -11.5 -1.5t-10.5 -1.5h1q-6 -1 -10 -0.5t-12 -2.5q-19 -2 -33 -3t-24 -3h1q-11 -2 -18.5 -2.5t-10.5 -1.5 q-28 -5 -48.5 -10.5t-36.5 -12.5q-48 -26 -48 -83q0 -80 66 -80q5 0 19.5 4t37.5 12h-1q53 17 89 27t56 10l17 1l25.5 3.5t21.5 1.5q18 0 20 3q-1 -8 -70 -78q-40 -45 -77.5 -93.5t-72.5 -100.5l-37 -59.5l-31 -50.5q-11 -19 -21 -34l-18 -27q-54 -83 -54 -117z" />
<glyph unicode="{" horiz-adv-x="422" d="M58 403q0 -28 16.5 -49.5t51.5 -21.5q25 0 33.5 -6.5t8.5 -22.5v-10q0 -4 -1 -10v-9q-2 -22 -5 -41.5l-6 -38.5q-1 -8 -1.5 -15t-1.5 -14q-5 -23 -7 -42.5t-3 -33.5v1q-1 -8 -1.5 -16t-0.5 -18q0 -65 26 -99t86 -34q4 0 8 0.5t8 0.5q-8 -11 -5 -13.5t12.5 0.5t23.5 10.5 l29 15.5q2 1 7 1l-2 2q27 11 47.5 27.5t22.5 42.5v9q0 26 -15 47t-42 21q-8 0 -14.5 -2t-14.5 -6q-19 -10 -28 -10q-3 0 -3 10v2q0 2 1 4q1 12 2.5 24l3.5 28l7 58t7 73q1 8 1 16v16q0 27 -5.5 51.5t-20.5 48.5q34 37 46 91t19 130q1 16 3.5 33t6.5 31.5t10.5 24t15.5 9.5 h18q11 0 21.5 1.5t18.5 8.5t13.5 20t7.5 36v10q0 42 -16.5 53.5t-45.5 11.5q-44 0 -78.5 -20.5t-59 -53.5t-39 -75t-18.5 -85l-2 -28v1q-2 -26 -4.5 -46t-8.5 -33.5t-17 -20.5t-30 -7q-20 0 -36 -8t-27 -21t-17 -29t-6 -31z" />
<glyph unicode="|" horiz-adv-x="196" d="M74 28q0 -23 6.5 -38t16 -23.5t21 -12t21.5 -3.5q14 0 27.5 14.5t21.5 42.5l6 -6l3 56v-2q1 5 1.5 11.5t0.5 14.5l46 628q0 2 0.5 5t0.5 7q1 5 1 19q3 24 3 56q0 34 -9.5 58t-38.5 24h-3q-2 0 -2.5 -0.5t-2.5 -0.5q-22 -7 -34.5 -16t-18.5 -23.5t-8.5 -36t-4.5 -52.5 l33 -2v5l-31 5q-2 -8 -2.5 -12.5t-0.5 -8.5q0 -3 -0.5 -6t-0.5 -5v2l-50 -673v-7l32 -2v6l-31 3q-2 -10 -2.5 -16.5t-0.5 -10.5z" />
<glyph unicode="}" horiz-adv-x="367" d="M20 31q0 -21 6.5 -35.5t16.5 -23t22.5 -12t24.5 -3.5q35 0 67 18t57 48t41.5 68.5t19.5 78.5l7 91q1 9 4 23.5t9 28t16.5 23.5t27.5 10q20 0 35.5 7.5t26 19t16 25.5t5.5 28q0 24 -16.5 44.5t-49.5 22.5l-19 2q-1 0 -1 1q-2 1 -3 1l-2 1l-12 -18l10 18q-4 2 -7 6t-3 30 q0 40 9 104t26 145l-10 -11q-2 25 -10.5 48t-24.5 41t-39 28.5t-53 10.5q-24 0 -42 -1.5t-41 -7.5q-29 -6 -42.5 -28.5t-13.5 -48.5t14.5 -47.5t52.5 -21.5v39q1 0 9.5 -1.5t22.5 -4.5t25 -6l-2 -18q-11 -4 -39 -7q3 0 5.5 0.5t4.5 0.5l25 3q1 0 2 -0.5t3 -0.5 q0 -2 -0.5 -2.5t-0.5 -2.5q-11 -57 -17.5 -112.5t-6.5 -104.5q0 -66 22 -103q-29 -29 -42 -69.5t-16 -89.5v1l-7 -94q-1 -7 -2 -15.5t-3.5 -16t-6.5 -12.5t-10 -6q-42 -5 -64.5 -29.5t-26.5 -53.5v-9zM205 755l1 16q11 -4 12.5 -7.5t-13.5 -8.5z" />
<glyph unicode="~" horiz-adv-x="497" d="M46 580q0 -50 60 -50q28 0 49 15q2 2 5 4.5t7 6.5q8 8 18 16t15 8q7 0 18.5 -2t22.5 -5t21 -7.5t15 -8.5q33 -29 98 -29q44 0 100 48q56 47 56 87q0 24 -25 40q-18 11 -41 11q-26 0 -53 -24q1 2 -0.5 -1t-3.5 -5l1 1q-8 -8 -17 -19.5l-9 -11.5h-1q-13 1 -25 7t-25 14 q-10 5 -19 9l-18 8h1q-21 9 -40.5 14t-39.5 5q-17 0 -41 -10t-48 -24.5t-43.5 -31t-26.5 -29.5q-11 -20 -11 -36z" />
<glyph unicode="&#xa2;" horiz-adv-x="630" d="M87 310q0 -22 5 -41.5t13 -34.5q10 -15 25 -30t38 -30q23 -18 66 -27l-6 -42q-2 -10 -2.5 -16.5t-0.5 -11.5q0 -23 7.5 -37.5t18.5 -23t24 -12t24 -3.5q17 0 32 14.5t25 42.5l6 -6l4 56v-2q1 5 1.5 10.5t0.5 14.5l3 22q8 2 13 3q2 1 8.5 2t8.5 2q28 10 46 20h-1 q182 78 182 141q0 2 0.5 2.5t0.5 2.5q0 12 -7.5 22t-18.5 17.5t-24 12t-25 4.5q-16 0 -27 -8l1 1l-9.5 -5.5t-10.5 -6.5l-33 -22t-36 -22.5t-34 -18.5t-27 -10q-22 -8 -41.5 -13t-36.5 -5q-35 0 -54 17l2 -1q-8 8 -11.5 19.5t-3.5 25.5q0 11 2.5 18t9.5 18v-1q2 2 2.5 4 t2.5 4q3 5 4 6.5l5 7.5q5 8 13 19t19 28q19 29 38.5 54t41.5 45q28 29 45 42t38 15h2q7 0 8 -5l2 -10q0 -9 1 -17t6 -15l-1 3q13 -29 45 -29q54 0 54 74q0 48 -16 78t-45 44q2 12 3 25.5t1 28.5q0 34 -11 58t-44 24h-4q-2 0 -2.5 -0.5t-2.5 -0.5q-26 -7 -40 -16t-21 -23.5 t-9.5 -36t-5.5 -52.5q-1 -5 -1 -8v-4q0 -3 -0.5 -6t-0.5 -6v3v-5l-3 -1q-7 -4 -19.5 -13t-26 -20l-25.5 -21l-19 -16q-42 -42 -68.5 -73t-40.5 -51q-6 -11 -12.5 -21.5l-11.5 -18.5q-7 -11 -12.5 -20.5t-10.5 -19.5l-10.5 -21.5t-11.5 -26.5q-8 -18 -11 -34t-3 -30z" />
<glyph unicode="&#xa3;" horiz-adv-x="651" d="M24 509q4 -20 21 -40t37 -29q5 -1 10.5 -2t13.5 -2q-2 -5 -2.5 -10.5t-1.5 -10.5v-1q-5 -1 -9 -1.5t-7 -0.5l3 1q-20 -2 -34.5 -17t-14.5 -32q0 -39 44 -60l-1 1q2 -2 4 -3q-4 -31 -5 -58t-1 -50q0 -41 9 -71t26 -51q40 -45 121 -45q17 0 40.5 3.5t57.5 11.5 q17 5 37 11.5t40 14.5l36 15l16.5 6.5t16.5 7.5l38 16t31 14q13 5 23 9.5t20 8.5q13 7 25.5 12.5t25.5 10.5q42 24 42 62q0 29 -16 56q-22 33 -56 33q-16 0 -91 -34q-17 -8 -31.5 -14l-27.5 -11l-22.5 -9t-18.5 -8l1 1q-11 -5 -21 -8.5t-21 -6.5q-11 -4 -21 -8t-21 -8 q-48 -14 -82 -14q1 0 -3 15l1 -1l-3 11l11 64q41 1 77 3t68 5h-1q17 1 26 1h11q20 5 35 26v-1q12 15 12 33q0 26 -11.5 41t-35.5 25q-29 9 -90 9h-17q-13 0 -34 -2h1q-5 -1 -9 -1t-9 -1l2 15l85 4h5q4 0 8 1h-1q10 1 27 3h-1q12 2 20 2h15q36 0 48 10.5t12 37.5v12 q-1 2 -1 5q0 35 -56 52q-37 10 -77 10h-30q-15 0 -31 -1l22 137l2 3v9q0 36 -24 65q-29 32 -67 32q-39 0 -57 -33q-6 -8 -11.5 -21.5t-9.5 -32.5l1 1q-1 -3 -2 -7t-2 -6q-2 -11 -3.5 -20.5t-3.5 -20.5l1 1q-6 -26 -10.5 -47.5t-9.5 -41.5q-2 -9 -4 -17t-3 -15h-2 q-17 -2 -27 -3l-11.5 -2t-7.5 -2l5 2q-9 -2 -17.5 -4.5t-16.5 -6.5q-30 -10 -30 -38z" />
<glyph unicode="&#xa5;" horiz-adv-x="674" d="M50 741q0 -26 28 -90l19.5 -43.5t20.5 -37.5q40 -68 97 -119q-2 0 -2.5 -0.5t-2.5 -0.5q-10 -1 -18 -2t-13 -2t-9 -1q-10 -2 -18.5 -5t-17.5 -8h1q-29 -13 -29 -38q4 -23 19.5 -43.5t33.5 -29.5q11 -3 24.5 -5t29.5 -2h13q7 0 15 1h-1l23 1l-4 -22q-19 -2 -32.5 -3 t-24.5 -1q-27 -2 -33 -3h1q-20 -3 -34 -19.5t-14 -34.5q0 -19 10.5 -35.5t32.5 -27.5q28 -17 62 -20l-6 -26v-7q0 -19 5.5 -34t14.5 -27q27 -31 59 -31q19 0 35 11q17 14 37 71q5 14 8 25.5t5 21.5l33.5 2t31.5 3h-1q11 1 20 1q10 0 20 1l21 1.5t11 0.5h5q22 5 36 26 q11 16 11 36q0 27 -11.5 43.5t-36.5 26.5q-14 5 -36 7.5t-52 2.5h-13q0 2 1 3q1 4 3 14l28 2q7 0 8 0.5t6 1.5t11.5 1.5t13.5 2.5h-2q13 1 21 1.5t15 0.5q35 0 47.5 10.5t12.5 39.5v13q-1 2 -1 5q0 20 -14.5 33.5t-41.5 22.5q-11 2 -21 4t-21 4q29 45 73.5 96.5t104.5 109.5 q10 11 17 18t11 13q8 8 10.5 19t2.5 25q0 76 -70 76q-36 0 -115 -77v1q-22 -21 -46 -48.5l-50 -58.5q-2 -4 -4 -6.5l-5 -6.5l-17 -23t-17 -24l1 1q-31 -41 -32 -41q-9 0 -43 36l-26.5 28.5t-21.5 26.5l1 -2l-14 27t-11 20l-3 4q4 -5 2.5 -2t-5.5 9t-8 13t-5 10l2 -3 q-2 5 -4 8l-4 6l1 -3l-27 67q-23 42 -66 42q-35 0 -53.5 -24.5t-18.5 -59.5z" />
<glyph unicode="&#xa9;" horiz-adv-x="571" d="M55 482q0 -17 1 -32.5t3 -31.5q2 -13 7.5 -28t16.5 -33h-1q5 -10 8 -16.5t5 -8.5q33 -44 114 -76q45 -18 95 -18q26 0 46.5 3.5t37.5 8.5q35 13 65 30t56 37v-1q60 48 78 113l-1 -4q1 2 1 4t1 4q5 16 9 31.5t4 32.5q0 6 -1.5 17.5t-3.5 28.5q-1 3 -1.5 8.5t-1.5 7.5l1 -2 q-3 14 -5 22t-5 16q-17 34 -50 70h1q-37 39 -65 50q-2 1 -8 3t-8 3q-2 0 -2 1q-5 2 -12 4t-12 4h1q-18 7 -36 12.5t-41 5.5q-50 0 -83 -11h1l-16.5 -5.5t-14.5 -4.5q-32 -11 -40 -17l1 1q-10 -7 -16 -12t-13 -10h1q-5 -3 -8 -5t-5 -4l1 1q-14 -8 -29 -22.5t-29 -36.5 q-13 -20 -21 -38t-13 -35q-13 -48 -13 -67zM153 459q0 10 3 21.5l8 29.5q8 26 25.5 48.5t46.5 40.5q14 10 30.5 16.5t33.5 10.5q-10 -4 -22 -13q-6 -3 -8.5 -4.5t-4.5 -2.5t-2.5 -2t-2.5 -2q-17 -14 -28.5 -27t-21.5 -27q-29 -40 -29 -72q0 -118 103 -118q19 0 39 5t43 14 q64 24 64 63q0 21 -13 36.5t-33 15.5q-14 0 -55 -19q-33 -17 -62 -17h-2q0 13 14 29q51 58 72 58q5 0 12 -6l20 -11q14 0 24.5 12.5t10.5 23.5q0 6 -2.5 11.5t-8.5 16.5q-16 33 -47 42q52 -3 87.5 -29.5t49.5 -77.5q0 -5 1 -8v1q1 -4 1.5 -5.5l0.5 -1.5q0 -26 -27 -63 q-11 -17 -23.5 -29.5t-26.5 -22.5q-44 -31 -63 -37h1q-19 -4 -35.5 -6.5t-32.5 -2.5t-41 6q-12 2 -21 5t-14 6h1q-20 11 -32.5 19.5t-15.5 13.5v-1q-17 34 -17 60z" />
<glyph unicode="&#xae;" horiz-adv-x="608" d="M53 506q0 -30 10 -63q0 -3 1 -4q-1 -1 0.5 -6.5l3.5 -12.5q2 -6 5.5 -11l5.5 -8q2 -4 4 -6q5 -6 7.5 -10.5t4.5 -8.5q1 -2 2.5 -4t2.5 -4l-1 2q27 -41 60 -64t72 -27h-1q13 -2 22.5 -2.5t16.5 -1.5h6q11 -3 16 -3.5t7 -0.5h25q41 0 77 18l71 38t42 27q20 17 37 33.5 t34 36.5q14 17 25 41t20 54v-1q5 19 6.5 29t1.5 15q0 91 -23 137q-29 60 -107 98q-66 30 -117 30q-1 0 -17 -1l-48 -3q-14 -1 -33.5 -5t-45.5 -12t-43.5 -15.5t-28.5 -14.5q-18 -12 -30.5 -21.5t-21.5 -15.5q-4 -3 -8 -5l-4 -2q-53 -48 -53 -84q0 -6 0.5 -9.5t1.5 -7.5l2 -9 v-7q-1 0 -1.5 -2t-0.5 -4q-4 -20 -5 -45.5t-1 -57.5zM65 435q1 -1 1 -2v0zM150 504q0 7 2 17.5t6 26.5q2 17 5 27t6 18q12 27 30 48q-2 -3 -2 -7v-9v-8t1 -9q1 -5 1.5 -8t0.5 -4v-117q0 -3 -0.5 -8.5t-1.5 -11.5t-1.5 -11.5t-0.5 -10.5q0 -11 6.5 -23.5t15.5 -20.5 q-2 2 -5 3t-5 3q-33 20 -44 58q-2 4 -3 7.5t-3 6.5v-1q-1 2 -2 3.5t-1 3.5v-1q-5 20 -5 28zM259 379q28 6 36 54q2 14 2 20q0 7 -6 7q10 9 28 9q16 0 48 -20q4 -3 8.5 -6t8.5 -6l9 -5.5t7 -5.5q-73 -49 -117 -49h-12t-12 2zM302 579q0 6 2 8q5 5 16.5 7.5t32.5 2.5 q-1 0 -5 -2l-2 -1q-8 -5 -24 -10q-6 -1 -11 -2.5t-9 -2.5zM391 705q79 -5 117 -70q9 -18 9 -23q4 -11 5 -18t1 -13q0 -60 -51 -106q-1 5 -1.5 8t-1.5 6q-2 2 -9 8t-16 17q-3 3 -4.5 5t-3.5 4l4 4t6 7q11 15 17 32v-1q6 14 8.5 30t2.5 34q0 42 -47 65q-8 3 -17 6t-19 5z" />
<glyph unicode="&#xb4;" horiz-adv-x="419" d="M169 839q0 -53 51 -53q27 0 48 23q6 8 15.5 24t20.5 39q1 4 3.5 9t3.5 8q2 3 3.5 6.5t3.5 9.5l-1 -2q3 3 6 10l-1 -1l4 8l4 8q15 22 39 66q7 11 8.5 20t1.5 17q0 26 -17.5 45t-42.5 19q-36 0 -67 -54l-32 -66l1 1q-52 -95 -52 -137z" />
<glyph unicode="&#x2000;" horiz-adv-x="547" />
<glyph unicode="&#x2001;" horiz-adv-x="1095" />
<glyph unicode="&#x2002;" horiz-adv-x="547" />
<glyph unicode="&#x2003;" horiz-adv-x="1095" />
<glyph unicode="&#x2004;" horiz-adv-x="365" />
<glyph unicode="&#x2005;" horiz-adv-x="273" />
<glyph unicode="&#x2006;" horiz-adv-x="182" />
<glyph unicode="&#x2007;" horiz-adv-x="182" />
<glyph unicode="&#x2008;" horiz-adv-x="136" />
<glyph unicode="&#x2009;" horiz-adv-x="219" />
<glyph unicode="&#x200a;" horiz-adv-x="60" />
<glyph unicode="&#x2013;" horiz-adv-x="543" d="M51 363q0 -43 27.5 -66t78.5 -23h140q5 0 11 0.5t12 0.5l96.5 5.5t75.5 5.5q18 0 28 2h-1q23 3 40 33q9 21 9 38q0 49 -71 58q-4 2 -11 2h-13l-131 -9q-17 -2 -26 -2.5t-15 -1t-11 -0.5h-12h-178q-15 0 -34 -16q-15 -15 -15 -27z" />
<glyph unicode="&#x2014;" horiz-adv-x="694" d="M51 363q0 -43 28.5 -66t79.5 -23h287q5 0 11 0.5t12 0.5l98 5.5t77 5.5q20 0 28 2h-1q25 3 41 33q9 21 9 38q0 49 -72 58q-4 2 -12 2h-13l-133 -9q-17 -2 -26 -2.5t-15 -1t-11 -0.5h-13h-325q-14 0 -35 -16q-15 -15 -15 -27z" />
<glyph unicode="&#x2018;" horiz-adv-x="184" d="M48 691q0 -9 3 -31q1 -2 1.5 -5.5t1.5 -5.5l-1 1q7 -44 14.5 -72.5t14.5 -45.5q5 -11 12 -21.5t18 -19.5l-1 1q23 -24 44 -24t36 18q13 12 13 42q0 20 -6.5 36t-14.5 33l-10 22.5t-7 22.5q-5 22 -8 39.5t-5 31.5l-2 13q-3 6 -9 13t-13 12t-14.5 8.5t-12.5 3.5 q-26 0 -42 -25v1q-12 -17 -12 -48z" />
<glyph unicode="&#x2019;" horiz-adv-x="177" d="M49 568q0 -22 14 -40.5t33 -18.5q76 0 102 186q0 8 1 12.5t2 6.5q0 17 -1.5 30.5t-3.5 27.5v-1q-3 19 -20 31.5t-33 12.5q-36 0 -48 -34q-6 -21 -6 -54q-2 -32 -3 -39q-5 -20 -8.5 -32t-5.5 -17l-5 -13t-8 -19v1q-5 -10 -7.5 -19.5t-2.5 -20.5z" />
<glyph unicode="&#x201c;" d="M49 701q0 -9 3 -31q1 -2 1.5 -5.5t1.5 -6.5l-1 1q8 -45 16.5 -74t16.5 -46q6 -11 14 -21.5t20 -19.5l-2 1q25 -24 50 -24q22 0 40 18q14 11 14 43q0 20 -7.5 36l-15.5 33l-11.5 23.5t-8.5 22.5q-6 22 -8.5 40t-5.5 32l-2 14q-3 6 -9.5 13t-15 12t-16.5 8.5t-14 3.5 q-29 0 -47 -26v1q-13 -16 -13 -48zM197 717q0 -53 27 -123q34 -91 91 -91q22 0 37.5 18.5t15.5 40.5q0 18 -16 53q-4 9 -7.5 16t-5.5 13q-5 11 -8 18.5t-1 5.5l2 -7q-5 33 -7.5 58.5t-2.5 42.5q-9 49 -59 49q-19 0 -37.5 -12t-22.5 -31q-6 -29 -6 -51z" />
<glyph unicode="&#x201d;" d="M49 701q0 -9 3 -31q1 -2 1.5 -5.5t1.5 -6.5l-1 1q8 -45 16.5 -74t16.5 -46q6 -11 14 -21.5t20 -19.5l-2 1q25 -24 50 -24q22 0 40 18q14 11 14 43q0 20 -7.5 36l-15.5 33l-11.5 23.5t-8.5 22.5q-6 22 -8.5 40t-5.5 32l-2 14q-3 6 -9.5 13t-15 12t-16.5 8.5t-14 3.5 q-29 0 -47 -26v1q-13 -16 -13 -48zM197 717q0 -53 27 -123q34 -91 91 -91q22 0 37.5 18.5t15.5 40.5q0 18 -16 53q-4 9 -7.5 16t-5.5 13q-5 11 -8 18.5t-1 5.5l2 -7q-5 33 -7.5 58.5t-2.5 42.5q-9 49 -59 49q-19 0 -37.5 -12t-22.5 -31q-6 -29 -6 -51z" />
<glyph unicode="&#x2022;" horiz-adv-x="307" d="M54 402q0 -60 32.5 -98t94.5 -38q55 0 102 45q48 48 48 103q0 52 -52 85l1 -1q-44 32 -91 32q-90 0 -118 -56q-8 -20 -12.5 -37.5t-4.5 -34.5z" />
<glyph unicode="&#x2026;" horiz-adv-x="594" d="M48 92q0 -32 21 -53t61 -21q36 0 65 25q30 24 30 54t-34 48l1 -1q-28 17 -58 17q-56 0 -74 -32q-12 -19 -12 -37zM243 91q0 -32 21 -52.5t61 -20.5q37 0 65 24q30 24 30 55q0 29 -34 47l1 -1q-26 17 -58 17q-56 0 -74 -31q-7 -11 -9.5 -20.5t-2.5 -17.5zM433 92 q0 -32 21 -53t60 -21q37 0 66 25q29 24 29 54t-33 48l1 -1q-28 17 -58 17q-57 0 -75 -32q-11 -19 -11 -37z" />
<glyph unicode="&#x202f;" horiz-adv-x="219" />
<glyph unicode="&#x205f;" horiz-adv-x="273" />
<glyph unicode="&#x2122;" horiz-adv-x="650" d="M34 694q0 -5 3 -16t9.5 -22.5t18.5 -20.5t30 -9h3q1 0 3 0.5t4 0.5q3 2 7.5 3t3.5 1l-4 -2q3 0 4 1v-6q-3 -22 -4.5 -47t-3.5 -51q-1 -10 -1.5 -22t-1.5 -23q5 -27 20.5 -39t41.5 -12h6q31 3 44 21t20 40v20q0 20 3 44q2 25 6 51t8 48h3q12 0 22 0.5t22 4.5h2 q23 8 34.5 26t14.5 32q1 3 2 6.5t1 8.5v2q1 0 1 2q0 14 -5.5 25.5t-22.5 25.5q-15 2 -25 2h-17q-24 0 -51 -3t-55 -8.5t-54 -12l-48 -12.5q-1 0 -1 -1h-1h1q-2 -1 -2.5 -1.5t-2.5 -1.5l-1 -1l1 1q-18 -11 -27 -20.5t-11 -34.5zM73 750l1 1q1 0 2 1q-1 0 -3 -2zM143 636v0v0 q1 0 2 1q-1 -1 -2 -1zM277 489q0 -20 10.5 -37t41.5 -20q1 0 2.5 -0.5t2.5 -0.5h11q21 0 36.5 9t27.5 23q1 6 3 9q12 -15 25.5 -21.5t30.5 -6.5q15 0 28.5 5t21.5 10q9 7 18 17q5 -23 21.5 -32.5t35.5 -9.5q7 0 13.5 1t14.5 5l-1 -1q43 15 46 55v4q0 1 0.5 1.5t0.5 2.5 q0 4 -1 7.5t-1 7.5v-4v10q-5 27 -7.5 57.5t-2.5 62.5q0 24 1.5 48t6.5 49v6q0 13 -7 22t-18 15t-24 8.5t-24 2.5q-23 0 -44 -12q-7 -5 -15.5 -17t-16.5 -27q-6 18 -26 31t-43 13t-45.5 -13.5t-30.5 -46.5q-5 -8 -5 -12v1l-7.5 -17l-7.5 -18q-20 -42 -36 -79.5t-30 -77.5 q-2 -5 -3 -9.5t-1 -9.5q0 -2 -1 -2v-2q0 -1 -0.5 -2t-0.5 -2v-3z" />
<glyph unicode="&#xe000;" horiz-adv-x="845" d="M0 845h845v-845h-845v845z" />
<glyph unicode="&#xfb01;" horiz-adv-x="1193" d="M598 70q0 -24 10.5 -40t30.5 -20q4 0 6 -1h-2q27 -6 44 -6t34.5 2.5t49.5 7.5q2 1 10 3l-1 -1l55 9.5t49 7.5q165 27 184 29q42 5 67.5 10t38.5 8h-1q5 1 11 1.5t8 0.5q23 40 23 68q0 45 -51 76q-29 -4 -52 -7.5t-34 -5.5q-6 -1 -11 -1t-3 0q-6 -1 -15 -1.5t-20 -0.5 q-27 0 -43 -6q-1 0 -1 6v4l31 299q1 4 1 11v7q0 82 13 111l32.5 5t48.5 8q4 1 7.5 2t8.5 2q93 0 93 68q0 30 -39 75l-69 6q-22 -2 -42 -3t-36 -3q-71 -5 -82 -7h1q-13 -2 -24 -2.5t-22 -1.5l-34 -3h1q-14 -1 -27.5 -2.5t-25.5 -5.5l1 1q-13 -2 -27.5 -4.5t-28.5 -4.5 q-6 -2 -12.5 -3t-11.5 -3l1 1q-59 -9 -88.5 -27t-29.5 -54q0 -77 99 -77q3 0 11 1t22 3q22 2 39 5l28 5h-3q2 0 3 0.5t3 0.5q4 1 9 1h10t22 2v-32q0 -34 -3 -74.5t-8 -86.5v1l-20 -163v1q0 4 -0.5 1t-1 -8t-1 -11.5t-0.5 -10.5l-3 -26q-2 -14 -6 -22.5t-9 -13.5l2 1 q-11 -8 -34 -12q-4 -1 -14.5 -3t-30.5 -5l-25.5 -5.5t-23.5 -5.5l1 1q-20 -3 -32.5 -6t-23.5 -8q-36 -16 -36 -57q0 -3 -0.5 -6t-0.5 -5zM40 651l12 -37q10 -6 17.5 -8t15.5 -3q10 -8 10 -14q0 -41 -0.5 -69t-1.5 -48q-3 -6 -7 -13t-12 -14q-7 -17 -10 -31t-3 -23 q0 -16 10 -37q1 -3 1 -7t1 -7v1q1 -9 1.5 -15.5t3.5 -14.5q0 -2 0.5 -4t0.5 -5t-0.5 -7t-0.5 -7v2q-3 -33 -3 -50v-110q-1 -5 -1 -12v-7q0 -19 1 -24q-1 -5 -1 -10v-7q0 -32 29 -41h-1q26 -10 53 -10q10 0 16 1t9 7q19 16 26 58q3 25 5 54t4 66q6 114 6 119q0 10 12 15 q16 5 44 10.5t67 11.5l71.5 10.5t48.5 10.5l-2 -1l53 12q39 16 39 61q0 69 -84 69q-5 0 -21.5 -1.5t-44.5 -6.5q-62 -7 -94 -13q-8 -2 -15 -2.5t-14 -1.5q-14 -4 -21 -7h-13v24q0 10 -0.5 18.5t-0.5 16.5q0 34 3.5 51t12.5 23h-1q7 5 20 8.5l33 8.5l20 4l20 4l14.5 3.5 t10.5 2.5q54 12 92 19.5l65 12.5q31 7 43 21.5t12 46.5q0 70 -72 70q-43 0 -103 -7.5t-139 -25.5q-93 -20 -148 -40.5t-72 -39.5q-17 -23 -17 -61z" />
<glyph unicode="&#xfb02;" horiz-adv-x="1173" d="M606 194q0 -41 9 -71t26 -51q20 -23 50.5 -34t69.5 -11q17 0 40.5 3.5t57.5 11.5l35.5 11.5t39.5 14.5l19 7.5t18 7.5l16.5 6.5t16.5 7.5l37 16t31 14q13 5 23 9.5l19 8.5q13 7 25.5 12.5t26.5 10.5q41 24 41 62q0 31 -16 56q-22 33 -55 33q-16 0 -91 -34q-17 -8 -31 -14 t-27 -11l-22.5 -9t-18.5 -8l1 1q-11 -5 -21 -8.5t-21 -6.5q-11 -4 -21 -8t-21 -8q-48 -14 -81 -14q1 0 -3 15l1 -1l-3 11l81 490l1 3v9q0 36 -24 65q-29 32 -66 32q-39 0 -57 -33q-6 -8 -11.5 -21.5t-8.5 -32.5l1 1q-1 -3 -2 -7t-2 -6q-2 -11 -4 -20.5t-4 -20.5l1 2 l-7.5 -35t-7.5 -32q-6 -31 -12 -59t-11 -47q-19 -109 -28.5 -185.5t-9.5 -132.5zM40 651l12 -37q10 -6 17.5 -8t15.5 -3q10 -8 10 -14q0 -41 -0.5 -69t-1.5 -48q-3 -6 -7 -13t-12 -14q-7 -17 -10 -31t-3 -23q0 -16 10 -37q1 -3 1 -7t1 -7v1q1 -9 1.5 -15.5t3.5 -14.5 q0 -2 0.5 -4t0.5 -5t-0.5 -7t-0.5 -7v2q-3 -33 -3 -50v-110q-1 -5 -1 -12v-7q0 -19 1 -24q-1 -5 -1 -10v-7q0 -32 29 -41h-1q26 -10 53 -10q10 0 16 1t9 7q19 16 26 58q3 25 5 54t4 66q6 114 6 119q0 10 12 15q16 5 44 10.5t67 11.5l71.5 10.5t48.5 10.5l-2 -1l53 12 q39 16 39 61q0 69 -84 69q-5 0 -21.5 -1.5t-44.5 -6.5q-62 -7 -94 -13q-8 -2 -15 -2.5t-14 -1.5q-14 -4 -21 -7h-13v24q0 10 -0.5 18.5t-0.5 16.5q0 34 3.5 51t12.5 23h-1q7 5 20 8.5l33 8.5l20 4l20 4l14.5 3.5t10.5 2.5q54 12 92 19.5l65 12.5q31 7 43 21.5t12 46.5 q0 70 -72 70q-43 0 -103 -7.5t-139 -25.5q-93 -20 -148 -40.5t-72 -39.5q-17 -23 -17 -61z" />
<glyph unicode="&#xfb03;" horiz-adv-x="1749" d="M1154 70q0 -24 10.5 -40t30.5 -20q4 0 6 -1h-2q27 -6 44 -6t34.5 2.5t49.5 7.5q2 1 10 3l-1 -1l55 9.5t49 7.5q165 27 184 29q42 5 67.5 10t38.5 8h-1q5 1 11 1.5t8 0.5q23 40 23 68q0 45 -51 76q-29 -4 -52 -7.5t-34 -5.5q-6 -1 -11 -1t-3 0q-6 -1 -15 -1.5t-20 -0.5 q-27 0 -43 -6q-1 0 -1 6v4l31 299q1 4 1 11v7q0 82 13 111l32.5 5t48.5 8q4 1 7.5 2t8.5 2q93 0 93 68q0 30 -39 75l-69 6q-22 -2 -42 -3t-36 -3q-71 -5 -82 -7h1q-13 -2 -24 -2.5t-22 -1.5l-34 -3h1q-14 -1 -27.5 -2.5t-25.5 -5.5l1 1q-13 -2 -27.5 -4.5t-28.5 -4.5 q-6 -2 -12.5 -3t-11.5 -3l1 1q-59 -9 -88.5 -27t-29.5 -54q0 -77 99 -77q3 0 11 1t22 3q22 2 39 5l28 5h-3q2 0 3 0.5t3 0.5q4 1 9 1h10t22 2v-32q0 -34 -3 -74.5t-8 -86.5v1l-20 -163v1q0 4 -0.5 1t-1 -8t-1 -11.5t-0.5 -10.5l-3 -26q-2 -14 -6 -22.5t-9 -13.5l2 1 q-11 -8 -34 -12q-4 -1 -14.5 -3t-30.5 -5l-25.5 -5.5t-23.5 -5.5l1 1q-20 -3 -32.5 -6t-23.5 -8q-36 -16 -36 -57q0 -3 -0.5 -6t-0.5 -5zM596 651l12 -37q10 -6 17.5 -8t15.5 -3q10 -8 10 -14q0 -41 -0.5 -69t-1.5 -48q-3 -6 -7 -13t-12 -14q-7 -17 -10 -31t-3 -23 q0 -16 10 -37q1 -3 1 -7t1 -7v1q1 -9 1.5 -15.5t3.5 -14.5q0 -2 0.5 -4t0.5 -5t-0.5 -7t-0.5 -7v2q-3 -33 -3 -50v-110q-1 -5 -1 -12v-7q0 -19 1 -24q-1 -5 -1 -10v-7q0 -32 29 -41h-1q26 -10 53 -10q10 0 16 1t9 7q19 16 26 58q3 25 5 54t4 66q6 114 6 119q0 10 12 15 q16 5 44 10.5t67 11.5l71.5 10.5t48.5 10.5l-2 -1l53 12q39 16 39 61q0 69 -84 69q-5 0 -21.5 -1.5t-44.5 -6.5q-62 -7 -94 -13q-8 -2 -15 -2.5t-14 -1.5q-14 -4 -21 -7h-13v24q0 10 -0.5 18.5t-0.5 16.5q0 34 3.5 51t12.5 23h-1q7 5 20 8.5l33 8.5l20 4l20 4l14.5 3.5 t10.5 2.5q54 12 92 19.5l65 12.5q31 7 43 21.5t12 46.5q0 70 -72 70q-43 0 -103 -7.5t-139 -25.5q-93 -20 -148 -40.5t-72 -39.5q-17 -23 -17 -61zM40 651l12 -37q10 -6 17.5 -8t15.5 -3q10 -8 10 -14q0 -41 -0.5 -69t-1.5 -48q-3 -6 -7 -13t-12 -14q-7 -17 -10 -31t-3 -23 q0 -16 10 -37q1 -3 1 -7t1 -7v1q1 -9 1.5 -15.5t3.5 -14.5q0 -2 0.5 -4t0.5 -5t-0.5 -7t-0.5 -7v2q-3 -33 -3 -50v-110q-1 -5 -1 -12v-7q0 -19 1 -24q-1 -5 -1 -10v-7q0 -32 29 -41h-1q26 -10 53 -10q10 0 16 1t9 7q19 16 26 58q3 25 5 54t4 66q6 114 6 119q0 10 12 15 q16 5 44 10.5t67 11.5l71.5 10.5t48.5 10.5l-2 -1l53 12q39 16 39 61q0 69 -84 69q-5 0 -21.5 -1.5t-44.5 -6.5q-62 -7 -94 -13q-8 -2 -15 -2.5t-14 -1.5q-14 -4 -21 -7h-13v24q0 10 -0.5 18.5t-0.5 16.5q0 34 3.5 51t12.5 23h-1q7 5 20 8.5l33 8.5l20 4l20 4l14.5 3.5 t10.5 2.5q54 12 92 19.5l65 12.5q31 7 43 21.5t12 46.5q0 70 -72 70q-43 0 -103 -7.5t-139 -25.5q-93 -20 -148 -40.5t-72 -39.5q-17 -23 -17 -61z" />
<glyph unicode="&#xfb04;" horiz-adv-x="1729" d="M1162 194q0 -41 9 -71t26 -51q20 -23 50.5 -34t69.5 -11q17 0 40.5 3.5t57.5 11.5l35.5 11.5t39.5 14.5l19 7.5t18 7.5l16.5 6.5t16.5 7.5l37 16t31 14q13 5 23 9.5l19 8.5q13 7 25.5 12.5t26.5 10.5q41 24 41 62q0 31 -16 56q-22 33 -55 33q-16 0 -91 -34 q-17 -8 -31 -14t-27 -11l-22.5 -9t-18.5 -8l1 1q-11 -5 -21 -8.5t-21 -6.5q-11 -4 -21 -8t-21 -8q-48 -14 -81 -14q1 0 -3 15l1 -1l-3 11l81 490l1 3v9q0 36 -24 65q-29 32 -66 32q-39 0 -57 -33q-6 -8 -11.5 -21.5t-8.5 -32.5l1 1q-1 -3 -2 -7t-2 -6q-2 -11 -4 -20.5 t-4 -20.5l1 2l-7.5 -35t-7.5 -32q-6 -31 -12 -59t-11 -47q-19 -109 -28.5 -185.5t-9.5 -132.5zM596 651l12 -37q10 -6 17.5 -8t15.5 -3q10 -8 10 -14q0 -41 -0.5 -69t-1.5 -48q-3 -6 -7 -13t-12 -14q-7 -17 -10 -31t-3 -23q0 -16 10 -37q1 -3 1 -7t1 -7v1q1 -9 1.5 -15.5 t3.5 -14.5q0 -2 0.5 -4t0.5 -5t-0.5 -7t-0.5 -7v2q-3 -33 -3 -50v-110q-1 -5 -1 -12v-7q0 -19 1 -24q-1 -5 -1 -10v-7q0 -32 29 -41h-1q26 -10 53 -10q10 0 16 1t9 7q19 16 26 58q3 25 5 54t4 66q6 114 6 119q0 10 12 15q16 5 44 10.5t67 11.5l71.5 10.5t48.5 10.5l-2 -1 l53 12q39 16 39 61q0 69 -84 69q-5 0 -21.5 -1.5t-44.5 -6.5q-62 -7 -94 -13q-8 -2 -15 -2.5t-14 -1.5q-14 -4 -21 -7h-13v24q0 10 -0.5 18.5t-0.5 16.5q0 34 3.5 51t12.5 23h-1q7 5 20 8.5l33 8.5l20 4l20 4l14.5 3.5t10.5 2.5q54 12 92 19.5l65 12.5q31 7 43 21.5t12 46.5 q0 70 -72 70q-43 0 -103 -7.5t-139 -25.5q-93 -20 -148 -40.5t-72 -39.5q-17 -23 -17 -61zM40 651l12 -37q10 -6 17.5 -8t15.5 -3q10 -8 10 -14q0 -41 -0.5 -69t-1.5 -48q-3 -6 -7 -13t-12 -14q-7 -17 -10 -31t-3 -23q0 -16 10 -37q1 -3 1 -7t1 -7v1q1 -9 1.5 -15.5 t3.5 -14.5q0 -2 0.5 -4t0.5 -5t-0.5 -7t-0.5 -7v2q-3 -33 -3 -50v-110q-1 -5 -1 -12v-7q0 -19 1 -24q-1 -5 -1 -10v-7q0 -32 29 -41h-1q26 -10 53 -10q10 0 16 1t9 7q19 16 26 58q3 25 5 54t4 66q6 114 6 119q0 10 12 15q16 5 44 10.5t67 11.5l71.5 10.5t48.5 10.5l-2 -1 l53 12q39 16 39 61q0 69 -84 69q-5 0 -21.5 -1.5t-44.5 -6.5q-62 -7 -94 -13q-8 -2 -15 -2.5t-14 -1.5q-14 -4 -21 -7h-13v24q0 10 -0.5 18.5t-0.5 16.5q0 34 3.5 51t12.5 23h-1q7 5 20 8.5l33 8.5l20 4l20 4l14.5 3.5t10.5 2.5q54 12 92 19.5l65 12.5q31 7 43 21.5t12 46.5 q0 70 -72 70q-43 0 -103 -7.5t-139 -25.5q-93 -20 -148 -40.5t-72 -39.5q-17 -23 -17 -61z" />
</font>
</defs>
</svg>
