<?xml version="1.0"?>
<svg  xmlns="http://www.w3.org/2000/svg" width="600.28px" height="501.27px">
<g id="Layer_1_1_">
	<g>
		<path d="M197.503,320.323c-3.774-0.53-7.543,0.493-10.888,2.217c-3.365,1.728-6.369,4.123-9.126,6.745
			c-5.496,5.301-9.955,11.641-13.722,18.291c-3.751,6.668-6.779,13.756-8.828,21.054c-1.013,3.649-1.778,7.352-2.183,11.049
			c-0.391,3.69-0.409,7.401,0.232,10.876c0.633,3.464,1.975,6.676,4.172,8.96c0.27,0.29,0.558,0.56,0.853,0.82
			c0.315,0.276,0.557,0.464,0.98,0.787c0.66,0.495,1.404,0.999,2.152,1.455c1.506,0.919,3.115,1.717,4.786,2.413
			c6.713,2.784,14.221,4.09,21.764,4.84c3.784,0.372,7.604,0.588,11.454,0.734c1.927,0.067,3.87,0.141,5.748,0.164
			c1.848,0.019,3.716-0.031,5.56-0.146c7.379-0.483,14.63-2.045,21.188-5.08c6.563-3.002,12.375-7.45,16.993-12.964
			c4.642-5.504,8.075-12.025,10.421-18.944c4.699-13.892,5.054-29.277,2.186-43.844c-2.909-14.582-9.053-28.588-18.233-40.13
			c-4.586-5.764-9.956-10.866-15.953-15.052c-1.501-1.044-3.042-2.029-4.622-2.949l-1.204-0.681l-1.149-0.608
			c-0.794-0.411-1.605-0.798-2.426-1.168c-3.286-1.483-6.764-2.655-10.339-3.596c-7.164-1.855-14.678-2.893-22.29-3.438
			c-7.619-0.567-15.337-0.648-23.128-0.767l-5.841-0.086c-1.915-0.025-3.773-0.006-5.674,0.061
			c-3.775,0.139-7.54,0.462-11.265,1.016c-7.45,1.098-14.76,3.095-21.617,6.155c-6.854,3.051-13.245,7.164-18.813,12.242
			c-5.582,5.062-10.358,11.034-14.249,17.564c-3.896,6.534-6.857,13.637-9.069,20.967c-2.196,7.339-3.662,14.922-4.388,22.585
			c-1.464,15.331-0.326,30.93,3.095,45.972c1.712,7.522,3.989,14.916,6.851,22.069c2.85,7.156,6.342,14.053,10.501,20.5
			c4.156,6.441,8.985,12.447,14.572,17.603c1.398,1.286,2.848,2.511,4.343,3.671l1.125,0.855l1.171,0.861
			c0.763,0.552,1.546,1.101,2.336,1.643c3.158,2.161,6.435,4.16,9.786,6.032c13.426,7.485,27.978,12.925,42.806,17.029
			c14.855,4.056,30.101,6.688,45.398,7.677c7.647,0.489,15.309,0.55,22.914,0.109c7.604-0.424,15.159-1.361,22.533-2.949
			c7.367-1.599,14.556-3.848,21.325-6.891c6.761-3.049,13.079-6.949,18.556-11.749c5.477-4.796,10.093-10.482,13.595-16.822
			c3.456-6.509,6.487-13.613,9.146-20.709c5.294-14.263,8.94-29.136,11.053-44.217c2.119-15.083,2.695-30.385,1.765-45.585
			c-0.959-15.196-3.315-30.306-7.2-45.006c-3.877-14.7-9.322-28.97-16.256-42.445c-6.91-13.488-15.432-26.124-25.407-37.471
			c-9.992-11.329-21.511-21.293-34.226-29.441c-6.361-4.065-13.012-7.688-19.906-10.796c-3.441-1.536-6.977-3.04-10.426-4.234
			c-3.507-1.217-7.119-2.243-10.782-3.126c-14.683-3.517-30.046-4.94-45.363-5.059c-15.333-0.063-30.721,1.147-45.846,3.838
			c-7.562,1.346-15.052,3.081-22.416,5.232c-7.365,2.141-14.6,4.727-21.586,7.856c-6.985,3.129-13.708,6.829-19.982,11.175
			c-6.264,4.352-12.047,9.416-16.944,15.258c-4.899,5.83-8.91,12.441-11.602,19.618c-2.714,7.165-4.15,14.84-4.358,22.583
			c-0.008,0.29-0.249,0.519-0.539,0.511c-0.28-0.007-0.502-0.234-0.511-0.511c-0.219-7.841,0.754-15.794,3.201-23.353
			c2.426-7.559,6.246-14.692,11.105-21.015c4.86-6.332,10.682-11.887,17.017-16.705c6.335-4.833,13.211-8.9,20.325-12.419
			c14.257-7.021,29.487-11.811,44.964-15.058c15.491-3.238,31.278-5.009,47.124-5.28c7.923-0.138,15.863,0.083,23.795,0.737
			c7.93,0.664,15.86,1.727,23.726,3.465c3.931,0.875,7.847,1.912,11.729,3.184c3.941,1.293,7.611,2.788,11.316,4.363
			c7.377,3.172,14.521,6.903,21.371,11.116c13.715,8.414,26.13,18.916,36.896,30.849c10.789,11.928,19.873,25.323,27.286,39.527
			c7.398,14.223,13.049,29.297,17.122,44.744c4.071,15.452,6.537,31.311,7.329,47.247c1.626,31.845-2.992,64.096-14.489,93.93
			c-1.438,3.725-2.983,7.41-4.634,11.048c-0.822,1.815-1.683,3.623-2.572,5.448c-0.845,1.69-1.789,3.615-2.829,5.417
			c-4.126,7.262-9.571,13.792-15.925,19.152c-6.347,5.379-13.524,9.623-21.022,12.857c-7.502,3.252-15.342,5.481-23.246,6.995
			c-15.834,3.007-31.915,3.211-47.69,1.724c-15.789-1.503-31.342-4.685-46.435-9.3c-15.083-4.631-29.753-10.696-43.421-18.687
			c-3.408-2.01-6.745-4.154-9.968-6.472c-0.805-0.58-1.604-1.169-2.406-1.778l-1.164-0.898l-1.182-0.942
			c-1.557-1.264-3.048-2.602-4.499-3.977c-5.797-5.512-10.715-11.835-14.909-18.55c-8.332-13.486-14.031-28.412-17.459-43.776
			c-3.397-15.374-4.672-31.241-3.349-46.979c1.315-15.698,5.279-31.414,13.098-45.396c3.88-6.981,8.749-13.476,14.556-19.071
			c5.802-5.594,12.511-10.287,19.782-13.834c7.27-3.558,15.061-5.988,22.986-7.438c3.964-0.731,7.965-1.215,11.973-1.503
			c1.992-0.141,4.031-0.231,6.014-0.274l5.853-0.118c7.798-0.178,15.681-0.269,23.63,0.079c7.941,0.375,15.988,1.136,23.956,3.091
			c3.979,0.974,7.94,2.224,11.792,3.882c0.963,0.414,1.919,0.851,2.865,1.318l1.447,0.736l1.353,0.736
			c1.807,1.01,3.572,2.096,5.292,3.249c6.893,4.595,12.976,10.324,18.137,16.722c10.332,12.834,16.999,28.254,20.027,44.248
			c1.515,8.007,2.125,16.193,1.712,24.365c-0.419,8.167-1.865,16.336-4.597,24.157c-2.731,7.806-6.84,15.247-12.363,21.59
			c-5.501,6.35-12.467,11.483-20.149,14.831c-7.681,3.373-15.963,5.033-24.138,5.316c-2.049,0.073-4.082,0.073-6.13-0.001
			c-2.019-0.079-3.969-0.205-5.935-0.326c-3.936-0.253-7.896-0.582-11.86-1.077c-3.963-0.495-7.934-1.151-11.883-2.087
			c-3.943-0.944-7.882-2.148-11.681-3.889c-1.897-0.872-3.759-1.874-5.541-3.05c-0.895-0.592-1.747-1.209-2.622-1.917
			c-0.342-0.279-0.856-0.708-1.258-1.092c-0.422-0.399-0.83-0.813-1.209-1.25c-3.104-3.501-4.631-7.901-5.246-12.089
			c-0.619-4.23-0.421-8.396,0.147-12.431c0.575-4.039,1.568-7.96,2.815-11.77c2.506-7.616,5.979-14.824,10.17-21.566
			c4.219-6.716,9.201-13.003,15.218-18.245c3.014-2.601,6.338-4.908,10.029-6.524c1.843-0.802,3.782-1.419,5.781-1.735
			c1.992-0.313,4.066-0.304,6.024,0.093l0.021,0.004c0.284,0.058,0.468,0.335,0.41,0.619
			C198.035,320.181,197.776,320.361,197.503,320.323z"/>
	</g>
	<g>
		<path d="M447.625,13.825c-16.886,3.31-33.433,7.03-49.77,11.569c-8.167,2.258-16.273,4.699-24.337,7.276l-24.146,7.95
			c-16.111,5.303-32.422,10.6-47.898,17.856c-7.741,3.605-15.301,7.595-22.699,11.862c-7.401,4.265-14.589,8.895-21.674,13.66
			c-3.54,2.388-7.056,4.808-10.548,7.258l-10.451,7.374c-6.952,4.928-13.913,9.827-20.788,14.845
			c-6.866,5.03-13.677,10.131-20.421,15.317l-20.185,15.615c-6.733,5.201-13.423,10.459-20.129,15.713
			c-3.349,2.631-6.68,5.287-9.992,7.967l-9.977,8.005l-9.94,8.073l-9.921,8.124c-6.608,5.434-13.207,10.898-19.907,16.299
			c-0.227,0.183-0.559,0.148-0.742-0.079c-0.159-0.197-0.153-0.474,0-0.663c5.413-6.705,11.109-13.162,16.968-19.467
			c2.922-3.16,5.885-6.285,8.909-9.346c3.014-3.073,6.035-6.143,9.142-9.123c3.095-2.992,6.199-5.978,9.349-8.915
			c3.17-2.914,6.362-5.805,9.575-8.675c6.418-5.747,13.01-11.3,19.714-16.714c6.728-5.385,13.57-10.631,20.597-15.624
			c7.006-5.021,14.1-9.918,21.297-14.659c7.188-4.753,14.447-9.4,21.875-13.771l5.588-3.247l5.653-3.135
			c3.778-2.072,7.573-4.109,11.386-6.109c7.619-4.013,15.297-7.888,22.928-11.826l22.897-11.799
			c15.258-7.854,30.357-16.314,46.323-23.019c7.975-3.35,16.147-6.234,24.457-8.671c8.296-2.48,16.707-4.591,25.198-6.307
			c16.972-3.407,34.314-5.324,51.58-4.661h0.005c0.292,0.011,0.519,0.256,0.507,0.548C448.042,13.577,447.86,13.779,447.625,13.825z
			"/>
	</g>
	<g>
		<path d="M363.355,155.992c0.835,3.074,1.334,6.076,1.778,9.088c0.431,3.006,0.737,5.995,0.964,8.979
			c0.228,2.983,0.383,5.961,0.444,8.939c0.109,2.978,0.052,5.955-0.278,8.94c-0.625,5.967-2.18,11.994-2.301,18
			c-0.155,6.006,0.618,11.984,1.908,17.928c0.618,2.974,1.28,5.944,1.781,8.924c0.517,2.979,0.836,5.969,1.186,8.959
			c0.698,5.981,1.417,11.972,1.51,18.002c0.093,6.029-0.187,12.084-0.802,18.141c-0.642,6.055-1.576,12.117-3.359,18.131
			c-0.086,0.29-0.391,0.456-0.681,0.37c-0.183-0.055-0.317-0.2-0.369-0.37c-1.783-6-2.915-11.951-3.885-17.905
			c-0.943-5.953-1.682-11.903-2.115-17.875c-0.434-5.972-0.309-11.98-0.211-17.998c0.05-3.009,0.066-6.018,0.287-9.039
			c0.205-3.02,0.576-6.049,0.916-9.075c0.734-6.057,1.004-12.082,0.458-18.084c-0.512-6-2.347-11.985-3.08-18.031
			c-0.384-3.021-0.452-6.052-0.304-9.08c0.101-3.029,0.346-6.058,0.721-9.079c0.375-3.021,0.887-6.036,1.589-9.031
			c0.715-2.988,1.55-5.984,2.796-8.903c0.118-0.283,0.443-0.417,0.726-0.298C363.196,155.693,363.311,155.835,363.355,155.992z"/>
	</g>
	<g>
		<path d="M245.52,224.646c12.918-4.105,26.09-6.981,39.332-9.357c6.624-1.176,13.271-2.205,19.938-3.071
			c6.661-0.911,13.353-1.579,20.072-1.938c13.442-0.721,26.963-0.268,40.357-1.027c6.701-0.356,13.384-0.908,20.062-1.575
			c6.678-0.662,13.343-1.539,20.016-2.393c6.671-0.87,13.347-1.762,20.037-2.425c6.688-0.722,13.39-1.172,20.092-1.647
			c13.404-0.942,26.82-1.78,40.251-1.934c13.431-0.143,26.866,0.116,40.293,0.762c13.427,0.711,26.848,1.618,40.252,3.415
			c0.29,0.039,0.494,0.305,0.455,0.595c-0.032,0.242-0.224,0.424-0.455,0.455c-13.401,1.797-26.786,2.831-40.163,3.832
			c-13.376,0.935-26.744,1.646-40.111,2.152c-13.366,0.495-26.743,0.503-40.124,0.64c-6.69,0.064-13.377,0.21-20.076,0.148
			c-6.696-0.003-13.405-0.172-20.113-0.253c-6.707-0.065-13.417-0.085-20.11,0.18c-6.693,0.261-13.375,0.708-20.035,1.425
			c-13.325,1.389-26.499,4.294-39.717,6.362c-6.611,1.036-13.241,1.847-19.891,2.504c-6.644,0.701-13.298,1.329-19.962,1.902
			c-13.334,1.123-26.69,2.117-40.234,2.287c-0.293,0.003-0.533-0.231-0.537-0.524C245.145,224.92,245.303,224.715,245.52,224.646z"
			/>
	</g>
	<g>
		<path d="M473.124,266.789c0.22,0.86,0.506,1.656,0.786,2.539c0.276,0.87,0.557,1.801,0.628,2.852
			c0.021,0.262,0.023,0.53,0.018,0.803l-0.028,0.413l-0.008,0.104c-0.065,0.27-0.008,0.07-0.062,0.249
			c-0.084,0.237-0.1,0.258-0.133,0.346c-0.217,0.518-0.403,0.906-0.604,1.333c-0.4,0.83-0.791,1.647-1.216,2.444
			c-1.681,3.196-3.377,6.364-5.153,9.483c-3.537,6.245-7.234,12.377-11.032,18.44c-3.797,6.064-7.691,12.061-11.695,17.984
			c-3.971,5.949-8.103,11.774-12.519,17.442c-1.068,1.415-2.318,2.877-3.326,4.167l-3.263,4.156
			c-2.164,2.784-4.295,5.608-6.243,8.465c-0.949,1.406-1.931,2.917-2.497,4.188l-0.16,0.385c-0.04,0.084-0.041,0.159-0.061-0.033
			c-0.021-0.065-0.028-0.333-0.235-0.682c-0.053-0.096-0.133-0.22-0.219-0.314c-0.083-0.098-0.542-0.494-0.304-0.286
			c0.077,0.066-0.026-0.029-0.206-0.138c-0.151-0.091-0.341-0.154-0.332-0.15c-0.332-0.081-0.183-0.006-0.085-0.004
			c0.547,0.063,1.457,0.001,2.275-0.076c3.406-0.369,6.925-1.094,10.387-1.862l5.24-1.225c0.235-0.052,0.442-0.104,0.759-0.157
			l0.692-0.104l1.365-0.173l2.692-0.31l10.691-1.136c7.114-0.773,14.209-1.737,21.305-2.704c7.094-0.982,14.184-2.005,21.284-2.833
			c7.095-0.889,14.206-1.538,21.295-2.271l10.604-1.129c1.756-0.194,3.513-0.394,5.224-0.615c0.848-0.109,1.708-0.231,2.446-0.349
			l0.471-0.086c0.063-0.013,0.104-0.024,0.099-0.025l-0.091,0.02l-0.128,0.037c-0.112,0.034-0.223,0.074-0.331,0.119
			c-0.405,0.209-0.363,0.072-1.334,0.795c-1.79,1.806-1.729,2.763-1.58,2.147c0.074-0.181-0.106,0.224-0.208,0.637
			c-0.106,0.46-0.119,0.676-0.132,0.812c-0.047,0.712,0.045,1.081,0.083,1.297c0.112,0.461,0.155,0.497,0.156,0.525l-0.307-0.453
			c-0.173-0.243-0.383-0.521-0.612-0.808c-0.459-0.577-0.985-1.191-1.521-1.816c-1.09-1.26-2.243-2.498-3.493-3.861l-0.503-0.56
			l-0.303-0.35l-0.21-0.257l-0.23-0.304l-0.782-1.087l-1.564-2.173c-1.038-1.463-2.106-2.919-3.12-4.399
			c-8.189-11.784-15.903-23.838-23.405-36.001c-1.888-3.032-3.721-6.102-5.577-9.154l-2.781-4.581l-2.737-4.622l-5.451-9.23
			c-0.914-1.532-1.806-3.083-2.742-4.586c-0.468-0.74-0.938-1.522-1.41-2.173l-0.152-0.2c-0.015-0.024-0.038-0.041,0.023-0.015
			c0.032-0.009,0.078,0.089,0.441,0.041c0.52-0.113,0.613-0.673,0.579-0.655c-0.006-0.16-0.021-0.097-0.02-0.091
			c0.001,0.027,0.006,0.065,0.015,0.108c0.017,0.084,0.043,0.183,0.072,0.281c0.118,0.398,0.266,0.821,0.419,1.236
			c0.021,0.055,0.038,0.111,0.052,0.167L473.124,266.789z M472.082,267.005c-0.243-0.347-0.487-0.691-0.714-1.079
			c-0.061-0.106-0.122-0.213-0.182-0.338c-0.03-0.062-0.06-0.13-0.09-0.21c-0.026-0.101-0.07-0.148-0.072-0.42
			c-0.034-0.035,0.082-0.662,0.66-0.784c0.418-0.055,0.52,0.064,0.6,0.082c0.159,0.078,0.226,0.129,0.296,0.177
			c0.135,0.095,0.235,0.177,0.335,0.259c0.757,0.644,1.385,1.275,2.024,1.935c1.26,1.312,2.494,2.632,3.694,3.978
			c2.389,2.698,4.756,5.408,7.042,8.177c2.303,2.752,4.592,5.5,6.827,8.309c2.248,2.792,4.5,5.581,6.694,8.41
			c8.816,11.285,17.31,22.758,25.721,34.224l3.125,4.306l1.576,2.166l0.788,1.083c0.004,0.006,0.059,0.082,0.022,0.031l-0.052-0.067
			c-0.019-0.023-0.008-0.008,0,0.003l0.132,0.159l0.385,0.443c1.14,1.29,2.398,2.687,3.619,4.15
			c0.618,0.736,1.227,1.502,1.848,2.347c0.311,0.423,0.625,0.869,0.95,1.368c0.328,0.514,0.661,1.037,1.049,1.854
			c0.191,0.43,0.409,0.88,0.621,1.777c0.092,0.433,0.211,1.026,0.149,1.96c-0.015,0.191-0.034,0.463-0.154,0.978
			c-0.112,0.468-0.303,0.927-0.253,0.797c0.13-0.562,0.171,0.447-1.665,2.288c-1.015,0.756-1.026,0.64-1.481,0.874
			c-0.161,0.063-0.324,0.122-0.489,0.174l-0.29,0.083l-0.417,0.1l-0.558,0.104l-0.853,0.122c-1.03,0.13-1.945,0.202-2.873,0.278
			c-1.841,0.146-3.642,0.26-5.443,0.369l-10.756,0.552c-7.154,0.326-14.293,0.673-21.447,0.78
			c-7.149,0.165-14.309,0.129-21.463,0.161c-7.152,0.049-14.304,0.117-21.427,0.493c-3.561,0.185-7.121,0.417-10.649,0.77
			c-0.881,0.089-1.762,0.171-2.631,0.288l-1.289,0.183l-0.63,0.104l-0.55,0.125c-1.688,0.411-3.424,0.926-5.147,1.396
			c-3.466,0.958-6.879,1.98-10.514,2.827c-0.943,0.203-1.805,0.419-3.046,0.484c-0.347-0.007-0.65,0.045-1.409-0.173
			c-0.045-0.009-0.285-0.099-0.486-0.214c-0.231-0.131-0.384-0.252-0.349-0.224c0.191,0.176-0.31-0.256-0.423-0.401
			c-0.118-0.14-0.236-0.307-0.316-0.45c-0.301-0.551-0.367-1.039-0.39-1.327c-0.041-0.639,0.032-1.009,0.088-1.359
			c0.064-0.332,0.138-0.631,0.216-0.9c0.645-2.094,1.408-3.72,2.196-5.428c1.587-3.35,3.313-6.542,5.083-9.718
			c0.881-1.59,1.808-3.144,2.745-4.713l2.892-4.557c3.815-6.004,7.826-11.916,11.992-17.706c4.129-5.82,8.345-11.581,12.632-17.293
			c4.285-5.713,8.65-11.373,13.11-16.962l6.737-8.341l1.671-2.067l0.755-0.975c0.016-0.012,0.052-0.091,0.01,0.043
			c-0.03,0.128,0.042-0.126-0.01,0.09l0.02-0.061l0.08-0.248c0.044-0.171,0.087-0.347,0.115-0.531
			C472.324,270.658,472.01,268.834,472.082,267.005z"/>
	</g>
	<g>
		<path d="M473.958,100.037c0.281,3.93,0.515,7.697,0.866,11.434c0.345,3.731,0.761,7.409,1.265,11.063
			c0.504,3.654,1.099,7.281,1.745,10.899c0.69,3.612,1.351,7.223,1.91,10.892c1.121,7.31,1.937,14.994,4.649,22.078
			c2.657,7.083,6.693,13.609,11.564,19.375c2.414,2.9,4.964,5.656,7.486,8.379c2.535,2.713,5.022,5.426,7.649,7.984
			c5.262,5.118,10.942,9.638,16.728,13.882c5.789,4.255,11.895,8.036,18.46,11.125c3.283,1.547,6.681,2.901,10.197,4.119
			c3.524,1.184,7.166,2.176,10.956,3.092c0.29,0.069,0.469,0.36,0.4,0.65c-0.048,0.204-0.209,0.354-0.4,0.4
			c-3.852,0.917-7.851,1.255-11.858,1.151c-4.017-0.068-8.042-0.63-11.986-1.563c-7.898-1.869-15.438-5.292-22.18-9.774
			c-6.754-4.501-12.526-10.238-17.614-16.357c-2.549-3.063-4.966-6.22-7.067-9.582c-2.113-3.352-3.932-6.874-5.62-10.42
			c-3.334-7.127-6.438-14.168-9.826-21.122c-3.328-6.953-7.464-13.78-10.036-21.302c-1.285-3.746-2.154-7.629-2.641-11.568
			c-0.531-3.932-0.761-7.911-0.68-11.887c0.079-3.975,0.483-7.951,1.282-11.848c0.806-3.891,1.965-7.725,3.72-11.294l0.003-0.006
			c0.132-0.269,0.458-0.38,0.727-0.248C473.835,99.677,473.944,99.852,473.958,100.037z"/>
	</g>
	<g>
		<path d="M506.725,59.033c0.935,1.108,1.559,2.068,2.101,3.037c0.535,0.958,0.943,1.874,1.271,2.771
			c0.345,0.895,0.579,1.771,0.769,2.64c0.2,0.869,0.267,1.734,0.076,2.665c-0.369,1.831-1.534,4.061-1.172,5.977
			c0.309,1.908,1.661,3.47,3.457,4.473c0.878,0.518,1.797,0.94,2.591,1.395c0.807,0.445,1.47,0.96,2.182,1.412
			c1.43,0.905,2.896,1.578,4.121,2.61c1.235,1.032,2.425,2.245,3.739,3.63c1.307,1.409,2.717,2.936,4.248,5.105l0.007,0.01
			c0.223,0.315,0.147,0.751-0.168,0.973c-0.021,0.015-0.044,0.029-0.066,0.042c-2.366,1.299-4.789,1.653-7.176,1.543
			c-2.38-0.133-4.742-0.787-6.826-1.978c-2.094-1.188-3.71-3.092-5.044-5.069c-0.671-0.988-1.309-1.992-1.717-3.132
			c-0.421-1.129-0.633-2.358-0.795-3.543c-0.287-2.405-0.659-4.467-1.724-6.309c-1.012-1.834-3.203-3.479-4.281-5.578
			c-0.546-1.035-0.757-2.148-0.761-3.266c-0.015-1.117,0.088-2.235,0.37-3.336c0.265-1.1,0.676-2.181,1.276-3.219
			c0.607-1.026,1.359-2.061,2.479-2.94l0.02-0.016C506.013,58.681,506.468,58.729,506.725,59.033z"/>
	</g>
</g>
</svg>
