<?xml version="1.0" standalone="no"?>
<!DOCTYPE svg PUBLIC "-//W3C//DTD SVG 1.1//EN" "http://www.w3.org/Graphics/SVG/1.1/DTD/svg11.dtd" >
<svg xmlns="http://www.w3.org/2000/svg">
<metadata>
This is a custom SVG webfont generated by Font Squirrel.
Copyright   :  19992001 WolfBainX  Apostrophic Labs All rights reserved Email infoapostrophiclabcom or visit wwwapostrophiclabcom for more information
Designer    : WolfBainX  Apostrophe
Foundry URL : wwwapostrophiclabcom
</metadata>
<defs>
<font id="webfontPe1SRYER" horiz-adv-x="1251" >
<font-face units-per-em="2048" ascent="1638" descent="-410" />
<missing-glyph horiz-adv-x="536" />
<glyph unicode=" "  horiz-adv-x="536" />
<glyph unicode="&#x09;" horiz-adv-x="536" />
<glyph unicode="&#xa0;" horiz-adv-x="536" />
<glyph unicode="!" horiz-adv-x="454" d="M102 59q-8 -35 8.5 -65.5t67.5 -30.5q74 0 122 33t77 133l4 18q8 43 -10.5 70t-73.5 27q-61 0 -116.5 -49.5t-76.5 -120.5zM242 410q-8 -39 3 -61.5t52 -22.5q66 0 105.5 47t58.5 121l211 710q4 16 9 32.5t9 33.5q10 53 -1 94t-64 41q-37 0 -62.5 -13.5t-42 -35t-26 -47 t-13.5 -49.5q-4 -10 -4 -19q0 -8 -2 -16l-205 -725q-22 -51 -28 -90z" />
<glyph unicode="&#x22;" horiz-adv-x="704" d="M284 927.5q-1 -20.5 3 -38t16 -30.5t35 -17h10q41 0 80 47t51 117l74 262q2 23 6 49t0 50t-20.5 40t-53.5 16q-59 0 -88.5 -43t-42.5 -100q0 -18 -2 -29l-51 -243l-4 -13q-4 -12 -8 -30q-4 -17 -5 -37.5zM647 884q4 -38 51 -42h9q51 0 84.5 47t46.5 117v2l57 256 q4 18 9 36.5t9 36.5q6 35 -4 60.5t-65 25.5q-37 0 -59.5 -14t-36 -37.5t-21.5 -53.5t-14 -61l-56 -251l-4 -29q-10 -55 -6 -93z" />
<glyph unicode="#" horiz-adv-x="1431" d="M247 401.5q-1 -14.5 6 -27t25.5 -19.5t53.5 -7q10 0 22.5 1t26.5 3h57l-106 -182q-27 -47 -43.5 -83t-20.5 -58q-6 -29 9.5 -42.5t60.5 -13.5q18 0 39.5 15.5t41 40t37 53.5t29.5 57l123 213h226l-111 -198q-25 -35 -36 -59.5t-15 -45.5q-10 -41 11.5 -56.5t47.5 -19.5h4 q18 0 41 17.5t44.5 45t40 58.5t32.5 60l113 198h75q35 -2 60.5 -3t48.5 -1q53 0 78.5 19.5t44.5 85.5l2 12q6 35 -27 42t-135 7h-51l180 315h70q23 -2 41 -2h39q49 0 83.5 14.5t43.5 49.5v14q8 10 10 23q4 23 -16.5 44t-73.5 21q-23 0 -54 -6h-51l88 154q63 86 76 141 q10 59 -57 59q-29 0 -47.5 -6t-36 -22.5t-35.5 -47.5l-47 -83l-113 -195h-225l104 184q41 59 52 105q12 66 -64 65q-29 0 -51.5 -15t-41 -37.5t-29.5 -47t-17 -41.5l-125 -213h-82h-31q-156 0 -180 -82l-2 -12q-8 -39 16.5 -52.5t71.5 -13.5h25q12 0 26 2h66l-185 -315h-59 h-31q-78 0 -127 -21.5t-61 -64.5q-4 -12 -5 -26.5zM702 514l183 315h225l-182 -315h-226z" />
<glyph unicode="$" horiz-adv-x="1024" d="M143 252q-12 -59 7.5 -101t59.5 -70t95 -42t115 -19l-31 -108q-6 -16 -9 -30.5t-7 -28.5q-23 -106 55 -107q35 0 57.5 13.5t38 36t24.5 53t15 65.5l33 117q78 20 156.5 66t149.5 115t127 162t89 208q4 10 6 21l4 22q14 72 6 125t-32.5 86.5t-63.5 50t-88 16.5 q-53 0 -112 -20l61 223h6q43 0 71 -16.5t44 -28.5q63 -57 106 -57q57 0 86 100l2 8q6 37 -16 69.5t-61 57.5t-89.5 38t-97.5 13l15 43q10 20 16 47q6 31 -5 57.5t-56 26.5h-9q-59 -6 -86.5 -44t-33.5 -72q-2 -6 -1 -11.5t-2 -9.5l-16 -53q-72 -20 -146.5 -63.5t-139 -103.5 t-116 -136t-75.5 -164q-4 -10 -8 -31q-12 -55 -2 -100t33.5 -77t55.5 -49.5t66 -17.5q27 0 62 14.5t76 37.5l-107 -381q-35 -12 -57 -13q-29 0 -48.5 12.5t-29.5 27t-14.5 26.5t-4.5 10q4 10 9 27q10 47 -9.5 72.5t-48.5 25.5q-33 0 -67.5 -28.5t-50.5 -86.5zM470 750.5 q-5 19.5 1 48.5q2 6 2 10q0 6 4 12q27 92 97.5 163t150.5 108l-84 -295q-45 -27 -82 -46.5t-63 -19.5q-21 0 -26 19.5zM657 242l131 465q68 29 115 28q74 0 51 -108q0 -16 -6 -31q-39 -135 -119 -226t-172 -128z" />
<glyph unicode="%" horiz-adv-x="1355" d="M342 43q-8 -43 8.5 -68.5t50.5 -25.5q33 0 76 27.5t88 89.5l328 487l223 330l138 204l76 112q26 38 32 50.5t8 20.5v6q10 43 -16.5 73.5t-67.5 30.5q-29 0 -56.5 -16t-55.5 -55l-343 -514l-231 -346l-142 -213l-76 -114q-26 -38 -31 -49.5t-7 -17.5zM363.5 972 q5.5 -40 25 -72t54 -52.5t87.5 -20.5q45 0 106.5 23.5t119 65.5t103.5 96.5t65 115.5q4 10 8 31q18 94 -30 153.5t-152 59.5q-57 0 -116 -23.5t-111 -64.5t-92 -95t-58 -118q-2 -6 -4 -11t-2 -11q-9 -37 -3.5 -77zM545 1055l4 16q6 25 23.5 47.5t39 41t45 28.5t43.5 10 q31 0 44.5 -18.5t9.5 -34.5l-2 -2q-8 -29 -29 -54.5t-46.5 -46t-52 -33t-44.5 -12.5q-10 0 -26.5 7.5t-8.5 50.5zM785 81q1 -38 18.5 -68.5t51.5 -51t91 -20.5q45 0 108.5 22.5t126 65.5t112.5 104.5t73 138.5l4 25q8 45 4 85t-21.5 70.5t-47 48t-72.5 17.5 q-66 0 -132.5 -17.5t-124.5 -56t-104.5 -102t-72.5 -156.5q-4 -10 -8 -30q-7 -37 -6 -75zM975 172l6 27q18 66 66.5 104.5t93.5 38.5q66 0 55 -45l-4 -25q-10 -33 -30.5 -61.5t-45 -50t-50.5 -34.5t-48 -13q-35 0 -41 19.5t-2 39.5z" />
<glyph unicode="&#x26;" horiz-adv-x="1284" d="M139 152q0 -61 21.5 -107.5t68.5 -74t125 -27.5q59 0 128 17t140.5 49t145.5 76t143 97l47 -112q16 -47 41 -67.5t54 -20.5q25 0 48 11t43.5 29.5t37 41t26.5 42.5l-131 213q27 25 57 57l57 63l53 63q26 31 42 53q37 33 39 57q4 18 -6 31.5t-28.5 22t-43 12.5t-49.5 4 t-44 -14.5t-32.5 -35t-24 -42t-18.5 -35.5q-14 -16 -29.5 -36.5t-37.5 -41.5l-70 189l-59 161q47 25 99 61t97 79t80 91t49 99l2 12q8 49 -9 86t-54 64t-87 40t-106 13q-127 0 -216 -47t-122 -168l-4 -16q-10 -57 1.5 -121t29.5 -119q-174 -86 -296 -213t-177 -330 q-12 -41 -18 -75q-13 -68 -13 -131zM333 246q1 35 7 71q2 18 10 41q41 143 131 233.5t219 156.5l32 -85l37 -103l40 -111q20 -57 43 -113q-55 -43 -114.5 -82t-118 -67.5t-113.5 -46t-100 -17.5q-27 0 -42.5 16.5t-23.5 44t-7 62.5zM795 1145l2 12q10 35 39.5 49.5 t74.5 14.5q14 0 35 -4.5t39.5 -11.5t29.5 -19t9 -29l-2 -4q-16 -59 -73.5 -100t-123.5 -70q-16 39 -27 81t-3 81z" />
<glyph unicode="'" horiz-adv-x="350" d="M284 927.5q-1 -20.5 3 -38t16 -30.5t35 -17h10q41 0 80 47t51 117l74 262q2 23 6 49t0 50t-20.5 40t-53.5 16q-59 0 -88.5 -43t-42.5 -100q0 -18 -2 -29l-51 -243l-4 -13q-4 -12 -8 -30q-4 -17 -5 -37.5z" />
<glyph unicode="(" horiz-adv-x="786" d="M276 561q-102 -526 160 -756q35 -29 66 -28q35 0 56.5 31.5t37.5 78.5l2 7q4 20 -5 41.5t-24.5 40t-31.5 33.5l-27 26q-16 33 -29.5 88t-19.5 129t-2 164t24 194q6 33 14.5 66t18.5 67q76 270 190.5 461t256.5 277q35 27 76.5 45t52.5 45l4 16q10 53 -10.5 77t-55.5 24 q-53 0 -121 -46q-109 -72 -197.5 -160.5t-160.5 -199.5t-128 -245t-101 -294q-14 -47 -25 -93z" />
<glyph unicode=")" horiz-adv-x="786" d="M119 -150q-4 -25 2 -41t20.5 -27t33 -16.5t36.5 -5.5q20 0 38.5 5.5t29.5 15.5q129 115 223 218t164.5 214t123 236.5t95.5 285.5l18 86q27 133 37 255t-3 228.5t-53 194.5t-116 152q-29 23 -61 22q-41 0 -73 -34.5t-46 -88.5v-6q-4 -23 9 -43t32.5 -41.5t39 -48.5 t25.5 -63l17 -74q10 -47 16 -112.5t4 -148.5t-20 -179q-4 -23 -11 -48l-12 -51q-33 -117 -59.5 -195.5t-66.5 -152.5t-102.5 -159l-166.5 -216q-18 -12 -45 -27.5t-52.5 -34t-46 -41t-28.5 -48.5z" />
<glyph unicode="*" horiz-adv-x="1087" d="M272 1114q-16 -72 35 -125q57 -53 123 -53q12 0 39 4t39 4q49 0 55 -22q10 -16 0 -70l-11 -45l-11 -45q-18 -109 65 -166q10 -8 49 -8q61 0 97 96q41 125 71 156q10 -4 33 -14.5t59 -30.5q70 -39 82 -39q35 0 66 29.5t39 64.5q6 43 -49 92q-29 27 -46.5 46.5t-19.5 33.5 q43 10 88 19l92 20q96 29 117 127q12 63 -8.5 83.5t-87.5 20.5q-12 0 -33.5 8.5t-48.5 8.5q-4 0 -8 -1t-8 -1l-51.5 -6.5t-34.5 -2.5q-70 0 -84 33q-4 18 -3 52t9 85q10 53 11 88t-3 54q-12 68 -94 67q-25 -2 -47.5 -13t-41 -28.5t-31.5 -40t-18 -45.5q0 -12 -2 -18 q-10 -49 -4 -102q-12 -18 -26 -19l-68 92q-47 49 -106 49q-35 0 -64 -25.5t-37 -60.5q-8 -41 39 -123l68 -116q-29 -25 -82 -25h-4q-37 0 -41 -2q-35 -8 -67 -32.5t-36 -53.5z" />
<glyph unicode="+" horiz-adv-x="1112" d="M152 436q-6 -33 13 -57.5t71 -24.5q12 0 32.5 -4t42.5 -4q16 0 33 6h199l-60 -217q-10 -10 -14 -28.5t-8 -34.5l-4 -21l-4 -16q-2 -6 -3 -11.5t-4 -11.5q-10 -49 11.5 -69.5t54.5 -20.5q37 0 75 24.5t50 65.5l8 31l13 47l14 47q6 23 8 35l53 180h223q14 -6 31 -6 q20 0 38.5 4t27.5 4q31 0 56.5 10.5t45 28t32.5 38t17 40.5q4 29 -12 51.5t-64 22.5l-110 -2h-230l58 207q14 20 20 47q6 35 8 37l3 12q10 51 -9.5 74.5t-54.5 23.5q-37 0 -75 -26.5t-52 -77.5q-6 -20 -16.5 -42t-14.5 -38v-10l-57 -207h-207q-8 4 -20 4q-18 0 -40 -4 t-32 -4q-63 0 -101 -33t-46 -70z" />
<glyph unicode="," horiz-adv-x="438" d="M-27 -188q-8 -41 11.5 -53.5t48.5 -12.5q57 0 114.5 29.5t105.5 75t84 98.5t48 102q4 10 5 19.5t5 19.5q12 70 -11.5 108t-98.5 38q-92 0 -136.5 -42t-54.5 -94q-6 -25 -3 -47t13 -41q23 -43 17 -75q-6 -29 -27.5 -46.5t-46 -29t-46 -19.5t-26.5 -16z" />
<glyph unicode="-" horiz-adv-x="790" d="M193 571q-6 -37 14 -67.5t74 -30.5q12 0 30.5 -4t38.5 -4q25 0 41 10l275 2l141 2q47 0 80 29t39 63q8 35 -17.5 66t-93.5 31q-16 0 -33.5 2t-36.5 2q-25 0 -45 -6h-282q-4 2 -25 2q-20 0 -45.5 -3t-36.5 -3q-51 0 -80.5 -28t-37.5 -63z" />
<glyph unicode="." horiz-adv-x="407" d="M74 61.5q6 -26.5 21.5 -48t38 -36t50.5 -14.5q41 0 74 16.5t56.5 42t40 55t22.5 54.5q4 8 5 15.5t5 17.5q4 20 4 43t-9 41t-27.5 29.5t-51.5 11.5q-41 0 -79 -15.5t-68.5 -40t-51 -53t-28.5 -55.5l-2 -10q-6 -27 0 -53.5z" />
<glyph unicode="/" horiz-adv-x="825" d="M111 2q-12 -68 77 -68q31 0 57.5 21.5t48 49.5t38 55.5t28.5 39.5l86 136l118 178l133 201l131 207l116 193q53 91 84 159v-3l30 58q15 31 19 59q6 29 -3 49.5t-48 20.5t-65.5 -9.5t-45 -22.5t-31 -29.5t-20.5 -30.5l-86 -144l-111 -187l-127 -210l-130 -212l-121 -195 l-99 -156q-33 -53 -53 -92t-26 -68z" />
<glyph unicode="0" horiz-adv-x="829" d="M131 316.5q6 -93.5 38 -164t87 -111.5t135 -41q84 0 161 47t139.5 127t107.5 185.5t69 222.5l2 10q16 82 23.5 175t-9 173t-61.5 132t-133 52q-39 0 -71.5 -3t-63.5 -12t-61.5 -27.5t-65.5 -47.5q-104 -86 -178 -224t-105 -296q-20 -104 -14 -197.5zM341 283.5 q-26 74.5 5 228.5q20 104 58 195.5t83 138.5q12 14 32 29.5t40.5 27.5t39.5 20.5t30 8.5q35 0 54 -24.5t27.5 -69.5t4.5 -105.5t-19 -130.5q-14 -72 -35.5 -139.5t-53.5 -122.5t-76 -91t-101 -40h2q-65 0 -91 74.5z" />
<glyph unicode="1" horiz-adv-x="409" d="M104 59q-2 -12 10.5 -24t30.5 -21q23 -14 56 -14q47 0 62.5 19.5t21.5 54.5q18 80 30 149l65 286q30 132 71 220q16 37 30.5 81t34.5 116q4 14 10 37.5t11 35.5q0 4 4 9q0 27 -13.5 44t-31 26t-32.5 12.5t-18 3.5q-31 0 -70.5 -16.5t-74.5 -37t-60.5 -40t-25.5 -25.5 q-16 -70 80 -92q-8 -41 -23 -88l-30 -101l-46 -146q-24 -77 -40 -165q-10 -47 -18.5 -106.5t-18.5 -120.5q-4 -23 -7.5 -48.5t-7.5 -48.5z" />
<glyph unicode="2" horiz-adv-x="831" d="M-8 84q-6 -35 7 -58.5t50 -23.5l23 4l45 8q59 12 149 27.5t183 15.5q68 0 113.5 -1t74.5 -3t43 -4t22 -4q4 0 8.5 -1t8.5 -1h8q41 0 63.5 27.5t30.5 64.5q14 72 -45 97.5t-203 25.5q-82 0 -186 -12q35 29 69 62l70 69l78 76q37 37 72 67q66 57 114 114.5t81.5 108t52 90 t22.5 64.5l2 4q16 84 -29 134t-137 50q-104 0 -219 -51l-103.5 -55.5t-111.5 -71.5t-92 -77.5t-45 -69.5q-4 -18 3 -36.5t18.5 -32t25.5 -23t25 -9.5q35 6 74.5 31t103.5 74q31 25 65.5 47.5t69.5 40.5t64.5 28.5t50.5 10.5q16 0 24 -9.5t6 -21.5q-4 -16 -39.5 -60 t-91.5 -104l-123 -127l-133 -131l-122 -116q-56 -53 -91 -82q-47 -39 -74.5 -66l-44 -44t-22.5 -28.5t-8 -17.5z" />
<glyph unicode="3" horiz-adv-x="862" d="M20 219q-8 -45 15.5 -85t71 -69.5t114 -47t144.5 -17.5q84 0 164.5 21.5t146 63.5t113 104.5t63.5 146.5q35 186 -119 244q129 68 194.5 131t82.5 147q10 51 -3.5 92t-43 71t-72.5 46t-92 16q-39 0 -95.5 -14t-120 -37.5t-127 -55.5t-115.5 -67t-87 -70.5t-41 -68.5 q-4 -18 2 -37.5t18.5 -34t30 -23.5t33.5 -9q35 0 65 32v-2q47 43 101.5 80t106 62.5t97.5 40t76 14.5q25 0 40.5 -10.5t11.5 -32.5q-6 -37 -56.5 -78t-118 -78t-143.5 -64.5t-133 -35.5h2q-41 -4 -56.5 -20.5t-23.5 -53.5q-8 -47 9.5 -85t46.5 -38q6 0 12 2q4 2 12 3t14 4 q41 16 82 22t80 6q66 0 103 -21.5t26 -70.5q-6 -31 -27.5 -59.5t-56.5 -52t-82 -37t-102 -13.5q-63 0 -105 13.5t-49 44.5q-6 20 -19 32.5t-26.5 18.5t-26 8t-18.5 2q-39 0 -74 -16.5t-45 -63.5z" />
<glyph unicode="4" horiz-adv-x="978" d="M72 391q-4 -18 1 -37.5t14 -36t21.5 -26.5t24.5 -10h4q2 0 5 1t5 1q41 12 95.5 25.5t106.5 23.5t97.5 17t69.5 7q4 0 8 6v-6l4 -8q-14 -49 -24 -89t-17 -73q-20 -98 0.5 -140t81.5 -42q53 0 90 29.5t41 54.5q-4 43 -3 68.5t8 58.5q8 45 34 129l2 14l37 4.5t39 2.5l127 -9 h6q18 0 33.5 10.5t29 26t21.5 33.5t13 33q6 33 -7.5 51t-38 27.5t-59.5 11.5t-72 2h-63q27 76 80 190.5t112 229.5v-2l25 41q-6 12 -16.5 28.5t-22.5 32.5t-27.5 27.5t-29.5 11.5q-39 -16 -115 -66.5t-169 -119t-191 -149.5l-182 -155q-83 -75 -138 -136.5t-61 -92.5z M412 524l97 88l74 65q32 28 57 47l48 38v-2l-42 -96q-22 -49 -44 -111l-2 -8q-66 -4 -111.5 -9.5t-76.5 -11.5z" />
<glyph unicode="5" horiz-adv-x="847" d="M25 233q-8 -43 20.5 -85t78.5 -73.5t117.5 -51t135.5 -19.5q100 0 185 26.5t150.5 73t107.5 105.5t54 127q12 63 -2 123.5t-57 108.5t-114.5 78t-172.5 30q-59 0 -120 -12l73 180q6 14 64.5 23.5t133.5 14.5t147.5 7t107.5 2q39 0 56.5 25.5t23.5 54.5q8 37 4 59.5 t-15.5 34.5t-28 16t-34.5 4h-39q-18 -2 -79.5 -8t-142.5 -16t-168 -26.5t-159 -39.5q-14 -6 -35.5 -40.5t-44.5 -85.5l-46 -107q-24 -57 -42 -106.5l-30.5 -85t-12.5 -42.5q-6 -35 15.5 -71.5t68.5 -36.5q16 0 43 10q125 49 217 49q41 0 77 -11t60.5 -31.5t37 -47.5t6.5 -57 q-10 -59 -72 -91t-156 -40h-16q-70 0 -119 37.5t-82 68.5q-20 16 -31.5 28.5t-27.5 12.5q-41 0 -90 -43v-4q-23 -20 -33 -38t-14 -30z" />
<glyph unicode="6" horiz-adv-x="907" d="M127 377q-23 -119 9 -192.5t86 -113.5t110.5 -54.5t83.5 -14.5q88 0 175 37t159.5 98.5t125 141t68.5 165.5q14 70 0 133.5t-51 110.5t-96.5 75t-137.5 28q-39 0 -90 -13q51 68 103.5 113t87.5 72q49 37 51 53q8 39 -19.5 67.5t-70.5 28.5q-51 0 -125 -54t-176 -179 q-86 -104 -139.5 -179t-85 -132.5t-46 -102.5t-22.5 -88zM336 381q23 113 93.5 172t152.5 59q51 0 78.5 -11t40 -26.5t15.5 -32.5l5 -30h4q4 -20 5 -39.5t-3 -42.5q-29 -76 -62.5 -122t-69.5 -71.5t-71 -33.5t-65 -8q-68 0 -103.5 47t-19.5 139z" />
<glyph unicode="7" horiz-adv-x="790" d="M188 965q-8 -37 17.5 -57.5t62.5 -31t74 -12.5t51 -2h15q66 0 112.5 1t108.5 9q2 2 12 2l-8 -12l-161 -252l-127 -215q-54 -96 -86 -168.5t-40 -113.5l-2 -9q-10 -47 9.5 -75.5t74.5 -28.5q66 0 101.5 30.5t39.5 49.5l2 10q-4 20 -4 31q0 12 4 24q8 41 58.5 149.5 t167.5 289.5l78 109l73 97q35 44 65 77l48 55q31 35 31 41q4 39 -5.5 62.5t-24.5 34.5t-34.5 14t-36.5 3l-8 -41q2 0 -18.5 2l-56.5 5.5t-84 6.5t-103 3q-113 0 -158 2t-61 4h-25q-84 -10 -121 -38.5t-41 -55.5z" />
<glyph unicode="8" horiz-adv-x="845" d="M68 219q-20 -100 58.5 -159.5t223.5 -59.5q59 0 120.5 10t114 33t89.5 58.5t47 84.5v7q6 31 1 61.5t-23.5 65t-48.5 77.5l-72 101l-9 10l74 57l96 79l90 80q41 38 56 58q29 41 43 73t20 60q6 27 -1 56.5t-28.5 54.5t-56.5 40t-84 15q-51 0 -111.5 -10t-116.5 -25.5 t-105.5 -33t-79.5 -31.5q-139 -72 -166 -197q-25 -125 96 -274q-109 -90 -162 -157.5t-65 -133.5zM268 225q12 68 133 156q106 -117 101 -162q-2 -10 -10.5 -18l-18.5 -17q-37 -18 -82 -18q-133 0 -123 59zM397 780q4 20 33 42t73 41.5t98 31.5t110 14h4q47 0 39 -32 q-4 -18 -26.5 -43t-51.5 -48.5l-56 -43.5l-42 -29l-9 -6l-51 -36q-18 -13 -28.5 -19.5t-13.5 -8.5t-5 -2l-2 -2q-23 20 -37 45t-22.5 44.5t-10.5 33.5t-2 18z" />
<glyph unicode="9" horiz-adv-x="862" d="M123 569q-10 -55 1 -101t40 -79t70.5 -51.5t93.5 -18.5q76 0 159.5 32t161.5 75l-90 -383q20 -43 86 -43q37 0 75 15.5t46 62.5q4 37 8 68.5t12 72.5q16 86 41 173t53.5 171t61.5 161t64 138h-2l25 49q9 18 15.5 29.5t8.5 18t2 10.5q4 29 -16.5 61.5t-41.5 44.5 q-14 4 -54 11.5t-87 7.5q-86 0 -156.5 -14.5t-124 -35t-88 -40t-53.5 -31.5q-2 -2 -5 -4t-5 -4l2 2q-92 -59 -148.5 -120t-89 -115t-47 -96t-18.5 -67zM330 575q10 55 49 111.5t91 103t109.5 75t106.5 28.5q35 0 59.5 -17.5t20.5 -56.5q-10 -45 -45 -100t-85 -104.5 t-111.5 -83t-125.5 -33.5q-37 0 -57 21t-12 56z" />
<glyph unicode=":" horiz-adv-x="405" d="M98 96q-10 -51 10.5 -92t75.5 -41q74 0 122 53.5t71 120.5l4 13q2 6 2 12q10 55 -9.5 91t-72.5 36q-39 0 -71.5 -16.5t-58.5 -42t-43 -56.5t-26 -61zM252 666q-10 -53 11.5 -94.5t76.5 -41.5q74 0 122 53.5t70 121.5l4.5 13t2.5 13q10 55 -8.5 90t-71.5 35 q-39 0 -73 -16.5t-60.5 -42t-44 -56t-25.5 -61.5z" />
<glyph unicode=";" horiz-adv-x="405" d="M-43 -190q-8 -41 11.5 -53.5t47.5 -12.5q57 0 114.5 29.5t106 75t83 99.5t49.5 103q4 10 5 19.5t5 19.5q12 68 -11.5 107t-99.5 39q-41 0 -73.5 -17.5t-57 -42t-41 -53.5t-22.5 -51l-4 -15q-10 -49 16.5 -70.5t58.5 -21.5q27 0 52 12q-27 -43 -64 -59t-72.5 -25.5 t-64.5 -22.5t-37 -46zM258 666q-10 -51 10.5 -93.5t75.5 -42.5q74 0 122 53.5t71 121.5q2 6 4 13t2 13q10 55 -8.5 90t-71.5 35q-39 0 -72 -16.5t-59.5 -42t-44 -56t-25.5 -61.5z" />
<glyph unicode="&#x3c;" horiz-adv-x="1077" d="M262 467q-4 -25 7.5 -49.5t33.5 -42.5l455 -369q18 -33 59 -33t86 31t58 76l2 16q8 45 -12.5 56.5t-45.5 13.5l-377 295l541 246q31 0 60.5 23.5t44.5 74.5l2 10q10 41 -16.5 66.5t-67.5 25.5q-27 0 -54.5 -14t-48.5 -43l-635 -287q-41 -18 -63.5 -43.5t-28.5 -52.5z" />
<glyph unicode="=" horiz-adv-x="1202" d="M233 418q-8 -39 6.5 -70t59.5 -31q23 0 78 23h612q16 -8 26.5 -10t16.5 -2h6q31 0 56.5 11t45 29.5t33 41t17.5 45.5q8 37 -10.5 65.5t-69.5 28.5q-29 0 -46 -9l-17 -10h-625q-10 10 -25.5 12.5t-29.5 2.5q-53 0 -89.5 -40t-44.5 -87zM346 827q-10 -41 6.5 -71.5 t59.5 -30.5q45 0 71 20h617q14 -10 27.5 -12t27.5 -2q55 0 87 28.5t48 78.5l2 14q8 41 -7 72.5t-56 31.5q-29 0 -50 -10l-22 -10h-618q-16 12 -34 14t-26 2q-55 0 -90 -40t-43 -85z" />
<glyph unicode="&#x3e;" horiz-adv-x="1077" d="M162 78q-10 -53 19.5 -82t70.5 -29q23 0 45 10.5t39 32.5l680 379q27 14 47 39t27 53q4 23 -4.5 42.5t-32.5 35.5l-480 295q4 16 -18.5 36.5t-46.5 20.5q-59 0 -102.5 -40t-51.5 -83q-6 -29 7.5 -51t48.5 -30l407 -244l-545 -293q-12 0 -27.5 -2t-30.5 -10t-28.5 -24.5 t-21.5 -45.5z" />
<glyph unicode="?" horiz-adv-x="1087" d="M252 49q-12 -59 22.5 -83.5t81.5 -24.5q70 0 114 36.5t62 102.5l-4 -2q8 16 9 33q10 49 -3.5 80.5t-66.5 31.5q-72 0 -129 -32.5t-84 -124.5zM326 453q-10 -53 12 -84t100 -31q23 0 40.5 21.5t37 58.5l47 85t72.5 100t110.5 104.5t161.5 99.5q51 25 101.5 58.5t93.5 75.5 t74.5 89t46.5 100l4 11.5t2 11.5q10 51 -6.5 95t-52 77t-85 51.5t-106.5 18.5q-66 0 -132.5 -20.5t-132 -51.5t-126.5 -70l-117 -75q-47 -33 -88 -76t-53 -84l-4 -17q-10 -47 6 -69.5t51 -22.5q39 0 93 30t116 89q90 72 175 124t157 52q47 0 80.5 -17.5t27.5 -49.5l-2 -7 q-8 -33 -57 -73.5t-119 -87.5l-152 -100q-82 -52 -155.5 -108t-129 -114.5t-73.5 -116.5q-4 -20 -9 -39.5t-9 -37.5z" />
<glyph unicode="@" horiz-adv-x="1650" d="M170 209q8 -80 50 -139.5t124 -93t213 -33.5q59 0 113.5 11t96.5 24.5t67 23.5l24 10q51 0 90 39t47 80q8 33 -10 56.5t-72 23.5q-35 0 -54 -18.5t-48 -51.5l-18 -9q-18 -9 -49 -19.5t-69 -19.5t-77 -9q-92 0 -147.5 25.5t-83 67.5t-30.5 96.5t9 111.5q2 27 12 59 q20 72 67.5 160t118 176t163 172t202 149.5t234.5 104.5t262 39q92 0 147.5 -30.5t82 -80t28.5 -113t-10 -126.5l-7.5 -30.5l-7.5 -30.5q-33 -115 -81 -204t-98 -149.5t-96 -91.5t-73 -31q-25 0 -16 33q2 10 6 22l8 21l197 567q10 10 14 33q4 25 -5 51.5t-52 26.5h-4 q-20 0 -48 -14.5t-38 -38.5l-22 3q-22 3 -38 3q-80 0 -161.5 -28.5t-158.5 -77t-147.5 -112t-127 -132t-96.5 -138t-58 -131.5q-2 -8 -4 -15t-4 -15q-14 -74 19.5 -119t139.5 -45q55 0 119 28.5t126 72.5t122 94l106 94q-37 -92 -49 -164q-16 -86 5.5 -133t93.5 -47 q70 0 154.5 45t165.5 129t150.5 200.5t110.5 262.5l8 33l9 34q18 98 9 185.5t-55.5 153t-136.5 104t-233 38.5q-125 0 -254 -36.5t-251 -100t-233.5 -150.5t-202.5 -189.5t-158 -215t-99 -225.5l-12 -43q-5 -20 -9 -43q-18 -90 -10 -170zM719 463l2 8q14 51 70.5 128 t133 149.5t164 125t164.5 52.5q25 0 34 -11.5t5 -27.5v-4q-6 -23 -38.5 -67t-80 -96t-103.5 -106.5t-112.5 -99.5t-107.5 -73.5t-86 -28.5t-42 17.5t-3 33.5z" />
<glyph unicode="A" horiz-adv-x="1222" d="M33 49q-2 -9 -2 -18q0 -20 10 -35q14 -23 68 -27h6q41 0 78.5 50.5l87.5 121.5l225 326l57 4l135 9l155 9.5t116 4.5q14 -66 23 -104l16 -63q6 -26 9 -45.5t7 -50.5q6 -33 15.5 -77.5t19.5 -85.5t21.5 -70t17.5 -29h16q55 0 85 32t40 81q5 31 5 59q0 9 -1 19 q-10 92 -35 229l-51 288q-27 151 -48.5 295t-25.5 253q1 10 1 20q0 48 -17 83q-20 42 -61 42q-31 0 -68 -29.5t-80 -99.5l-764 -1069l-33 -52q-22 -36 -28 -71zM635 653l278 412l6 -86q3 -53 8 -109.5t11 -110.5t12 -87z" />
<glyph unicode="B" horiz-adv-x="1255" d="M145 -17q6 -28 37 -28q90 0 204 19.5t235.5 56.5t240.5 91t218.5 123.5t172 154.5t99.5 184q2 6 4 13t4 13q5 27 5 52q0 80 -56 135q-74 72 -240 71q147 70 214 143.5t91 159.5l2 13q3 13 3 26q0 55 -51 95q-62 49 -204 49q-154 0 -299 -33l-268 -61q-31 -6 -66.5 -33 t-46.5 -76q-2 -8 -2 -27l-247 -917l-28 -81q-13 -40 -20 -75q-5 -23 -4 -42q-1 -14 2 -26zM367 143l143 506q117 27 213 42.5t182 15.5q43 0 91 -3.5t87 -14.5t61.5 -31.5t16.5 -57.5l-2 -8q-29 -92 -120 -170t-209.5 -135.5t-243.5 -94.5t-219 -49zM559 827l68 240 q199 109 448 109q35 0 64.5 -8.5t25.5 -30.5l-2 -4q-14 -57 -78.5 -108.5t-152.5 -92.5t-187.5 -69t-185.5 -36z" />
<glyph unicode="C" horiz-adv-x="1175" d="M186 245q8 -91 46 -160t103.5 -107.5t162.5 -38.5q92 0 188 30.5t183 79.5t161 109.5t123 120.5q31 35 35 61q6 29 -12.5 43t-51.5 14q-39 0 -89 -21.5t-91 -68.5q-23 -29 -65.5 -62.5t-95 -61t-106.5 -46t-99 -18.5q-68 0 -109 26.5t-59 71.5q-20 48 -20 114 q0 55 11 115l9 34l8 34q35 125 100.5 249t150.5 220t183 156.5t199 60.5q63 0 96 -9t47 -26q43 -49 68.5 -80.5t33.5 -31.5q51 0 90 34.5t50 79.5q2 11 2 22q0 38 -29 68q-66 72 -147.5 98.5t-182.5 26.5q-133 0 -266 -72.5t-250 -194.5t-208 -278.5t-138 -322.5 q-12 -37 -18 -74q-15 -75 -15 -142q0 -27 2 -53z" />
<glyph unicode="D" horiz-adv-x="1241" d="M164 4q8 -35 57 -35q55 0 153.5 20.5t216.5 66.5t245 118t241.5 174.5t206.5 236.5t139 304q8 23 13 51q10 53 10 103q0 31 -4 62q-10 79 -52 139.5t-116 96t-184 35.5q-86 0 -155 -9t-127 -23.5t-111 -31.5l-105 -34q-63 -20 -100 -66.5t-48 -97.5q-4 -20 -4 -33 l-243 -862q-8 -33 -17.5 -65.5t-13.5 -61.5q-6 -30 -6 -53q0 -20 4 -35zM377 178l258 920q72 35 172 67.5t211 32.5q72 0 118 -23.5t70.5 -62.5t28.5 -90q1 -15 1 -29q0 -37 -7 -75l-6 -29q-47 -166 -148.5 -291t-223.5 -211t-249 -137.5t-225 -71.5z" />
<glyph unicode="E" horiz-adv-x="1087" d="M156 82q-4 -18 -4 -33q0 -27 12 -46q18 -30 90 -30h16q10 0 21 2l649 48q92 0 125 29.5t39 60.5l2 12q3 14 3 26q0 27 -16 38q-24 17 -83 18h-33l-606 -51l114 413l471 52q10 2 22.5 3t27.5 1q41 0 79.5 17t55.5 77l2 12q6 29 -13.5 52.5t-93.5 23.5h-22q-12 0 -29 -2 l-448 -55l98 348l516 32l89 3.5t64.5 9.5t43 27.5t28.5 58.5l2 12q3 12 3 22q0 29 -23 41q-31 15 -78 15q-25 0 -51 -2l-53 -4q-184 -12 -290 -17.5t-165 -5.5h-139q-33 0 -57.5 -11t-43 -29.5t-29 -39t-14.5 -39.5q0 -4 -1 -9t-1 -9l-51 -218q-35 -151 -94 -368l-94 -348 q-12 -39 -24.5 -73.5t-16.5 -63.5z" />
<glyph unicode="F" horiz-adv-x="993" d="M139 61q-4 -20 -4 -35q0 -55 51 -55h15q6 0 16 2q35 4 57.5 13.5t38 28t26.5 47l26 69.5l131 436l481 72q57 4 90 12t50.5 21.5t24.5 32t15 45.5q4 4 4 8t2 8q2 8 2 15q0 29 -28 40q-35 14 -84 15q-41 0 -82 -5.5t-66 -9.5l-360 -53l96 348l541 37q82 8 114.5 30.5 t49.5 73.5q1 7 0 15q0 44 -23 60q-27 19 -86 20q-10 0 -19.5 -1t-19.5 -1l-287 -26q-102 -9 -154 -15t-71.5 -9.5t-42.5 -5.5q-96 -10 -138 -29.5t-52 -66.5q-4 -15 -4 -37q0 -15 2 -33l-55 -195q-19 -73 -35 -125l-28 -98l-34 -116l-143 -463q-4 -20 -9 -37z" />
<glyph unicode="G" horiz-adv-x="1474" d="M182 242q8 -88 51 -156t125 -107.5t213 -39.5q184 0 355.5 71.5t311.5 187t240.5 261t141.5 295.5l2 10q1 8 1 14q0 28 -20 43q-26 18 -73 19q-33 0 -66 -13l-27 -8l-71 -21l-96 -29l-104 -30l-92 -25l-62 -16q-39 -4 -70 -18t-52.5 -33.5t-34.5 -42t-17 -43.5 q-4 -29 5 -47t36 -18q12 0 18 2q63 14 124 30l119 34l118 35q60 17 126 34q-47 -82 -120.5 -172t-171 -166t-216 -125t-253.5 -49q-76 0 -125 28.5t-76 75.5t-31 110q-1 16 -1 31q0 47 9 97q2 18 11 45q35 125 127 249t213.5 223t257 160.5t254.5 61.5h28q66 -4 99.5 -15 t50 -26.5t20.5 -32t9.5 -31t18.5 -23.5t48 -9h18q10 0 23 2q33 4 53.5 25.5t26.5 54.5q2 13 2 27t-2 28q-16 76 -95 129t-221 53q-98 0 -208.5 -27.5t-224 -80.5t-222 -130t-202 -174.5t-164 -214t-107.5 -249.5q-6 -20 -11 -40t-9 -40q-13 -67 -13 -129q-1 -28 2 -55z" />
<glyph unicode="H" horiz-adv-x="1259" d="M137 74q-4 -19 -4 -34q0 -23 9 -37q15 -24 69 -34q4 0 7 -1t7 -1q33 0 65 33t48 100l139 500l643 21l-123 -449q-4 -10 -8 -31q-3 -16 -3 -30q0 -29 13 -52q20 -35 72 -34h10q31 2 52.5 15t36 33.5t22.5 45t12 47.5q6 37 13 59l290 1047q12 35 19 63q2 12 2 22 q0 20 -8 35q-12 22 -60 21q-43 0 -69.5 -10t-44 -27.5t-26.5 -40t-17 -47.5l-129 -483l-650 -27l115 410q4 8 6 19.5t6 23.5q2 16 3 33.5t-5 33t-19.5 25.5t-35.5 14h-14q-53 0 -85 -38.5t-44 -79.5l-36 -125l-51 -180l-57 -199l-51 -189l-109 -407q-4 -12 -6 -24z" />
<glyph unicode="I" horiz-adv-x="454" d="M147 68q-2 -12 -1 -23q0 -25 10 -43q14 -27 63 -33q4 0 9 -1t10 -1q29 0 47 11.5t30.5 32t21.5 47t21 57.5l297 1050q6 23 16.5 47.5t14.5 47.5q2 12 2 23q0 18 -6 32q-10 23 -51 22q-45 0 -74 -9t-46 -27.5t-27.5 -47t-16.5 -65.5l-303 -1069l-8 -27z" />
<glyph unicode="J" horiz-adv-x="1069" d="M82 90q10 -53 49 -95t109.5 -68.5t179.5 -26.5q111 0 212 36.5t182 98t139.5 143.5t84.5 172l232 821l11 42l9 36q3 17 4 32q0 19 -7 33q-11 24 -60 23q-41 0 -66.5 -17t-42 -42t-27 -53.5t-16.5 -53.5l-233 -821q-12 -45 -49 -97t-90.5 -97t-123 -75t-145.5 -30 q-47 0 -74.5 5t-43 17.5t-20.5 32t-9 48.5q4 25 14 55.5t14 58.5q5 19 5 35q0 20 -7 37q-12 31 -65 31h-31q-29 0 -66.5 -29t-60.5 -113q-4 -10 -8 -30q-5 -28 -5 -55t5 -54z" />
<glyph unicode="K" horiz-adv-x="1128" d="M158 -10q14 -25 59 -25q41 0 82 27.5t57 111.5l2 17l148 520l401 -612q45 -72 78 -72q10 0 14 2q53 16 79 35.5t30 46.5q1 6 1 13q0 33 -26 77l-409 614l536 381q55 29 82 57.5t31 53.5q1 7 1 14q0 24 -16 40q-22 22 -59 22q-23 0 -49 -10.5t-49 -32.5l-588 -422l107 352 l4 19q6 29 8 52t-4 39.5t-23.5 26t-50.5 9.5q-45 -2 -82 -44t-53 -102l-305 -1081l-6 -35q-7 -35 -7 -58.5t7 -35.5z" />
<glyph unicode="L" horiz-adv-x="909" d="M147 -17q8 -38 50 -38q4 0 7 1t7 1l582 76q66 12 102.5 37.5t42.5 52.5q0 10 -2 16l2 10q2 9 2 17q0 51 -82 51q-33 0 -70 -6l-421 -56l297 1055q4 14 6 26.5t6 22.5q5 22 4 39q0 20 -6 33q-12 23 -58 22q-78 0 -104.5 -39.5t-42.5 -107.5l-305 -1083q-10 -16 -17 -52 q-4 -20 -4 -39.5t4 -38.5z" />
<glyph unicode="M" horiz-adv-x="1589" d="M162 111q-6 -33 -6 -58q0 -33 11 -49q19 -29 60 -35h9q23 0 43 16.5t36.5 39t27.5 48t15 44.5l207 733q25 -123 57.5 -248t57.5 -248l12 -63q4 -20 7 -33.5t7.5 -27l14.5 -42.5q4 -18 29.5 -37.5t66.5 -19.5q29 0 60.5 14.5t62.5 49.5l41 47q14 16 26 33l25 39 q14 22 45 63q25 31 74 87l111 126l130 145l130 146l-226 -779q-6 -12 -9 -23t-7 -22q-6 -35 7 -59.5t61 -28.5h10q57 0 89 39t42 90l4 19l307 1089q7 35 7 58q0 29 -11 45q-10 14 -27.5 21t-44.5 11h-4q-12 0 -33.5 -14t-47 -37.5t-54.5 -54.5t-55 -64l-207 -250l-156 -186 l-110 -130l-72 -85q-47 -57 -69.5 -94t-32.5 -37t-22.5 67.5t-29.5 145.5l-31 147l-25.5 119t-10.5 60q-8 51 -21 105l-22 100q-10 45 -18.5 73.5t-8.5 26.5q-8 57 -33.5 86t-58.5 29q-31 0 -60.5 -28t-45.5 -85z" />
<glyph unicode="N" horiz-adv-x="1337" d="M143 63q-3 -15 -3 -28q0 -68 81 -68h15q45 4 73.5 35t36.5 68q2 8 2 16v16l230 818l58 -114l62 -120q31 -59 57.5 -116.5t43.5 -102.5q14 -41 41 -99l56 -120l58 -119l47 -94q6 -8 10.5 -19.5t14.5 -20.5t30.5 -15.5t57.5 -6.5q25 0 43.5 13.5t32.5 33t24.5 41t16.5 39.5 l313 1119q4 12 6 23l4 22q4 20 4 36q0 25 -10 38q-16 22 -69 22q-35 0 -55.5 -12.5t-35 -32t-21.5 -41.5l-13 -43l-248 -893q-6 8 -17 30l-25 45l-25 44q-11 20 -15 30q-37 66 -66 125l-57 125l-62 146l-81 188q-6 16 -11.5 22.5t-9.5 16.5t-11 30.5t-19 65.5 q-6 18 -15.5 41t-23 43.5t-30.5 33.5t-38 13q-25 0 -43 -5t-34.5 -21.5t-32 -45t-29.5 -75.5l-305 -1079q-11 -30 -13 -48z" />
<glyph unicode="O" horiz-adv-x="1304" d="M199 444q-17 -84 -17 -155q0 -131 57 -218q87 -134 293 -134q139 0 281.5 63t267.5 172t220.5 254t142.5 311q14 55 24 111q20 99 20 192q0 104 -36 181q-35 74 -108.5 117.5t-196.5 43.5q-102 0 -204.5 -41t-199 -109.5t-181.5 -155.5t-154.5 -181t-117.5 -187.5 t-69 -170.5l-12 -48q-6 -22 -10 -45zM393 455q4 20 9 40l12 42q16 59 55 132.5t91 147.5t116.5 143.5t134.5 123t142.5 86t142.5 32.5q74 0 116.5 -29.5t62 -80t19.5 -115.5q0 -63 -14 -133q-4 -27 -11 -53.5t-16 -53.5q-35 -125 -104.5 -237.5t-160.5 -197.5t-195.5 -135 t-208.5 -50q-133 0 -176 92q-26 55 -26 133q0 52 11 113z" />
<glyph unicode="P" horiz-adv-x="1132" d="M150 66q-2 -15 -3 -29q0 -20 6 -37q9 -29 56 -29h8q59 4 96 42t45 77q2 8 1 15.5t-1 13.5l121 426q78 12 171 37.5t188.5 63.5t186.5 86t166 105.5t129 122t75 136.5l4 16l4 16q6 30 6 56q0 27 -7 49q-13 41 -44 65.5t-75 33.5t-93 9q-215 0 -359.5 -20.5t-236.5 -36.5 q-57 -10 -92 -52t-49 -91l-25 -82l-25 -85l-22 -80q-10 -38 -16 -67l-197 -696q-12 -30 -18 -65zM530 727l99 385q45 12 103.5 21.5t122 15.5t125.5 9t118 3q18 0 38.5 -1t36 -6t24.5 -17q6 -9 6 -21q0 -6 -1 -12l-2 -8q-16 -57 -89 -114.5t-171 -108t-208 -89.5t-202 -57z " />
<glyph unicode="Q" horiz-adv-x="1347" d="M169 206q5 -83 42 -142.5t105.5 -92t175.5 -32.5q125 0 248.5 43t244.5 122q35 -49 78 -91t65 -93q63 -33 107 -33q37 0 64.5 22.5t52.5 70.5l2 -3q-16 31 -41 54.5t-49 50.5l-56 65q-25 29 -61 84q129 119 222 268.5t144 323.5l8.5 35l8.5 35q14 71 14 135q0 29 -3 56 q-9 89 -48 156t-104.5 104.5t-159.5 37.5q-102 0 -210 -39.5t-212.5 -107.5t-201.5 -158t-177 -190.5t-139.5 -204.5t-85.5 -203q-4 -23 -10.5 -45t-10.5 -45q-14 -79 -14 -146q0 -19 1 -37zM365 298q0 49 12 103q4 18 9 38t9 40q20 74 65.5 157t106 163t134 152.5 t153.5 127t163 87t161 32.5q57 0 94 -25.5t55.5 -68.5t19.5 -100v-9q0 -53 -12 -112l-7 -30l-7 -30q-35 -129 -103.5 -244.5t-160.5 -207.5q-41 43 -70 80l-49 63q-23 18 -45 18q-35 0 -66.5 -27.5t-38.5 -64.5q-1 -8 -1 -16q0 -26 16 -51q23 -10 46 -47l52 -84 q-86 -57 -176 -90t-182 -33q-63 0 -101.5 21.5t-56.5 59.5q-20 40 -20 98z" />
<glyph unicode="R" horiz-adv-x="1150" d="M154 72q-5 -25 -5 -45q0 -21 6 -33q11 -25 52 -25h4q37 0 61.5 12.5t40 33t25.5 45.5l20 53l119 428l441 -516q49 -57 116 -58q43 0 80 25.5t51 73.5l-16 -31l2 10q2 10 2 19q0 24 -15 44q-22 28 -53 52l-411 458q104 25 211.5 66t201 99.5t162 132t92.5 163.5 q4 10 6.5 18.5t4.5 18.5q6 29 5 54q0 169 -251 169q-178 0 -295 -7t-199 -19q-66 -10 -104.5 -60.5t-52.5 -117.5l-41 -164l-37 -160l-213 -690q-4 -14 -6 -26.5t-4 -22.5zM537 743l108 392q45 14 126 22t163 8q68 0 123 -6q87 -15 87 -61q0 -6 -1 -13l-2 -6 q-14 -57 -81 -111.5t-157 -100.5t-189 -79t-177 -45z" />
<glyph unicode="S" horiz-adv-x="1292" d="M139 227q-5 -24 -5 -48q0 -27 6 -54q11 -51 47 -93t98.5 -67.5t154.5 -25.5q80 0 172.5 17t187.5 52t188 89.5t172 127t140.5 165.5t92.5 206q4 10 5 18.5t3 16.5q6 31 5 57q0 42 -13 73q-23 50 -64 77.5t-90 38t-84 10.5q-96 0 -184 -18.5t-163 -42.5l-134 -42 q-59 -18 -96 -18q-31 0 -53.5 18.5t-14.5 57.5l2 10q12 43 58 102.5t117 112.5t164 91t202 38q59 0 81 -14l33 -23q23 -18 35 -31.5t23.5 -21.5t28 -12t51.5 -4q20 0 37.5 10t32 23.5t23.5 28.5t11 28l2 10q2 10 2 20q0 28 -16 54q-23 35 -66 61.5t-101.5 40.5t-125.5 14 q-123 0 -252 -47t-241.5 -125t-195.5 -180t-116 -215q-2 -8 -4 -15t-4 -16q-5 -29 -6 -53q0 -31 9 -54q15 -42 47 -66.5t75 -34t86 -9.5q57 0 131 18.5t153.5 42t159.5 42t152 18.5q47 0 72 -20q18 -15 19 -48q0 -13 -3 -30l-4 -21q-23 -80 -69 -143.5t-106.5 -112.5 t-129 -82.5t-134 -55t-122 -32t-93.5 -10.5q-51 0 -81.5 10.5t-48 26.5t-25.5 33.5t-13 34.5q-10 41 -24 76.5t-53 35.5q-59 0 -93 -30.5t-49 -71.5z" />
<glyph unicode="T" horiz-adv-x="1021" d="M342 1120q-1 -8 -1 -14q0 -23 15 -39q20 -20 80 -20q12 0 25.5 1t30.5 3l247 49l-276 -994q-4 -14 -8 -30l-9 -33q-6 -29 4.5 -51.5t63.5 -22.5q66 0 90.5 31t48.5 104l291 1031l297 53q49 12 81 22.5t51.5 22.5t29.5 26.5t16 32.5l2 13q3 13 3 23q0 24 -13 38 q-18 20 -57 20q-8 0 -16.5 -1t-18.5 -3l-171 -29l-160 -30l-193 -37l-269 -51l-57 -16q-29 -8 -54.5 -19.5t-44 -28t-26.5 -41.5z" />
<glyph unicode="U" d="M188 93q12 -48 52.5 -83t108 -54t167.5 -19q129 0 248 35.5t213 94t158.5 132t85.5 151.5l237 844q4 2 11.5 17.5t11.5 37.5q1 8 1 17q0 22 -8 43q-11 29 -65 28q-39 0 -63.5 -12t-40 -32.5t-22.5 -48t-13 -56.5l-256 -846q-10 -37 -53 -77t-108 -72.5t-147.5 -53 t-175.5 -20.5q-31 0 -58.5 7t-48 20.5t-29.5 33t-5 43.5l2 8l283 1004q2 12 3 29.5t-5 34t-22.5 27.5t-47.5 11q-33 0 -54.5 -10t-34.5 -26.5t-21 -35.5l-17 -40l-278 -994q-4 -8 -5.5 -16t-3.5 -16q-6 -29 -6 -55.5t6 -50.5z" />
<glyph unicode="V" horiz-adv-x="1064" d="M319 140q2 -97 25 -142q20 -41 55 -41q27 0 60 26.5t73 86.5q20 35 57 87l78 110l87 121l87 120l77 103l55 75l37 50q14 19 36.5 47t61.5 71l109 121l58 65q19 23 29.5 33t16.5 17.5t18 19.5l56 90l2 12q3 13 2 24q0 24 -13 39q-18 22 -51 21q-29 0 -61.5 -15t-65.5 -50 q-29 -29 -57 -64l-78 -98l-64 -78l-32 -40q-10 -13 -12 -17l-6 -10q-3 -6 -12 -21l-32 -47l-46 -59l-72 -92l-86 -106l-82 -100l-62 -77q-25 -31 -26 -33q-2 8 -2 62q0 53 1 113.5t2 110.5t1 52q2 53 4 83t3 48.5t2 31.5t2 32.5t2 51.5t3 89q0 27 4 75t4 79q1 7 1 12 q0 42 -24 63q-28 25 -65 25q-35 0 -68.5 -21.5t-43.5 -62.5q-4 -4 -5.5 -14.5t-5.5 -24.5l-14 -80q-8 -45 -6 -67l-7 -264q-3 -116 -3 -179q0 -37 1 -46t-1 -32q-2 -27 -3 -73.5t-1 -98.5q-3 -78 -3 -147q-1 -35 0 -67z" />
<glyph unicode="W" horiz-adv-x="1560" d="M238 106q-1 -24 -2 -43q0 -48 8 -67q10 -27 45 -27q4 0 9 1t9 1q20 2 35.5 5.5t32 16.5t40 41.5t62.5 84.5q6 6 34 45l69 97l90 132l99 150l97 148q47 73 80 130q-1 -39 -1 -80q0 -63 2 -135q3 -119 8.5 -228.5t12.5 -192.5t11 -107q12 -43 21.5 -67.5t17.5 -37t16 -15.5 t19 -3h22q33 0 69 26.5t81 106.5l73 127l118 195l140 232l142 242l124 219q56 101 85 169l-2 6q2 4 6 16q1 7 1 14q0 22 -10 42q-13 27 -71 26q-47 0 -83 -46t-69 -99q-14 -20 -66 -107l-127 -210l-161 -272l-168 -294v98v148q0 80 -1 165t-2 155.5t-2 118.5t-1 54 q0 18 1 52v21q0 22 -1 43q-2 32 -9 56.5t-22 24.5q-29 0 -47 -3t-37.5 -21.5t-46 -58.5t-71.5 -114l-34 -53l-62 -99l-81 -130l-91 -146l-91 -143l-82 -125l12 192q6 99 14.5 195l16.5 184l15 156q2 16 4 55t10 80q-12 53 -32.5 67.5t-57.5 14.5q-63 0 -90 -28.5t-37 -81.5 q-23 -117 -35 -234t-19.5 -222t-10.5 -195.5t-7 -153.5q-2 -43 -6 -91t-7 -93.5t-6 -80.5t-3 -49z" />
<glyph unicode="X" horiz-adv-x="983" d="M31 35q0 -2 1 -3t1 -3q6 -33 28.5 -48.5t51.5 -15.5t61.5 14.5t58.5 43.5l86 100l102 121l95 117l72 90q27 33 28 34l12 -48q11 -48 28.5 -115.5t38 -139t38.5 -116.5q4 -33 31 -59.5t67 -26.5q25 0 53.5 12t63.5 43l-10 59q0 4 2 7t2 8q4 23 -3 33t-11 22 q-23 49 -45.5 133t-40 167t-28.5 143l-11 61l21 25l58 67l81 92l93 103l94 100l81 80q25 29 48.5 65.5t31.5 71.5q1 8 1 16q0 15 -5 27q-8 18 -37 26q-16 4 -27 5q-39 0 -69.5 -25l-65.5 -55l-55 -61l-75 -81l-81 -88l-74 -81l-54 -58l-21 -23h-3q-8 0 -21 43.5l-30 104.5 l-35 131l-32 123q-4 18 -8.5 34.5t-11.5 29t-19.5 19.5t-36.5 7q-51 0 -82 -23.5t-41 -58.5l-2 -8q-4 -14 -2 -32.5t5 -36t7 -33t6 -21.5q0 -6 10 -44l21 -90q12 -52 28 -112l27 -109q12 -50 22 -84l9 -34q-2 -2 -31 -39l-78 -98l-104 -127l-105 -128q-52 -62 -87 -100 q-2 -4 -21 -23l-41 -44q-23 -25 -41 -49.5t-20 -36.5z" />
<glyph unicode="Y" d="M375 1251q-2 -9 -2 -19q0 -39 33 -85l294 -508l-143 -508q-4 -12 -6 -24.5t-4 -22.5q-6 -26 -6 -48q0 -17 4 -31q8 -32 47 -32h8q37 2 61.5 15.5t41 34t26.5 45t19 51.5l147 520l623 508q39 37 55 62q21 33 21 52q0 16 -11 26q-14 13 -31 26q-20 10 -32 10 q-35 0 -72 -27.5t-84 -52.5l-502 -414l-252 371q-29 63 -53.5 105.5t-50.5 42.5h-6q-41 -8 -79 -32t-46 -65z" />
<glyph unicode="Z" horiz-adv-x="1163" d="M68 49q-2 -10 -2 -18q0 -26 18 -44q25 -24 68 -24h10q80 4 191.5 7t226 4t217 2t161.5 1h64q45 0 78 41t47 93q6 8 6 16q6 29 -17.5 38t-70.5 9q-43 0 -101.5 -5t-125.5 -9q-72 0 -129 -1l-113 -2q-55 -1 -113.5 -5.5l-130.5 -10.5l1108 1086q31 31 37 61q2 8 2 16 q0 21 -12 37q-16 23 -49 23h-8l-660 -39q-90 -2 -141 -8t-81 -19.5t-42 -37t-21 -60.5l-2 -6q-1 -7 -1 -13q0 -48 85 -48q29 0 67 5t85 15l479 37l-1077 -1053q-47 -43 -53 -88z" />
<glyph unicode="[" horiz-adv-x="827" d="M76 -164q-10 -51 3 -71.5t56 -20.5q33 0 98 12l322 33q49 4 68.5 28.5t31.5 61.5q4 10 4 17q0 6 3 14q8 39 -2.5 52t-38.5 13q-16 0 -39 -2t-52 -6l-229 -24l410 1446l223 59q51 16 79.5 22.5t44 12.5t24 18t16.5 43v8q10 41 -23 59.5t-88 18.5h-31q-16 0 -32 -4 l-207 -47q-76 -18 -135.5 -61t-77.5 -105l-416 -1530q-4 -12 -6 -24.5t-6 -22.5z" />
<glyph unicode="\" horiz-adv-x="919" d="M467 1144q2 -87 7 -196.5t14.5 -230.5t21.5 -234.5t28.5 -213t36.5 -163.5q0 -18 3.5 -42.5t9.5 -49t15 -45t24 -28.5q37 -25 69 -25q57 0 76 82q4 29 4 65q0 37 -8 84q-25 154 -43 323t-30.5 317.5t-18.5 256t-6 138.5q-4 45 -6 85t-8.5 70.5t-20.5 48t-43 17.5 q-25 0 -60 -14q-33 -12 -45 -29t-16 -37q-4 -10 -3 -22.5t-1 -22.5q-2 -47 0 -134z" />
<glyph unicode="]" horiz-adv-x="827" d="M117 -201q-8 -41 11 -57t54 -16q29 0 63 7t68 15l160 23l79 14q34 6 57.5 16.5t40 28.5t26.5 53l475 1643q2 6 3 11t3 11q6 31 -7 54.5t-71 23.5q-35 0 -96 -12q-14 -4 -59 -10l-95 -13l-88 -11q-39 -5 -39 -7q-66 -6 -97.5 -27.5t-43.5 -58.5l-2 -17q-10 -47 11.5 -63 t68.5 -16q12 0 25.5 1t29.5 3l224 30l-410 -1454l-215 -47q-33 -6 -60.5 -10t-49 -13.5t-38 -30t-26.5 -56.5z" />
<glyph unicode="^" horiz-adv-x="819" d="M684 1087q-4 -14 8.5 -25t48.5 -22q6 -2 17 -2q16 0 37.5 13.5t56.5 48.5l238 200l98 -194q12 -41 35.5 -54.5t40.5 -13.5q8 0 10 2q39 14 54 27.5t22 36.5v6q6 25 -7 55l-129 252q-6 29 -24.5 50.5t-46.5 21.5q-33 0 -47.5 -13.5t-28.5 -31.5l-311 -264l-40 -34 q-17 -15 -28 -42z" />
<glyph unicode="_" horiz-adv-x="962" d="M-86 -190q-4 -27 6 -46.5t43 -19.5h938q35 0 57.5 25.5t26.5 54.5q6 27 -4 47t-39 20h-938q-35 0 -59.5 -26t-30.5 -55z" />
<glyph unicode="`" horiz-adv-x="1079" d="M633 1352q6 -33 14 -56.5t22.5 -44t35 -40t49.5 -44.5q35 -29 59.5 -52t34.5 -40q12 -23 24.5 -33t21.5 -15t13 -5h6q31 10 46.5 19.5t19.5 25.5q6 18 -10 63q-10 35 -28.5 76t-41 80t-48.5 73t-50 52q-61 45 -107 45q-47 0 -59 -55q-2 -10 -2 -23v-26z" />
<glyph unicode="a" horiz-adv-x="978" d="M10 59q-3 -12 -3 -22q0 -20 10 -35q15 -23 69 -27h6q39 0 76 43t78 107l170 248q98 8 154.5 12t91 6t55 3t45.5 1q4 -14 5 -24.5t5 -20.5q8 -29 12 -47l7.5 -33.5t5.5 -32t4 -38.5q4 -29 14 -67t21.5 -72.5t22.5 -59.5t20 -25h14q55 0 84 31t39 80q4 16 6 34q1 9 1 17 t-1 17q-8 59 -24 142l-31 177v-2l-48 280q-24 142 -28 253v-3q1 13 1 25q0 41 -16 72q-22 39 -63 39q-31 0 -65.5 -27t-73.5 -88v2l-611 -858l-28 -45q-19 -29 -25 -62zM549 565l168 248l9 -120q5 -67 13 -118z" />
<glyph unicode="b" horiz-adv-x="1003" d="M101 -9q9 -28 44 -28q74 0 167.5 16.5t192.5 47t196.5 74.5t180.5 102.5t142 129t82 152.5v2l4 13q2 6 2 10q4 23 4 43q0 58 -34 101q-46 58 -150 75q88 51 131 106.5t61 120.5l2 11q2 12 3 23q0 49 -43 87q-52 47 -177 47q-111 0 -216 -20.5t-195 -42.5q-29 -6 -49 -12 q-29 -8 -65 -33t-46 -76q0 -4 -1 -9t-1 -11l-197 -732l-20 -65q-10 -33 -17 -62q-5 -23 -5 -41q0 -16 4 -29zM324 158l104 366q86 18 160 29.5t137 11.5q31 0 65.5 -2t63.5 -8t45 -19.5t12 -35.5v-4q-20 -68 -86.5 -124.5t-152.5 -99.5t-180 -72.5t-168 -41.5zM477 705 l45 155q150 80 336 80q20 0 40 -2t17 -8v-2q-10 -41 -56 -77t-109.5 -65.5t-136.5 -51t-136 -29.5z" />
<glyph unicode="c" horiz-adv-x="940" d="M134 206q7 -77 39 -133.5t88 -89t136 -32.5q76 0 156 25.5t152.5 66.5t134 91t102.5 99v-2q29 37 35 60q6 35 -15.5 51t-56.5 16t-79 -19.5t-83 -62.5q-16 -23 -48.5 -47t-70.5 -44.5t-79 -35t-74 -14.5q-49 0 -77.5 19.5t-42.5 53.5q-14 37 -14 87q0 41 9 86 q4 12 6 24.5t6 24.5q27 98 77 192.5t114.5 170t139.5 122t151 46.5q47 0 70.5 -6.5t33.5 -18.5l26 -31l21 -26q31 -37 45 -37q49 0 88 34.5t50 77.5q1 8 1 16q0 39 -26 70q-53 61 -123 84t-154 23q-111 0 -221 -60.5t-207.5 -160t-172 -227.5t-113.5 -265q-4 -16 -7.5 -31.5 t-7.5 -31.5q-11 -61 -11 -117q0 -25 2 -48z" />
<glyph unicode="d" horiz-adv-x="993" d="M115 9q10 -34 63 -34q45 0 125 17.5t176 54.5t200.5 96.5t199 143.5t170 193.5t114.5 248.5q4 10 6 20.5t5 22.5q9 44 8 86q0 27 -3 53q-9 68 -45 119t-99.5 82t-155.5 31q-117 0 -195 -20.5t-149 -43.5l-29 -8q-14 -4 -31 -8q-59 -18 -92 -60t-43 -90q-2 -10 -3 -17 t-1 -13l-195 -684q-2 -10 -5 -19.5t-5 -19.5l-8 -33l-8 -33q-5 -26 -5 -47t5 -38zM334 190l194 695q53 29 129 51t156 22q51 0 85 -17t51.5 -46t20.5 -66q1 -12 1 -24q0 -25 -4 -51l-4 -21q-37 -123 -111 -217t-163 -159.5t-184 -107t-171 -59.5z" />
<glyph unicode="e" horiz-adv-x="870" d="M109 84q-4 -18 -4 -34q0 -26 11 -44q17 -29 89 -29q6 0 12 1.5t14 1.5l525 38q86 2 114.5 31t34.5 62l4 12q2 12 2 22q0 29 -17 43q-24 18 -81 19h-25l-460 -39l78 289l360 39q10 2 19.5 3t19.5 1q41 0 78 17.5t53 76.5l4 12q4 29 -14.5 54.5t-87.5 25.5h-21 q-10 0 -22 -2l-334 -41l65 236l398 26q8 0 16 1t18 1q37 0 63 2t45 11.5t33.5 28t24.5 52.5l2 13q3 13 3 23q0 32 -23 43q-31 15 -80 16q-12 0 -25.5 -1t-25.5 -1q-8 0 -15.5 -1t-13.5 -1q-147 -10 -230 -14.5t-130 -4.5h-111q-63 0 -99 -40t-42 -77q-2 -4 -1 -7t1 -5 l-9 -34l-12 -42l-40 -163l-58 -228l-74 -278q-4 -10 -6 -18.5t-6 -18.5q-6 -20 -11 -41z" />
<glyph unicode="f" horiz-adv-x="794" d="M94 72q-4 -19 -4 -35q0 -60 57 -60q20 0 31 3h-2q33 4 54.5 12t36 24.5t25.5 42t23 62.5l99 336l372 55h-2q51 4 80 11t44.5 18.5t22.5 28t15 38.5q0 2 2 5t2 8q0 4 2 7t2 7q4 23 -3 38t-21.5 23.5t-36 11.5t-43.5 3q-31 0 -58.5 -3t-50.5 -8q-4 -2 -8 -2h-6l-260 -39 l65 234l414 29q76 8 106.5 30.5t47.5 71.5l2 4q1 8 0 15q0 41 -20 59q-24 20 -78 20q-8 0 -18.5 -1t-20.5 -1q-109 -10 -180.5 -16t-117.5 -11.5t-71 -7.5t-39 -4q-12 -2 -20 -2t-19 -2h2q-88 -10 -126 -30.5t-48 -69.5q-4 -14 -6 -28.5t0 -30.5l-47 -177q-16 -61 -31 -106 q-10 -31 -18 -62l-21 -75l-114 -371q-4 -16 -8.5 -29.5t-6.5 -25.5z" />
<glyph unicode="g" horiz-adv-x="1179" d="M128 205q7 -74 44 -130.5t105.5 -90t179.5 -33.5q152 0 293 58.5t255.5 153.5t196.5 215t117 243l2 12q2 10 2 18q0 27 -19 42q-26 19 -71 20q-25 0 -62 -13l-63 -20l-78 -24q-43 -13 -84 -24l-77 -21q-36 -9 -54 -11q-72 -8 -111.5 -49t-48.5 -82q-6 -29 5.5 -51.5 t44.5 -22.5h8q6 0 12 2h-2l95 25q46 12 93 27q39 10 78 22t82 23q-41 -61 -97 -125t-128 -116t-157 -85t-183 -33q-55 0 -91 21.5t-54.5 56.5t-22.5 80q-1 13 -1 26q0 33 7 68q2 8 3 15.5t5 17.5q27 96 97.5 193.5t165 174t199 125t196.5 48.5h20q41 -4 64.5 -10.5t36 -15.5 t16.5 -18.5t8 -17.5q8 -20 19.5 -34.5t52.5 -14.5h16q10 0 21 2q35 2 56 25.5t30 58.5q3 20 3 31t-3 22q-14 66 -81 112t-188 46t-263 -51.5t-275 -144.5t-238.5 -226t-148.5 -297q-6 -16 -10.5 -32.5t-8.5 -35.5q-11 -57 -11 -110q0 -23 2 -45z" />
<glyph unicode="h" horiz-adv-x="1007" d="M94 80q-4 -20 -4 -36q0 -22 8 -36q14 -23 68 -33q4 0 7 -1t7 -1q35 0 65.5 31t47.5 94l106 381l473 15l-90 -334v2q-2 -8 -6 -29q-4 -16 -3 -31q0 -28 12 -49q19 -33 71 -33h10q31 2 51.5 14.5t35 32t23.5 42t13 45.5l8 45l232 837q4 14 8 26.5t6 27.5q3 15 3 27 q0 19 -7 32q-12 23 -63 22q-41 0 -67 -9t-41 -24.5t-24.5 -37t-17.5 -43.5l-98 -375l-477 -18l84 305v-2q8 14 10 39q4 15 3 29q0 18 -5 36q-10 33 -60 39h-14q-53 0 -82 -37t-43 -76q-4 -16 -11 -41l-16 -53l-30 -104l-34 -119l-34 -123l-31 -113l-86 -327v2 q-4 -10 -5 -19.5t-3 -19.5z" />
<glyph unicode="i" horiz-adv-x="364" d="M102 76q-3 -14 -3 -27q0 -22 10 -40q14 -28 65 -34h19q51 0 70.5 31t37.5 82l-2 -2q4 4 5 10t3 10l2 5l238 839q2 4 3 10.5t3 10.5q4 14 9 29.5t9 29.5q2 13 3 25q0 19 -7 32q-10 23 -55 23q-43 0 -69.5 -8t-44 -25.5t-27 -43t-15.5 -60.5l-241 -856v2q-7 -18 -13 -43z " />
<glyph unicode="j" horiz-adv-x="856" d="M48 85q9 -46 43 -83t93.5 -59.5t151.5 -22.5t177 31t152.5 83t116.5 120.5t72 144.5l186 657l9 32l8 32q3 16 3 30q0 21 -7 35q-12 25 -64 25q-37 0 -61.5 -13.5t-40 -35t-24.5 -46t-15 -44.5q0 -4 -2 -6t-2 -7l-187 -655q-10 -33 -36.5 -71.5t-66.5 -71.5t-90 -55.5 t-108 -22.5q-66 0 -83 14.5t-21 53.5l2 -7q2 10 3 20.5t5 20.5l8 25q4 12 6 27q3 17 4 32q0 21 -7 39q-11 31 -66 31h-25q-29 0 -66.5 -26.5t-58.5 -104.5v2q-4 -10 -8 -31q-5 -25 -5 -49q0 -22 4 -44z" />
<glyph unicode="k" horiz-adv-x="903" d="M111 -4q14 -25 61 -25q41 0 81 26t56 103l2 15l105 366l295 -450q23 -35 39 -50.5t38 -15.5q12 0 21 4l-2 -2q49 16 73.5 36t30.5 48q1 6 2 13q0 30 -22 73v2l-320 475l410 291l-2 -2q51 27 75.5 53.5t28.5 53.5l2 14q0 25 -18 44q-23 24 -59 24q-23 0 -47.5 -9.5 t-47.5 -31.5l-424 -306l70 234l4 20q6 30 6 53q0 19 -4 33q-8 33 -73 33q-47 -2 -82 -41t-52 -94l-243 -866l-4 -27q-7 -35 -7 -58.5t7 -35.5z" />
<glyph unicode="l" horiz-adv-x="727" d="M102 70q-4 -18 -3 -36q0 -22 5 -42q10 -37 52 -37q4 0 7 1t7 1l467 61q61 10 96 37t39 56q2 4 2 14v4q2 10 2 20q0 58 -80 58q-31 0 -61 -6h2l-313 -41l231 819q4 10 5 20.5t5 20.5q4 21 5 38q0 23 -9 36q-14 23 -61 22q-74 0 -100.5 -38t-41.5 -99l-243 -866v2 q-4 -10 -6.5 -19.5z" />
<glyph unicode="m" horiz-adv-x="1271" d="M113 111q-6 -31 -6 -54q0 -33 12 -49q20 -27 61 -33h10q25 0 44.5 14.5t35 36t26.5 45t15 42.5l142 503l8 -39q4 -19 10 -38l30 -123q15 -61 25 -121q6 -29 10 -45l5 -27q2 -10 3 -17t5 -16v3q2 -6 5 -12.5t7 -16.5q4 -16 29.5 -37t64.5 -21q27 0 56.5 12.5t60.5 45.5 l37 44q12 15 22 34l19 27q10 15 33 42l41 50l60 71l73 83l80 89l39 43l-156 -543q-4 -10 -6 -17t-4 -17q-3 -14 -3 -27q0 -22 9 -38q14 -26 61 -30h8q55 0 87 38t42 85l5 15l245 870q7 35 8 57q0 27 -11 43q-9 14 -27.5 20.5t-42.5 10.5h-5q-12 0 -32.5 -12t-44 -31.5 t-49 -46.5t-48.5 -55h2l-191 -230l-134 -159l-66 -79l-45 -55l-35 -43q-14 -18 -22 -30q-2 -4 -8 -11q4 10 0 29q-10 57 -25.5 124t-25.5 124l-31 134q-18 81 -41 158t-48.5 132t-52.5 55q-33 0 -62.5 -26.5t-45.5 -81.5z" />
<glyph unicode="n" horiz-adv-x="1069" d="M98 70q-4 -17 -3 -31q0 -66 81 -66h12q47 4 77 35t36 70q2 10 2 26l166 594q10 -16 17.5 -31.5t17.5 -31.5l66 -131q32 -66 53 -121q12 -31 32 -77l44 -96l47 -96l40 -77l5 -8q6 -16 22 -32.5t80 -16.5q25 0 43 12t31.5 29.5t23.5 38t17 36.5v2l249 895l11 41q4 21 4 38 q0 24 -9 36q-15 20 -73 20q-31 0 -51.5 -10t-33.5 -26.5t-20.5 -36t-13.5 -37.5q-4 -8 -4 -10l-184 -662q-4 8 -4 10q-10 16 -19.5 33t-13.5 29l-102 215l-66 143l-42 90q-15 33 -23.5 55.5t-13.5 40t-11 42.5l-13.5 32.5t-19.5 34.5t-28.5 27.5t-39.5 11.5q-25 0 -43 -5 t-33.5 -19.5t-28.5 -41t-28 -69.5l-245 -864q-4 -10 -7 -21z" />
<glyph unicode="o" horiz-adv-x="1044" d="M143 375q-14 -71 -14 -131q0 -110 48 -183q75 -113 249 -112q115 0 232.5 52t221 141t182.5 210t118 256q4 23 10 45.5t10 44.5q17 79 17 153v16q-2 81 -31 143.5t-92.5 99.5t-167.5 37q-86 0 -170 -34t-164 -90t-150.5 -128t-127 -149.5t-96.5 -153.5t-56 -139 q-13 -39 -19 -78zM340 385q2 27 16 64q20 70 73.5 158.5t126.5 167.5t157 133.5t164 54.5q53 0 83.5 -22.5t44 -60.5t13.5 -87t-10 -101q-4 -20 -9.5 -39.5l-11.5 -40.5q-27 -96 -81 -182t-122.5 -151.5t-148.5 -104.5t-160 -39q-94 0 -126 68q-19 40 -18 95q0 39 9 87z" />
<glyph unicode="p" horiz-adv-x="905" d="M104 74q-4 -16 -3 -32q0 -19 5 -35q10 -30 60 -30h8q57 4 93 41t44 74q2 6 0 13.5t-2 15.5l2 -8l92 325q98 16 216 57.5t225.5 100.5t189.5 135t107 164l4 27q6 30 6 54q0 22 -5 40q-11 37 -38 58.5t-65.5 30.5t-81.5 9q-166 0 -274.5 -13.5t-180.5 -25.5q-4 -2 -15.5 -4 t-15.5 -4l2 2q-53 -10 -85 -49t-46 -84q-4 -16 -9 -31.5t-9 -32.5l-31 -103q-14 -50 -23 -85l-155 -557q-9 -20 -15 -53zM457 629l65 264q37 8 82 15t92 12.5t94.5 7.5t88.5 2q23 0 47 -3t20 -24l-2 -4q-12 -41 -63.5 -82t-122 -78t-151 -65.5t-150.5 -44.5z" />
<glyph unicode="q" horiz-adv-x="1077" d="M119 179q4 -71 34.5 -122t90 -78.5t149.5 -27.5q98 0 195.5 32.5t193.5 92.5q10 -14 22 -26l21 -21l33 -40q16 -19 31 -48q57 -31 98 -31q72 0 117 88l-35 6l35 10q-10 20 -24.5 37t-30.5 33l-10 9l-9 9l-24 29l-29 33q-14 16 -31 41q102 98 175 217t114 256q8 25 14 55 q11 57 11 110q0 26 -3 52q-8 76 -40.5 131t-89 88t-136.5 33q-84 0 -173 -33t-175 -88t-167 -129t-146.5 -157t-113.5 -169t-71 -165q-4 -18 -7 -37t-7 -35q-13 -67 -13 -126q0 -15 1 -29zM317 260q0 39 9 82q4 14 7 28.5t7 30.5q25 86 88.5 184.5t147 181.5t180 137 t186.5 54q41 0 66.5 -18t39 -50t13.5 -75t-8 -90q-4 -10 -5 -21.5t-6 -21.5q-29 -98 -76.5 -182t-113.5 -154q-23 20 -37 40l-27 36l-9 13l-9 14q-10 10 -23.5 14t-25.5 4q-35 0 -66.5 -28.5t-40.5 -65.5q-1 -8 -1 -16q0 -30 20 -54q12 -6 29.5 -29.5t35.5 -56.5 q-61 -37 -125.5 -59.5t-130.5 -22.5q-45 0 -72.5 16.5t-40 44t-12.5 64.5z" />
<glyph unicode="r" horiz-adv-x="921" d="M106 80q-5 -25 -4 -45q0 -21 6 -34q11 -26 58 -26h4q37 0 59.5 11.5t38 30t24.5 43t17 49.5l86 299l328 -381q20 -27 48 -40.5t56 -13.5q41 0 78 27t51 76l-10 2q-2 29 -18.5 49t-38.5 37v-2l-307 342q82 23 165.5 57.5t154.5 81.5t123 107.5t73 132.5v-2q4 8 5 16t3 18 q5 26 5 50q0 148 -218 147q-145 0 -239.5 -5t-159.5 -15q-61 -10 -97.5 -56.5t-50.5 -107.5l-12 -56v2l-25 -103l-22 -99l-172 -553q-2 -10 -4.5 -19.5t-4.5 -19.5zM461 639l76 274q37 10 94 15.5t117 5.5q49 0 96 -6h-2q61 -8 57 -37l-2 -4q-10 -41 -57 -80t-110.5 -73 t-135.5 -58.5t-133 -36.5z" />
<glyph unicode="s" horiz-adv-x="1034" d="M94 203q-4 -21 -4 -43q0 -24 5 -47q9 -45 40 -81t84 -58.5t133 -22.5q98 0 218 32.5t232.5 99.5t203 169t131.5 244v2q2 8 4 15t4 13q6 29 6 53q0 35 -12 61q-20 44 -56 68.5t-78 33t-73 8.5q-94 0 -180 -21.5t-156 -44.5l-73 -21q-32 -9 -54 -10q-16 0 -28.5 9.5 t-8.5 31.5v6q10 33 45 77t88 84t124 67.5t153 27.5q35 0 51 -7t25 -13h2q23 -16 34 -31q16 -16 31.5 -24.5t58.5 -8.5q20 0 39 10.5t34.5 25t24.5 29.5t11 28v8q2 9 2 18q0 26 -14 49q-18 31 -54 54.5t-87.5 37t-108.5 13.5q-102 0 -209 -39t-200 -103.5t-162.5 -150.5 t-96.5 -178l-4 -25q-6 -30 -6 -54.5t6 -43.5q12 -39 40 -60.5t65.5 -29.5t76.5 -8q49 0 106 14l116 31l134 34.5t122 16.5q29 0 45 -11.5t10 -43.5q-4 -12 -6 -17q-25 -92 -89.5 -154.5t-141 -102.5t-150.5 -57.5t-115 -17.5q-72 0 -92.5 25t-26.5 47q-12 39 -25.5 70.5 t-54.5 31.5q-59 0 -91.5 -29.5t-43.5 -70.5z" />
<glyph unicode="t" horiz-adv-x="817" d="M258 915q-2 -10 -2 -18q0 -23 15 -38q22 -22 79 -21h23q14 0 26 2l170 34l-215 -765q0 -6 -2 -13.5t-4 -13.5q-2 -8 -4 -14.5t-4 -14.5q-6 -31 6 -54.5t66 -23.5q33 0 54 6.5t35.5 21.5t23.5 40l22 59l225 807l223 41q45 12 75 21.5t47.5 21t26.5 25.5t15 35l2 10 q2 13 3 24q0 26 -14 40q-19 22 -60 22q-20 0 -31 -2l-105 -19q-47 -8 -93 -17t-97 -18l-117 -22q-47 -10 -101 -20l-120 -23q-4 -2 -10 -3t-10 -3l2 2q-47 -12 -90.5 -30.5t-57.5 -65.5z" />
<glyph unicode="u" horiz-adv-x="1001" d="M133 180q-5 -24 -5 -46q0 -70 49 -120q65 -66 235 -65q106 0 205.5 30.5t178 80t133 111.5t70.5 128l191 674q4 8 9 20.5t9 26.5q2 11 2 21q0 21 -8 40q-12 29 -67 29q-37 0 -61.5 -11.5t-39 -30.5t-21.5 -44l-14 -51l-204 -676q-8 -29 -40 -57.5t-80 -51t-110.5 -38 t-132.5 -15.5q-43 0 -72.5 16.5t-23.5 47.5v4l227 803q2 12 3 30.5t-5 34.5t-23.5 27.5t-48.5 11.5t-51 -8t-32.5 -22.5t-20.5 -31.5l-16 -36q0 -2 -2 -5t-2 -6l-224 -794q-2 -6 -4 -13.5t-4 -13.5z" />
<glyph unicode="v" horiz-adv-x="851" d="M238 266q0 -86 1 -154.5t21 -105.5q25 -41 59 -41q29 0 60 24.5t65 78.5q16 27 48 71l69 98l80 107l78 105l46 64q22 30 34 48v-2l29 39l25 31l34 40l57 64l22 26l25 29q37 39 51.5 55.5t24.5 26.5l8 11.5t15 15.5l51 80l2 14q2 12 2 23q0 25 -13 42q-19 24 -55 23 q-27 0 -59.5 -15t-61.5 -46q-20 -18 -33.5 -34.5t-29.5 -39.5h2l-22 -26l-25 -31q-35 -41 -52 -64l-27 -33q-9 -11 -11 -16l-4 -8l2 2q0 -2 -6 -11l-29 -44q-10 -14 -30 -39l-44 -57l-53 -65l-55 -67l-46 -55l-38 -47q0 29 1 66.5l2 71.5t2 58.5t1 26.5q2 57 3 81t3 40 q2 10 3 21.5t1 25.5q0 16 1 40t1 60q0 16 2 42l4 51v28q1 7 1 13q0 41 -24 62q-28 24 -65 24q-35 0 -69.5 -21.5t-42.5 -64.5q-4 -12 -9 -33l-13 -66t-5 -55q-2 -37 -2 -72t-2 -67q-2 -72 -3 -126t-1 -89q0 -25 2 -35l-2 2v-29q-2 -10 -2 -22v-29q-2 -20 -2 -43t-2 -45v-33z " />
<glyph unicode="w" horiz-adv-x="1249" d="M174 102v2q-2 -26 -2 -46q0 -40 8 -57q12 -26 49 -26q4 0 9.5 1t9.5 1q20 2 33.5 4.5t29 14.5t37 36.5t55.5 71.5q6 6 42 59l86 126l106 157l100 158q0 -78 3 -163t8.5 -160.5t10.5 -132t9 -74.5q20 -74 35.5 -92.5t38.5 -18.5h18q31 0 66 24.5t75 96.5q16 31 55 92 l85 143l116 194l119 203l105 184q47 85 71 140l-4 7q4 4 4 10q1 10 2 19q0 24 -11 38q-9 12 -26.5 20.5t-46.5 8.5q-47 0 -79.5 -41t-61.5 -88l-48 -77l-90 -150l-115 -196l-124 -216q0 59 -1 140l-2 159q-1 78 -2 138t-1 79v29v45q0 27 -4 50t-13 38.5t-26 15.5 q-29 0 -46 -3t-34.5 -18.5t-40.5 -50.5l-61 -98l-37 -57l-70 -111l-101 -164l-103 -161l21 274q11 139 22 238v8q0 6 2 10q0 16 2 40.5t8 51.5q-14 53 -33.5 67.5t-56.5 14.5q-63 0 -89 -28.5t-36 -82.5q-29 -154 -40 -299t-15 -254q0 -27 -1 -50t-4 -44l3 2 q-2 -33 -5.5 -67.5t-5.5 -69.5q-4 -41 -8 -74q-2 -16 -2 -26.5t2 -14.5z" />
<glyph unicode="x" horiz-adv-x="786" d="M8 39q14 -68 80 -68q27 0 58.5 13.5t60.5 42.5l55 64l49 57l66 81l106 133l29 -121q10 -44 18.5 -73t16.5 -50.5t22 -51.5q4 -33 29 -57.5t66 -24.5q25 0 56.5 13t65.5 46l-12 55q4 8 4 11q4 16 0 26t-8 19q-6 6 -4 10l-29.5 65.5t-21.5 65.5t-21.5 102.5t-29.5 177.5 l37 40l92 95l110 111q57 57 96 92q23 25 45.5 60t26.5 63q2 11 3 22q0 15 -6 26q-9 19 -40 30q-6 2 -14 2h-13q-37 0 -64.5 -21.5t-62.5 -52.5l-41 -44q-17 -17 -42 -45l-68 -74l-121 -131l-17 70q-13 54 -30 114q-6 33 -14.5 62.5t-14.5 54.5l-2 -2q0 4 -2 11t-4 11 q-6 27 -17.5 46.5t-51.5 19.5q-49 0 -80 -25t-41 -59l-2 -11q-6 -29 1 -61.5t11 -44.5q0 -6 2 -19.5t11 -50.5l27 -106l48 -191l-134 -171l-78 -97l-51 -61l-54 -60l-11 -10l-24 -29l-29 -34q-14 -17 -24.5 -32.5t-12.5 -25.5v-8z" />
<glyph unicode="y" horiz-adv-x="1001" d="M283 1022q-2 -10 -3 -21q0 -38 29 -77v2l232 -400l-111 -399v2q-4 -10 -5 -20.5t-5 -20.5q-5 -24 -5 -43t5 -35q10 -31 53 -30h10q72 6 98.5 44.5t41.5 88.5l114 409l496 404q35 31 49 55.5t18 40.5q1 7 2 13q0 18 -10 27q-12 11 -26 21q-6 0 -6 4q-25 10 -37 11 q-23 0 -43.5 -10.5t-44.5 -26.5q-25 -18 -50 -29l-383 -317l-192 280v-4q-25 53 -47.5 90t-48.5 37h-11q-39 -8 -75.5 -30.5t-44.5 -65.5z" />
<glyph unicode="z" horiz-adv-x="929" d="M37 59q-2 -11 -2 -20q0 -27 17 -44q24 -24 67 -24h10q63 2 154 4l181 5q91 2 173 2h129h51q43 0 76 37.5t49 84.5q4 12 4 17q8 33 -16.5 46t-71.5 13q-20 0 -45 -2t-53 -4l-82 -6h-94q-41 0 -81 -1t-80 -3t-85 -6l850 831q29 33 35 62q1 8 1 15q0 23 -15 42 q-19 25 -54 25h-6l-526 -31h2q-78 -4 -124 -10.5t-72 -19.5t-38 -34.5t-20 -56.5v-4q-2 -9 -2 -17q0 -55 88 -55q45 0 123 17h-2l333 26l-823 -805q-45 -45 -51 -84z" />
<glyph unicode="{" horiz-adv-x="1015" d="M276 715q-6 -33 9.5 -57.5t62.5 -24.5q106 0 135 -32t15 -105q-6 -29 -19 -70q-16 -59 -37 -118l-39 -110l-34 -99q-16 -46 -25 -79q-4 -18 -9 -34.5t-7 -32.5q-23 -109 12 -165t141 -56q33 0 72 6t86 16l41 9q23 5 45.5 16.5t41.5 30t30 49.5l2 10q4 29 -8.5 53.5 t-42.5 24.5q-10 0 -18.5 -3l-20.5 -7q-59 -29 -105 -29q-41 0 -57.5 25.5t-7.5 66.5q2 4 3 10t3 10q18 68 53 163.5t76 242.5q10 31 14 63q14 66 5 121.5t-54 108.5q59 35 101 81t74 106.5t56.5 134t49.5 163.5q12 45 30.5 94.5t45 90.5t61.5 68.5t82 27.5h39q29 0 52 12 t40 66l4 16q10 47 -8.5 59.5t-53.5 12.5q-90 0 -167.5 -39t-140 -101.5t-107.5 -143.5t-70 -163l-44 -157q-19 -68 -49 -114t-76 -69.5t-126 -23.5q-61 0 -104.5 -41t-51.5 -84z" />
<glyph unicode="|" horiz-adv-x="456" d="M61 -201q-6 -29 2.5 -47t22.5 -29.5t32.5 -15.5t35.5 -4q35 0 68.5 35t51.5 104l-2 -2l430 1473q4 29 21.5 81t28.5 101q10 45 3 77t-46 32q-4 0 -7.5 -1t-7.5 -1q-47 -10 -73.5 -26.5t-44 -46.5t-29.5 -76t-33 -116l-438 -1499q-11 -19 -15 -39z" />
<glyph unicode="}" horiz-adv-x="1015" d="M104 -176q-4 -27 1.5 -44.5t16.5 -27.5t27.5 -14t32.5 -4q70 0 141.5 34.5t133 91t108.5 128t68 147.5l55 203q8 27 25.5 70t48.5 83.5t77 70.5t111 30q61 0 100.5 33.5t47.5 68.5q6 29 -13.5 51.5t-66.5 22.5l-49 6q-16 8 -35 12.5t-31 17.5t-16 41.5t8 88.5 q16 92 52 201.5t83 220.5q8 16 12.5 34.5l8.5 34.5q8 45 3 89.5t-27.5 77t-62.5 53t-100 20.5q-55 0 -96 -3t-94 -15q-39 -8 -63.5 -37t-31 -59.5t10 -55.5t63.5 -25q29 0 59.5 6.5t63.5 6.5q14 0 35 -4q31 -6 38 -23.5t3 -40.5q-2 -14 -10 -33q-49 -123 -87 -243.5 t-61 -218.5q-35 -172 49 -234q-102 -51 -158.5 -141t-90.5 -207l-56 -203q-8 -25 -19 -55.5t-28.5 -57t-43 -46t-62.5 -23.5q-74 -8 -119 -42t-60 -75z" />
<glyph unicode="~" horiz-adv-x="1007" d="M434 1112q-6 -29 14.5 -51.5t59.5 -22.5q25 0 51.5 19.5t52 44t52 44t51.5 19.5q23 0 35 -22.5t30.5 -48t49 -48t88.5 -22.5q59 0 108 12.5t89 41t71 78.5t53 128v4q4 23 -18.5 42.5t-55.5 19.5q-23 0 -46 -13.5t-44 -42.5q-6 -12 -13 -32.5t-18.5 -40t-28 -33.5 t-40.5 -14q-35 0 -50.5 24.5t-30.5 55t-40 55t-78 24.5q-41 0 -96 -18.5t-106.5 -49t-90.5 -68.5t-49 -77v-8z" />
<glyph unicode="&#xa1;" horiz-adv-x="454" d="M35 -262q-10 -53 0 -94t63 -41q37 0 62.5 13t42 34.5t27 47.5t14.5 50q2 10 2 19q0 8 2 16l205 725q20 47 30 90q8 39 -3 61.5t-52 22.5q-66 0 -105.5 -47t-58.5 -121l-213 -711l-8 -32zM344 860q-10 -43 9.5 -69.5t74.5 -26.5q61 0 116.5 49t76.5 121l2 14 q6 35 -9.5 65.5t-66.5 30.5q-74 0 -122 -32.5t-79 -132.5z" />
<glyph unicode="&#xa2;" horiz-adv-x="985" d="M217 382q14 -60 48 -101t85 -61.5t113 -20.5h26l-32 -140q-8 -20 -12.5 -36.5t-8.5 -28.5q-8 -45 9.5 -53.5t58.5 -8.5h6q35 0 52.5 9.5t27.5 28t16 44t17 58.5l49 170q49 12 102 36.5t103.5 53t94.5 59.5l75 53q39 31 62.5 68t29.5 68q4 23 -3.5 38t-29.5 15l-7 1 q-7 1 -22 1q-27 0 -71.5 -12.5t-94.5 -55.5q-8 -12 -26.5 -28.5t-43 -35t-53 -35.5t-59.5 -30l145 518l25 8q25 7 49 7q14 0 36 -5l43 -11q22 -5 40 -10t25 -5q10 -2 18 -2h20q51 0 74 21.5t33 52.5l2 28l2 11q6 31 -3 51t-28.5 30.5t-48 14.5t-61.5 4q-84 0 -118 -2t-56 -6 l24 92l12 34q7 22 11 44q4 31 -4 55.5t-49 24.5q-43 0 -66 -10.5t-34 -30t-18 -48t-20 -63.5l-39 -149q-197 -66 -326.5 -195t-189.5 -334q-4 -16 -8 -41q-16 -80 -2 -140zM422 559q2 6 3 11t3 12q35 117 94.5 186.5t161.5 118.5l-143 -506h-17q-55 0 -86.5 50t-15.5 128z " />
<glyph unicode="&#xa3;" horiz-adv-x="1185" d="M147 549q-8 -39 7.5 -69.5t60.5 -30.5q20 0 78 22h143l-66 -156l-67 -159q-8 -23 -15 -45.5t-12 -42.5q-6 -37 5.5 -60.5t58.5 -23.5h10q53 4 81 35.5t44 72.5q27 -18 66 -37.5t82 -37t89 -30t87 -16.5q14 -2 26 -2h25q94 0 163.5 33t117 82t73 106.5t35.5 106.5 q10 47 5 78t-21 31h-2q-25 -2 -44.5 -8.5t-35 -19.5t-27.5 -38t-20 -66q-10 -45 -37 -70.5t-65 -37.5t-83 -15.5t-92 -3.5q-43 0 -83 12.5t-78 30t-71.5 36t-64.5 30.5l46 112l44 103h295q16 -8 26.5 -10t16.5 -2h6q31 0 56.5 11t45 29.5t33 41t17.5 45.5q6 37 -11.5 65.5 t-68.5 28.5q-29 0 -46 -9l-17 -9h-281q16 47 28.5 99t24.5 116h279q16 -10 29.5 -12.5t27.5 -2.5q55 0 87 29t46 78l2 14q8 41 -7 72.5t-56 31.5q-29 0 -50 -10l-22 -10h-307q4 41 10 84t10 92l2 8q10 59 -5 94t-56 35h-10q-55 -2 -80 -42t-47 -105v-2q2 -43 2 -84 q0 -39 -4 -80h-133q-14 12 -32 14t-26 2q-55 0 -90 -39.5t-45 -85.5q-8 -41 7.5 -71.5t58.5 -30.5q20 0 39.5 5t31.5 16h164q-10 -55 -24.5 -108.5t-30.5 -106.5h-168q-10 10 -26.5 12t-30.5 2q-53 0 -88.5 -40t-45.5 -87z" />
<glyph unicode="&#xa5;" d="M227 246q-8 -39 7.5 -70t60.5 -31q23 0 78 23h194l-10 -37q-4 -12 -6 -24.5t-4 -22.5q-10 -47 -2 -79t47 -32h8q37 2 61.5 15.5t41 34t26.5 45t19 51.5l14 49h223q16 -8 26.5 -10t16.5 -2h6q31 0 56.5 11t45 29.5t33 41t17.5 45.5q6 37 -11.5 65.5t-68.5 28.5 q-29 0 -46 -9l-18 -10h-227l59 215h220q16 -10 29.5 -12t27.5 -2q55 0 87 28.5t46 78.5l4 14q8 41 -8 72.5t-57 31.5q-29 0 -49 -10l-21 -10h-104l469 383q39 37 55 62.5t20 41.5q4 23 -10 36t-31 26q-20 10 -32 10q-35 0 -72 -27.5t-84 -52.5l-502 -414l-252 371 q-29 63 -53.5 105.5t-50.5 42.5h-6q-41 -8 -79 -32t-46 -65q-10 -47 31 -104l223 -383h-94q-16 12 -34 14t-26 2q-55 0 -90 -40t-45 -85q-8 -41 7 -71.5t59 -30.5q20 0 39.5 5t31.5 15h203l-59 -215h-203q-10 10 -26.5 12.5t-31.5 2.5q-53 0 -88 -40t-45 -87z" />
<glyph unicode="&#xa6;" horiz-adv-x="456" d="M57 -240q-6 -29 2.5 -47t22.5 -29.5t32.5 -15.5t35.5 -4q35 0 69.5 35t50.5 104l-2 -2l125 432q6 29 22.5 81.5t26.5 101.5q10 45 4 76.5t-45 31.5q-4 0 -7 -1t-7 -1q-47 -10 -74.5 -26.5t-44 -46t-29.5 -75.5l-34 -116l-133 -459q-4 -10 -8.5 -19.5t-6.5 -19.5zM367 840 q-6 -29 2 -47.5t22.5 -29.5t32.5 -15.5t35 -4.5q35 0 68.5 35t52.5 105l-2 -2l124 432q4 29 21.5 81t28.5 101q10 45 3 77t-46 32q-4 0 -7.5 -1t-7.5 -1q-47 -10 -73.5 -26.5t-44 -46.5t-29.5 -76t-33 -116l-135 -458q-10 -23 -12 -39z" />
<glyph unicode="&#xa7;" horiz-adv-x="856" d="M223 856q-6 -33 14.5 -65.5t43.5 -32.5h14l71 18q40 10 79.5 18.5t74.5 14.5t58 8l4 -10l-7 -27q-4 -27 -9 -49l-9 -39q-16 -84 1 -119.5t73 -35.5q47 0 80.5 28.5t38.5 50.5q-4 35 -3 54.5t5 44.5q4 16 9 44.5t15 57.5h160q33 0 58.5 33t29.5 59q6 29 -5 46.5 t-32.5 25.5t-51.5 10t-61 2l-32 13q23 59 61.5 143t83.5 168l19 35q-4 10 -13.5 25.5t-19.5 29.5t-23.5 24.5t-27.5 10.5q-31 -12 -93.5 -54t-138.5 -99l-156 -121q-81 -65 -149 -126t-112 -111t-50 -75zM416 922q63 61 111 103t85 70l62 46l43 33l24 -17q-16 -33 -31 -77 l-32 -95q-74 -4 -135 -24.5t-127 -38.5z" />
<glyph unicode="&#xa8;" horiz-adv-x="917" d="M420 1171q-8 -45 18.5 -89t77.5 -44q35 0 62.5 14.5t49 36t35 46t19.5 47.5l4 12q2 6 4 14q2 18 3 38t-6 36t-23.5 26.5t-45.5 10.5q-35 0 -67.5 -13.5t-59 -34t-45 -46t-24.5 -47.5zM811 1176q-10 -45 17.5 -87t74.5 -42q35 0 63.5 14t50 35.5t35 47t19.5 48.5q4 6 5 14 t3 17q4 18 4 37q0 18 -7 33.5t-23.5 24.5t-44.5 9q-35 0 -68 -13.5t-59.5 -33.5t-44 -46t-23.5 -48z" />
<glyph unicode="&#xa9;" horiz-adv-x="1499" d="M207 449q-53 -276 45 -432t336 -156q162 0 325.5 72.5t307 198.5t253 294t162.5 358q10 33 18.5 65t14.5 64q23 121 21 232.5t-42 196.5t-125 135.5t-227 50.5q-119 0 -236.5 -47t-228 -126t-209 -180.5t-177 -210t-135 -215t-81.5 -196.5q-8 -29 -13 -53t-9 -51z M353 256q-3 82 18 182q4 23 10 47l12 52q23 78 72 172t117.5 189t151.5 185.5t174 160t185.5 111.5t184.5 42q94 0 149.5 -38t80 -101.5t24.5 -145.5t-19 -170q-6 -37 -15 -74t-19 -71q-43 -162 -133.5 -307.5t-208 -256t-253.5 -175t-272 -64.5q-86 0 -141 31.5t-85 90 t-33 140.5zM509 417q5 -50 28.5 -88t67.5 -61.5t112 -23.5q92 0 164.5 18.5t126 46t91.5 58t60 55.5l74 67q25 31 40 57.5t19 47.5q10 53 -63 53q-33 0 -54.5 -10t-36 -24.5t-22.5 -28t-12 -19.5q-16 -25 -51 -53.5t-79 -54t-97.5 -43t-106.5 -17.5q-29 0 -47 12.5t-27.5 32 t-10.5 44t3 49.5l2 12q20 78 64.5 149.5t99.5 127t114.5 88t110.5 32.5q57 0 95 -10t51 -33q12 -10 27.5 -13t31.5 -3q35 0 62.5 18.5t33.5 46.5q10 39 -39 84q-45 43 -97 53.5t-126 10.5q-90 0 -184 -46t-177 -122t-146.5 -176.5t-90.5 -206.5l-6 -27q-10 -53 -5 -103z" />
<glyph unicode="&#xaa;" horiz-adv-x="759" d="M121 514q-4 -23 20.5 -43t77.5 -20q12 0 30.5 -4.5t39.5 -4.5q25 0 41 11l274 2l141 2q47 0 76 16t33 39t-24.5 42t-96.5 19q-16 0 -33.5 2.5t-35.5 2.5q-25 0 -46 -7h-282q-4 2 -25 2q-20 0 -45.5 -3t-36.5 -3q-51 0 -77.5 -16.5t-30.5 -36.5zM239.5 812 q6.5 -32 23 -59.5t41 -45t54.5 -17.5q53 0 108.5 13.5t106 30t91.5 33.5l67 28l-7 -26q-3 -11 -5 -21q-4 -18 5 -28.5t48 -10.5q43 0 64.5 23.5t31.5 72.5l2 2l113 428l4 14q8 45 1 74t-25.5 45t-43 22.5t-51.5 6.5q-86 0 -188 -20.5t-193 -73.5q-20 -10 -43.5 -20.5 t-33.5 -47.5l-2 -8q-4 -23 6 -30t26 -7q29 0 65 14l46 19q72 18 131 39.5t123 21.5q12 0 31.5 -4t15.5 -31l-23 -80q-111 -4 -206 -22.5t-170.5 -52t-129 -85t-77.5 -118.5q-2 -4 -4 -9t-2 -10q-7 -28 -0.5 -60zM365 885l2 6q8 33 52 62.5t106.5 52t135 39t142.5 24.5 l-15 -115q0 -4 -37.5 -27.5t-92 -51t-115 -50t-107.5 -22.5q-18 0 -26 2q-2 0 -14.5 6t-24.5 24.5t-6 49.5z" />
<glyph unicode="&#xab;" horiz-adv-x="940" d="M209 700q-6 -33 5 -45t28 -22l213 -260l28 -35q12 -14 37 -19h17q14 0 28.5 13.5t32.5 52.5q4 12 4 16q4 16 -6 36t-39 48l-162 199l221 135q43 20 61.5 46t22.5 42v11q-6 37 -17 49t-34 14h-6q-23 0 -59 -18l-287 -179q-31 -10 -56.5 -32.5t-31.5 -51.5zM586 666 q-6 -33 5 -45.5t27 -22.5l213 -260l29 -35q12 -14 37 -18h16q14 0 27.5 13t32.5 52q4 4 4 8t2 9q4 16 -6 35.5t-39 48.5l-162 198l219 135q45 20 63.5 46t22.5 42v11q-8 37 -18 49t-33 14h-6q-27 0 -59 -18l-287 -178q-31 -10 -56.5 -32.5t-31.5 -51.5z" />
<glyph unicode="&#xac;" horiz-adv-x="1943" d="M47 88q-6 -35 16 -63q20 -18 31.5 -29.5t26.5 -24.5l20 -12q10 -6 29 -6q20 0 45 8l133 26l135 25q23 4 30 7.5t9 11.5v22q-4 18 -7 37t-11 35q-12 16 -21.5 22.5t-29.5 6.5h-13q-47 -4 -89 -8.5t-89 -10.5l61 133l63 138l63 130l59 113q2 4 4 9.5t2 9.5q6 18 -25 39 q-23 14 -51 25t-57 18q-8 4 -25 4q-25 0 -41 -29q-33 -61 -71.5 -145l-75.5 -172.5t-67.5 -169t-49.5 -138.5zM381 858q-4 -29 16.5 -44t53.5 -26q23 -6 39 -12t30 -6q25 0 31 25l62 153l69 162l71 163l68 152q43 4 85 7.5t77 7.5q20 2 26.5 5t8.5 13q2 4 2 17q-8 41 -33 81 q-10 10 -20.5 15.5t-38.5 5.5q-51 -2 -118 -7t-135.5 -11.5t-136 -14.5t-122.5 -16q-25 -4 -27 -19q0 -8 2 -16q8 -16 15.5 -43t23.5 -45q10 -12 18.5 -17.5t20.5 -5.5q6 0 12 1t17 3q16 4 40 8l52 7l-56 -130l-58 -143l-51 -138q-24 -67 -38 -113zM524 461q-4 -18 25 -25 q12 -2 24.5 -3t24.5 -1t18 2q18 0 35 7.5t35 21.5q14 12 32.5 32.5t37 44l36 48t29.5 45.5q10 27 10 33q4 14 -8 32q-23 25 -51 43q-16 12 -27 13q-18 0 -34 -23q-16 -27 -41 -61l-50 -70l-50 -68l-40 -55l-4 -8q-2 -4 -2 -8zM545 33q-4 -18 5 -27l23 -20l30 -15 q13 -6 24 -12q18 -6 26 -6q14 0 31 22l44 67q22 34 52 73q59 16 134 25.5l147 19.5q-4 -41 -5 -75t-5 -65q0 -29 8 -40t31 -17q23 -10 44 -11t48 -1q25 0 33 7t12 26q18 139 40.5 292.5t45.5 276.5q12 66 24 109q4 25 -2 38t-32 23q-35 10 -78 19.5t-111 13.5h-14 q-35 0 -56.5 -12.5t-37.5 -32.5l-111 -145l-122 -171l-117 -173q-56 -85 -95 -152q-12 -21 -16 -37zM823 856q-4 -29 27 -47q16 -12 42 -19l48 -14q16 -4 21 -4q20 0 30 25q23 49 44.5 109.5t51.5 127.5l82 11.5t80 11.5q-43 -111 -61 -185q-4 -4 -4 -10q0 -4 -2 -8 q-4 -27 15.5 -41t51.5 -25l37 -11q16 -5 31 -5q25 0 31 25l69 174l78 182l77 172l66 145q2 6 3 10.5t1 8.5q4 10 -1 19.5t-21 19.5q-45 33 -98 45q-10 2 -16.5 3t-12.5 1q-23 0 -37 -31q-35 -68 -69.5 -155.5t-75.5 -180.5q-37 -4 -75 -6t-79 -6l64 143q29 66 55 113 q4 12 6 16q2 25 -25 43q-23 16 -51 27.5t-53 20.5q-16 6 -29 6q-25 0 -37 -33q-29 -68 -60 -155l-65 -176l-68 -174q-34 -85 -65 -152q-4 -6 -4 -13q0 -4 -2 -8zM903 293l120 164q56 78 105 139q-14 -68 -25 -139.5t-20 -145.5q-49 -4 -92 -8t-88 -10zM1276 104 q-4 -20 3 -32.5t21 -32.5q23 -23 41.5 -38t47.5 -28q29 -20 55 -20q10 0 24 3l35 7q35 8 77 22.5t84 32t82 38t71 44.5q33 25 54 49.5t27 57.5v29q4 35 -16 67.5t-51 50.5q63 35 106 66q39 29 70 61.5t37 71.5q4 20 2 35q-4 45 -20.5 76.5t-43.5 60.5q-23 23 -65.5 34 t-95.5 11q-86 0 -182.5 -21.5t-168.5 -52.5q-16 -63 -40 -138l-52 -149l-51 -147q-25 -72 -43 -131q-4 -11 -8 -27zM1458 115l34 75l32 76q68 20 112 21q63 0 68 -29v-6q-6 -33 -74 -72.5t-172 -64.5zM1491 903q-8 -35 16 -63q14 -18 29 -30l29 -24q8 -6 18 -11t31 -5 q16 0 47 6q59 10 128 24l134 25q39 8 39 23q2 4 -2 18q-2 18 -5 36t-11 38q-12 27 -48 27h-18l-90 -7.5t-90 -13.5q14 29 25.5 56.5t25.5 56.5q59 12 119.5 21.5l120.5 19.5q39 8 43 22q0 2 -4 19q-2 18 -5.5 35.5t-11.5 35.5q-10 27 -49 27h-12q-68 0 -115 -8l42 89 q19 42 42 79q66 10 124 15t111 11q37 6 39 23q2 4 2 16q0 18 -3 33.5t-9 36.5q-12 35 -59 35q-106 -4 -214 -21.5t-190 -36.5l-225 -591q-4 -13 -4 -17zM1595 420l38 87q17 40 38 77q90 35 148 34q43 0 49 -20v-6q-4 -16 -24.5 -38t-56.5 -46.5t-85.5 -47t-106.5 -40.5z" />
<glyph unicode="&#xad;" horiz-adv-x="790" d="M193 571q-6 -37 14 -67.5t74 -30.5q12 0 30.5 -4t38.5 -4q25 0 41 10l275 2l141 2q47 0 80 29t39 63q8 35 -17.5 66t-93.5 31q-16 0 -33.5 2t-36.5 2q-25 0 -45 -6h-282q-4 2 -25 2q-20 0 -45.5 -3t-36.5 -3q-51 0 -80.5 -28t-37.5 -63z" />
<glyph unicode="&#xae;" horiz-adv-x="1048" d="M246 881q-20 -106 3 -184.5t72.5 -128.5t116 -74.5t133.5 -24.5q80 0 184.5 33t204 103.5t179.5 180t110 265.5q16 90 6 156.5t-38.5 113.5t-70.5 78t-87 48t-88 24.5t-76 7.5q-109 0 -216.5 -52.5t-196.5 -137.5t-152.5 -192t-83.5 -216zM342 881q18 92 70.5 182 t126 160.5t161.5 114.5t177 44q31 0 86 -12t104 -48t78 -101.5t8 -169.5q-25 -129 -91.5 -220.5t-149.5 -150.5t-169 -87t-153 -28q-53 0 -104.5 18.5t-88.5 57.5t-54 98.5t-1 141.5zM494 707q-4 -23 8 -34t35 -11q27 0 54 16t34 47l16 86l104 -35q35 -18 66 -29.5t55 -11.5 q31 0 53.5 20.5t43.5 67.5l-86 31l-62 22q-27 9 -48 17l-46 18q47 18 94 42t87 52.5t67.5 63.5t36.5 76q10 55 -13.5 91t-74.5 36q-8 2 -31 2q-31 0 -70 -5t-81 -18.5t-81 -36t-69 -55.5q-16 -84 -27 -132l-16 -77q-6 -29 -11.5 -49t-9.5 -43zM676 995l22 109l35 12 q35 12 72 22.5t59 10.5q16 0 17.5 -7t-0.5 -16q-6 -29 -53.5 -57.5t-100.5 -50.5q-14 -6 -25.5 -12.5t-25.5 -10.5z" />
<glyph unicode="&#xaf;" horiz-adv-x="790" d="M297 1163q-6 -37 14.5 -67.5t73.5 -30.5h500q47 0 78.5 28.5t40.5 63.5q6 35 -18.5 65.5t-92.5 30.5q-106 2 -182 2h-125h-82q-31 0 -49.5 -1t-26.5 -1h-12q-51 0 -81 -27.5t-38 -62.5z" />
<glyph unicode="&#x2c9;" horiz-adv-x="790" d="M297 1163q-6 -37 14.5 -67.5t73.5 -30.5h500q47 0 78.5 28.5t40.5 63.5q6 35 -18.5 65.5t-92.5 30.5q-106 2 -182 2h-125h-82q-31 0 -49.5 -1t-26.5 -1h-12q-51 0 -81 -27.5t-38 -62.5z" />
<glyph unicode="&#xb0;" horiz-adv-x="518" d="M303 1081q-12 -59 11.5 -103t105.5 -44q51 0 104.5 21.5t98.5 57.5t77.5 83t47.5 100q0 6 2 13.5t4 13.5q12 59 -13.5 105t-97.5 46q-66 0 -122 -26.5t-101 -68.5t-75 -91t-40 -94zM457 1076.5q-4 17.5 0 37.5q6 20 18 43t31.5 41.5t44 30.5t53.5 12q25 0 30 -14.5 t1 -34.5l-2 -10q-12 -47 -55 -85t-93 -38q-24 0 -28 17.5z" />
<glyph unicode="&#xb1;" horiz-adv-x="854" d="M125 223q-4 -23 11.5 -41t49.5 -18q10 0 22.5 -3t29.5 -3q12 0 28 6h441q6 -6 22 -6q14 0 27.5 3t17.5 3q43 0 73 27.5t36 56.5q4 23 -8.5 38t-47.5 15l-79 -2h-451q-4 4 -14 4q-12 0 -28.5 -3t-23.5 -3q-45 0 -73.5 -23.5t-32.5 -50.5zM258 739q-4 -23 11.5 -41 t49.5 -18q10 0 24.5 -3t31.5 -3q10 0 22 4h142l-41 -156q-10 -12 -14.5 -35.5t-8.5 -35.5l-4 -15q-6 -37 8.5 -51t36.5 -14q29 0 55.5 17.5t34.5 45.5q2 6 6 22.5t10.5 34t10.5 33.5l6 25l37 129h160q12 -4 22 -4q14 0 27.5 3t19.5 3q43 0 74 27.5t37 56.5q4 23 -8.5 38 t-46.5 15l-82 -2h-164l43 150q6 8 8 15t6 17q4 25 6 27l2 8q8 37 -7 54.5t-40 17.5q-27 0 -53.5 -20.5t-36.5 -55.5q-4 -12 -11 -28.5l-11 -26.5q0 -6 2 -8l-45 -150h-148q-4 4 -14 4q-12 0 -28.5 -3t-22.5 -3q-45 0 -74 -23.5t-33 -50.5z" />
<glyph unicode="&#xb2;" horiz-adv-x="733" d="M166 606q-8 -33 5 -54.5t48 -21.5q27 4 34 5.5t23 5.5q47 10 119 21t144 11q92 0 134 -3t58 -5h6q59 0 83 25.5t28 56.5q12 63 -36 86t-167 23q-43 0 -98 -6l-6 16l188 180q106 96 159.5 182t61.5 127l2 5q12 72 -25.5 114.5t-115.5 42.5q-41 0 -86 -9t-92 -32 q-39 -16 -87 -43.5t-91 -59.5t-75 -65.5t-38 -60.5q-6 -35 19.5 -62.5t46.5 -27.5q29 4 61.5 24.5t85.5 61.5q47 39 104.5 68.5t90.5 29.5q6 0 11 -5t3 -9q-2 -14 -30.5 -49t-73.5 -81l-96 -100l-104 -103l-98 -92l-71 -65q-39 -33 -62.5 -55.5t-37 -37.5t-18.5 -23.5 t-7 -14.5z" />
<glyph unicode="&#xb3;" horiz-adv-x="763" d="M184 748q-8 -37 11.5 -71t58.5 -59.5t94 -41t119 -15.5q70 0 136.5 17.5t120.5 52.5t93 87t53 122q12 66 -5 116t-60 88q88 51 134 99.5t58 113.5q8 43 -3 78t-36.5 60.5t-61.5 39t-77 13.5q-49 0 -127 -25.5t-153.5 -64.5t-133 -85t-65.5 -85q-6 -35 17.5 -63.5 t62.5 -28.5q16 0 35 6q41 39 87 70.5t89 54t78.5 36t60.5 13.5q16 0 27.5 -5t7.5 -20q-6 -29 -44 -59.5t-91.5 -58t-110.5 -48t-102 -28.5h-2q-35 -4 -50.5 -19.5t-21.5 -50.5q-6 -41 6 -74.5t43 -33.5q8 0 21 4h4h2q0 2 4 2q68 25 131 24q47 0 74.5 -15t21.5 -48 q-10 -47 -63.5 -84t-139.5 -37q-47 0 -79.5 9t-36.5 32q-10 35 -39 45t-39 10q-35 0 -68 -15t-41 -58z" />
<glyph unicode="&#xb4;" horiz-adv-x="1079" d="M569 1067q-4 -16 8.5 -25.5t40.5 -19.5h13q6 0 15 5t22.5 15.5t36.5 32.5q16 16 49.5 40t81.5 52q39 25 66.5 44.5t49 40t39 44t35.5 56.5l11 26q5 12 7 23q12 55 -38 55q-43 0 -123 -45q-33 -18 -72 -52t-77 -73t-71.5 -80t-58.5 -76q-31 -47 -35 -63z" />
<glyph unicode="&#xb5;" horiz-adv-x="1044" d="M61 -291q-6 -35 4.5 -58.5t59.5 -27.5h16q33 0 54.5 13.5t36 36t23.5 49.5l19 59v-2l48 176q61 0 133.5 15.5t134 34t103.5 33.5l42 15l-2 -14q-10 -45 12.5 -58.5t57.5 -13.5q49 0 89 19.5t50 66.5q2 10 3 21.5t-1 25.5l182 693q23 51 29 81q8 41 -6 56.5t-45 15.5h-14 q-55 -4 -91 -39t-69 -114l-139 -533q-29 -18 -69 -38.5t-84 -39t-88 -32t-81 -15.5h-8q-41 0 -62.5 29t-9.5 94l4 12l142 504q10 20 14 47q8 41 -5.5 67.5t-54.5 29.5h-10q-59 0 -95 -38t-44 -79q-2 -8 -2 -21l-83 -315l-50 -192l-25.5 -100.5t-9.5 -39.5l-4 -12l-84 -336 q-6 -20 -11 -40z" />
<glyph unicode="&#x3bc;" horiz-adv-x="1044" d="M61 -291q-6 -35 4.5 -58.5t59.5 -27.5h16q33 0 54.5 13.5t36 36t23.5 49.5l19 59v-2l48 176q61 0 133.5 15.5t134 34t103.5 33.5l42 15l-2 -14q-10 -45 12.5 -58.5t57.5 -13.5q49 0 89 19.5t50 66.5q2 10 3 21.5t-1 25.5l182 693q23 51 29 81q8 41 -6 56.5t-45 15.5h-14 q-55 -4 -91 -39t-69 -114l-139 -533q-29 -18 -69 -38.5t-84 -39t-88 -32t-81 -15.5h-8q-41 0 -62.5 29t-9.5 94l4 12l142 504q10 20 14 47q8 41 -5.5 67.5t-54.5 29.5h-10q-59 0 -95 -38t-44 -79q-2 -8 -2 -21l-83 -315l-50 -192l-25.5 -100.5t-9.5 -39.5l-4 -12l-84 -336 q-6 -20 -11 -40z" />
<glyph unicode="&#xb6;" horiz-adv-x="1021" d="M215 586q-29 -139 22.5 -218t176.5 -79q29 0 55.5 2t52.5 6l-135 -516l-2 -17q-10 -49 4 -73.5t43 -24.5q12 0 21 2q31 8 54 23.5t42.5 43t36 70.5t35.5 107l317 1151h12q12 0 23.5 2t21.5 2q16 0 29.5 -8t24.5 -37l-344 -1225l-5 -16q-10 -49 5.5 -73.5t44.5 -24.5 q12 0 18 2q33 8 56.5 23.5t42 43t35 70.5t34.5 106l311 1205l2 4q6 33 -16.5 52t-57 30.5t-73.5 15.5t-66 4q-111 0 -236.5 -41t-240.5 -117.5t-205 -190.5t-129 -257q-4 -12 -6 -24.5t-4 -22.5z" />
<glyph unicode="&#xb7;" horiz-adv-x="434" d="M217 569.5q6 -26.5 21.5 -48t38 -36t51.5 -14.5q41 0 73.5 16.5t57 42t40 55t23.5 54.5q4 12 8.5 32.5t4.5 43.5t-8.5 41t-27 29.5t-50.5 11.5q-41 0 -79 -15.5t-69 -40t-52.5 -53.5t-29.5 -55l-2 -10q-6 -27 0 -53.5z" />
<glyph unicode="&#xb8;" horiz-adv-x="1024" d="M375 -217q-4 -29 1 -55.5t40 -32.5q4 0 6 -1t6 -1q41 0 87 48t71 118l59 125l9 35l10 38q8 33 -2.5 57.5t-59.5 24.5q-33 0 -58.5 -14t-45 -39t-33.5 -55.5t-25 -63.5l-34 -106l-13 -24q-12 -23 -18 -54z" />
<glyph unicode="&#xb9;" horiz-adv-x="380" d="M236 580q0 -25 38 -39q10 -10 18.5 -12.5t18.5 -2.5h11q47 0 60 18.5t21 51.5l29 149l49.5 199t41 149.5t33.5 107.5t28 75l11 31l9 26l2 10q2 25 -10 40.5t-28.5 23.5t-30 11t-15.5 3q-27 0 -60.5 -14t-63 -32.5t-51 -36t-21.5 -21.5q-14 -63 53 -82l6 -10l-16 -58 l-11 -37q-4 -14 -6 -23t-4 -15l-74 -267q-4 -20 -10 -56l-12 -73q-6 -37 -10 -69.5t-6 -46.5z" />
<glyph unicode="&#xba;" horiz-adv-x="817" d="M133 514q-4 -23 20.5 -43t77.5 -20q12 0 31 -4.5t39 -4.5q25 0 41 11l274 2l142 2q47 0 75.5 16t32.5 39t-24.5 42t-96.5 19q-16 0 -33.5 2.5t-35.5 2.5q-25 0 -45 -7h-283q-4 2 -24 2t-46 -3t-36 -3q-51 0 -78 -16.5t-31 -36.5zM327 819q3 -41 23.5 -72.5t58 -51 t99.5 -19.5q82 0 164 32.5t152.5 88t122.5 129t75 155.5q2 8 3 14.5t3 14.5q8 47 4 91t-23.5 78t-57.5 54.5t-95 20.5q-98 0 -185 -41t-156 -104.5t-116 -140.5t-65 -146l-2 -19q-8 -43 -5 -84zM464 867.5q-1 19.5 3 39.5l2 15q14 49 44 101t74 97t101 74t127 29 q29 0 46.5 -10.5t24.5 -28t7 -39.5q0 -20 -4 -45l-2 -19q-14 -55 -49 -106t-82 -91t-102.5 -63.5t-110.5 -23.5q-29 0 -45.5 10t-24.5 25.5t-9 35z" />
<glyph unicode="&#xbb;" horiz-adv-x="940" d="M145 350q4 -39 12.5 -52t22.5 -13h17q29 4 46 18t40 35l315 260q20 10 35.5 22.5t21.5 45.5q6 29 -10 51t-45 33l-217 178q-29 18 -51 18h-6q-23 -2 -39.5 -14t-36.5 -49q-4 -4 -4 -11q-4 -16 5 -41.5t44 -46.5l170 -135l-240 -198q-41 -29 -57 -48.5t-21 -35.5 q-2 -7 -2 -17zM536 393q-1 -4 1 -8q4 -39 11 -52.5t21 -13.5h17q29 4 46 18.5l40 35.5l315 260q20 10 35.5 22.5t21.5 44.5q6 29 -10 51.5t-45 32.5l-217 179q-25 18 -51 18h-6q-23 -2 -38 -14.5t-38 -48.5q-4 -4 -4 -11q-4 -16 5 -41.5t46 -46.5l168 -135l-240 -199 q-41 -29 -57 -48t-20 -36q0 -4 -1 -8z" />
<glyph unicode="&#xbc;" horiz-adv-x="1323" d="M164 76q-12 -63 69 -64q20 0 39 11.5t35.5 28t30.5 35.5t24 36q2 6 10.5 17.5t15.5 24.5t14.5 24.5t11.5 15.5q37 59 97 140l132 172l147 186l144 183l125 161l88 120v4l25 49q13 26 18 48q6 29 -4 47t-45 18q-66 0 -95.5 -25.5t-44.5 -54.5q-37 -43 -98 -123l-136 -178 l-155 -207l-153 -209l-134 -188q-60 -86 -94 -139q-57 -86 -67 -133zM197 532q-2 -10 10 -21t29 -17q10 -10 17 -12.5t17 -2.5h11q47 0 61 18.5t20 51.5l29 149l49.5 199t42 149.5t34.5 107.5t28 75q12 37 18 57l2 10q2 25 -10 40.5t-28.5 23.5t-30 11t-15.5 3 q-27 0 -59.5 -14t-62 -32.5t-51 -36t-21.5 -21.5q-14 -63 53 -82l6 -10l-16 -58l-11 -37q-4 -14 -7 -23l-5 -16l-71 -266l-11 -56l-12 -73l-11 -69q-5 -34 -5 -48zM594 317q-6 -33 14.5 -65.5t42.5 -32.5h15l70 19q40 10 79 18t74 14t57 9l4 -11l-4 -26q-4 -27 -9 -49.5 t-9 -38.5q-16 -84 1 -120t72 -36q47 0 80 28.5t37 51.5q-4 35 -2 54.5t6 43.5q4 16 9.5 45t13.5 58h160q33 0 59.5 32.5t30.5 59.5q6 29 -5.5 46t-33 25.5t-51 10.5t-60.5 2l-33 12q23 59 62 143t84 168l18 35q-4 10 -13 25.5t-19.5 30t-23.5 24.5t-28 10q-31 -12 -93 -54 l-138 -98l-157 -121q-81 -65 -148.5 -126.5t-112.5 -111.5t-49 -75zM786 383q63 61 111.5 103t85.5 70l61 46l43 33l25 -17q-16 -33 -32 -76l-31 -96q-74 -4 -135.5 -24.5t-127.5 -38.5z" />
<glyph unicode="&#xbd;" horiz-adv-x="1323" d="M164 76q-12 -63 69 -64q20 0 39 11.5t35.5 28t30.5 35.5t24 36q2 6 10.5 17.5t15.5 24.5t14.5 24.5t11.5 15.5q37 59 97 140l132 172l147 186l144 183l125 161l88 120v4l25 49q13 26 18 48q6 29 -4 47t-45 18q-66 0 -95.5 -25.5t-44.5 -54.5q-37 -43 -98 -123l-136 -178 l-155 -207l-153 -209l-134 -188q-60 -86 -94 -139q-57 -86 -67 -133zM197 532q-2 -10 10 -21t29 -17q10 -10 17 -12.5t17 -2.5h11q47 0 61 18.5t20 51.5l29 149l49.5 199t42 149.5t34.5 107.5t28 75q12 37 18 57l2 10q2 25 -10 40.5t-28.5 23.5t-30 11t-15.5 3 q-27 0 -59.5 -14t-62 -32.5t-51 -36t-21.5 -21.5q-14 -63 53 -82l6 -10l-16 -58l-11 -37q-4 -14 -7 -23l-5 -16l-71 -266l-11 -56l-12 -73l-11 -69q-5 -34 -5 -48zM627 47q-6 -33 7 -54.5t48 -21.5l34 5t23 6q47 10 119 21t143 11q92 0 134.5 -3t58.5 -5h6q59 0 82 25.5 t29 56.5q12 63 -36 86t-167 23q-47 0 -98 -7l-6 17l188 180q106 96 159.5 182t61.5 127v4q14 72 -24.5 115t-116.5 43q-88 0 -176 -41q-39 -16 -87 -44t-91.5 -59.5t-75 -65.5t-37.5 -60q-6 -35 19.5 -62.5t45.5 -27.5q29 4 62 24.5t86 61.5q47 39 104.5 68.5t89.5 29.5 q6 0 11.5 -5t3.5 -9q-2 -14 -31 -49t-73 -81l-96 -100l-104 -103l-98 -92l-71 -65q-39 -33 -62.5 -55.5t-37 -37.5t-19.5 -23.5t-8 -14.5z" />
<glyph unicode="&#xbe;" horiz-adv-x="1669" d="M184 713q-8 -37 11.5 -71t58.5 -59.5t94 -41t119 -15.5q70 0 136.5 17.5t120.5 52.5t93 87t51 122q14 66 -3 116t-60 89q86 51 133 99t59 114q8 43 -3 77.5t-36.5 60t-61.5 39t-77 13.5q-49 0 -127 -25.5t-153.5 -64.5t-134 -85t-66.5 -85q-4 -35 19.5 -63.5t62.5 -28.5 q16 0 33 6q43 39 88 70.5t88 54t79.5 36t61.5 13.5q39 0 33 -24q-6 -29 -44 -60t-90.5 -58.5t-109.5 -48t-102 -28.5h-2q-35 -4 -50.5 -19.5t-23.5 -50.5q-6 -41 7 -74.5t44 -33.5q6 0 19 4h4q2 0 3 1t5 1q33 12 66.5 18t64.5 6q47 0 74.5 -15t21.5 -48q-10 -47 -63.5 -84 t-139.5 -37q-47 0 -79.5 9.5t-38.5 31.5q-8 35 -37 45t-39 10q-35 0 -68 -15t-41 -58zM510 76q-12 -63 70 -64q20 0 38.5 11.5t35 28t30.5 35.5t25 36q2 6 10 17.5t15 24.5t14.5 24.5t11.5 15.5q37 59 97 140l132 172l147 186l144 183l125 161l88 120v4l26 49q13 26 17 48 q6 29 -4 47t-45 18q-66 0 -95.5 -25.5t-43.5 -54.5q-37 -43 -99 -123l-136 -178l-155 -207l-153 -209l-134 -188q-60 -86 -93 -139q-58 -86 -68 -133zM940 317q-6 -33 14.5 -65.5t42.5 -32.5l79 19q42 10 83 18t76 14t57 9l4 -11l-4 -26q-4 -27 -9 -49.5t-9 -38.5 q-16 -84 1 -120t73 -36q47 0 66.5 25.5t23.5 48.5q-4 35 -3 54t5 44q4 16 10 47t14 59l187 3q33 0 59.5 32.5t30.5 59.5q6 29 -5.5 46t-33 25.5t-51 10.5t-60.5 2l-69 -2q25 68 47 111.5t45 77.5l45 65q23 31 45 71l18 35q-4 10 -13 25.5t-19.5 30t-23.5 24.5t-28 10 q-31 -12 -93 -54l-138 -98l-157 -121q-81 -65 -148.5 -126.5t-112.5 -111.5t-49 -75zM1133 383q129 125 224 197l132 100l-31 -62q-16 -33 -45 -78.5t-45 -97.5q-74 -4 -123 -22.5t-112 -36.5z" />
<glyph unicode="&#xbf;" horiz-adv-x="1087" d="M98 -154q-10 -51 6.5 -95t52.5 -76.5t85 -51t106 -18.5q63 0 131 20.5t134.5 51t127.5 69.5l117 76q47 33 88 76t53 84l5 16q10 47 -6.5 69.5t-51.5 22.5q-39 0 -93 -29.5t-116 -89.5q-90 -72 -175 -124t-156 -52q-47 0 -81 17.5t-28 50.5l2 6q8 33 57.5 74t118.5 88 l152 99q82 52 155.5 108.5t129 115t73.5 115.5q4 20 9 39.5l10 38.5q10 53 -12.5 84t-100.5 31q-35 0 -58.5 -47.5t-66.5 -118t-122 -152.5t-222 -151q-51 -25 -101.5 -59t-93.5 -76t-74.5 -90t-46.5 -99l-4 -11.5zM791 889q-10 -49 4 -81t67 -32q72 0 129.5 33t83.5 125 l2 16q12 59 -23.5 84t-82.5 25q-70 0 -113 -37t-61 -102l2 2q-4 -10 -5 -17.5t-3 -15.5z" />
<glyph unicode="&#xc0;" horiz-adv-x="1222" d="M33 49q-6 -31 8 -53.5t68 -26.5h6q41 0 78.5 50.5l87.5 121.5l225 326l57 4l135 9l155 9.5t116 4.5q14 -66 23 -104l16 -63q6 -26 9 -45.5t7 -50.5q6 -33 15.5 -77.5t19.5 -85.5t21.5 -70t17.5 -29h16q55 0 85 32t40 81q6 41 4 78q-10 92 -35 229l-51 288 q-27 151 -48.5 295t-25.5 253q4 61 -16 103t-61 42q-31 0 -68 -29.5t-80 -99.5l-764 -1069l-33 -52q-22 -36 -28 -71zM635 653l278 412l6 -86q3 -53 8 -109.5t11 -110.5t12 -87zM843 1788q1 -12 1 -27q6 -33 14 -56.5t22.5 -44t35 -39.5l49.5 -44q35 -29 59.5 -52.5 t34.5 -39.5q12 -23 24.5 -33t21.5 -15t13 -5h6q31 10 46.5 19t19.5 26q4 10 0 25l-10 38q-10 35 -28.5 76t-41.5 80t-48.5 72.5t-49.5 52.5q-61 45 -107 45q-47 0 -59 -56q-4 -10 -3 -22z" />
<glyph unicode="&#xc1;" horiz-adv-x="1222" d="M33 49q-6 -31 8 -53.5t68 -26.5h6q41 0 78.5 50.5l87.5 121.5l225 326l57 4l135 9l155 9.5t116 4.5q14 -66 23 -104l16 -63q6 -26 9 -45.5t7 -50.5q6 -33 15.5 -77.5t19.5 -85.5t21.5 -70t17.5 -29h16q55 0 85 32t40 81q6 41 4 78q-10 92 -35 229l-51 288 q-27 151 -48.5 295t-25.5 253q4 61 -16 103t-61 42q-31 0 -68 -29.5t-80 -99.5l-764 -1069l-33 -52q-22 -36 -28 -71zM635 653l278 412l6 -86q3 -53 8 -109.5t11 -110.5t12 -87zM862 1477q-4 -16 8.5 -25.5t40.5 -19.5h13q6 0 15 5t22.5 15t35.5 33q16 16 50 39.5t81 52.5 l67 44t49.5 39.5t38.5 44.5t36 56q12 27 18 49q12 55 -39 56q-43 0 -122 -45q-33 -18 -72 -52t-77 -73t-71.5 -80t-58.5 -76q-29 -38 -35 -63z" />
<glyph unicode="&#xc2;" horiz-adv-x="1222" d="M33 49q-6 -31 8 -53.5t68 -26.5h6q41 0 78.5 50.5l87.5 121.5l225 326l57 4l135 9l155 9.5t116 4.5q14 -66 23 -104l16 -63q6 -26 9 -45.5t7 -50.5q6 -33 15.5 -77.5t19.5 -85.5t21.5 -70t17.5 -29h16q55 0 85 32t40 81q6 41 4 78q-10 92 -35 229l-51 288 q-27 151 -48.5 295t-25.5 253q4 61 -16 103t-61 42q-31 0 -68 -29.5t-80 -99.5l-764 -1069l-33 -52q-22 -36 -28 -71zM635 653l278 412l6 -86q3 -53 8 -109.5t11 -110.5t12 -87zM666 1497q-4 -14 8 -25.5t49 -21.5q4 -2 14 -2q16 0 39 13.5t58 47.5l237 201l98 -194 q12 -41 35 -54.5t39 -13.5q8 0 12 2q39 14 54.5 27.5t21.5 35.5v7q6 27 -8 55l-129 252q-4 29 -22.5 50t-47.5 21q-33 0 -47 -13t-28 -32l-312 -264l-40 -34q-17 -15 -27 -42z" />
<glyph unicode="&#xc3;" horiz-adv-x="1222" d="M33 49q-6 -31 8 -53.5t68 -26.5h6q41 0 78.5 50.5l87.5 121.5l225 326l57 4l135 9l155 9.5t116 4.5q14 -66 23 -104l16 -63q6 -26 9 -45.5t7 -50.5q6 -33 15.5 -77.5t19.5 -85.5t21.5 -70t17.5 -29h16q55 0 85 32t40 81q6 41 4 78q-10 92 -35 229l-51 288 q-27 151 -48.5 295t-25.5 253q4 61 -16 103t-61 42q-31 0 -68 -29.5t-80 -99.5l-764 -1069l-33 -52q-22 -36 -28 -71zM635 653l278 412l6 -86q3 -53 8 -109.5t11 -110.5t12 -87zM739 1526q-4 -23 11.5 -39.5t46.5 -16.5q18 0 38 16l39 33l40 32q19 15 38 16q16 0 26.5 -16.5 t25 -37t38 -37t66.5 -16.5q90 0 149.5 40t92.5 157v2q4 18 -13.5 32.5t-42.5 14.5q-16 0 -34.5 -9t-32.5 -32l-10 -26q-6 -15 -14.5 -29.5t-22 -25.5t-31.5 -11q-27 0 -38 18.5t-22.5 42t-31 42t-58.5 18.5q-31 0 -72.5 -14.5t-80.5 -37t-68.5 -51t-38.5 -59.5v-6z" />
<glyph unicode="&#xc4;" horiz-adv-x="1222" d="M33 49q-6 -31 8 -53.5t68 -26.5h6q41 0 78.5 50.5l87.5 121.5l225 326l57 4l135 9l155 9.5t116 4.5q14 -66 23 -104l16 -63q6 -26 9 -45.5t7 -50.5q6 -33 15.5 -77.5t19.5 -85.5t21.5 -70t17.5 -29h16q55 0 85 32t40 81q6 41 4 78q-10 92 -35 229l-51 288 q-27 151 -48.5 295t-25.5 253q4 61 -16 103t-61 42q-31 0 -68 -29.5t-80 -99.5l-764 -1069l-33 -52q-22 -36 -28 -71zM635 653l278 412l6 -86q3 -53 8 -109.5t11 -110.5t12 -87zM719 1581q-10 -45 16.5 -89t77.5 -44q35 0 62.5 14.5t49 36t36 46t20.5 46.5l4 13q2 6 4 14 q2 18 3 37.5t-6 36t-23.5 27t-44.5 10.5q-35 0 -68 -13.5t-59.5 -34t-45 -46t-24.5 -48.5zM1108 1585q-8 -45 19.5 -87t74.5 -42q35 0 63.5 14.5t50 36t35 47t19.5 48.5q4 6 5 14t3 16q4 18 4 37q0 18 -7 33.5t-23.5 25t-44.5 9.5q-35 0 -68 -13.5t-59.5 -34t-45 -46 t-24.5 -48.5z" />
<glyph unicode="&#xc5;" horiz-adv-x="1222" d="M33 49q-6 -31 8 -53.5t68 -26.5h6q41 0 78.5 50.5l87.5 121.5l225 326l57 4l135 9l155 9.5t116 4.5q14 -66 23 -104l16 -63q6 -26 9 -45.5t7 -50.5q6 -33 15.5 -77.5t19.5 -85.5t21.5 -70t17.5 -29h16q55 0 85 32t40 81q6 41 4 78q-10 92 -35 229l-51 288 q-27 151 -48.5 295t-25.5 253q4 61 -16 103t-61 42q-31 0 -68 -29.5t-80 -99.5l-764 -1069l-33 -52q-22 -36 -28 -71zM635 653l278 412l6 -86q3 -53 8 -109.5t11 -110.5t12 -87zM877 1571q-10 -59 12 -103.5t104 -44.5q51 0 104.5 21.5t98.5 57.5t79 83t46 101q2 6 4 13 t4 13q10 59 -14.5 105.5t-95.5 46.5q-66 0 -123.5 -27t-101.5 -69t-73.5 -91t-41.5 -94zM1030 1604q6 20 18.5 42.5t32 41t44 31t53.5 12.5q25 0 30.5 -14.5t1.5 -35.5l-2 -10q-12 -47 -55 -85t-92 -38q-25 0 -30 18t-1 38z" />
<glyph unicode="&#xc6;" horiz-adv-x="2013" d="M-23 -47q-10 -37 54 -43h6q39 0 101 50l147 122l381 326l30 4q31 4 80 11l110 15l118.5 15.5t107.5 12.5t76 5l-72 -262q-12 -39 -24.5 -74t-16.5 -63q-10 -49 9.5 -79t91.5 -30h16q8 0 18 2l650 47q92 0 124.5 30t38.5 60l2 13q10 47 -13 64.5t-83 17.5h-33l-606 -52 l115 414l471 51q10 2 22.5 3t26.5 1q41 0 80 17.5t55 77.5l2 12q6 29 -13 52.5t-93 23.5h-23q-12 0 -28 -2l-449 -56l47 162q18 61 31 98l18 56q6 18 13 32l506 33q51 2 89 3t64.5 9.5t43 28t28.5 58.5l2 12q10 47 -20.5 62.5t-77.5 15.5q-25 0 -52 -2l-53 -4 q-184 -12 -289.5 -17.5t-165.5 -5.5h-139q-35 0 -79 -15.5t-62 -35.5l-1247 -1116q-12 -10 -34 -30t-43.5 -42.5t-39 -46t-19.5 -41.5zM879 594l440 430q-4 -12 -8 -32.5t-7.5 -45l-7.5 -53.5q-14 -57 -26.5 -116.5t-36.5 -127.5z" />
<glyph unicode="&#xc7;" horiz-adv-x="1175" d="M184 265q4 -81 31 -145.5t76 -108.5t119 -62l-43 -129l-13 -24q-12 -24 -16 -54q-6 -29 -1 -55.5t40 -32.5q4 0 6 -1t6 -1q41 0 87 48t71 118q25 51 36 76.5t16 36t5 12.5t2 6q82 14 162 49t151.5 80t131 97t102.5 104q31 35 35 61q6 29 -12.5 43t-51.5 14 q-39 0 -89 -21.5t-91 -68.5q-23 -29 -65.5 -62.5t-95 -61t-106.5 -46t-99 -18.5q-68 0 -109 26.5t-59.5 71.5t-19.5 104.5t11 124.5l9 34l8 34q35 125 100.5 249t150.5 220t183 156.5t199 60.5q63 0 96 -9t47 -26q43 -49 68.5 -80.5t33.5 -31.5q51 0 90 34.5t50 79.5 q10 51 -27 90q-66 72 -147.5 98.5t-182.5 26.5q-133 0 -266 -72.5t-250 -194.5t-208 -278.5t-138 -322.5q-12 -35 -18 -76q-19 -92 -15 -173z" />
<glyph unicode="&#xc8;" horiz-adv-x="1087" d="M156 82q-10 -49 8 -79t90 -30h16q10 0 21 2l649 48q92 0 125 29.5t39 60.5l2 12q10 47 -13.5 64.5t-82.5 17.5h-33l-606 -51l114 413l471 52q10 2 22.5 3t27.5 1q41 0 79.5 17t55.5 77l2 12q6 29 -13.5 52.5t-93.5 23.5h-22q-12 0 -29 -2l-448 -55l98 348l516 32l89 3.5 t64.5 9.5t43 27.5t28.5 58.5l2 12q10 47 -20.5 62.5t-77.5 15.5q-25 0 -51 -2l-53 -4q-184 -12 -290 -17.5t-165 -5.5h-139q-33 0 -57.5 -11t-43 -29.5t-29 -39t-14.5 -39.5q0 -4 -1 -9t-1 -9l-51 -218q-35 -151 -94 -368l-94 -348q-12 -39 -24.5 -73.5t-16.5 -63.5z M794 1788q1 -12 1 -27q6 -33 14 -56.5t22.5 -44t35 -39.5l48.5 -44q35 -29 59.5 -52.5t35.5 -39.5q12 -23 24.5 -33t21.5 -15t13 -5h6q31 10 46.5 19t19.5 26q4 10 0 25l-11 38q-10 35 -28.5 76t-41 80t-48 72.5t-49.5 52.5q-61 45 -107 45q-47 0 -59 -56q-4 -10 -3 -22z " />
<glyph unicode="&#xc9;" horiz-adv-x="1087" d="M156 82q-10 -49 8 -79t90 -30h16q10 0 21 2l649 48q92 0 125 29.5t39 60.5l2 12q10 47 -13.5 64.5t-82.5 17.5h-33l-606 -51l114 413l471 52q10 2 22.5 3t27.5 1q41 0 79.5 17t55.5 77l2 12q6 29 -13.5 52.5t-93.5 23.5h-22q-12 0 -29 -2l-448 -55l98 348l516 32l89 3.5 t64.5 9.5t43 27.5t28.5 58.5l2 12q10 47 -20.5 62.5t-77.5 15.5q-25 0 -51 -2l-53 -4q-184 -12 -290 -17.5t-165 -5.5h-139q-33 0 -57.5 -11t-43 -29.5t-29 -39t-14.5 -39.5q0 -4 -1 -9t-1 -9l-51 -218q-35 -151 -94 -368l-94 -348q-12 -39 -24.5 -73.5t-16.5 -63.5z M844 1477q-4 -16 8 -25.5t41 -19.5h12q6 0 15.5 5t22.5 15t36 33q16 16 50 39.5t81 52.5l66.5 44t49 39.5t39 44.5t35.5 56q12 27 19 49q12 55 -39 56q-43 0 -123 -45q-33 -18 -71.5 -52t-76.5 -73t-72 -80t-58 -76q-29 -38 -35 -63z" />
<glyph unicode="&#xca;" horiz-adv-x="1087" d="M156 82q-10 -49 8 -79t90 -30h16q10 0 21 2l649 48q92 0 125 29.5t39 60.5l2 12q10 47 -13.5 64.5t-82.5 17.5h-33l-606 -51l114 413l471 52q10 2 22.5 3t27.5 1q41 0 79.5 17t55.5 77l2 12q6 29 -13.5 52.5t-93.5 23.5h-22q-12 0 -29 -2l-448 -55l98 348l516 32l89 3.5 t64.5 9.5t43 27.5t28.5 58.5l2 12q10 47 -20.5 62.5t-77.5 15.5q-25 0 -51 -2l-53 -4q-184 -12 -290 -17.5t-165 -5.5h-139q-33 0 -57.5 -11t-43 -29.5t-29 -39t-14.5 -39.5q0 -4 -1 -9t-1 -9l-51 -218q-35 -151 -94 -368l-94 -348q-12 -39 -24.5 -73.5t-16.5 -63.5z M659 1497q-4 -14 8.5 -25.5t49.5 -21.5q4 -2 14 -2q16 0 39 13.5t57 47.5l238 201l98 -194q12 -41 35 -54.5t39 -13.5q8 0 12 2q39 14 54.5 27.5t21.5 35.5v7q6 27 -8 55l-129 252q-4 29 -22.5 50t-47.5 21q-33 0 -47 -13t-29 -32l-311 -264l-40 -34q-17 -15 -27 -42z" />
<glyph unicode="&#xcb;" horiz-adv-x="1087" d="M156 82q-10 -49 8 -79t90 -30h16q10 0 21 2l649 48q92 0 125 29.5t39 60.5l2 12q10 47 -13.5 64.5t-82.5 17.5h-33l-606 -51l114 413l471 52q10 2 22.5 3t27.5 1q41 0 79.5 17t55.5 77l2 12q6 29 -13.5 52.5t-93.5 23.5h-22q-12 0 -29 -2l-448 -55l98 348l516 32l89 3.5 t64.5 9.5t43 27.5t28.5 58.5l2 12q10 47 -20.5 62.5t-77.5 15.5q-25 0 -51 -2l-53 -4q-184 -12 -290 -17.5t-165 -5.5h-139q-33 0 -57.5 -11t-43 -29.5t-29 -39t-14.5 -39.5q0 -4 -1 -9t-1 -9l-51 -218q-35 -151 -94 -368l-94 -348q-12 -39 -24.5 -73.5t-16.5 -63.5z M715 1581q-10 -45 16.5 -89t77.5 -44q35 0 62.5 14.5t49 36t36 46t20.5 46.5l4 13q2 6 4 14q2 18 3 37.5t-6 36t-23.5 27t-45.5 10.5q-35 0 -67.5 -13.5t-59 -34t-45 -46t-24.5 -48.5zM1104 1585q-8 -45 19.5 -87t74.5 -42q35 0 63.5 14.5t50 36t35 47t19.5 48.5q4 6 5 14 t3 16q4 18 4 37q0 18 -7 33.5t-23.5 25t-44.5 9.5q-35 0 -68 -13.5t-59.5 -34t-45 -46t-24.5 -48.5z" />
<glyph unicode="&#xcc;" horiz-adv-x="454" d="M147 68q-6 -39 8.5 -66t63.5 -33q4 0 9 -1t10 -1q29 0 47 11.5t30.5 32t21.5 47t21 57.5l297 1050q6 23 16.5 47.5t14.5 47.5q6 33 -4 55t-51 22q-45 0 -74 -9t-46 -27.5t-27.5 -47t-16.5 -65.5l-303 -1069l-8 -27zM488 1788q1 -12 1 -27q6 -33 14.5 -56.5t23 -44 t35 -39.5l48.5 -44q35 -29 59.5 -52.5t35.5 -39.5q12 -23 24 -33t21.5 -15t13.5 -5h6q31 10 46 19t20 26q4 10 0 25l-11 38q-10 35 -28.5 76t-41 80t-48 72.5t-50.5 52.5q-61 45 -106 45q-47 0 -59 -56q-5 -10 -4 -22z" />
<glyph unicode="&#xcd;" horiz-adv-x="454" d="M147 68q-6 -39 8.5 -66t63.5 -33q4 0 9 -1t10 -1q29 0 47 11.5t30.5 32t21.5 47t21 57.5l297 1050q6 23 16.5 47.5t14.5 47.5q6 33 -4 55t-51 22q-45 0 -74 -9t-46 -27.5t-27.5 -47t-16.5 -65.5l-303 -1069l-8 -27zM461 1477q-4 -16 8 -25.5t41 -19.5h12q6 0 15.5 5 t22.5 15t36 33q16 16 50 39.5t81 52.5l66.5 44t49 39.5t39 44.5t36.5 56q12 27 18 49q12 55 -39 56q-43 0 -123 -45q-33 -18 -71.5 -52t-76.5 -73t-72 -80t-58 -76q-29 -38 -35 -63z" />
<glyph unicode="&#xce;" horiz-adv-x="454" d="M147 68q-6 -39 8.5 -66t63.5 -33q4 0 9 -1t10 -1q29 0 47 11.5t30.5 32t21.5 47t21 57.5l297 1050q6 23 16.5 47.5t14.5 47.5q6 33 -4 55t-51 22q-45 0 -74 -9t-46 -27.5t-27.5 -47t-16.5 -65.5l-303 -1069l-8 -27zM311 1497q-4 -14 8.5 -25.5t49.5 -21.5q4 -2 14 -2 q16 0 38.5 13.5t57.5 47.5l238 201l98 -194q12 -41 34.5 -54.5t39.5 -13.5q8 0 12 2q39 14 54.5 27.5t21.5 35.5v7q6 27 -8 55l-129 252q-4 29 -22.5 50t-47.5 21q-33 0 -47 -13t-29 -32l-311 -264l-40 -34q-17 -15 -28 -42z" />
<glyph unicode="&#xcf;" horiz-adv-x="454" d="M147 68q-6 -39 8.5 -66t63.5 -33q4 0 9 -1t10 -1q29 0 47 11.5t30.5 32t21.5 47t21 57.5l297 1050q6 23 16.5 47.5t14.5 47.5q6 33 -4 55t-51 22q-45 0 -74 -9t-46 -27.5t-27.5 -47t-16.5 -65.5l-303 -1069l-8 -27zM344 1571q-10 -45 16.5 -89t77.5 -44q35 0 62.5 14 t49 35.5t36 46.5t20.5 47l4 12q2 6 4 15q2 18 3 37.5t-6 36t-23.5 26.5t-44.5 10q-35 0 -68 -13t-59.5 -33.5t-45 -46.5t-24.5 -48zM733 1575q-8 -45 19.5 -87t74.5 -42q35 0 64 14.5t50.5 36t34.5 47t19 47.5q4 6 5 14.5t4 16.5q4 18 4 37q0 18 -7.5 33.5t-23.5 24.5t-45 9 q-35 0 -68 -13t-59.5 -33.5t-45 -46t-24.5 -48.5z" />
<glyph unicode="&#xd0;" horiz-adv-x="1241" d="M117 694q-8 -35 13.5 -66.5t74.5 -31.5h98l-106 -377q-8 -33 -17.5 -65.5t-13.5 -61.5q-10 -53 -2 -88t57 -35q55 0 153.5 20.5t216.5 66.5t245 118t241.5 174.5t206.5 236.5t139 304q8 23 13 51q16 86 6 165t-52 139.5t-116 96t-184 35.5q-86 0 -155 -9t-127 -23.5 t-111 -31.5l-105 -34q-63 -20 -100 -66.5t-48 -97.5q-4 -20 -4 -33l-84 -295q-16 2 -30 2h-23q-35 0 -46 -3t-24 -3q-51 0 -80.5 -26.5t-35.5 -61.5zM377 178l119 420l172 2q47 0 78.5 28.5t39.5 63.5q6 35 -18.5 64.5t-91.5 29.5h-127l86 312q72 35 172 67.5t211 32.5 q72 0 118 -23.5t70.5 -62.5t28.5 -90t-6 -104l-6 -29q-47 -166 -148.5 -291t-223.5 -211t-249 -137.5t-225 -71.5z" />
<glyph unicode="&#xd1;" horiz-adv-x="1337" d="M143 63q-18 -96 78 -96h15q45 4 73.5 35t36.5 68q2 8 2 16v16l230 818l58 -114l62 -120q31 -59 57.5 -116.5t43.5 -102.5q14 -41 41 -99l56 -120l58 -119l47 -94q6 -8 10.5 -19.5t14.5 -20.5t30.5 -15.5t57.5 -6.5q25 0 43.5 13.5t32.5 33t24.5 41t16.5 39.5l313 1119 q4 12 6 23l4 22q10 53 -6 74.5t-69 21.5q-35 0 -55.5 -12.5t-35 -32t-21.5 -41.5l-13 -43l-248 -893q-6 8 -17 30l-25 45l-25 44q-11 20 -15 30q-37 66 -66 125l-57 125l-62 146l-81 188q-6 16 -11.5 22.5t-9.5 16.5t-11 30.5t-19 65.5q-6 18 -15.5 41t-23 43.5t-30.5 33.5 t-38 13q-25 0 -43 -5t-34.5 -21.5t-32 -45t-29.5 -75.5l-305 -1079q-11 -30 -13 -48zM754 1518q-4 -23 11 -39.5t46 -16.5q18 0 38 16l40 32l40 33q19 15 38 16q16 0 26.5 -16.5l24.5 -37t37.5 -37t66.5 -16.5q90 0 150.5 40t91.5 157l2 2q4 18 -14.5 32.5t-42.5 14.5 q-16 0 -35 -9.5t-33 -31.5q-4 -10 -9 -25.5t-13.5 -30t-21.5 -25.5t-32 -11q-27 0 -38 18.5t-23 42t-31.5 42t-58.5 18.5q-31 0 -73 -14.5t-80 -37t-67.5 -51.5t-37.5 -59z" />
<glyph unicode="&#xd2;" horiz-adv-x="1304" d="M199 444q-47 -240 40 -373.5t293 -133.5q139 0 281.5 63t267.5 172t220.5 254t142.5 311q14 55 24 111q20 104 19.5 201.5t-35.5 171t-108.5 117.5t-196.5 44q-102 0 -204.5 -41t-199 -109.5t-181.5 -155.5t-154.5 -181t-117.5 -187.5t-69 -170.5l-12 -48q-6 -22 -10 -45 zM393 455q4 20 9 40l12 42q16 59 55 132.5t91 147.5t116.5 143.5t134.5 123t142.5 86t142.5 32.5q74 0 116.5 -29.5t62 -80t19.5 -115.5q0 -63 -14 -133q-4 -27 -11 -53.5t-16 -53.5q-35 -125 -104.5 -237.5t-160.5 -197.5t-195.5 -135t-208.5 -50q-133 0 -176.5 92 t-14.5 246zM931 1788q1 -12 1 -27q6 -33 14 -56.5t22.5 -44t35 -39.5l49.5 -44q35 -29 59.5 -52.5t34.5 -39.5q12 -23 24.5 -33t21.5 -15t13 -5h6q31 10 46.5 19t19.5 26q4 10 0 25l-10 38q-10 35 -28.5 76t-41 80t-48.5 72.5t-50 52.5q-61 45 -107 45q-47 0 -59 -56 q-4 -10 -3 -22z" />
<glyph unicode="&#xd3;" horiz-adv-x="1304" d="M199 444q-47 -240 40 -373.5t293 -133.5q139 0 281.5 63t267.5 172t220.5 254t142.5 311q14 55 24 111q20 104 19.5 201.5t-35.5 171t-108.5 117.5t-196.5 44q-102 0 -204.5 -41t-199 -109.5t-181.5 -155.5t-154.5 -181t-117.5 -187.5t-69 -170.5l-12 -48q-6 -22 -10 -45 zM393 455q4 20 9 40l12 42q16 59 55 132.5t91 147.5t116.5 143.5t134.5 123t142.5 86t142.5 32.5q74 0 116.5 -29.5t62 -80t19.5 -115.5q0 -63 -14 -133q-4 -27 -11 -53.5t-16 -53.5q-35 -125 -104.5 -237.5t-160.5 -197.5t-195.5 -135t-208.5 -50q-133 0 -176.5 92 t-14.5 246zM1032 1477q-4 -16 8.5 -25.5t40.5 -19.5h13q6 0 15 5t22.5 15t35.5 33q16 16 50 39.5t81 52.5l67 44t49.5 39.5t38.5 44.5t36 56q12 27 18 49q12 55 -39 56q-43 0 -122 -45q-33 -18 -72 -52t-77 -73t-71.5 -80t-58.5 -76q-29 -38 -35 -63z" />
<glyph unicode="&#xd4;" horiz-adv-x="1304" d="M199 444q-47 -240 40 -373.5t293 -133.5q139 0 281.5 63t267.5 172t220.5 254t142.5 311q14 55 24 111q20 104 19.5 201.5t-35.5 171t-108.5 117.5t-196.5 44q-102 0 -204.5 -41t-199 -109.5t-181.5 -155.5t-154.5 -181t-117.5 -187.5t-69 -170.5l-12 -48q-6 -22 -10 -45 zM393 455q4 20 9 40l12 42q16 59 55 132.5t91 147.5t116.5 143.5t134.5 123t142.5 86t142.5 32.5q74 0 116.5 -29.5t62 -80t19.5 -115.5q0 -63 -14 -133q-4 -27 -11 -53.5t-16 -53.5q-35 -125 -104.5 -237.5t-160.5 -197.5t-195.5 -135t-208.5 -50q-133 0 -176.5 92 t-14.5 246zM819 1497q-4 -14 8.5 -25.5t49.5 -21.5q4 -2 14 -2q16 0 38.5 13.5t57.5 47.5l238 201l98 -194q12 -41 34.5 -54.5t39.5 -13.5q8 0 12 2q39 14 54.5 27.5t21.5 35.5v7q6 27 -8 55l-129 252q-4 29 -22.5 50t-47.5 21q-33 0 -47 -13t-29 -32l-311 -264l-40 -34 q-17 -15 -28 -42z" />
<glyph unicode="&#xd5;" horiz-adv-x="1304" d="M199 444q-47 -240 40 -373.5t293 -133.5q139 0 281.5 63t267.5 172t220.5 254t142.5 311q14 55 24 111q20 104 19.5 201.5t-35.5 171t-108.5 117.5t-196.5 44q-102 0 -204.5 -41t-199 -109.5t-181.5 -155.5t-154.5 -181t-117.5 -187.5t-69 -170.5l-12 -48q-6 -22 -10 -45 zM393 455q4 20 9 40l12 42q16 59 55 132.5t91 147.5t116.5 143.5t134.5 123t142.5 86t142.5 32.5q74 0 116.5 -29.5t62 -80t19.5 -115.5q0 -63 -14 -133q-4 -27 -11 -53.5t-16 -53.5q-35 -125 -104.5 -237.5t-160.5 -197.5t-195.5 -135t-208.5 -50q-133 0 -176.5 92 t-14.5 246zM866 1526q-4 -23 11.5 -39.5t46.5 -16.5q18 0 38 16l39 33l40 32q19 15 38 16q16 0 26.5 -16.5t25 -37t38 -37t66.5 -16.5q90 0 149.5 40t92.5 157v2q4 18 -13.5 32.5t-42.5 14.5q-16 0 -34.5 -9t-32.5 -32l-11 -26q-6 -15 -14 -29.5t-21.5 -25.5t-31.5 -11 q-27 0 -38 18.5t-22.5 42t-31 42t-58.5 18.5q-31 0 -72.5 -14.5t-80.5 -37t-69 -51t-38 -59.5v-6z" />
<glyph unicode="&#xd6;" horiz-adv-x="1304" d="M199 444q-47 -240 40 -373.5t293 -133.5q139 0 281.5 63t267.5 172t220.5 254t142.5 311q14 55 24 111q20 104 19.5 201.5t-35.5 171t-108.5 117.5t-196.5 44q-102 0 -204.5 -41t-199 -109.5t-181.5 -155.5t-154.5 -181t-117.5 -187.5t-69 -170.5l-12 -48q-6 -22 -10 -45 zM393 455q4 20 9 40l12 42q16 59 55 132.5t91 147.5t116.5 143.5t134.5 123t142.5 86t142.5 32.5q74 0 116.5 -29.5t62 -80t19.5 -115.5q0 -63 -14 -133q-4 -27 -11 -53.5t-16 -53.5q-35 -125 -104.5 -237.5t-160.5 -197.5t-195.5 -135t-208.5 -50q-133 0 -176.5 92 t-14.5 246zM807 1581q-10 -45 16.5 -89t77.5 -44q35 0 62.5 14.5t49 36t36 46t20.5 46.5l4 13q2 6 4 14q2 18 3 37.5t-6 36t-23.5 27t-44.5 10.5q-35 0 -68 -13.5t-59.5 -34t-45 -46t-24.5 -48.5zM1196 1585q-8 -45 19.5 -87t74.5 -42q35 0 63.5 14.5t50 36t35 47t19.5 48.5 q4 6 5 14t3 16q4 18 4 37q0 18 -7 33.5t-23.5 25t-44.5 9.5q-35 0 -68 -13.5t-59.5 -34t-45 -46t-24.5 -48.5z" />
<glyph unicode="&#xd7;" horiz-adv-x="952" d="M129 215q-6 -35 16 -57q27 -33 74 -33q31 0 64 20l27 21l42 30q23 15 43 30l31 24l162 115l125 -160q6 -23 28.5 -39t28.5 -25q18 -23 42 -32t46 -9q41 0 75 22.5t40 57.5q6 33 -19 68l-65 76l-131 163l184 134q12 4 23.5 9t21.5 15q27 25 35 25q51 39 57 80 q8 37 -15.5 62.5t-64.5 25.5t-81 -29q-20 -16 -48 -29.5t-34 -25.5l-187 -133l-117 147q-2 16 -24.5 33.5t-30.5 27.5q-35 43 -86 43q-39 0 -70.5 -23.5t-38 -58t20.5 -71.5q10 -14 25.5 -42t38.5 -38l112 -141l-194 -140q-23 -4 -48.5 -28.5t-41.5 -34.5q-31 -20 -46.5 -41 t-19.5 -39z" />
<glyph unicode="&#xd8;" horiz-adv-x="1304" d="M199 444q-33 -170 2 -288.5t133 -171.5q-51 -82 -60 -129q-6 -35 11.5 -51.5t66.5 -16.5q27 0 50.5 16.5t44 40t36 49l27.5 44.5h22q139 0 281.5 63t267.5 172t220.5 254t142.5 311q6 29 13 54.5t11 54.5q14 74 18.5 142.5t-6 130t-36 112.5t-70.5 86q4 10 8 18l9 17v-2 l29 57q15 31 20 59q6 29 -3.5 49.5t-47.5 20.5q-39 0 -66 -9t-45 -22.5t-30.5 -30t-20.5 -30.5q-10 -14 -19 -30l-18 -34q-10 0 -21.5 1t-21.5 1q-102 0 -204.5 -41t-199 -109.5t-181.5 -155.5t-154.5 -181t-117.5 -187.5t-69 -170.5l-12 -48q-6 -22 -10 -45zM385 275.5 q-12 74.5 8 177.5q4 20 9 41l12 43q16 59 53 130.5t88 144.5t114.5 141.5t132 121.5t140.5 88t139 37l-152 -253l-171 -279l-168 -275l-146 -233q-47 41 -59 115.5zM627 119l145 222l169 261l171 269l150 247q31 -53 32.5 -125.5t-14.5 -150.5q-4 -27 -11 -52.5t-16 -52.5 q-33 -119 -97 -226.5t-149 -191t-182.5 -137t-197.5 -63.5z" />
<glyph unicode="&#xd9;" d="M188.5 93q12.5 -48 52.5 -83t107.5 -54t167.5 -19q129 0 248 35.5t213 94t158.5 132t85.5 151.5l237 844q4 2 11.5 17.5t11.5 37.5q4 31 -7.5 59.5t-64.5 28.5q-39 0 -63.5 -12t-40 -32.5t-22.5 -48t-13 -56.5l-256 -846q-10 -37 -53 -77t-108 -72.5t-147.5 -53 t-175.5 -20.5q-31 0 -58.5 7t-48 20.5t-29.5 33t-5 43.5l2 8l283 1004q2 12 3 29.5t-5 34t-22.5 27.5t-47.5 11q-33 0 -54.5 -10t-34.5 -26.5t-21 -35.5l-17 -40l-278 -994q-4 -8 -5.5 -16t-3.5 -16q-12 -58 0.5 -106zM816 1788q1 -12 1 -27q6 -33 14.5 -56.5t22.5 -44 t34.5 -39.5l49.5 -44q35 -29 59.5 -52.5t34.5 -39.5q12 -23 24.5 -33t21.5 -15t14 -5h6q31 10 46 19t19 26q4 10 0 25l-10 38q-10 35 -28.5 76t-41 80t-48 72.5t-50.5 52.5q-61 45 -106 45q-47 0 -60 -56q-4 -10 -3 -22z" />
<glyph unicode="&#xda;" d="M188.5 93q12.5 -48 52.5 -83t107.5 -54t167.5 -19q129 0 248 35.5t213 94t158.5 132t85.5 151.5l237 844q4 2 11.5 17.5t11.5 37.5q4 31 -7.5 59.5t-64.5 28.5q-39 0 -63.5 -12t-40 -32.5t-22.5 -48t-13 -56.5l-256 -846q-10 -37 -53 -77t-108 -72.5t-147.5 -53 t-175.5 -20.5q-31 0 -58.5 7t-48 20.5t-29.5 33t-5 43.5l2 8l283 1004q2 12 3 29.5t-5 34t-22.5 27.5t-47.5 11q-33 0 -54.5 -10t-34.5 -26.5t-21 -35.5l-17 -40l-278 -994q-4 -8 -5.5 -16t-3.5 -16q-12 -58 0.5 -106zM956 1477q-4 -16 8.5 -25.5t41.5 -19.5h12q6 0 15 5 t22.5 15t36.5 33q16 16 50 39.5t81 52.5l66.5 44t49 39.5t39 44.5t35.5 56q12 27 19 49q12 55 -39 56q-43 0 -123 -45q-33 -18 -72 -52t-77 -73t-71.5 -80t-58.5 -76q-29 -38 -35 -63z" />
<glyph unicode="&#xdb;" d="M188.5 93q12.5 -48 52.5 -83t107.5 -54t167.5 -19q129 0 248 35.5t213 94t158.5 132t85.5 151.5l237 844q4 2 11.5 17.5t11.5 37.5q4 31 -7.5 59.5t-64.5 28.5q-39 0 -63.5 -12t-40 -32.5t-22.5 -48t-13 -56.5l-256 -846q-10 -37 -53 -77t-108 -72.5t-147.5 -53 t-175.5 -20.5q-31 0 -58.5 7t-48 20.5t-29.5 33t-5 43.5l2 8l283 1004q2 12 3 29.5t-5 34t-22.5 27.5t-47.5 11q-33 0 -54.5 -10t-34.5 -26.5t-21 -35.5l-17 -40l-278 -994q-4 -8 -5.5 -16t-3.5 -16q-12 -58 0.5 -106zM758 1497q-4 -14 8 -25.5t49 -21.5q4 -2 14 -2 q16 0 39 13.5t58 47.5l237 201l99 -194q12 -41 34.5 -54.5t38.5 -13.5q8 0 13 2q39 14 54 27.5t21 35.5v7q6 27 -8 55l-129 252q-4 29 -22.5 50t-46.5 21q-33 0 -47.5 -13t-28.5 -32l-312 -264l-39 -34q-17 -15 -28 -42z" />
<glyph unicode="&#xdc;" d="M188.5 93q12.5 -48 52.5 -83t107.5 -54t167.5 -19q129 0 248 35.5t213 94t158.5 132t85.5 151.5l237 844q4 2 11.5 17.5t11.5 37.5q4 31 -7.5 59.5t-64.5 28.5q-39 0 -63.5 -12t-40 -32.5t-22.5 -48t-13 -56.5l-256 -846q-10 -37 -53 -77t-108 -72.5t-147.5 -53 t-175.5 -20.5q-31 0 -58.5 7t-48 20.5t-29.5 33t-5 43.5l2 8l283 1004q2 12 3 29.5t-5 34t-22.5 27.5t-47.5 11q-33 0 -54.5 -10t-34.5 -26.5t-21 -35.5l-17 -40l-278 -994q-4 -8 -5.5 -16t-3.5 -16q-12 -58 0.5 -106zM741 1581q-10 -45 16.5 -89t78.5 -44q35 0 62.5 14.5 t49 36t35.5 46t21 46.5l4 13q2 6 4 14q2 18 3 37.5t-6.5 36t-23.5 27t-45 10.5q-35 0 -67.5 -13.5t-59.5 -34t-45 -46t-25 -48.5zM1130 1585q-8 -45 20 -87t75 -42q35 0 63.5 14.5t50 36t34.5 47t20 48.5q4 6 5 14t3 16q4 18 4 37q0 18 -7 33.5t-23.5 25t-45.5 9.5 q-35 0 -67.5 -13.5t-59 -34t-45 -46t-24.5 -48.5z" />
<glyph unicode="&#xdd;" d="M375 1251q-10 -47 31 -104l294 -508l-143 -508q-4 -12 -6 -24.5t-4 -22.5q-10 -47 -2 -79t47 -32h8q37 2 61.5 15.5t41 34t26.5 45t19 51.5l147 520l623 508q39 37 55 62.5t20 41.5q4 23 -10 36t-31 26q-20 10 -32 10q-35 0 -72 -27.5t-84 -52.5l-502 -414l-252 371 q-29 63 -53.5 105.5t-50.5 42.5h-6q-41 -8 -79 -32t-46 -65zM950 1464q-4 -16 8.5 -25t40.5 -20h13q6 0 15 5.5t22.5 15.5t35.5 33q16 16 50 39.5t82 52.5l66.5 44t49 39.5t39 44t35.5 56.5q12 27 18 49q8 55 -39 55q-45 0 -122 -45q-33 -18 -72 -52t-77 -72.5t-71.5 -79.5 t-58.5 -76q-33 -46 -35 -64z" />
<glyph unicode="&#xde;" horiz-adv-x="1073" d="M147 68q-6 -39 8.5 -66t63.5 -33h12q31 0 51.5 18.5t36 46t26.5 61.5t24 65l14 53q59 0 81.5 1t33.5 1q100 0 216.5 55.5t223 146.5t189.5 208.5t116 244.5q4 10 5 21.5t5 21.5q25 129 -23 202t-179 73q-98 0 -203 -22.5t-221 -88.5l28 88q6 23 16.5 47.5t14.5 47.5 q6 33 -4 55t-51 22q-45 0 -74 -9t-46 -27.5t-27.5 -47t-16.5 -65.5l-303 -1069l-8 -27zM449 428v4l36 139l80 281q16 18 56.5 42t95.5 44t121.5 33.5t134.5 13.5q49 0 68.5 -25.5t9.5 -72.5l-2 -17q-25 -90 -85.5 -177t-139.5 -155.5t-164 -111.5t-154 -43q-31 0 -47 9 t-10 36z" />
<glyph unicode="&#xdf;" horiz-adv-x="2015" d="M94 203q-8 -45 1 -90t40 -81t84 -58.5t133 -22.5q98 0 218 32.5t232.5 99.5t203 169t131.5 244v2q2 8 4 15t4 13q14 70 -6.5 114t-56 68.5t-77.5 33t-73 8.5q-94 0 -180 -21.5t-156 -44.5l-73 -21q-32 -9 -54 -10q-16 0 -28.5 9.5t-8.5 31.5v6q10 33 45 77t88 84 t124 67.5t153 27.5q35 0 51 -7t25 -13h2q23 -16 34 -31q16 -16 31.5 -24.5t58.5 -8.5q20 0 39 10.5t34.5 25t24.5 29.5t11 28v8q6 37 -12.5 67.5t-54 54t-87 37t-108.5 13.5q-102 0 -209 -39t-200 -103.5t-162.5 -150.5t-96.5 -178l-4 -25q-12 -59 0 -98t40 -60.5 t65.5 -29.5t76.5 -8q49 0 106 14l116 31l134 34.5t122 16.5q29 0 45 -11.5t10 -43.5q-4 -12 -6 -17q-25 -92 -89.5 -154.5t-141 -102.5t-150.5 -57.5t-115 -17.5q-72 0 -92.5 25t-26.5 47q-12 39 -25.5 70.5t-54.5 31.5q-59 0 -91.5 -29.5t-43.5 -70.5zM1069 205 q-8 -45 2 -90t41 -81t84 -58.5t133 -22.5q98 0 218 32.5t232.5 99.5t203 169t128.5 244v2q2 8 4.5 15l4.5 13q14 70 -6.5 114t-56.5 68.5t-78 33t-72 8.5q-94 0 -180.5 -21.5t-155.5 -44.5l-72 -21.5t-55 -9.5q-16 0 -28.5 9.5t-8.5 31.5l2 6q8 33 43 77t88 84t124 67.5 t153 27.5q35 0 51 -7t24 -13h2q23 -16 35 -31q16 -16 31.5 -24.5t58.5 -8.5q20 0 39 10.5t34 25t24.5 29.5t11.5 28l2 8q6 37 -12.5 67.5t-55.5 54t-88 37t-108 13.5q-102 0 -209 -39t-200 -103.5t-162.5 -150.5t-96.5 -178l-4 -25q-12 -59 1 -98t41 -60.5t64.5 -29.5 t75.5 -8q49 0 106 14l115 31l134.5 34.5t121.5 16.5q29 0 45.5 -11.5t10.5 -43.5q-4 -12 -6 -17q-25 -92 -89.5 -154.5t-141.5 -102.5t-150.5 -57.5t-114.5 -17.5q-72 0 -92.5 25t-26.5 47q-10 39 -24.5 71t-53.5 32q-59 0 -93 -30t-44 -71z" />
<glyph unicode="&#xe0;" horiz-adv-x="978" d="M10 59q-8 -35 7.5 -57t68.5 -27h6q39 0 76 43t78 107l170 248q98 8 154.5 12t91 6t55 3t45.5 1q4 -14 5 -24.5t5 -20.5q8 -29 12 -47l7.5 -33.5t5.5 -32t4 -38.5q4 -29 14 -67t21.5 -72.5t22.5 -59.5t20 -25h14q55 0 84 31t39 80q4 16 6 33.5t0 34.5q-8 59 -24 142 l-31 177v-2l-48 280q-24 142 -28 253v-3q6 57 -15.5 96.5t-62.5 39.5q-31 0 -65.5 -27t-73.5 -88v2l-611 -858l-28 -45q-19 -29 -25 -62zM549 565l168 248l9 -120q5 -67 13 -118zM655 1438q6 -33 13.5 -56.5t19.5 -42t29.5 -36t42.5 -37.5l46 -40q19 -17 28 -30 q20 -35 38.5 -43t24.5 -8h4q35 12 52.5 22.5t21.5 34.5q6 23 -6 62v-2q-8 29 -23.5 62.5t-34 65t-41 59.5t-43.5 44q-27 18 -50 29.5t-44 11.5q-59 0 -74 -66q-2 -12 -3 -19t-1 -11z" />
<glyph unicode="&#xe1;" horiz-adv-x="978" d="M10 59q-8 -35 7.5 -57t68.5 -27h6q39 0 76 43t78 107l170 248q98 8 154.5 12t91 6t55 3t45.5 1q4 -14 5 -24.5t5 -20.5q8 -29 12 -47l7.5 -33.5t5.5 -32t4 -38.5q4 -29 14 -67t21.5 -72.5t22.5 -59.5t20 -25h14q55 0 84 31t39 80q4 16 6 33.5t0 34.5q-8 59 -24 142 l-31 177v-2l-48 280q-24 142 -28 253v-3q6 57 -15.5 96.5t-62.5 39.5q-31 0 -65.5 -27t-73.5 -88v2l-611 -858l-28 -45q-19 -29 -25 -62zM549 565l168 248l9 -120q5 -67 13 -118zM674 1202q-4 -25 7 -35t40 -20l8 -2h6q14 0 29.5 7t52.5 44q10 12 36 29.5l62 40.5l55 37 q24 16 42 33.5t33.5 38t31.5 48.5q16 33 17 45q14 66 -45 66q-18 0 -48 -11.5t-63 -29.5q-29 -16 -61.5 -44t-63.5 -59.5t-59.5 -65.5t-46.5 -62q-16 -20 -22.5 -34t-10.5 -26z" />
<glyph unicode="&#xe2;" horiz-adv-x="978" d="M10 59q-8 -35 7.5 -57t68.5 -27h6q39 0 76 43t78 107l170 248q98 8 154.5 12t91 6t55 3t45.5 1q4 -14 5 -24.5t5 -20.5q8 -29 12 -47l7.5 -33.5t5.5 -32t4 -38.5q4 -29 14 -67t21.5 -72.5t22.5 -59.5t20 -25h14q55 0 84 31t39 80q4 16 6 33.5t0 34.5q-8 59 -24 142 l-31 177v-2l-48 280q-24 142 -28 253v-3q6 57 -15.5 96.5t-62.5 39.5q-31 0 -65.5 -27t-73.5 -88v2l-611 -858l-28 -45q-19 -29 -25 -62zM516 1219q-10 -37 55 -60q4 0 9.5 -1t9.5 -1q18 0 38.5 12.5t55.5 47.5l168 139l70 -135q10 -39 33.5 -51.5t39.5 -12.5q4 0 7.5 1 t5.5 1q41 16 56 29.5t26 40.5v8q4 12 1 26l-8 29l-104 201q-8 27 -25.5 47.5t-46.5 20.5q-35 0 -50 -13.5t-28 -31.5l-247 -209l-11 -9q-16 -14 -29.5 -27.5t-23.5 -35.5zM549 565l168 248l9 -120q5 -67 13 -118z" />
<glyph unicode="&#xe3;" horiz-adv-x="978" d="M10 59q-8 -35 7.5 -57t68.5 -27h6q39 0 76 43t78 107l170 248q98 8 154.5 12t91 6t55 3t45.5 1q4 -14 5 -24.5t5 -20.5q8 -29 12 -47l7.5 -33.5t5.5 -32t4 -38.5q4 -29 14 -67t21.5 -72.5t22.5 -59.5t20 -25h14q55 0 84 31t39 80q4 16 6 33.5t0 34.5q-8 59 -24 142 l-31 177v-2l-48 280q-24 142 -28 253v-3q6 57 -15.5 96.5t-62.5 39.5q-31 0 -65.5 -27t-73.5 -88v2l-611 -858l-28 -45q-19 -29 -25 -62zM549 565l168 248l9 -120q5 -67 13 -118zM575 1239q-6 -25 10.5 -44t51.5 -19q20 0 38.5 13t39.5 32l26 22q12 10 21 10l4 -6 q4 -6 10 -14v2q12 -23 35 -45.5t76 -22.5q80 0 134 36t85 140v5q4 23 -15.5 40t-48.5 17q-45 0 -73 -45q2 4 -3 -7.5t-10 -19.5q-4 -10 -11 -22.5t-17 -12.5q-12 0 -19.5 10.5t-13.5 22.5q-12 23 -28.5 44.5t-57.5 21.5q-29 0 -65.5 -13.5t-71.5 -35t-62.5 -48t-34.5 -55.5 v-6z" />
<glyph unicode="&#xe4;" horiz-adv-x="978" d="M10 59q-8 -35 7.5 -57t68.5 -27h6q39 0 76 43t78 107l170 248q98 8 154.5 12t91 6t55 3t45.5 1q4 -14 5 -24.5t5 -20.5q8 -29 12 -47l7.5 -33.5t5.5 -32t4 -38.5q4 -29 14 -67t21.5 -72.5t22.5 -59.5t20 -25h14q55 0 84 31t39 80q4 16 6 33.5t0 34.5q-8 59 -24 142 l-31 177v-2l-48 280q-24 142 -28 253v-3q6 57 -15.5 96.5t-62.5 39.5q-31 0 -65.5 -27t-73.5 -88v2l-611 -858l-28 -45q-19 -29 -25 -62zM549 565l168 248l9 -120q5 -67 13 -118zM559 1284q-10 -43 16.5 -84t75.5 -41q33 0 59.5 13.5t46 33t33 43t19.5 43.5v2q0 4 2 11l4 12 q8 37 -4 71.5t-70 34.5q-33 0 -63.5 -12t-54 -31.5t-40 -43t-22.5 -44.5zM870 1288q-8 -43 20 -83t73 -40q33 0 59.5 13.5t47 33t32.5 43t18 45.5l2 3q0 4 2 9t4 11q2 18 2 37q0 18 -8 33.5t-24.5 26t-44.5 10.5q-31 0 -61.5 -12.5t-55.5 -33t-42 -44t-22 -44.5z" />
<glyph unicode="&#xe5;" horiz-adv-x="978" d="M10 59q-8 -35 7.5 -57t68.5 -27h6q39 0 76 43t78 107l170 248q98 8 154.5 12t91 6t55 3t45.5 1q4 -14 5 -24.5t5 -20.5q8 -29 12 -47l7.5 -33.5t5.5 -32t4 -38.5q4 -29 14 -67t21.5 -72.5t22.5 -59.5t20 -25h14q55 0 84 31t39 80q4 16 6 33.5t0 34.5q-8 59 -24 142 l-31 177v-2l-48 280q-24 142 -28 253v-3q6 57 -15.5 96.5t-62.5 39.5q-31 0 -65.5 -27t-73.5 -88v2l-611 -858l-28 -45q-19 -29 -25 -62zM549 565l168 248l9 -120q5 -67 13 -118zM684 1280q-10 -55 11.5 -98t99.5 -43q45 0 91 18.5t86 49t68.5 71.5t40.5 88v2q0 4 2 10t4 11 q10 57 -14 100t-92 43q-57 0 -107.5 -23.5t-88 -59.5t-63.5 -80t-36 -83zM848 1286q0 8 2 17q6 27 30.5 54t61.5 27q14 0 10 -18l-2 -8q-10 -31 -37.5 -54.5t-56.5 -23.5q-8 0 -8 6z" />
<glyph unicode="&#xe6;" horiz-adv-x="1609" d="M-35 -16q-4 -23 8.5 -37.5t49.5 -18.5h8q35 0 82 36t108 89l23 19l346 295l37 1q37 1 91 2t111.5 3t98.5 4l-51 -187q-4 -10 -5.5 -18t-5.5 -18q-16 -41 -22 -78q-10 -49 7 -78t89 -29q6 0 12 1t15 1l524 39q86 2 115.5 31t35.5 61l3 13q10 47 -14.5 65.5t-82.5 18.5h-24 l-461 -39l80 289l358 38q10 2 20.5 3.5t20.5 1.5q41 0 78 17t53 77l2 12q4 29 -14.5 54.5t-87.5 25.5h-21q-10 0 -22 -2l-334 -41l28 98q11 41 20 68l16 43l10 26l389 27q8 0 16 1t19 1q37 0 63.5 2t46 11.5t32.5 27.5t24 53l2 13q10 51 -21 66t-80 15q-12 0 -25.5 -1 t-25.5 -1q-8 0 -15 -1t-14 -1q-147 -10 -230 -14t-130 -4h-111q-35 0 -74.5 -15.5t-58.5 -33.5l-995 -891l-7 -7q-3 -3 -9 -7l-29 -28q-16 -15 -30.5 -31.5t-27 -35t-14.5 -32.5zM764 524l264 258l-16 -88q-6 -31 -14.5 -64.5t-22.5 -70.5z" />
<glyph unicode="&#xe7;" horiz-adv-x="940" d="M143 371q-29 -150 12.5 -260.5t151.5 -145.5l-28 -84q-14 -25 -18.5 -34t-8.5 -33q-6 -31 1 -57.5t46 -32.5q4 0 7 -1.5t7 -1.5q41 0 83 44.5t65 105.5v-2l27 61l14 31q66 14 130 43t122.5 65.5t106.5 80t81 83.5v-2q29 37 35 60q6 35 -15.5 51t-56.5 16t-79 -19.5 t-83 -62.5q-16 -23 -48.5 -47t-70.5 -44.5t-79 -35t-74 -14.5q-49 0 -77.5 19.5t-42 53.5t-14.5 79t9 94q4 12 6 24.5t6 24.5q27 98 77 192.5t114.5 170t139.5 122t151 46.5q47 0 70.5 -6.5t33.5 -18.5l26 -31l21 -26q31 -37 45 -37q49 0 88 34.5t50 77.5q6 49 -25 86 q-53 61 -123 84t-154 23q-111 0 -221 -60.5t-207.5 -160t-172 -227.5t-113.5 -265q-4 -16 -7.5 -31.5t-7.5 -31.5z" />
<glyph unicode="&#xe8;" horiz-adv-x="870" d="M109 84q-10 -49 7 -78t89 -29q6 0 12 1.5t14 1.5l525 38q86 2 114.5 31t34.5 62l4 12q8 47 -15.5 65.5t-80.5 18.5h-25l-460 -39l78 289l360 39q10 2 19.5 3t19.5 1q41 0 78 17.5t53 76.5l4 12q4 29 -14.5 54.5t-87.5 25.5h-21q-10 0 -22 -2l-334 -41l65 236l398 26 q8 0 16 1t18 1q37 0 63 2t45 11.5t33.5 28t24.5 52.5l2 13q10 51 -20.5 66.5t-79.5 15.5q-12 0 -25.5 -1t-25.5 -1q-8 0 -15.5 -1t-13.5 -1q-147 -10 -230 -14.5t-130 -4.5h-111q-63 0 -99 -40t-42 -77q-2 -4 -1 -7t1 -5l-9 -34l-12 -42l-40 -163l-58 -228l-74 -278 q-4 -10 -6 -18.5t-6 -18.5q-6 -20 -11 -41zM616 1438q6 -33 13.5 -56.5t20 -42t29.5 -36t42 -37.5q29 -23 47 -41.5t27 -30.5v2q20 -35 38.5 -43t24.5 -8h4q35 12 52.5 22.5t21.5 34.5q6 23 -6 62q-10 27 -24.5 60.5t-34 65t-41 59.5t-42.5 44q-27 18 -50 29.5t-44 11.5 q-59 0 -73 -66q-2 -12 -3.5 -19t-1.5 -11z" />
<glyph unicode="&#xe9;" horiz-adv-x="870" d="M109 84q-10 -49 7 -78t89 -29q6 0 12 1.5t14 1.5l525 38q86 2 114.5 31t34.5 62l4 12q8 47 -15.5 65.5t-80.5 18.5h-25l-460 -39l78 289l360 39q10 2 19.5 3t19.5 1q41 0 78 17.5t53 76.5l4 12q4 29 -14.5 54.5t-87.5 25.5h-21q-10 0 -22 -2l-334 -41l65 236l398 26 q8 0 16 1t18 1q37 0 63 2t45 11.5t33.5 28t24.5 52.5l2 13q10 51 -20.5 66.5t-79.5 15.5q-12 0 -25.5 -1t-25.5 -1q-8 0 -15.5 -1t-13.5 -1q-147 -10 -230 -14.5t-130 -4.5h-111q-63 0 -99 -40t-42 -77q-2 -4 -1 -7t1 -5l-9 -34l-12 -42l-40 -163l-58 -228l-74 -278 q-4 -10 -6 -18.5t-6 -18.5q-6 -20 -11 -41zM659 1202q-4 -25 7.5 -35t40.5 -20l8 -2h6q14 0 29.5 7t52.5 44q10 12 35.5 29.5t62.5 40.5q33 20 56.5 37.5t42 36t35 42t34.5 56.5q6 8 8 30q8 35 -5 50.5t-40 15.5q-18 0 -47 -11.5t-61 -29.5q-29 -16 -62 -44t-64.5 -59.5 t-59.5 -65.5l-48 -60q-16 -20 -21 -35z" />
<glyph unicode="&#xea;" horiz-adv-x="870" d="M109 84q-10 -49 7 -78t89 -29q6 0 12 1.5t14 1.5l525 38q86 2 114.5 31t34.5 62l4 12q8 47 -15.5 65.5t-80.5 18.5h-25l-460 -39l78 289l360 39q10 2 19.5 3t19.5 1q41 0 78 17.5t53 76.5l4 12q4 29 -14.5 54.5t-87.5 25.5h-21q-10 0 -22 -2l-334 -41l65 236l398 26 q8 0 16 1t18 1q37 0 63 2t45 11.5t33.5 28t24.5 52.5l2 13q10 51 -20.5 66.5t-79.5 15.5q-12 0 -25.5 -1t-25.5 -1q-8 0 -15.5 -1t-13.5 -1q-147 -10 -230 -14.5t-130 -4.5h-111q-63 0 -99 -40t-42 -77q-2 -4 -1 -7t1 -5l-9 -34l-12 -42l-40 -163l-58 -228l-74 -278 q-4 -10 -6 -18.5t-6 -18.5q-6 -20 -11 -41zM512 1219q-10 -37 55 -60q4 0 9.5 -1t9.5 -1q18 0 38.5 12.5t55.5 47.5l-2 -3l168 142l69 -135l-2 2q12 -39 37 -52.5t41 -13.5q4 0 7 1t6 1q41 16 57 29.5t22 42.5v6q8 27 -8 53l-100 203q-8 27 -25.5 47.5t-46.5 20.5 q-35 0 -50 -13.5t-32 -34.5l-243 -206l-9 -7q-23 -16 -35 -29.5t-20 -35.5z" />
<glyph unicode="&#xeb;" horiz-adv-x="870" d="M109 84q-10 -49 7 -78t89 -29q6 0 12 1.5t14 1.5l525 38q86 2 114.5 31t34.5 62l4 12q8 47 -15.5 65.5t-80.5 18.5h-25l-460 -39l78 289l360 39q10 2 19.5 3t19.5 1q41 0 78 17.5t53 76.5l4 12q4 29 -14.5 54.5t-87.5 25.5h-21q-10 0 -22 -2l-334 -41l65 236l398 26 q8 0 16 1t18 1q37 0 63 2t45 11.5t33.5 28t24.5 52.5l2 13q10 51 -20.5 66.5t-79.5 15.5q-12 0 -25.5 -1t-25.5 -1q-8 0 -15.5 -1t-13.5 -1q-147 -10 -230 -14.5t-130 -4.5h-111q-63 0 -99 -40t-42 -77q-2 -4 -1 -7t1 -5l-9 -34l-12 -42l-40 -163l-58 -228l-74 -278 q-4 -10 -6 -18.5t-6 -18.5q-6 -20 -11 -41zM555 1286q-10 -45 16.5 -86t75.5 -41q33 0 59.5 13.5t46 33t34 43t20.5 43.5l4 21q2 18 3 38.5t-5 36t-22.5 25.5t-47.5 10q-33 0 -63.5 -12t-55 -31.5t-41 -43t-22.5 -44.5zM866 1290q-8 -43 18.5 -84t76.5 -41q33 0 59.5 13.5 t45.5 33t31.5 43t18.5 45.5l2 3q0 4 2 10l4 12q2 18 2 37q0 18 -7 33.5t-23.5 25t-44.5 9.5q-33 0 -63 -12.5t-54.5 -32t-42 -43t-23.5 -44.5z" />
<glyph unicode="&#xec;" horiz-adv-x="364" d="M102 76q-8 -39 6.5 -66.5t65.5 -34.5h19q51 0 70.5 31t37.5 82l-2 -2q4 4 5 10t3 10l2 5l238 839q2 4 3 10.5t3 10.5q4 14 9 29.5t9 29.5q6 35 -4 57.5t-55 22.5q-43 0 -69.5 -8t-44 -25.5t-27 -43t-15.5 -60.5l-241 -856v2q-7 -18 -13 -43zM373 1438q6 -33 14 -56.5 t20.5 -42t29 -36t38.5 -37.5q29 -23 47.5 -40.5t26.5 -29.5q20 -35 39.5 -43t25.5 -8h4q35 12 52.5 22.5t21.5 34.5q6 23 -6 62q-10 27 -24.5 60.5t-33 65t-41 59.5t-44.5 44q-27 18 -50.5 29.5t-41.5 11.5q-27 0 -46.5 -15.5t-27.5 -50.5q-2 -12 -3 -19t-1 -11z" />
<glyph unicode="&#xed;" horiz-adv-x="364" d="M102 76q-8 -39 6.5 -66.5t65.5 -34.5h19q51 0 70.5 31t37.5 82l-2 -2q4 4 5 10t3 10l2 5l238 839q2 4 3 10.5t3 10.5q4 14 9 29.5t9 29.5q6 35 -4 57.5t-55 22.5q-43 0 -69.5 -8t-44 -25.5t-27 -44t-15.5 -61.5v2l-241 -856v2q-7 -18 -13 -43zM352 1202q-4 -23 8.5 -34 t40.5 -21l7 -2h6q14 0 29.5 7t52.5 44q10 12 35.5 29.5t62.5 40.5q33 20 57.5 37.5t43 36t34.5 42t35 56.5q6 8 8 30q14 66 -45 66q-23 0 -51.5 -11.5t-61.5 -29.5q-27 -16 -58.5 -44t-63 -59.5t-59 -65.5l-48.5 -62q-16 -20 -22.5 -34t-10.5 -26z" />
<glyph unicode="&#xee;" horiz-adv-x="364" d="M102 76q-8 -39 6.5 -66.5t65.5 -34.5h19q51 0 70.5 31t37.5 82l-2 -2q4 4 5 10t3 10l2 5l238 839q2 4 3 10.5t3 10.5q4 14 9 29.5t9 29.5q6 35 -4 57.5t-55 22.5q-43 0 -69.5 -8t-44 -25.5t-27 -43t-15.5 -60.5l-241 -856v2q-7 -18 -13 -43zM233 1219q-10 -37 56 -60 q4 0 9 -1t9 -1q18 0 39 12.5t55 47.5l166 139l70 -135l-2 2q12 -39 36.5 -52.5t41.5 -13.5q4 0 7 1t5 1q41 16 57.5 29.5t22.5 42.5v6q8 27 -8 53l-101 203q-8 27 -25.5 47.5t-45.5 20.5q-35 0 -50.5 -13.5t-31.5 -34.5l-244 -206l-8 -7q-23 -16 -35 -29.5t-20 -35.5z" />
<glyph unicode="&#xef;" horiz-adv-x="364" d="M102 76q-8 -39 6.5 -66.5t65.5 -34.5h19q51 0 70.5 31t37.5 82l-2 -2q4 4 5 10t3 10l2 5l238 839q2 4 3 10.5t3 10.5q4 14 9 29.5t9 29.5q6 35 -4 57.5t-55 22.5q-43 0 -69.5 -8t-44 -25.5t-27 -44t-15.5 -61.5v2l-241 -856v2q-7 -18 -13 -43zM258 1278q-8 -45 17.5 -86 t74.5 -41q33 0 59.5 13.5t47 33t34 43t19.5 43.5l4 21q4 18 5 38.5t-6 36t-23.5 25.5t-47.5 10q-33 0 -63.5 -12t-55 -31.5t-41 -43t-22.5 -44.5zM571 1282q-10 -43 16.5 -84t76.5 -41q33 0 59.5 13.5t45.5 33t32.5 43t19.5 45.5v2q0 4 2 11l4 12q8 37 -4 70.5t-69 33.5 q-33 0 -62.5 -12t-54.5 -31.5t-42 -43t-24 -44.5v-8z" />
<glyph unicode="&#xf0;" horiz-adv-x="993" d="M78 575q-8 -37 11.5 -67.5t72.5 -30.5h57l-78 -278q-2 -10 -5 -19.5t-5 -19.5l-8 -33l-8 -33q-10 -51 0 -85t63 -34q45 0 125 17.5t176 54.5t200.5 96.5t199 143.5t170 193.5t114.5 248.5q4 10 6 20.5t5 22.5q14 72 4.5 139.5t-45 118.5t-99 82t-155.5 31 q-117 0 -195 -20.5t-149 -43.5l-29 -8q-14 -4 -31 -8q-59 -18 -92 -60t-43 -90q-2 -10 -3 -17t-1 -13l-62 -211h-32q-23 0 -33 -2q-4 0 -7 -1t-7 -1q-53 0 -82 -29t-35 -64zM334 190l80 289h118q47 0 80 30t39 64q8 35 -14.5 66t-87.5 31h-80l59 215q53 29 129 51t156 22 q51 0 85 -17t51.5 -46t20.5 -65.5t-3 -75.5l-4 -21q-37 -123 -111 -217t-163 -159.5t-184 -107t-171 -59.5z" />
<glyph unicode="&#xf1;" horiz-adv-x="1069" d="M98 70q-20 -96 78 -97h12q47 4 77 35t36 70q2 10 2 26l166 594q10 -16 17.5 -31.5t17.5 -31.5l66 -131q32 -66 53 -121q12 -31 32 -77l44 -96l47 -96l40 -77l5 -8q6 -16 22 -32.5t80 -16.5q25 0 43 12t31.5 29.5t23.5 38t17 36.5v2l249 895l11 41q10 53 -5.5 73.5 t-72.5 20.5q-31 0 -51.5 -10t-33.5 -26.5t-20.5 -36t-13.5 -37.5q-4 -8 -4 -10l-184 -662q-4 8 -4 10q-10 16 -19.5 33t-13.5 29q-25 43 -43 79l-34 67l-30 65l-30 69h2q-16 41 -37 86l-47 103h2q-4 10 -7.5 15t-7.5 9q-4 6 -9 22.5t-17 70.5l-13.5 32.5t-19.5 34.5 t-28.5 27.5t-39.5 11.5q-25 0 -43 -5t-33.5 -19.5t-28.5 -41t-28 -69.5l-245 -864q-4 -10 -7 -21zM586 1235q-4 -27 12 -46.5t51 -19.5q20 0 38 13.5t38 31.5l26 23q11 10 21 10t16 -20q16 -23 38 -44.5t71 -21.5q80 0 135 36t84 140v4q4 23 -13.5 40.5t-45.5 17.5 q-20 0 -41 -10.5t-37 -34.5q4 4 -2 -7.5l-10 -19.5q-4 -10 -10.5 -22.5t-16.5 -12.5t-18.5 10.5t-12.5 22.5q-10 23 -27.5 43.5t-62.5 20.5q-29 0 -65.5 -13.5t-70.5 -34t-60.5 -47t-34.5 -53.5zM907 301h2q2 -4 3 -7l1 -3l-2 3q-2 3 -4 7z" />
<glyph unicode="&#xf2;" horiz-adv-x="1044" d="M143 375q-41 -201 34 -313.5t249 -112.5q115 0 232.5 52t221 141t182.5 210t118 256q4 23 10 45.5t10 44.5q16 82 15 159t-25.5 138.5t-76.5 100.5t-140 49q35 12 52 22.5t22 34.5q4 12 0.5 25.5t-9.5 34.5q-8 29 -23.5 62.5t-33.5 65t-39.5 59.5t-44.5 44 q-27 18 -51.5 29.5t-42.5 11.5q-59 0 -74 -66q-2 -10 -3 -22t1 -23q4 -29 12.5 -49t20.5 -36.5t28.5 -34t40.5 -37.5q29 -23 47.5 -40.5t26.5 -29.5q12 -25 26.5 -36t24.5 -15q-10 2 -28 2q-86 0 -170 -34t-164 -90t-150.5 -128t-127 -149.5t-96.5 -153.5t-56 -139 q-13 -39 -19 -78zM340 385q2 27 16 64q20 70 73.5 158.5t126.5 167.5t157 133.5t164 54.5q53 0 83.5 -22.5t44 -60.5t13.5 -87t-10 -101q-4 -20 -9.5 -39.5l-11.5 -40.5q-27 -96 -81 -182t-122.5 -151.5t-148.5 -104.5t-160 -39q-94 0 -126 67.5t-9 182.5z" />
<glyph unicode="&#xf3;" horiz-adv-x="1044" d="M143 375q-41 -201 34 -313.5t249 -112.5q115 0 232.5 52t221 141t182.5 210t118 256q4 23 10 45.5t10 44.5q18 88 16 169t-30.5 143.5t-92 99.5t-167.5 37q-86 0 -170 -34t-164 -90t-150.5 -128t-127 -149.5t-96.5 -153.5t-56 -139q-13 -39 -19 -78zM340 385q2 27 16 64 q20 70 73.5 158.5t126.5 167.5t157 133.5t164 54.5q53 0 83.5 -22.5t44 -60.5t13.5 -87t-10 -101q-4 -20 -9.5 -39.5l-11.5 -40.5q-27 -96 -81 -182t-122.5 -151.5t-148.5 -104.5t-160 -39q-94 0 -126 67.5t-9 182.5zM811 1202q-4 -25 7 -35t40 -20l8 -2h6q14 0 28.5 7 t51.5 44q10 12 37 30l62 40q33 20 57.5 37.5t42.5 36t34.5 42t35.5 56.5q6 8 8 30q14 66 -45 66q-23 0 -51.5 -11.5t-61.5 -29.5q-27 -16 -58.5 -44t-63 -59.5t-59.5 -65.5t-48 -62v2q-16 -20 -22 -35z" />
<glyph unicode="&#xf4;" horiz-adv-x="1044" d="M143 375q-41 -201 34 -313.5t249 -112.5q115 0 232.5 52t221 141t182.5 210t118 256q4 23 10 45.5t10 44.5q18 88 16 169t-30.5 143.5t-92 99.5t-167.5 37q-86 0 -170 -34t-164 -90t-150.5 -128t-127 -149.5t-96.5 -153.5t-56 -139q-13 -39 -19 -78zM340 385q2 27 16 64 q20 70 73.5 158.5t126.5 167.5t157 133.5t164 54.5q53 0 83.5 -22.5t44 -60.5t13.5 -87t-10 -101q-4 -20 -9.5 -39.5l-11.5 -40.5q-27 -96 -81 -182t-122.5 -151.5t-148.5 -104.5t-160 -39q-94 0 -126 67.5t-9 182.5zM639 1219q-10 -37 55 -60q4 0 9.5 -1t9.5 -1 q18 0 38.5 12.5t55.5 47.5l168 139l69 -135q10 -39 34 -51.5t40 -12.5q4 0 7 1t5 1q41 16 56.5 29.5t25.5 40.5v8q4 12 1 26l-7 29l-104 201q-8 27 -25.5 47.5t-46.5 20.5q-35 0 -50 -13.5t-28 -31.5l-247 -209l-11 -9q-16 -14 -29.5 -27.5t-23.5 -35.5z" />
<glyph unicode="&#xf5;" horiz-adv-x="1044" d="M143 375q-41 -201 34 -313.5t249 -112.5q115 0 232.5 52t221 141t182.5 210t118 256q4 23 10 45.5t10 44.5q18 88 16 169t-30.5 143.5t-92 99.5t-167.5 37q-86 0 -170 -34t-164 -90t-150.5 -128t-127 -149.5t-96.5 -153.5t-56 -139q-13 -39 -19 -78zM340 385q2 27 16 64 q20 70 73.5 158.5t126.5 167.5t157 133.5t164 54.5q53 0 83.5 -22.5t44 -60.5t13.5 -87t-10 -101q-4 -20 -9.5 -39.5l-11.5 -40.5q-27 -96 -81 -182t-122.5 -151.5t-148.5 -104.5t-160 -39q-94 0 -126 67.5t-9 182.5zM676 1241q-4 -25 12.5 -45t50.5 -20q20 0 38 13t38 32 q12 12 24.5 22t22.5 10q6 0 17 -20q14 -23 36.5 -44.5t71.5 -21.5q82 0 135.5 36t83.5 140v5q4 23 -14 40t-47 17q-20 0 -40 -10.5t-36 -34.5q2 4 -3 -7.5t-9 -19.5q-4 -10 -11.5 -22.5t-17.5 -12.5t-17 9.5t-14 21.5q-12 23 -29.5 45.5t-58.5 22.5q-29 0 -65.5 -13.5 t-71.5 -34t-61.5 -48t-34.5 -54.5v-6z" />
<glyph unicode="&#xf6;" horiz-adv-x="1044" d="M143 375q-41 -201 34 -313.5t249 -112.5q115 0 232.5 52t221 141t182.5 210t118 256q4 23 10 45.5t10 44.5q18 88 16 169t-30.5 143.5t-92 99.5t-167.5 37q-86 0 -170 -34t-164 -90t-150.5 -128t-127 -149.5t-96.5 -153.5t-56 -139q-13 -39 -19 -78zM340 385q2 27 16 64 q20 70 73.5 158.5t126.5 167.5t157 133.5t164 54.5q53 0 83.5 -22.5t44 -60.5t13.5 -87t-10 -101q-4 -20 -9.5 -39.5l-11.5 -40.5q-27 -96 -81 -182t-122.5 -151.5t-148.5 -104.5t-160 -39q-94 0 -126 67.5t-9 182.5zM629 1286q-10 -45 16.5 -86t75.5 -41q33 0 59.5 13.5 t46 33t33.5 43t21 43.5l4 21q2 18 3 38.5t-5 36t-22.5 25.5t-47.5 10q-33 0 -63.5 -12t-55 -31.5t-41 -43t-22.5 -44.5zM940 1290q-8 -43 18.5 -84t75.5 -41q33 0 59.5 13.5t46 33t32 43t18.5 45.5l2 3q0 4 2 10l4 12q2 18 2 37q0 18 -7 33.5t-23.5 25t-45.5 9.5 q-33 0 -62.5 -12.5t-54 -32t-42 -43t-23.5 -44.5z" />
<glyph unicode="&#xf7;" horiz-adv-x="790" d="M166 449q-8 -37 12.5 -68t73.5 -31q12 0 30.5 -4t39.5 -4q10 0 21 2t19 8l277 2l141 2q47 0 79 29t40 64q6 35 -18.5 65.5t-92.5 30.5q-16 0 -34.5 2t-36.5 2q-25 0 -43 -6h-283q-4 2 -24 2t-47 -3t-37 -3q-51 0 -81 -27.5t-36 -62.5zM254 88q-4 -27 2 -53.5t20.5 -48 t37 -35.5t51.5 -14q41 0 73.5 16t57 41.5t40 55.5t23.5 54q4 12 8 33t4 43q0 23 -8 41.5t-26.5 29.5t-51.5 11q-41 0 -78.5 -15.5t-68.5 -40t-52.5 -53t-29.5 -55.5zM481 745.5q6 -26.5 20.5 -48t37 -36t51.5 -14.5q41 0 73.5 16.5t57 42t41 55.5t22.5 54q4 12 8.5 32.5 t4.5 43.5t-8.5 41t-27 29.5t-50.5 11.5q-41 0 -79 -15.5t-69 -40t-51 -53t-29 -55.5l-2 -10q-6 -27 0 -53.5z" />
<glyph unicode="&#xf8;" horiz-adv-x="1044" d="M141 373q-27 -135 1 -230.5t102 -142.5q-35 -61 -41 -96q-8 -39 10 -56.5t70 -17.5q23 0 42 11.5t36.5 27.5t31 36.5l25.5 37.5q0 4 2 6h6q115 0 232.5 52t221 141t182.5 210t118 256q4 23 10 44.5t10 43.5q23 117 10.5 221.5t-82.5 163.5v4h2q14 23 29 52.5t19 56.5 q6 33 -5.5 54.5t-52.5 21.5q-72 0 -103.5 -30t-47.5 -56l2 2q-4 -2 -8.5 -11.5t-12.5 -23.5q-2 -2 -2 -4l-2 -2h-4q-4 0 -8 1t-8 1q-86 0 -170 -34t-164 -90t-150.5 -128t-127 -149.5t-96.5 -153.5t-56 -139q-6 -20 -11.5 -41t-9.5 -39zM338 381q6 31 18 68q18 63 66.5 146 t114 157.5t142.5 132t152 71.5l-78 -131l-86 -142l-89 -145l-86 -143l-71 -113l-63 -102q-45 64 -20 201zM543 139q8 10 14 21.5t14 23.5l106 161l115 178l114 180l104 167q10 -39 9 -85t-11 -95q-4 -20 -10 -39l-11 -39q-25 -86 -71 -165.5t-105 -142t-127.5 -107 t-140.5 -58.5z" />
<glyph unicode="&#xf9;" horiz-adv-x="1001" d="M133 180q-20 -100 44.5 -165.5t234.5 -65.5q106 0 205.5 30.5t178 80t133 111.5t70.5 128l191 674q4 8 9 20.5t9 26.5q6 33 -6 61.5t-67 28.5q-37 0 -61.5 -11.5t-39 -30.5t-21.5 -45l-14 -52v2l-204 -676q-8 -29 -40 -57.5t-80 -51t-110.5 -38t-132.5 -15.5 q-43 0 -72.5 16.5t-23.5 47.5v4l227 803q2 12 3 30.5t-5 34.5t-23.5 27.5t-48.5 11.5t-51 -8t-32.5 -22.5t-20.5 -31.5l-16 -36q0 -2 -2 -5t-2 -6l-224 -794q-2 -6 -4 -13.5t-4 -13.5zM635 1438q6 -33 14 -56.5t20.5 -42t29 -36t38.5 -37.5q29 -23 47.5 -40.5t26.5 -29.5 q20 -35 39.5 -43t26.5 -8h4q35 12 52 22.5t21 34.5q6 23 -6 62q-10 27 -24.5 60.5t-33 65t-41 59.5t-44.5 44q-27 18 -50.5 29.5t-41.5 11.5q-27 0 -46.5 -15.5t-27.5 -50.5q-2 -12 -3 -19t-1 -11z" />
<glyph unicode="&#xfa;" horiz-adv-x="1001" d="M133 180q-20 -100 44.5 -165.5t234.5 -65.5q106 0 205.5 30.5t178 80t133 111.5t70.5 128l191 674q4 8 9 20.5t9 26.5q6 33 -6 61.5t-67 28.5q-37 0 -61.5 -11.5t-39 -30.5t-21.5 -45l-14 -52v2l-204 -676q-8 -29 -40 -57.5t-80 -51t-110.5 -38t-132.5 -15.5 q-43 0 -72.5 16.5t-23.5 47.5v4l227 803q2 12 3 30.5t-5 34.5t-23.5 27.5t-48.5 11.5t-51 -8t-32.5 -22.5t-20.5 -31.5l-16 -36q0 -2 -2 -5t-2 -6l-224 -794q-2 -6 -4 -13.5t-4 -13.5zM750 1202q-4 -25 7 -35t40 -20l8 -2h6q14 0 29.5 7t52.5 44q10 12 35.5 29.5t62.5 40.5 q33 20 56.5 37.5t42 36t35 42t34.5 56.5q6 8 8 30q8 35 -5 50.5t-40 15.5q-18 0 -46.5 -11.5t-61.5 -29.5q-29 -16 -61.5 -44t-64.5 -59.5t-60 -65.5l-48 -60q-16 -20 -21 -35z" />
<glyph unicode="&#xfb;" horiz-adv-x="1001" d="M133 180q-20 -100 44.5 -165.5t234.5 -65.5q106 0 205.5 30.5t178 80t133 111.5t70.5 128l191 674q4 8 9 20.5t9 26.5q6 33 -6 61.5t-67 28.5q-37 0 -61.5 -11.5t-39 -30.5t-21.5 -44l-14 -51l-204 -676q-8 -29 -40 -57.5t-80 -51t-110.5 -38t-132.5 -15.5 q-43 0 -72.5 16.5t-23.5 47.5v4l227 803q2 12 3 30.5t-5 34.5t-23.5 27.5t-48.5 11.5t-51 -8t-32.5 -22.5t-20.5 -31.5l-16 -36q0 -2 -2 -5t-2 -6l-224 -794q-2 -6 -4 -13.5t-4 -13.5zM590 1219q-10 -37 55 -60q4 0 9 -1t10 -1q18 0 38.5 12.5t55.5 47.5l168 139l69 -135 q10 -39 34 -51.5t40 -12.5q4 0 7 1t5 1q41 16 56.5 29.5t25.5 40.5v8q4 12 1 26l-7 29l-104 201q-8 27 -25.5 47.5t-46.5 20.5q-35 0 -50.5 -13.5t-27.5 -31.5l-248 -209l-10 -9q-16 -14 -29.5 -27.5t-23.5 -35.5z" />
<glyph unicode="&#xfc;" horiz-adv-x="1001" d="M133 180q-20 -100 44.5 -165.5t234.5 -65.5q106 0 205.5 30.5t178 80t133 111.5t70.5 128l191 674q4 8 9 20.5t9 26.5q6 33 -6 61.5t-67 28.5q-37 0 -61.5 -11.5t-39 -30.5t-21.5 -44l-14 -51l-204 -676q-8 -29 -40 -57.5t-80 -51t-110.5 -38t-132.5 -15.5 q-43 0 -72.5 16.5t-23.5 47.5v4l227 803q2 12 3 30.5t-5 34.5t-23.5 27.5t-48.5 11.5t-51 -8t-32.5 -22.5t-20.5 -31.5l-16 -36q0 -2 -2 -5t-2 -6l-224 -794q-2 -6 -4 -13.5t-4 -13.5zM578 1284q-10 -43 16.5 -84t75.5 -41q33 0 59.5 13.5t46 33t32.5 43t19 43.5v2q0 4 2 11 l5 12q8 37 -4.5 71.5t-69.5 34.5q-33 0 -63.5 -12t-54.5 -31.5t-40 -43t-22 -44.5zM889 1288q-8 -43 19.5 -83t72.5 -40q33 0 58.5 12.5t46 33t32.5 43t19 44.5q4 6 5 14.5t3 16.5q8 37 -4.5 69t-69.5 32q-31 0 -61.5 -12.5t-55 -33t-42 -44t-21.5 -44.5z" />
<glyph unicode="&#xfd;" horiz-adv-x="1001" d="M283 1022q-10 -47 26 -98v2l232 -400l-111 -399v2q-4 -10 -5 -20.5t-5 -20.5q-10 -47 0 -77.5t53 -30.5h10q72 6 98.5 44.5t41.5 88.5l114 409l496 404q35 31 49 55.5t18 40.5q4 29 -8 40t-26 21l2 -2q-2 2 -4 3t-4 3q-25 10 -37 11q-23 0 -43.5 -10.5t-44.5 -26.5 q-25 -18 -50 -29l-383 -317l-192 280v-4q-25 53 -47.5 90t-48.5 37h-11q-39 -8 -75.5 -30.5t-44.5 -65.5zM743 1192q-4 -23 8.5 -34t41.5 -21l6 -2h6q14 0 29.5 7t52.5 44q10 12 35.5 29.5t62.5 39.5l56 39q24 16 43.5 35t36 41.5t34.5 56.5q6 8 8 31q14 66 -45 66 q-23 0 -51.5 -11.5t-60.5 -29.5q-27 -16 -59 -43t-63.5 -59.5t-59 -66.5t-48.5 -63q-16 -20 -22.5 -33.5t-10.5 -25.5z" />
<glyph unicode="&#xfe;" horiz-adv-x="858" d="M102 76q-8 -39 6.5 -66.5t65.5 -34.5h10q29 0 48.5 12.5t33 32t23.5 43.5l20 52q4 8 5 15t5 13v2l7 25q23 0 37 1t22 1h12q84 0 181.5 46t185.5 121t156.5 173t97.5 203q2 16 10 39q23 111 -20 174t-160 63q-72 0 -148.5 -14t-162.5 -55l10 28q2 4 3 10.5t3 10.5 q4 14 9 29.5t9 29.5q6 35 -4 57.5t-55 22.5q-43 0 -69.5 -8t-44 -25.5t-27 -44t-15.5 -61.5v2l-241 -856v2q-7 -18 -13 -43zM383 365l29 110l63 223q14 14 45 29.5t72 29t89 22.5t99 9q55 0 45 -55l-4 -14q-18 -68 -64 -134.5t-104.5 -118.5t-123 -85t-115.5 -33 q-35 1 -31 17z" />
<glyph unicode="&#xff;" horiz-adv-x="1001" d="M283 1022q-10 -47 26 -98v2l232 -400l-111 -399v2q-4 -10 -5 -20.5t-5 -20.5q-10 -47 0 -77.5t53 -30.5h10q72 6 98.5 44.5t41.5 88.5l114 409l496 404q35 31 49 55.5t18 40.5q4 29 -8 40t-26 21q-6 0 -6 4q-25 10 -37 11q-23 0 -43.5 -10.5t-44.5 -26.5q-25 -18 -50 -29 l-383 -317l-192 280v-4q-25 53 -47.5 90t-48.5 37h-11q-39 -8 -75.5 -30.5t-44.5 -65.5zM586 1274q-10 -45 16.5 -87t75.5 -42q33 0 59.5 13t46 32.5t32.5 43t20 44.5l4 20q4 18 5 38t-5 37.5t-22.5 27.5t-47.5 10q-33 0 -63.5 -12.5t-55 -31.5t-42 -43t-23.5 -44v-6z M897 1278q-4 -20 1 -43t17.5 -41t31 -30.5t42.5 -12.5q33 0 59.5 13.5t47 34t33 44t18.5 43.5v2q2 4 4 10.5t2 12.5q8 37 -3 71.5t-69 34.5q-33 0 -62.5 -12t-54 -31.5t-42 -43t-23.5 -44.5z" />
<glyph unicode="&#x152;" horiz-adv-x="1996" d="M199 444q-47 -240 40 -373.5t293 -133.5q143 0 288 65.5t272 177.5l-12 -38q-5 -17 -9 -33q-10 -49 8.5 -78t91.5 -29q8 0 16.5 1t18.5 1l652 47q92 0 124.5 30t36.5 60l4 13q8 47 -15 64.5t-83 17.5h-33l-606 -52l117 414l471 51q10 2 22.5 3t26.5 1q41 0 79 17.5 t56 77.5l2 12q6 29 -14.5 52.5t-93.5 23.5h-23q-12 0 -26 -2l-449 -56l2 15l96 333l516 33q51 2 89 3t64 9.5t42 28t29 57.5l4 13q10 47 -20.5 62.5t-77.5 15.5q-25 0 -52 -2l-55 -5q-182 -12 -287.5 -17t-165.5 -5h-139q-29 0 -51.5 -9.5t-38.5 -23.5q-41 45 -105.5 70.5 t-156.5 25.5q-102 0 -204.5 -41t-199 -109.5t-181.5 -155.5t-154.5 -181t-117.5 -187.5t-69 -170.5l-12 -48q-6 -22 -10 -45zM393 455q4 20 9 40l12 42q16 59 55 132.5t91 147.5t116.5 143.5t134.5 123t142.5 86t142.5 32.5q63 0 103 -22.5t62.5 -61.5t28.5 -90t0 -108 q-27 -119 -73 -285q-43 -109 -113 -203t-154 -164.5t-178 -110.5t-188 -40q-133 0 -176.5 92t-14.5 246z" />
<glyph unicode="&#x153;" horiz-adv-x="1597" d="M143 375q-41 -201 34 -313.5t249 -112.5q104 0 210.5 43t205.5 119v-5q-10 -47 7 -75.5t85 -28.5h18q8 0 17 2h-2l522 37q86 0 115.5 29.5t35.5 62.5l2 12q10 47 -14 65.5t-82 18.5h-24l-461 -39l80 291l358 39h17q4 0 11 1t13 1q41 0 78 17.5t53 76.5l2 15 q6 29 -13.5 54.5t-90.5 25.5h-21q-10 0 -20 -2l-336 -43l70 235l395 27q8 0 16 1t19 1q37 0 63.5 2t46 11t32.5 27.5t24 53.5l2 12q10 51 -21 66.5t-80 15.5q-12 0 -25.5 -1t-25.5 -1q-8 0 -15 -1t-14 -1q-145 -10 -229 -14t-131 -4h-111q-39 0 -73 -21q-35 35 -86.5 53.5 t-122.5 18.5q-86 0 -170 -34t-164 -90t-150.5 -128t-127 -149.5t-96.5 -153.5t-56 -139q-13 -39 -19 -78zM340 385q2 27 16 64q20 70 73.5 158.5t126.5 167.5t157 133.5t164 54.5q45 0 73.5 -16.5t44 -45.5t20.5 -66.5t1 -80.5l-22 -85l-23 -94q-4 -10 -7 -21t-8 -24l2 2 q-35 -84 -88 -156.5t-116.5 -125.5t-135 -84t-143.5 -31q-94 0 -126 67.5t-9 182.5z" />
<glyph unicode="&#x178;" d="M375 1251q-10 -47 31 -104l294 -508l-143 -508q-4 -12 -6 -24.5t-4 -22.5q-10 -47 -2 -79t47 -32h8q37 2 61.5 15.5t41 34t26.5 45t19 51.5l147 520l623 508q39 37 55 62.5t20 41.5q4 23 -10 36t-31 26q-20 10 -32 10q-35 0 -72 -27.5t-84 -52.5l-502 -414l-252 371 q-29 63 -53.5 105.5t-50.5 42.5h-6q-41 -8 -79 -32t-46 -65zM754 1565q-10 -45 16.5 -89t77.5 -44q35 0 62.5 14t49 35.5t35 46t19.5 47.5l4 12q2 6 4 15q4 18 4 36q0 20 -6 37t-22.5 27t-45.5 10q-35 0 -67.5 -13t-59 -33.5t-46 -46.5t-25.5 -48v-6zM1143 1569 q-10 -45 18.5 -87t75.5 -42q35 0 63.5 14t49 35.5t34 47.5t19.5 48q4 6 5 14.5t3 16.5q4 18 4 37q0 18 -7 33.5t-23.5 24.5t-45.5 9q-35 0 -67.5 -13t-58 -33.5t-44 -46t-24.5 -48.5z" />
<glyph unicode="&#x2c6;" horiz-adv-x="819" d="M377 1087q-4 -14 8 -25t49 -22q6 -2 17 -2q16 0 37.5 13.5t56.5 48.5l237 200l99 -194q12 -41 35.5 -54.5t39.5 -13.5q8 0 11 2q39 14 54 27.5t21 36.5v6q6 25 -6 55l-129 252q-6 29 -24.5 50.5t-46.5 21.5q-33 0 -47.5 -13.5t-28.5 -31.5l-311 -264l-40 -34 q-17 -15 -28 -42z" />
<glyph unicode="&#x2dc;" horiz-adv-x="1007" d="M479 1116q-4 -23 11.5 -39t46.5 -16q18 0 37 15l40 33l40 33q19 15 38 15q16 0 26.5 -16.5t25 -37t38 -36.5t66.5 -16q90 0 150.5 39.5t91.5 156.5l2 2q4 18 -14.5 32.5t-43.5 14.5q-16 0 -34.5 -9t-32.5 -32l-11 -25q-6 -15 -14 -29.5t-21.5 -26t-31.5 -11.5 q-27 0 -38 18.5t-22.5 42t-31 42t-58.5 18.5q-31 0 -72.5 -14.5t-79.5 -37t-68 -51t-38 -59.5z" />
<glyph unicode="&#x2000;" horiz-adv-x="948" />
<glyph unicode="&#x2001;" horiz-adv-x="1898" />
<glyph unicode="&#x2002;" horiz-adv-x="948" />
<glyph unicode="&#x2003;" horiz-adv-x="1898" />
<glyph unicode="&#x2004;" horiz-adv-x="632" />
<glyph unicode="&#x2005;" horiz-adv-x="473" />
<glyph unicode="&#x2006;" horiz-adv-x="315" />
<glyph unicode="&#x2007;" horiz-adv-x="315" />
<glyph unicode="&#x2008;" horiz-adv-x="235" />
<glyph unicode="&#x2009;" horiz-adv-x="378" />
<glyph unicode="&#x200a;" horiz-adv-x="104" />
<glyph unicode="&#x2010;" horiz-adv-x="790" d="M193 571q-6 -37 14 -67.5t74 -30.5q12 0 30.5 -4t38.5 -4q25 0 41 10l275 2l141 2q47 0 80 29t39 63q8 35 -17.5 66t-93.5 31q-16 0 -33.5 2t-36.5 2q-25 0 -45 -6h-282q-4 2 -25 2q-20 0 -45.5 -3t-36.5 -3q-51 0 -80.5 -28t-37.5 -63z" />
<glyph unicode="&#x2011;" horiz-adv-x="790" d="M193 571q-6 -37 14 -67.5t74 -30.5q12 0 30.5 -4t38.5 -4q25 0 41 10l275 2l141 2q47 0 80 29t39 63q8 35 -17.5 66t-93.5 31q-16 0 -33.5 2t-36.5 2q-25 0 -45 -6h-282q-4 2 -25 2q-20 0 -45.5 -3t-36.5 -3q-51 0 -80.5 -28t-37.5 -63z" />
<glyph unicode="&#x2012;" horiz-adv-x="790" d="M193 571q-6 -37 14 -67.5t74 -30.5q12 0 30.5 -4t38.5 -4q25 0 41 10l275 2l141 2q47 0 80 29t39 63q8 35 -17.5 66t-93.5 31q-16 0 -33.5 2t-36.5 2q-25 0 -45 -6h-282q-4 2 -25 2q-20 0 -45.5 -3t-36.5 -3q-51 0 -80.5 -28t-37.5 -63z" />
<glyph unicode="&#x2013;" horiz-adv-x="1112" d="M176 549q-6 -33 12.5 -57.5t69.5 -24.5q12 0 33.5 -4t44.5 -4q16 0 33 6h612q14 -6 31 -6q20 0 37.5 4t25.5 4q31 0 56.5 10t45 27.5t33 38t17.5 41.5q6 29 -11.5 51t-64.5 22l-111 -2h-626q-8 4 -19 4q-18 0 -39.5 -4t-31.5 -4q-63 0 -101.5 -32.5t-46.5 -69.5z" />
<glyph unicode="&#x2014;" horiz-adv-x="1544" d="M176 549q-6 -33 12.5 -57.5t69.5 -24.5q12 0 33.5 -4t44.5 -4q16 0 33 6l1042 -2q14 -6 29 -6q20 0 38.5 4t26.5 4q31 0 56.5 10t45 27.5t33 38t17.5 41.5q6 29 -11.5 51t-64.5 22l-111 -2l-1056 2q-8 4 -19 4q-18 0 -39.5 -4t-31.5 -4q-63 0 -101.5 -32.5t-46.5 -69.5z " />
<glyph unicode="&#x2018;" horiz-adv-x="391" d="M340 920q-2 -66 8 -113t64 -51h8q41 0 63.5 27.5t30.5 74.5q6 27 6 62l-2 2l8 256q0 27 3 54.5t-2 51t-23.5 38.5t-59.5 15q-47 0 -66.5 -21.5t-25.5 -55.5q-4 -20 -5 -43t-1 -46z" />
<glyph unicode="&#x2019;" horiz-adv-x="307" d="M213 788.5q6 -26.5 41 -32.5q4 0 6 -1t6 -1q41 0 87 48t69 118l115 262l9 36q5 19 9 37q6 33 -3 57.5t-58 24.5q-33 0 -58.5 -14t-45 -38.5t-34 -55.5t-24.5 -64l-90 -243l-12 -24q-11 -24 -17 -54q-6 -29 0 -55.5z" />
<glyph unicode="&#x201a;" horiz-adv-x="307" d="M10 -199q-6 -29 0 -55.5t41 -32.5q4 0 6 -1t6 -1q41 0 87.5 48t68.5 118l115 262l9 36q5 19 9 38q6 33 -3 57.5t-58 24.5q-33 0 -58.5 -14.5t-45 -39t-34 -55t-24.5 -63.5l-88 -244l-12 -23q-13 -24 -19 -55z" />
<glyph unicode="&#x201c;" horiz-adv-x="753" d="M232 883.5q-1 -23.5 4.5 -50t20.5 -49t48 -28.5h12q35 0 58.5 30.5t34.5 81.5q4 12 6 24.5t0 27.5l20 262q-2 23 -3 49t-9 50t-27.5 40t-56.5 16q-45 0 -67.5 -25.5t-30.5 -64.5q-4 -18 -5 -38.5t3 -43.5l-4 -243v-4q-3 -11 -4 -34.5zM594 920q-2 -66 8 -113t64 -51h8 q41 0 63.5 27.5t30.5 74.5q6 27 6 62l-2 2l8 256q0 27 3 54.5t-2 51t-23.5 38.5t-59.5 15q-47 0 -66.5 -21.5t-25.5 -55.5q-4 -20 -5 -43t-1 -46z" />
<glyph unicode="&#x201d;" horiz-adv-x="647" d="M213 788.5q6 -26.5 41 -32.5q4 0 6 -1t6 -1q41 0 87 48t69 118l115 262l9 36q5 19 9 37q6 33 -3 57.5t-58 24.5q-33 0 -58.5 -14t-45 -38.5t-34 -55.5t-24.5 -64l-90 -243l-12 -24q-11 -24 -17 -54q-6 -29 0 -55.5zM573 834q-6 -33 2.5 -53.5t38.5 -24.5h9q53 0 94 47 t63 117l-2 2l99 256q10 25 22 51t16 49q6 27 -6 43t-57 16q-37 0 -61.5 -14t-42 -37.5t-29.5 -53.5t-23 -61l-96 -251q-10 -23 -16.5 -45.5t-10.5 -40.5z" />
<glyph unicode="&#x201e;" horiz-adv-x="647" d="M8 -207q-4 -29 1 -55.5t40 -32.5q4 0 6 -1t6 -1q41 0 87.5 48t70.5 118l113 262l9 36q5 19 9 38q8 33 -2 57.5t-59 24.5q-33 0 -58.5 -14.5t-45 -39t-34 -55.5t-24.5 -63l-88 -244l-12 -24q-13 -23 -19 -54zM369 -217q-6 -33 2 -53.5t39 -24.5h8q53 0 94 47t66 117l-3 2 l97 256q10 25 23.5 51.5t17.5 48.5q4 27 -8.5 43.5t-57.5 16.5q-37 0 -61.5 -14.5t-42 -38t-29.5 -53t-22 -60.5l-95 -252q-18 -47 -28 -86z" />
<glyph unicode="&#x2022;" horiz-adv-x="579" d="M176 557q-8 -41 1 -83t32.5 -75.5t58.5 -55t80 -21.5q63 0 113.5 25.5t88.5 65.5t62.5 85t36.5 86q4 10 6 22t7 25q6 33 6 67q0 37 -12.5 66t-41 47t-79.5 18q-63 0 -123 -24.5t-108 -62t-81 -83t-45 -86.5z" />
<glyph unicode="&#x2026;" horiz-adv-x="1409" d="M119 102.5q6 -26.5 20.5 -48t37 -36t50.5 -14.5q41 0 74 16.5t57.5 42t41 55t22.5 54.5q4 12 8 32.5t4 43.5t-8 41t-26.5 29.5t-51.5 11.5q-41 0 -79 -15.5t-68.5 -40t-51 -53t-28.5 -55.5l-2 -10q-6 -27 0 -53.5zM592 150q-4 -27 2 -53.5t20.5 -48t37 -36t50.5 -14.5 q41 0 74 16.5t57.5 42t40 55t23.5 54.5q4 12 8 32.5t4 43.5t-8 41t-26.5 29.5t-51.5 11.5q-41 0 -78.5 -15.5t-68.5 -40t-52.5 -53.5t-29.5 -55zM1055 100.5q6 -26.5 20.5 -48t37 -36t50.5 -14.5q41 0 74 16.5t57.5 42t41 55t22.5 54.5q4 12 8 32.5t4 43.5t-8 41t-26.5 29.5 t-51.5 11.5q-41 0 -79 -15.5t-68.5 -40t-52 -53.5t-27.5 -55l-2 -10q-6 -27 0 -53.5z" />
<glyph unicode="&#x202f;" horiz-adv-x="378" />
<glyph unicode="&#x2039;" horiz-adv-x="546" d="M205 666q-6 -33 5 -45.5t28 -22.5l213 -260l28 -35q12 -14 37 -18h16q14 0 27.5 13t32.5 52q4 4 4 8t2 9q4 16 -6 35.5t-39 48.5l-162 198l219 135q45 20 63.5 46t22.5 42v11q-8 37 -18 49t-33 14h-6q-27 0 -59 -18l-287 -178q-31 -10 -56.5 -32.5t-31.5 -51.5z" />
<glyph unicode="&#x203a;" horiz-adv-x="546" d="M145 350q4 -39 12.5 -52t22.5 -13h17q29 4 46 18t40 35l315 260q20 10 35.5 22.5t21.5 45.5q6 29 -10 51t-45 33l-217 178q-29 18 -51 18h-6q-23 -2 -39.5 -14t-36.5 -49q-4 -4 -4 -11q-4 -16 5 -41.5t44 -46.5l170 -135l-240 -198q-41 -29 -57 -48.5t-21 -35.5 q-2 -7 -2 -17z" />
<glyph unicode="&#x205f;" horiz-adv-x="473" />
<glyph unicode="&#x20ac;" horiz-adv-x="1226" d="M88 471q-8 -39 6.5 -69.5t59.5 -30.5q23 0 77 22h11q-12 -96 0 -179t50 -144.5t102.5 -96t154.5 -34.5q92 0 188.5 30.5t183.5 79.5t160.5 109.5t122.5 120.5q31 35 35 61q6 29 -12.5 43t-50.5 14q-39 0 -89.5 -21.5t-91.5 -68.5q-23 -29 -65.5 -62.5t-95 -61t-106.5 -46 t-99 -18.5q-61 0 -100.5 21.5t-61 58.5t-26.5 87t1 107h402q16 -8 26.5 -10t16.5 -2h6q31 0 56.5 11t45 29.5t32.5 41t17 45.5q8 37 -10 65.5t-69 28.5q-29 0 -46 -9l-18 -9h-412q37 111 99 215h366q14 -10 27.5 -12.5t28.5 -2.5q55 0 86.5 29t48.5 78l2 14q8 41 -7.5 73 t-56.5 32q-29 0 -50 -11l-21 -10h-287q86 94 181 152.5t196 58.5q63 0 96 -9t47 -26q43 -49 68.5 -80.5t34.5 -31.5q51 0 90 34.5t49 79.5q10 51 -27 90q-66 72 -147.5 98.5t-182.5 26.5q-82 0 -164.5 -29.5t-162.5 -81.5t-155 -124t-140 -158h-115q-16 12 -33.5 14.5 t-25.5 2.5q-55 0 -90 -40t-43 -85q-8 -41 7 -72t58 -31q45 0 72 21h47q-61 -109 -96 -215h-13q-10 10 -25 12t-30 2q-53 0 -88 -40t-45 -87z" />
<glyph unicode="&#x2122;" horiz-adv-x="1644" d="M293 1225q-4 -20 10 -33.5t53 -13.5h15q8 0 18 2l160 32l-178 -641l-4 -20q-2 -10 -7 -21q-4 -18 3.5 -32.5t39.5 -14.5q43 0 58.5 20.5t32.5 67.5l186 664l192 35q61 16 84 28.5t31 36.5l2 8q10 53 -47 54q-12 0 -20 -2q-61 -10 -110 -20l-103 -20l-125 -25l-172 -32 q-37 -10 -72 -22t-45 -45zM825 592q-10 -51 2.5 -68.5t40.5 -21.5h6q14 0 27.5 10t24 25.5t17.5 31t9 27.5l131 473l39 -160q20 -82 37 -159q4 -29 7 -42l5 -22q2 -8 5.5 -16t9.5 -27q2 -12 19.5 -24.5t43.5 -12.5q18 0 38 9.5t40 31.5q18 18 27 30l15 21l16 25q9 14 30 41 q16 20 48 56l71 81l82 93l84 93l-144 -499q-8 -20 -10 -31q-10 -49 43 -55h6q37 0 57.5 24.5t26.5 57.5l4 12l197 702q10 51 -2 66.5t-47 19.5h-2q-16 0 -52 -33.5t-71 -74.5l-133 -162l-99 -120l-71 -84l-47 -54q-31 -37 -45.5 -60.5t-22.5 -23.5q-6 0 -14 43q-6 43 -18 93 l-20 94l-16 77q-7 33 -8 39l-13 69l-13 64q-6 29 -11.5 47.5t-5.5 16.5q-6 35 -22.5 54.5t-36.5 19.5t-39.5 -18.5t-30.5 -53.5z" />
<glyph unicode="&#xe000;" horiz-adv-x="1135" d="M0 1135h1135v-1135h-1135v1135z" />
<glyph unicode="&#xfb01;" horiz-adv-x="1175" d="M94 72q-18 -94 53 -95q20 0 31 3h-2q33 4 54.5 12t36 24.5t25.5 42t23 62.5l99 336l372 55h-2q51 4 80 11t44.5 18.5t22.5 28t15 38.5q0 2 2 5t2 8q0 4 2 7t2 7q4 23 -3 38t-21.5 23.5t-36 11.5t-43.5 3q-31 0 -58.5 -3t-50.5 -8q-4 -2 -8 -2h-6l-260 -39l65 234l414 29 q76 8 106.5 30.5t47.5 71.5l2 4q4 53 -19.5 73.5t-78.5 20.5q-8 0 -18.5 -1t-20.5 -1q-109 -10 -180.5 -16t-117.5 -11.5t-71 -7.5t-39 -4q-12 -2 -20 -2t-19 -2h2q-88 -10 -126 -30.5t-48 -69.5q-4 -14 -6 -28.5t0 -30.5l-47 -177q-16 -61 -31 -106q-10 -31 -18 -62 l-21 -75l-114 -371q-4 -16 -8.5 -29.5t-6.5 -25.5zM903 94q-8 -39 6.5 -66.5t63.5 -33.5h18q53 0 72.5 30.5t38.5 81.5l-2 -2q2 4 3 10.5t5 10.5l2 4l238 840q2 4 2 10t4 10q4 14 9 29.5t9 30.5q6 35 -4 57t-55 22q-43 0 -69.5 -8t-44 -25.5t-27 -43t-15.5 -60.5l-242 -856 v2q-4 -10 -7 -20.5t-5 -22.5z" />
<glyph unicode="&#xfb02;" horiz-adv-x="1501" d="M94 72q-18 -94 53 -95q20 0 31 3h-2q33 4 54.5 12t36 24.5t25.5 42t23 62.5l99 336l372 55h-2q51 4 80 11t44.5 18.5t22.5 28t15 38.5q0 2 2 5t2 8q0 4 2 7t2 7q4 23 -3 38t-21.5 23.5t-36 11.5t-43.5 3q-31 0 -58.5 -3t-50.5 -8q-4 -2 -8 -2h-6l-260 -39l65 234l414 29 q76 8 106.5 30.5t47.5 71.5l2 4q4 53 -19.5 73.5t-78.5 20.5q-8 0 -18.5 -1t-20.5 -1q-109 -10 -180.5 -16t-117.5 -11.5t-71 -7.5t-39 -4q-12 -2 -20 -2t-19 -2h2q-88 -10 -126 -30.5t-48 -69.5q-4 -14 -6 -28.5t0 -30.5l-47 -177q-16 -61 -31 -106q-10 -31 -18 -62 l-21 -75l-114 -371q-4 -16 -8.5 -29.5t-6.5 -25.5zM889 84q-8 -41 2 -78t51 -37q4 0 7 1t7 1l467 62q61 10 96 36.5t42 55.5q0 4 1 7t-1 7l2 4q14 78 -80 78q-29 0 -62 -6h2l-311 -41l229 819q4 10 7 21l4 20q10 51 -4.5 73.5t-61.5 22.5q-74 0 -100.5 -37.5t-40.5 -99.5 l-244 -866v2q-4 -10 -6 -19.5t-6 -25.5z" />
<glyph unicode="&#xfb03;" horiz-adv-x="1953" d="M1691 76q-3 -14 -3 -27q0 -22 10 -40q14 -28 65 -34h19q51 0 70.5 31t37.5 82l-2 -2q4 4 5 10t3 10l2 5l238 839q2 4 3 10.5t3 10.5q4 14 9 29.5t9 29.5q2 13 3 25q0 19 -7 32q-10 23 -55 23q-43 0 -69.5 -8t-44 -25.5t-27 -43t-15.5 -60.5l-241 -856v2q-7 -18 -13 -43z M889 72q-4 -19 -4 -35q0 -60 57 -60q20 0 31 3h-2q33 4 54.5 12t36 24.5t25.5 42t23 62.5l99 336l372 55h-2q51 4 80 11t44.5 18.5t22.5 28t15 38.5q0 2 2 5t2 8q0 4 2 7t2 7q4 23 -3 38t-21.5 23.5t-36 11.5t-43.5 3q-31 0 -58.5 -3t-50.5 -8q-4 -2 -8 -2h-6l-260 -39 l65 234l414 29q76 8 106.5 30.5t47.5 71.5l2 4q1 8 0 15q0 41 -20 59q-24 20 -78 20q-8 0 -18.5 -1t-20.5 -1q-109 -10 -180.5 -16t-117.5 -11.5t-71 -7.5t-39 -4q-12 -2 -20 -2t-19 -2h2q-88 -10 -126 -30.5t-48 -69.5q-4 -14 -6 -28.5t0 -30.5l-47 -177q-16 -61 -31 -106 q-10 -31 -18 -62l-21 -75l-114 -371q-4 -16 -8.5 -29.5t-6.5 -25.5zM94 72q-4 -19 -4 -35q0 -60 57 -60q20 0 31 3h-2q33 4 54.5 12t36 24.5t25.5 42t23 62.5l99 336l372 55h-2q51 4 80 11t44.5 18.5t22.5 28t15 38.5q0 2 2 5t2 8q0 4 2 7t2 7q4 23 -3 38t-21.5 23.5 t-36 11.5t-43.5 3q-31 0 -58.5 -3t-50.5 -8q-4 -2 -8 -2h-6l-260 -39l65 234l414 29q76 8 106.5 30.5t47.5 71.5l2 4q1 8 0 15q0 41 -20 59q-24 20 -78 20q-8 0 -18.5 -1t-20.5 -1q-109 -10 -180.5 -16t-117.5 -11.5t-71 -7.5t-39 -4q-12 -2 -20 -2t-19 -2h2 q-88 -10 -126 -30.5t-48 -69.5q-4 -14 -6 -28.5t0 -30.5l-47 -177q-16 -61 -31 -106q-10 -31 -18 -62l-21 -75l-114 -371q-4 -16 -8.5 -29.5t-6.5 -25.5z" />
<glyph unicode="&#xfb04;" horiz-adv-x="2316" d="M1691 70q-4 -18 -3 -36q0 -22 5 -42q10 -37 52 -37q4 0 7 1t7 1l467 61q61 10 96 37t39 56q2 4 2 14v4q2 10 2 20q0 58 -80 58q-31 0 -61 -6h2l-313 -41l231 819q4 10 5 20.5t5 20.5q4 21 5 38q0 23 -9 36q-14 23 -61 22q-74 0 -100.5 -38t-41.5 -99l-243 -866v2 q-4 -10 -6.5 -19.5zM889 72q-4 -19 -4 -35q0 -60 57 -60q20 0 31 3h-2q33 4 54.5 12t36 24.5t25.5 42t23 62.5l99 336l372 55h-2q51 4 80 11t44.5 18.5t22.5 28t15 38.5q0 2 2 5t2 8q0 4 2 7t2 7q4 23 -3 38t-21.5 23.5t-36 11.5t-43.5 3q-31 0 -58.5 -3t-50.5 -8 q-4 -2 -8 -2h-6l-260 -39l65 234l414 29q76 8 106.5 30.5t47.5 71.5l2 4q1 8 0 15q0 41 -20 59q-24 20 -78 20q-8 0 -18.5 -1t-20.5 -1q-109 -10 -180.5 -16t-117.5 -11.5t-71 -7.5t-39 -4q-12 -2 -20 -2t-19 -2h2q-88 -10 -126 -30.5t-48 -69.5q-4 -14 -6 -28.5t0 -30.5 l-47 -177q-16 -61 -31 -106q-10 -31 -18 -62l-21 -75l-114 -371q-4 -16 -8.5 -29.5t-6.5 -25.5zM94 72q-4 -19 -4 -35q0 -60 57 -60q20 0 31 3h-2q33 4 54.5 12t36 24.5t25.5 42t23 62.5l99 336l372 55h-2q51 4 80 11t44.5 18.5t22.5 28t15 38.5q0 2 2 5t2 8q0 4 2 7t2 7 q4 23 -3 38t-21.5 23.5t-36 11.5t-43.5 3q-31 0 -58.5 -3t-50.5 -8q-4 -2 -8 -2h-6l-260 -39l65 234l414 29q76 8 106.5 30.5t47.5 71.5l2 4q1 8 0 15q0 41 -20 59q-24 20 -78 20q-8 0 -18.5 -1t-20.5 -1q-109 -10 -180.5 -16t-117.5 -11.5t-71 -7.5t-39 -4q-12 -2 -20 -2 t-19 -2h2q-88 -10 -126 -30.5t-48 -69.5q-4 -14 -6 -28.5t0 -30.5l-47 -177q-16 -61 -31 -106q-10 -31 -18 -62l-21 -75l-114 -371q-4 -16 -8.5 -29.5t-6.5 -25.5z" />
</font>
</defs>
</svg>
