<?xml version="1.0" standalone="no"?>
<!DOCTYPE svg PUBLIC "-//W3C//DTD SVG 1.1//EN" "http://www.w3.org/Graphics/SVG/1.1/DTD/svg11.dtd" >
<svg xmlns="http://www.w3.org/2000/svg">
<metadata>
This is a custom SVG webfont generated by Font Squirrel.
Copyright   :  19992001 WolfBainX  Apostrophic Labs All rights reserved Email infoapostrophiclabcom or visit wwwapostrophiclabcom for more information
Designer    : WolfBainX  Apostrophe
Foundry URL : wwwapostrophiclabcom
</metadata>
<defs>
<font id="webfont8HSvGPKw" horiz-adv-x="1245" >
<font-face units-per-em="2048" ascent="1638" descent="-410" />
<missing-glyph horiz-adv-x="536" />
<glyph unicode=" "  horiz-adv-x="536" />
<glyph unicode="&#x09;" horiz-adv-x="536" />
<glyph unicode="&#xa0;" horiz-adv-x="536" />
<glyph unicode="!" horiz-adv-x="411" d="M90 68q0 -41 22.5 -72t75.5 -31q76 0 126.5 36t80.5 144h2q4 12 6.5 22.5t2.5 29.5q0 45 -27 70.5t-82 25.5q-66 0 -122 -53.5t-79 -130.5v2q-4 -12 -5 -22.5t-1 -20.5zM215 395q0 -39 18.5 -60.5t63.5 -21.5q72 0 115 51.5t61 131.5h-2l193 682q4 14 9 34l9 37 q2 12 3 23.5t1 21.5q0 49 -19.5 81t-72.5 32q-47 0 -78 -21.5t-49 -52t-26.5 -65.5t-10.5 -62l2 6l-184 -696v2q-14 -35 -23.5 -65.5t-9.5 -57.5z" />
<glyph unicode="&#x22;" horiz-adv-x="643" d="M258 860q0 -35 15.5 -63.5t56.5 -34.5h16q47 0 90 49t58 121l-2 -2l69 246v8q2 12 4 37l2 24q0 39 -18.5 68.5t-77.5 29.5q-37 0 -63.5 -15t-45 -39.5t-27.5 -57.5t-13 -68v2l-48 -221l23 19q-10 -10 -24.5 -39t-14.5 -64zM586 852q0 -39 17.5 -62.5t60.5 -27.5h8 q59 0 96 49t51 121v2l53 231l7 27q6 18 10 36.5t4 35.5q0 35 -19.5 57t-76.5 22q-41 0 -66.5 -15t-42 -39.5t-25 -55.5t-14.5 -62l-49 -227q-6 -25 -10 -47t-4 -45z" />
<glyph unicode="#" horiz-adv-x="1368" d="M238 412q0 -31 20.5 -54.5t87.5 -23.5q14 0 24.5 1t24.5 3l-73 -133l-49 -96q-19 -39 -19 -66q0 -37 22.5 -52.5t75.5 -15.5q25 0 49.5 16.5t47 42t41 56.5t30.5 62l-2 -2l109 188h149l-82 -148l2 3q-31 -47 -44 -79t-13 -55q0 -47 27.5 -63t58.5 -21h6q25 0 50.5 18.5 t48 46.5t43 60.5t34.5 61.5l99 176h57q10 0 20.5 -1t20.5 -1q16 -2 33 -2h30q31 0 53.5 4t40 17.5t28.5 37t22 62.5q2 10 4 17t2 11q0 45 -41 56.5t-146 11.5l140 244h49q20 -2 41 -2h37q59 0 103 21.5t48 74.5q10 16 11 37q0 31 -28 57.5t-87 26.5q-12 0 -25.5 -1t-25.5 -3 l59 102l-2 -4q78 109 78 168q0 72 -84 71q-35 0 -56.5 -6t-40 -24.5t-37.5 -50.5l-50 -88v2l-99 -172h-149l75 133l-2 -4q57 78 58 133q0 35 -22.5 56t-69.5 21q-33 0 -59.5 -16t-47 -39.5t-34 -50.5t-19.5 -45l-111 -188h-90q-174 0 -198 -101v4q-4 -12 -5.5 -21t-1.5 -18 q0 -47 30 -61t83 -14h29q14 0 26 2h6l-141 -244h-67q-86 0 -141.5 -31t-71.5 -90v-18zM752 551l141 244h143l-137 -244h-147z" />
<glyph unicode="$" horiz-adv-x="968" d="M131 236q0 -51 21.5 -88t56.5 -63t82 -40t98 -20l-18 -72v2q-25 -66 -25 -107q0 -94 88 -94q41 0 67.5 14.5t44 40t28 59.5t18.5 73l-2 -2l24 96q74 23 150 69t143.5 114.5t121.5 160.5t85 205h2q10 35 13.5 66.5t3.5 64.5q0 111 -56.5 164t-148.5 53q-35 0 -66 -6 l39 139q27 -4 44.5 -14.5t29.5 -20.5q72 -61 121 -61q39 0 65.5 27.5t42.5 90.5q4 16 4 33q0 37 -21.5 68t-55 55.5t-76.5 39.5t-88 20l2 2q8 16 13 36.5t5 42.5q0 35 -17.5 62t-70.5 27h-12q-41 -4 -67.5 -22.5t-43 -42.5t-24 -50.5t-7.5 -44.5l-10 -29 q-70 -23 -140.5 -66.5t-132 -104t-109.5 -135.5t-72 -161q-8 -27 -10.5 -48t-2.5 -44q0 -49 15.5 -88t41 -66.5t57.5 -42t64 -14.5q33 0 84 23l-79 -287q-18 -6 -33 -6q-55 0 -76 -6q12 39 19.5 65.5t7.5 36.5q0 49 -26 72.5t-60 23.5q-39 0 -80 -32.5t-60 -98.5 q-12 -40 -12 -69zM498 766q2 0 2 8t2 18.5t6 20.5q16 66 61 120t99 91l-56 -205q-37 -23 -66.5 -38t-47.5 -15zM696 319l103 369q49 23 84 23q27 0 26 -37q0 -25 -10 -62q-29 -102 -83 -177t-120 -116z" />
<glyph unicode="%" horiz-adv-x="1280" d="M319 45q0 -47 25 -70.5t64 -23.5q37 0 84 28.5t94 94.5l207 313l164 249l128 192l97 145l91 136q34 50 50 76.5t21.5 37t7.5 16.5t2 14v19q0 47 -31 78.5t-78 31.5q-35 0 -68.5 -18t-64.5 -64l-224 -344l-176 -269l-134 -205l-99 -148l-85 -130l-45 -70q-15 -24 -18 -31 t-5 -13h2q-9 -25 -9 -45zM342 989q0 -37 10 -72.5t34 -63.5t59.5 -44t84.5 -16q45 0 106.5 24.5t120 67.5t105.5 99t66 120q14 43 14 84q0 86 -53 136t-152 50q-59 0 -118.5 -24.5t-112.5 -65.5t-93 -98.5t-59 -120.5q-12 -41 -12 -76zM571 1020v10q0 8 4 19h-2 q10 39 47 69.5t70 30.5q20 0 21 -12v-4q-6 -23 -22.5 -43.5t-37 -37t-41 -26.5t-35.5 -10q-4 0 -4 4zM741 121q0 -35 8.5 -66.5t29 -56.5t55 -40t88.5 -15q47 0 110.5 23.5t126 67.5t113.5 106.5t74 142.5q8 25 10 46t2 38q0 82 -42 135t-122 53q-68 0 -134.5 -17.5 t-126 -57.5t-105.5 -104.5t-72 -158.5q-15 -43 -15 -96zM977 178q0 6 2 10l6 27l-2 -2q14 53 51 84t72 31q25 0 24 -4q0 -4 -2 -5v-2l-2 -22v4q-8 -27 -23.5 -50.5t-34.5 -42t-39.5 -28.5t-39.5 -10q-12 0 -12 10z" />
<glyph unicode="&#x26;" horiz-adv-x="1220" d="M133 184q0 -53 11.5 -96t39 -75.5t72.5 -50t111 -17.5q55 0 117.5 15t130 43t135 68t133.5 87l30 -74v2q20 -55 51 -79.5t66 -24.5q27 0 54.5 14t52 36.5t44 49.5t29.5 51l-120 199l51 53l51 56q25 28 46.5 54.5t35.5 47.5q25 23 35 41t10 41q0 47 -48 67.5t-104 20.5 q-53 0 -81.5 -40t-45.5 -77q-4 -4 -5 -8t-3 -6q-2 -4 -5 -9.5t-7 -11.5v2q-4 -6 -8 -11t-11 -11l-52 142l-46 126q45 25 93 60.5t90 77.5t74 88t46 95q6 31 6 50q0 47 -22.5 83.5t-61 61.5t-88 37t-104.5 12q-131 0 -222 -50t-126 -177q-12 -41 -13 -76q0 -41 9.5 -83 t21.5 -81q-164 -84 -276.5 -208t-165.5 -318q-16 -53 -23.5 -103.5t-7.5 -93.5zM377 262q0 55 12 103q35 123 108.5 201.5t180.5 138.5l16 -43q8 -23 19 -48l44 -124l48 -130q-49 -37 -102.5 -70.5t-104.5 -58t-98 -40t-84 -15.5q-23 0 -31 25.5t-8 60.5zM811 1102 q0 18 2 26q6 25 27.5 33t54.5 8q20 0 49 -4t29 -18v-2l-2 -2q-10 -43 -51 -76t-91 -55q-8 23 -13 45t-5 45z" />
<glyph unicode="'" horiz-adv-x="286" d="M231 860q0 -35 13.5 -63.5t52.5 -34.5h14q41 0 81 49t50 121l-2 -2l64 246v2q0 2 2 6q0 12 2 37l2 24q0 39 -17.5 68.5t-70.5 29.5q-35 0 -58.5 -15t-39 -39.5t-23.5 -57.5t-12 -68v2l-43 -221l18 17q-10 -10 -21.5 -39t-11.5 -62z" />
<glyph unicode="(" horiz-adv-x="733" d="M231 309q0 -319 185 -491q37 -35 82 -35q41 0 68.5 38t43.5 91v-2q4 10 4 16v13q0 45 -30.5 80.5t-53.5 58.5h2l-4 4q-18 39 -31.5 112.5t-13.5 176.5q0 80 12.5 173t41.5 197q70 256 172 435.5t231 259.5q14 14 28.5 21t26.5 16q29 14 49.5 29.5t28.5 37.5l2 6 q6 20 6 51q0 49 -25.5 73t-66.5 24q-59 0 -127 -49v2q-209 -141 -342 -357.5t-219 -531.5q-70 -252 -70 -449z" />
<glyph unicode=")" horiz-adv-x="733" d="M109 -115v-18q0 -53 37.5 -75.5t78.5 -22.5q25 0 47.5 6t36.5 20h-2q121 113 210 214.5t155.5 210t116 233.5t90.5 282h2q25 119 39 228.5t14 212.5q0 147 -39 268t-135 207q-37 31 -74 30q-47 0 -85 -39.5t-54 -101.5l2 2q-4 -10 -4 -16v-8q0 -27 14 -48.5t35 -44.5 q16 -18 30.5 -39.5t20.5 -50.5q4 -12 4 -26q10 -41 20.5 -107.5t10.5 -154.5q0 -66 -7 -139.5t-30 -157.5q-31 -109 -54.5 -183.5t-60 -144.5t-94 -152t-151.5 -204q-6 -4 -13.5 -10.5t-13.5 -10.5v2l-41 -27q-23 -14 -43 -33.5t-37.5 -45t-25.5 -56.5z" />
<glyph unicode="*" horiz-adv-x="1026" d="M254 1053q0 -59 43 -109q63 -57 137 -57q10 0 20.5 1t20.5 1q10 2 19.5 3t13.5 1q25 0 24 -2q0 -2 1.5 -5t1.5 -9t-1.5 -16.5t-3.5 -21t-4 -18.5t-6 -20.5t-6 -25.5t-4 -21q-4 -20 -4 -41q0 -94 80 -146h-2q20 -10 63 -10q78 0 119 111q12 41 25.5 71.5t23.5 46.5 q12 -4 26.5 -11l37.5 -19q76 -41 92 -41q43 0 79.5 35.5t47.5 76.5v15q0 49 -58 100q-10 10 -20 18.5t-14 16.5q12 4 24 5t27 5l38 8l42 9q111 35 133 143v-2q4 12 4 24v25q0 51 -27.5 68.5t-93.5 19.5q4 0 -6 2t-17 4q-12 2 -22 5t-35 3q-4 0 -10 -1t-10 -1 q-29 -4 -47.5 -5t-30.5 -1q-43 0 -51 10v27q0 16 2 38.5t6 51.5v-2q4 33 6 57.5t2 47.5v24q0 12 -2 19v-2q-12 88 -119 88q-31 -4 -58.5 -18.5t-49 -37t-34.5 -50.5t-15 -56q-6 -29 -7 -64l-34 49q-57 57 -125 58q-43 0 -78 -31t-45 -74q0 -4 -1 -10t-1 -10q0 -23 11 -52.5 t32 -64.5l47 -86q-20 -4 -35 -4h-4q-18 0 -29.5 -1t-21.5 -5l6 4q-41 -10 -78 -40t-43 -67q0 -8 -1 -16t-1 -18zM924 1298l2 -4q-2 2 -2 4z" />
<glyph unicode="+" horiz-adv-x="1050" d="M141 426q0 -37 27 -64.5t84 -27.5q4 0 20 -4q10 -2 21.5 -3t25.5 -1q10 0 21.5 1t21.5 5h144l-45 -162q-14 -16 -19.5 -37.5t-9.5 -42.5q-2 -4 -1 -9t-1 -9q-6 -16 -8 -30.5t-2 -25.5q0 -49 27.5 -69.5t64.5 -20.5q43 0 88 32t62 85q2 10 7 30l9 36q6 27 13 49l9 28 l-2 -2l43 148h187q14 -6 35 -6q10 0 27 3l30 5h4q37 0 68.5 15.5t55 38t37 49t13.5 50.5q0 35 -23.5 59.5t-78.5 24.5l-105 -2h-180l43 152q8 12 13 24.5t10 28.5v6q0 4 2 8q2 10 2 13q0 4 0 2q4 18 7 29.5t3 19.5q0 49 -28.5 72.5t-67.5 23.5q-43 0 -85 -30.5t-59 -88.5 q-4 -12 -16 -36q-8 -16 -12.5 -27.5t-4.5 -26.5v-4l-45 -166h-170q-16 4 -24 4q-20 0 -29.5 -2t-20 -4t-18.5 -2q-80 0 -125 -45t-45 -94z" />
<glyph unicode="," horiz-adv-x="382" d="M-27 -156q0 -41 23.5 -55t58.5 -14q55 0 109.5 27.5t100.5 70.5t79 94t45 99q14 49 14 84q0 53 -29.5 83.5t-97.5 30.5q-53 0 -89.5 -16.5t-60.5 -41t-35 -55t-11 -61.5q0 -33 14 -65q14 -23 15 -41q0 -27 -27 -41.5t-51 -24.5q-16 -6 -29.5 -13t-21.5 -24q-7 -23 -7 -37 z" />
<glyph unicode="-" horiz-adv-x="729" d="M176 451q0 -35 26.5 -60.5t84.5 -25.5h8q6 0 12 -3q10 -2 19.5 -3t25.5 -1q10 0 21.5 2t21.5 7l248 2l131 2q59 0 98 34.5t39 71.5q0 35 -30.5 60.5t-100.5 25.5q-6 0 -13 1t-17 1q-8 0 -17.5 1t-17.5 1q-25 0 -43 -6h-254q-8 2 -27 2q-10 0 -25.5 -1t-27.5 -1 q-8 -2 -14 -2h-9q-68 0 -103.5 -34.5t-35.5 -73.5z" />
<glyph unicode="." horiz-adv-x="342" d="M59 102q0 -51 34 -92t87 -41q39 0 71 16.5t55.5 40t38.5 51t22 52.5q4 16 8 34.5t4 35.5q0 39 -19.5 67.5t-78.5 28.5q-39 0 -75 -15.5t-64.5 -38t-49 -50t-26.5 -54.5v4q-4 -10 -5.5 -19.5t-1.5 -19.5z" />
<glyph unicode="/" horiz-adv-x="776" d="M102 16q0 -80 105 -79q27 0 50.5 13t42.5 33.5t36.5 44t30.5 44.5l-2 -2l16 22q10 14 8 12l75 120l101 159l130 203l131 208l115 192q52 91 81 157q23 43 38 81t15 60q0 35 -17.5 55.5t-64.5 20.5q-41 0 -70.5 -9.5t-49 -24.5t-33 -33.5t-23.5 -35.5l-81 -137l-105 -179 l-120 -202l-122 -202l-114 -187l-93 -149q-37 -61 -58.5 -106.5t-21.5 -78.5z" />
<glyph unicode="0" horiz-adv-x="970" d="M172 438q0 -94 20.5 -174t60.5 -138t98.5 -92t135.5 -34q98 0 188.5 55.5t163 150.5t126 221t79.5 267l-2 -2l9 29q10 57 17 122.5t7 135.5q0 74 -11 142.5t-40 119.5t-77 82t-120 31q-45 0 -82.5 -4t-74.5 -15.5t-74 -33t-76 -56.5q-121 -102 -208 -267t-122 -353 q-18 -93 -18 -187zM416 449q0 66 18 161q25 129 72 238.5t104 173.5q14 16 36 32.5t44.5 30t44 21.5t33.5 8q47 0 68.5 -47t21.5 -131q0 -88 -24 -205q-16 -86 -41 -168t-62 -147.5t-88 -107.5t-119 -48q-108 1 -108 189z" />
<glyph unicode="1" horiz-adv-x="454" d="M135 88q0 -25 14.5 -43t36.5 -27h4q25 -18 60 -18q53 0 71.5 23.5t22.5 64.5l33 164q37 190 72.5 352t78.5 266q18 41 34 93.5t38 142.5q2 10 6 26.5t9.5 33l9.5 27.5t4 13v6q0 31 -17.5 51.5t-38 33t-39 16.5t-20.5 4q-35 0 -78 -19.5t-83 -44t-67.5 -48t-29.5 -31.5 v-19q0 -72 86 -98q-10 -53 -25 -106l-30 -107q-27 -88 -52.5 -183.5t-44.5 -193.5q-10 -51 -17 -111.5t-17 -126.5q-6 -35 -11.5 -70.5t-9.5 -70.5z" />
<glyph unicode="2" horiz-adv-x="987" d="M8 82q0 -35 19.5 -57.5t60.5 -22.5q14 0 34 4l48 10l79 16q46 9 97 17t106.5 13.5t108.5 5.5q82 0 136.5 -2.5t88 -4.5t50 -4t26.5 -4q8 -2 21 -2h10q47 0 73.5 32t37.5 77v-2q2 6 2 14v18q0 72 -73 100.5t-231 28.5q-45 0 -95 -3t-103 -11l75 72l78 78l91 89l83 79 q78 68 136.5 135t97.5 127.5t60.5 107.5t27.5 76l-2 -4l4 12q2 10 3 21.5t1 23.5q0 84 -54 133.5t-157 49.5q-121 0 -258 -62q-55 -25 -124.5 -64.5t-133 -84.5t-110 -91.5t-52.5 -84.5q0 -4 -1 -10.5t-1 -10.5q0 -23 10.5 -42t24.5 -33.5t30.5 -24t28.5 -9.5q43 8 91.5 37 t119.5 86q37 31 79 57.5t83 48t77 34t60 12.5q27 0 27 -21v-4q-4 -20 -48 -73.5t-110 -123.5l-145 -152l-158 -157l-145 -139q-68 -63 -109 -98l-84 -76q-33 -31 -51 -52.5t-26.5 -34.5t-10.5 -21q-4 -8 -4 -17v-12z" />
<glyph unicode="3" horiz-adv-x="1024" d="M43 240q0 -49 31.5 -93.5t88 -76t133.5 -51t167 -19.5q100 0 195.5 25.5t174 76t134 125t73.5 172.5q4 18 6.5 39t2.5 39q0 160 -142 219q152 80 228.5 154t95.5 172v-2q4 12 4 27v26q0 51 -21.5 94t-57.5 73t-84 46.5t-101 16.5q-47 0 -115 -17.5t-143.5 -45.5 t-151.5 -65.5t-137.5 -78.5t-103 -84t-48.5 -80q0 -4 -1 -10.5t-1 -10.5q0 -47 36 -81.5t77 -34.5q43 0 78 36h-2q57 53 120.5 96.5t125 74t115.5 47t91 16.5q23 0 38.5 -6t15.5 -23q0 -10 -2 -16q-8 -43 -66.5 -91t-138.5 -91t-169 -76t-157 -43q-49 -4 -66.5 -23.5 t-27.5 -66.5q-2 -8 -3 -16.5t-1 -20.5q0 -47 21.5 -83t56.5 -36l9 3q9 3 23 7q4 2 11 2q6 0 10 2q100 31 186 31q66 0 107 -17.5t41 -58.5q0 -4 -4 -24q-6 -37 -32 -71t-68 -61.5t-97 -44t-121 -16.5q-74 0 -121 14.5t-55 45.5q-6 29 -21.5 45t-34 25.5t-34.5 11.5t-25 2 q-45 0 -88 -20.5t-53 -76.5v2q-2 -6 -2 -16v-18z" />
<glyph unicode="4" horiz-adv-x="1161" d="M102 455q0 -20 7.5 -42t18.5 -39.5t26.5 -28.5t31.5 -11h4q2 0 3.5 1t3.5 1l115.5 30.5t128 29t117.5 20.5t85 8v6l4 -6l-32 -111q-13 -47 -17 -80q-6 -27 -8 -50t-2 -46q0 -133 119 -133q31 0 58.5 10.5t48 25.5t32.5 32.5t14 31.5q-4 20 -4 37v31q0 20 2 39.5t8 44.5 l18 76q9 39 21 80l6 16q4 2 13 2q16 2 38.5 4t34.5 2l152 -12h6q23 0 42.5 13.5t34.5 31.5t24.5 39.5t13.5 38.5l-2 -4q4 10 4 14v10q0 35 -18.5 55.5t-49 31t-69.5 12.5t-82 2h-64q14 43 38 100t54 121l66 133l72 137v-2q23 45 22 60q-6 12 -18.5 32.5t-27.5 39t-35.5 32.5 t-41.5 14q-45 -18 -135 -77.5t-200 -142.5l-226 -178q-117 -95 -215 -184t-163.5 -163t-74.5 -113l2 4q-4 -10 -4 -16v-10zM532 641l102 92l79 69l61 52q27 23 51 41l-43 -105q-23 -54 -45 -118l-6 -15q-66 -4 -115 -8t-84 -8z" />
<glyph unicode="5" horiz-adv-x="1009" d="M47 264q0 -51 38 -98t99.5 -83t138 -57.5t154.5 -21.5q119 0 220.5 32t178 87t127 127t66.5 151q6 31 6 68q0 68 -25.5 131.5t-78.5 111.5t-134 76.5t-190 28.5q-63 0 -127 -12l80 201q8 18 76.5 29.5t158 17.5t175.5 8t129 2q47 0 67.5 28.5t28.5 63.5q2 12 3 22.5 t1 26.5q0 33 -8 52.5t-22.5 29.5t-33 14.5t-38.5 4.5h-43q-20 -2 -92 -8.5t-166.5 -18.5t-197.5 -31.5t-185 -46.5q-20 -8 -47 -50t-55.5 -101.5t-57.5 -127.5l-52 -128q-24 -59 -38.5 -101.5t-16.5 -50.5q0 -4 -1 -9t-1 -9q0 -20 8.5 -42t22.5 -40.5t35.5 -29.5t48.5 -11 q10 0 22.5 2t28.5 10q150 59 258 59q88 0 147.5 -42t59.5 -101q0 -12 -2 -20q-16 -72 -89 -110t-183 -48h-19q-39 0 -72.5 12t-63.5 31.5t-52 41.5l-41 40q-23 23 -40 37t-38 14q-25 0 -53.5 -13.5t-59.5 -41.5v-2q-47 -47 -53 -80v2q-2 -8 -2 -17v-10z" />
<glyph unicode="6" horiz-adv-x="1069" d="M158 358q0 -113 46 -182.5t106.5 -108t119.5 -52t88 -13.5q104 0 206.5 44t188.5 118t146.5 169t79.5 197q4 20 6 41t2 43q0 74 -24.5 135.5t-69.5 107.5t-109.5 71.5t-146.5 25.5q-31 0 -88 -10q59 72 116.5 122t96.5 81q27 23 42 37t19 26q0 4 1 10.5t1 10.5 q0 45 -35 76.5t-82 31.5q-61 0 -149 -65.5t-207 -212.5v2q-100 -125 -162.5 -214t-99.5 -158.5t-54.5 -124t-27.5 -107.5q-4 -27 -7 -51.5t-3 -49.5zM416 393q0 14 2 28.5t6 33.5q12 68 42 120t68.5 86.5t86 53t94.5 18.5q53 0 82.5 -9t44 -22.5t18.5 -28t6 -26.5 q0 -6 1 -19.5t1 -15.5h6q2 -10 3.5 -20t1.5 -21q0 -10 -1 -22t-4 -29v2q-35 -90 -74.5 -144t-81.5 -84t-83 -40t-76 -10q-63 0 -103 38.5t-40 110.5z" />
<glyph unicode="7" horiz-adv-x="925" d="M238 1145q0 -41 33.5 -64.5t76.5 -35t84 -14.5t55 -3h19q74 0 128 2t126 12v-2l-188 -300q-85 -140 -147.5 -255.5t-100 -201.5t-48.5 -138l-2 -10q-2 -8 -3 -14t-1 -19q0 -47 27 -74.5t86 -27.5q39 0 67.5 10t49 25.5t32 32t13.5 26.5l2 15q-2 10 -3 17t-1 17q0 2 4 23 v2q0 4 2 6v-2q10 49 69.5 178t196.5 346q90 137 175 241l128 157q18 23 28.5 39t12.5 18v-4q2 10 2 33q0 41 -14 64.5t-35.5 34.5t-46.5 14t-45 3l-12 -49l-30 4q-30 4 -74 7.5t-95 6.5t-94 3q-68 0 -113 1t-73.5 2t-46 2t-25.5 1h-27q-96 -10 -140 -46t-50 -67q0 -4 -1 -9 t-1 -7z" />
<glyph unicode="8" horiz-adv-x="999" d="M96 227q0 -104 93.5 -165.5t252.5 -61.5q70 0 143.5 12.5t135 39t104.5 68.5t56 101v12q2 6 3 14.5t1 20.5q0 31 -11.5 64t-33 71.5t-54.5 85.5l-77 109l-7 8q33 23 90 68l114 94q58 49 105.5 94t63.5 70h-2q31 49 50.5 86t23.5 72q2 6 2 14v18q0 31 -13.5 63t-39 57.5 t-65.5 41.5t-95 16q-59 0 -130 -12t-138.5 -29.5t-125 -39t-93.5 -39.5q-166 -84 -193 -234v2q-4 -12 -4 -26v-29q0 -66 28.5 -134.5t90.5 -140.5q-129 -106 -191.5 -187t-79.5 -161q-2 -10 -3 -21.5t-1 -21.5zM344 258q0 8 2 14q8 35 46 82t110 101q113 -127 112 -179v-6 q-6 -27 -32 -39q-47 -25 -101 -24q-137 0 -137 51zM498 932q4 23 37.5 49.5t86 49t117 37.5t129.5 17h6q39 0 39 -22q0 -2 -1 -3t-1 -3v2q-4 -25 -34.5 -57.5t-67.5 -63.5t-71 -54l-46 -32l-91 -61q-22 -14 -28 -17q-43 43 -58 91.5t-17 66.5z" />
<glyph unicode="9" horiz-adv-x="1021" d="M160 631q0 -113 73.5 -181.5t186.5 -68.5q86 0 181 35t183 82l-102 -432q18 -66 113 -66q43 0 88 19.5t55 68.5q2 47 7 85t16 87q20 104 48.5 209.5t62.5 205t71 189.5t74 164q20 37 31 59l19 36q7 13 9 20l4 12v14q0 33 -24.5 71t-51.5 52l-67 15q-49 10 -103 10 q-100 0 -182 -17.5t-145.5 -41t-105.5 -48t-62 -39.5l-7 -3q-6 -3 -14 -5q-106 -70 -172.5 -141.5t-104.5 -136t-53.5 -115.5t-21.5 -79.5t-6 -59.5zM418 670q0 8 2 14q12 68 58 135.5t107.5 122.5t130 90t126.5 35q35 0 59.5 -16.5t24.5 -51.5v-10q-10 -53 -51 -120.5 t-100.5 -126t-133.5 -98.5t-147 -40q-35 0 -55.5 18.5t-20.5 47.5z" />
<glyph unicode=":" horiz-adv-x="356" d="M84 88q0 -51 25.5 -87t78.5 -36q78 0 125 55.5t70 126.5v3q12 37 12 67q0 49 -25.5 80t-78.5 31q-39 0 -73 -17.5t-59.5 -44t-43 -60.5t-25.5 -65q-6 -22 -6 -53zM219 618q0 -51 26.5 -86.5t80.5 -35.5q76 0 124 55t70 127l2 2q8 31 8 70q0 51 -23.5 79.5t-76.5 28.5 q-41 0 -74.5 -17.5t-60.5 -44t-44.5 -59t-25.5 -65.5q-6 -23 -6 -54z" />
<glyph unicode=";" horiz-adv-x="366" d="M-43 -168q0 -45 25.5 -59.5t60.5 -14.5q55 0 111.5 30t103.5 76t82 101t47 105q10 29 13 50t3 40q0 57 -30.5 89t-102.5 32q-43 0 -76.5 -18.5t-59 -46.5t-42 -57.5t-22.5 -54.5v2q-4 -10 -6.5 -21t-2.5 -22q0 -37 18.5 -60t47.5 -30q-14 -8 -28.5 -12t-26.5 -8 q-35 -10 -66 -25.5t-41 -56.5q-4 -10 -6 -21.5t-2 -17.5zM231 627q0 -51 27 -88t82 -37q39 0 70.5 15t57.5 41t43 59.5t30 68.5l2 2q4 18 6 35.5t2 36.5q0 51 -25.5 80.5t-79.5 29.5q-41 0 -74.5 -17t-61 -45t-46 -61.5t-26.5 -64.5q-7 -24 -7 -55z" />
<glyph unicode="&#x3c;" horiz-adv-x="1009" d="M244 453q0 -25 13 -50.5t38 -44.5l424 -342q12 -23 33.5 -32t44.5 -9q47 0 96 35t63 86q8 25 9 43q0 43 -25 56.5t-53 17.5l-307 240l458 211q37 2 69 28.5t48 83.5l2 2q2 8 3 14.5t1 16.5q0 45 -31.5 72.5t-76.5 27.5q-31 0 -61.5 -15t-55.5 -44l-586 -266 q-47 -20 -71.5 -50t-32.5 -61q0 -4 -1 -10t-1 -10z" />
<glyph unicode="=" horiz-adv-x="1136" d="M217 385q0 -41 21.5 -68.5t72.5 -27.5q35 0 82 20h563q18 -8 29.5 -9t22.5 -1h4q39 0 70.5 15.5t54 40t36 53t13.5 55.5q0 41 -25.5 67.5t-81.5 26.5q-33 0 -43 -2t-26 -14h-570q-16 10 -32.5 11t-32.5 1q-35 0 -64.5 -16.5t-50 -41t-32 -54t-11.5 -56.5zM324 758 q0 -39 23.5 -67.5t70.5 -28.5q45 0 76 18h565q16 -10 31.5 -11t31.5 -1q61 0 99.5 31.5t54.5 84.5q8 25 8 45q0 41 -22.5 70t-69.5 29h-27q-10 0 -17 -2t-14.5 -6.5t-19.5 -10.5h-567q-20 12 -39 14.5t-27 2.5q-37 0 -65.5 -16.5t-49 -41t-31.5 -54t-11 -56.5z" />
<glyph unicode="&#x3e;" horiz-adv-x="1011" d="M150 80q0 -51 34.5 -81t79.5 -30q29 0 54.5 12.5t43.5 34.5l633 353q35 18 60.5 55t25.5 72q0 51 -49 84l-438 268q-10 23 -34.5 44t-53.5 21q-37 0 -68.5 -15t-56.5 -37.5t-38 -51.5t-13 -55q0 -31 18.5 -55.5t52.5 -34.5l334 -201l-459 -246q-14 0 -31.5 -4 t-33.5 -14.5t-31.5 -28.5t-23.5 -51v2q-4 -12 -5 -21.5t-1 -19.5z" />
<glyph unicode="?" horiz-adv-x="1024" d="M233 53q0 -59 40 -84.5t92 -25.5q61 0 108 41t78 112h2q0 4 4 13q4 12 9 24t9 29l-8 -4v14q0 45 -22.5 72.5t-75.5 27.5q-78 0 -138.5 -34.5t-88.5 -137.5q-9 -24 -9 -47zM303 430q0 -51 31 -78.5t108 -27.5q35 0 55.5 28.5t47.5 77.5l44 76q26 43 65.5 89t99 92 t143.5 89h-2q51 25 101.5 59.5t93.5 77.5t73.5 91.5t44.5 101.5h-2q6 20 8.5 35.5t2.5 29.5q0 49 -21.5 90.5t-57.5 72t-84 47t-104 16.5q-63 0 -128.5 -19.5t-129 -50.5t-123.5 -69l-112 -74q-49 -35 -91 -80t-55 -90q-4 -12 -6 -23.5t-2 -27.5q0 -45 23.5 -68t62.5 -23 q41 0 96.5 29t118.5 92q80 66 156 114t139 48q29 0 50.5 -7t21.5 -18v-8q-10 -35 -78 -85t-160 -109l-129 -88q-66 -45 -123 -94.5t-99 -102.5t-60 -111q-2 -8 -5 -8l-2 -8l-4 -21q-2 -11 -4 -28q-4 -21 -4 -37z" />
<glyph unicode="@" horiz-adv-x="1591" d="M162 276q0 -72 21.5 -133t68.5 -105t125 -68.5t190 -24.5q51 0 99.5 8t87.5 19.5t66.5 21.5t39.5 16q2 2 4 2t4 2q31 2 59.5 18.5t49 39t33 48t12.5 50.5q0 37 -25.5 64.5t-85.5 27.5q-41 0 -61.5 -16.5t-46.5 -44.5q0 2 -10 -15q-35 -18 -55.5 -27t-38 -13.5t-38 -5.5 t-55.5 -1q-129 0 -176 51.5t-47 124.5q0 35 5 69t15 65q18 68 62.5 148.5t111 163.5t152.5 160.5t188.5 138t220 97.5t246.5 37q63 0 106.5 -16.5t69 -45t36 -65.5t10.5 -80q0 -39 -7.5 -76t-17.5 -73q-27 -98 -66.5 -175t-80.5 -132.5t-80 -87t-66 -37.5q4 4 6 13t6 17 l187 539q8 10 14 29.5t6 35.5q0 31 -19.5 58.5t-68.5 27.5h-4q-20 0 -49 -13t-49 -36q-12 2 -19 2h-22q-80 0 -162 -28.5t-159.5 -76.5t-147.5 -110.5t-126 -131t-97 -138.5t-58 -129q-14 -41 -14 -80q0 -66 42 -104.5t144 -38.5q45 0 95.5 18.5t101.5 48t100 67.5l95 77 q-18 -74 -19 -127q0 -137 131 -138q72 0 158 45.5t169 128t152.5 199.5t110.5 260q14 51 22.5 102.5t8.5 96.5q0 78 -23.5 144.5t-76 115.5t-137.5 76.5t-208 27.5q-125 0 -252 -35.5t-247.5 -98t-230 -148.5t-200 -186.5t-157 -210t-96.5 -222.5q-16 -57 -24.5 -108.5 t-8.5 -98.5zM750 459q0 8 2 12q12 47 64 117.5t123 137.5t150.5 115t149.5 48h8v-4q-6 -20 -34.5 -60.5t-71.5 -88.5t-95.5 -98t-103.5 -91t-97 -66.5t-79 -25.5q-16 0 -16 4z" />
<glyph unicode="A" horiz-adv-x="1163" d="M29 59q0 -35 21.5 -59.5t80.5 -28.5h8q49 0 91 51.5t92 127.5l-3 -3l248 359l40 -4l98 -10q57 -6 118.5 -11.5t104.5 -7.5q4 -18 8 -33.5t8 -27.5l-2 2l13 -58l8.5 -40t5.5 -32.5t6 -35.5q6 -35 17.5 -82t25.5 -90t29.5 -74t27.5 -31h15q84 0 117.5 56.5t33.5 134.5v24 q-6 70 -22.5 169.5t-36.5 209.5l-31.5 172t-28 172t-21.5 160t-11 135v21q0 66 -28 106.5t-75 40.5q-37 0 -80 -31.5t-86 -105.5l2 2l-727 -1026q-8 -10 -19 -26.5t-22.5 -37t-18.5 -44.5t-7 -44zM688 686l184 275q4 -63 10.5 -135t16.5 -126z" />
<glyph unicode="B" horiz-adv-x="1196" d="M137 35q0 -35 14.5 -56.5t51.5 -21.5q88 0 199.5 19.5t229.5 56.5t233.5 90t213 122.5t168 153.5t96.5 183q14 43 15 80q0 82 -52.5 141t-156.5 78q98 59 147.5 124.5t69.5 137.5q8 18 8 45q0 72 -67.5 120t-206.5 48q-135 0 -261 -25.5t-237 -52.5h2l-49 -12 q-20 -4 -44 -15.5t-43 -31t-32.5 -46t-13.5 -63.5v-4l-236 -870v2l-32 -109q-17 -55 -17 -94zM418 203l119 424q104 23 191 36t163 13q35 0 72.5 -1t70.5 -7t53.5 -17.5t20.5 -29.5l-4 -17h2q-23 -80 -99.5 -146.5t-178 -117.5t-211 -87t-199.5 -50zM600 856l49 176 q88 47 190.5 70.5t213.5 23.5h39q18 0 18 -2l-2 -2q-12 -47 -63.5 -90t-125 -78.5t-158.5 -60.5t-161 -37z" />
<glyph unicode="C" horiz-adv-x="1120" d="M176 315q0 -82 20.5 -150.5t61.5 -118.5t102.5 -77.5t143.5 -27.5q92 0 187 30.5t181 78.5t159 108.5t120 120.5l-2 -3q43 49 43 89q0 37 -25.5 56t-66.5 19q-43 0 -97.5 -23.5t-97.5 -74.5q-18 -27 -57 -56.5t-85 -55t-94 -42t-89 -16.5q-84 0 -117 51t-33 125 q0 80 25 166q33 117 92 231.5t137 204.5t167 145.5t179 55.5q53 0 79 -6t36 -17q12 -16 23.5 -29.5t21.5 -23.5q49 -66 76 -65q33 0 62.5 13t52 35.5t36 51.5t13.5 59q0 23 -9.5 44.5t-25.5 41.5q-66 76 -151 102.5t-185 26.5q-131 0 -263 -71.5t-247 -190t-205 -273.5 t-135 -319q-16 -57 -24.5 -111.5t-8.5 -103.5z" />
<glyph unicode="D" horiz-adv-x="1183" d="M152 66q0 -43 18 -69t70 -26q55 0 150 20.5t211 65.5t240 116t236.5 170t201.5 231.5t136 297.5q25 86 25 156q0 72 -21.5 135.5t-67.5 111.5t-116 75.5t-166 27.5q-139 0 -234.5 -24.5t-179.5 -50.5q-18 -6 -35.5 -10.5t-35.5 -10.5h2q-80 -29 -123 -91.5t-43 -125.5 l-230 -817q-4 -10 -7 -22.5t-7 -22.5q-10 -35 -17 -69.5t-7 -67.5zM430 240l229 819q66 33 154 61.5t188 28.5q98 0 139.5 -50t41.5 -120q0 -20 -4 -44t-11 -48l2 2q-41 -145 -127 -256t-191.5 -189.5t-217 -128.5t-203.5 -75z" />
<glyph unicode="E" horiz-adv-x="1036" d="M143 74q0 -45 29 -72t100 -27h19q10 0 18 2h-2l619 46q51 0 84.5 10t54 25.5t31 35t14.5 37.5l-2 -4q4 14 5 23.5t1 19.5q0 49 -31.5 67.5t-93.5 18.5h-31l-536 -45l90 336l432 47q10 2 21.5 3t21.5 1q47 0 90 18.5t64 85.5v3q10 25 10 36q0 35 -27.5 61.5t-107.5 26.5 h-51l-385 -49l75 271l473 30q10 0 20.5 1t20.5 1q45 2 77 4.5t54.5 13.5t39 32.5t28.5 62.5v-2q4 14 5 23.5t1 15.5q0 53 -35.5 70.5t-89.5 17.5q-18 0 -36.5 -1t-36.5 -3h2q-6 0 -14.5 -1t-16.5 -1q-176 -12 -274.5 -17.5t-155.5 -5.5h-133q-41 0 -72 -16t-51.5 -39 t-31.5 -49.5t-13 -46.5l-9 -41q-5 -23 -14 -51l-46 -198q-28 -118 -68 -271l-91 -334q-4 -10 -6 -19.5t-6 -19.5v2q-14 -39 -23.5 -72.5t-9.5 -62.5z" />
<glyph unicode="F" horiz-adv-x="946" d="M127 51q0 -43 19.5 -60.5t60.5 -17.5h14q8 0 19 2q39 4 64.5 14.5t41.5 30t29.5 50t27.5 75.5l119 400l441 67h-2q63 4 99 12.5t54.5 24t25.5 36.5l17 52v-2q8 16 8 39q0 51 -40 67.5t-93 16.5q-37 0 -70.5 -3t-58.5 -7q-6 -2 -16 -2l-299 -45l74 268l493 35 q90 8 128 34.5t54 86.5l2 8v14q0 61 -31.5 84t-101.5 23q-10 0 -19 -1t-20 -1l-227 -21q-88 -8 -142 -14l-83 -9q-29 -3 -45 -5q-8 -2 -17 -3q-6 0 -16 -2h2q-61 -6 -102 -16t-66 -27.5t-35 -45t-10 -68.5v-33q-23 -80 -37 -136.5t-27 -98.5l-21 -74l-17 -64v2 q-10 -29 -17.5 -59.5t-19.5 -71.5l-137 -444q-23 -78 -23 -111z" />
<glyph unicode="G" horiz-adv-x="1415" d="M172 313q0 -78 21.5 -145.5t69.5 -118.5t126 -79.5t189 -28.5q180 0 350 70.5t308 185t236.5 258t139.5 290.5h2q2 4 3 11.5t1 19.5q0 45 -33 66.5t-86 21.5q-37 0 -74 -14h2q-23 -6 -32 -9l-45 -14l-90 -27l-103 -30l-94 -26q-43 -11 -68 -15h4q-49 -4 -84.5 -23.5 t-60.5 -46t-37 -55.5t-12 -53q0 -33 15.5 -54.5t51.5 -21.5h13q6 0 16 4l-4 -2q66 16 127 34l123 36l73 20l74 21q-49 -72 -116.5 -146.5t-151.5 -134t-185.5 -97.5t-213.5 -38q-102 0 -148.5 61.5t-46.5 149.5q0 29 5 58.5t16 64.5h-2q31 117 116.5 231.5t198.5 206.5 t238.5 149.5t236.5 57.5h25q47 -2 74.5 -8t41 -15.5t18.5 -20.5t7 -22l-2 2q6 -29 22.5 -49t75.5 -20q10 0 21.5 1t23.5 3q49 6 76 43t27 90v31q-18 84 -102.5 141t-231.5 57q-96 0 -206 -27.5t-220.5 -79.5t-218 -127t-199.5 -171t-161.5 -211t-104.5 -246 q-35 -115 -35 -209z" />
<glyph unicode="H" horiz-adv-x="1206" d="M127 68q0 -41 22.5 -63.5t75.5 -33.5q4 0 10.5 -1t10.5 -1q41 0 80 37t57 115l-2 -2l127 456l555 19l-107 -391v4q-6 -18 -8 -34.5t-2 -33.5q0 -51 26.5 -82.5t82.5 -31.5h10q37 2 62.5 17t43 37.5t26.5 50.5t15 52q4 16 6.5 29.5t6.5 26.5h-2l278 1003q8 27 14.5 51.5 t6.5 42.5q0 35 -20.5 57.5t-74.5 22.5q-49 0 -78.5 -11t-48 -31.5t-29.5 -46.5l-22 -52l-116 -445l-564 -22l101 354v-2q4 16 9 39t5 45q0 37 -16.5 64.5t-65.5 33.5h-18q-31 0 -56.5 -12t-45 -31.5t-32 -44t-18.5 -47.5l-15 -56l-20 -77l-36 -125l-39 -137l-39 -139 l-35 -129l-107 -391q-6 -23 -10 -43.5t-4 -40.5z" />
<glyph unicode="I" horiz-adv-x="407" d="M131 68q0 -39 20.5 -66t69.5 -31q4 0 10.5 -1t10.5 -1q59 0 84.5 42t46.5 108q0 4 1 7t-1 -1l2 6l268 1006l4 12l4 12h-2l17 53q8 27 8 48q0 35 -17.5 56t-62.5 21q-49 0 -79 -10t-48 -31.5t-28.5 -52.5t-18.5 -74l2 3l-272 -1022v4q-10 -23 -14.5 -45.5t-4.5 -42.5z" />
<glyph unicode="J" horiz-adv-x="1017" d="M72 166q0 -51 19.5 -98.5t61.5 -84t109.5 -58t165.5 -21.5q111 0 211 36.5t182 99t139.5 145.5t83.5 173l222 787v-2q2 4 2 8t2 8q8 29 14 55.5t6 47.5q0 37 -19.5 58t-72.5 21q-47 0 -76.5 -18t-48 -46t-30 -59.5t-17.5 -56.5l-223 -788q-10 -41 -43 -87t-80 -86 t-108.5 -65.5t-129.5 -25.5q-37 0 -57 3t-30.5 11t-15.5 21.5t-7 31.5q2 16 5 25.5t7 19.5q4 29 11 54.5t7 46.5q0 39 -19 65.5t-79 26.5h-28q-16 0 -37 -7.5t-42.5 -24.5t-40 -47t-30.5 -77h2q-16 -53 -16 -92z" />
<glyph unicode="K" horiz-adv-x="1073" d="M141 57q0 -53 23.5 -71.5t71.5 -18.5q25 0 50 7.5t47.5 26.5t40 53t25.5 87l-2 -4l123 436l346 -532q27 -43 48.5 -62.5t50.5 -19.5q4 0 10 1t14 5q66 18 95.5 47t29.5 68q0 23 -8 44t-23 44l-2 2l-372 565l487 348q66 35 93.5 72t27.5 72q0 39 -30 64.5t-73 25.5 q-27 0 -54 -11.5t-56 -37.5l2 2l-492 -357l82 271l7.5 37.5t3.5 38.5q0 41 -20.5 64.5t-84.5 23.5q-53 -2 -94 -49.5t-59 -112.5l-293 -1036l-10.5 -51t-4.5 -42z" />
<glyph unicode="L" horiz-adv-x="843" d="M133 47q0 -41 17.5 -70.5t60.5 -29.5q4 0 8 1t8 1l541 74q76 12 118 47.5t42 72.5q0 2 -1 3t-1 4q2 6 3 10t1 16q0 80 -107 80h-32q-14 0 -33 -4l-350 -47l264 966q8 29 12 51.5t4 41.5q0 45 -20.5 63.5t-67.5 18.5q-43 0 -70.5 -11.5t-45 -33t-29 -51t-19.5 -66.5h2 l-284 -1034q-10 -23 -17 -58q-2 -10 -3 -20.5t-1 -24.5z" />
<glyph unicode="M" horiz-adv-x="1531" d="M150 82q0 -57 26.5 -82t69.5 -29h10q29 0 53.5 17.5t45 43t33.5 54.5t18 49l-3 -2l166 588q6 -31 13.5 -60.5l15.5 -58.5q16 -59 30.5 -119.5t26.5 -120.5q6 -33 10.5 -51l7.5 -30l6 -24q3 -11 9 -26l-2 2q2 -6 4 -13t6 -17l-2 4q4 -29 39 -55.5t86 -26.5q33 0 69 15.5 t70 56.5q18 18 28.5 30.5l19.5 23.5l14 20q6 9 12 20q16 25 60 82q18 25 55 65l83 93l98 111l106 118l-183 -625v4q-10 -20 -13 -40.5t-3 -37.5q0 -37 20.5 -61.5t71.5 -28.5h12q76 0 114 51.5t46 114.5l-2 -4l299 1059q2 12 3 22.5t1 24.5q0 55 -25.5 75.5t-78.5 28.5h-8 q-16 0 -40 -14t-51.5 -38.5t-58.5 -56.5t-57 -65l-282 -339l-175 -205l-38 -42q-17 -19 -30 -36q-23 -25 -37 -47.5t-26 -38.5q0 -2 -2 -2q0 4 -1 7t-1 7q-12 70 -28.5 148.5t-33.5 148.5q-14 59 -22 101t-8 51q-10 55 -26.5 105t-33 90t-32 66.5t-23.5 35.5l47 -5 q-10 68 -43 102t-76 34q-39 0 -74.5 -33t-56.5 -98l-325 -1092q-2 -10 -3 -20.5t-1 -24.5z" />
<glyph unicode="N" horiz-adv-x="1282" d="M133 63q0 -94 109 -94h16q63 6 99 52.5t36 97.5v6l199 709q8 -25 24 -50l86 -168t66 -149q14 -39 40 -95l54 -116l57 -115l46 -92l6 -12l-2 2q4 -10 11 -21.5t20.5 -20.5t37 -15.5t60.5 -6.5q31 0 53.5 14.5t38.5 36t28.5 46t18.5 45.5l301 1071q6 29 10 51.5t4 38.5 q0 45 -22.5 64.5t-81.5 19.5q-41 0 -67.5 -14.5t-42 -36t-23.5 -47l-15 -47.5l-221 -789l-24 44q-12 22 -15 30q-25 43 -45 84l-40 84l-40 89l-43 101l-42 96l-48 111l-10 17l-4 8q-6 10 -12 27.5t-21 72.5q-6 20 -17 46t-27.5 48.5t-38 37.5t-48.5 15q-29 0 -51.5 -6 t-40.5 -23.5t-34.5 -49t-33.5 -82.5l-292 -1035v2q-19 -49 -19 -82z" />
<glyph unicode="O" d="M176 311q0 -178 91 -275t272 -97q137 0 277 62t262 170t216.5 251t141.5 307q20 76 32.5 148.5t12.5 138.5q0 78 -18.5 145.5t-60.5 116.5t-109.5 77.5t-168.5 28.5q-100 0 -201.5 -39.5t-195.5 -107.5t-179 -154t-152.5 -179t-115 -184t-67.5 -167q-37 -142 -37 -242z M422 354q0 41 8 86t23 97q25 84 89 190.5t151 201.5t186.5 159.5t195.5 64.5q90 0 126 -54.5t36 -133.5q0 -53 -11.5 -109.5t-27.5 -110.5q-33 -117 -96.5 -221t-146.5 -183t-178 -125t-189 -46q-86 0 -126 49t-40 135z" />
<glyph unicode="P" horiz-adv-x="1079" d="M139 61q0 -39 19.5 -63.5t70.5 -24.5h7q39 2 68.5 18.5t51 40t32.5 50.5t11 51v8l109 383q78 12 168 39t181 65t177 86t158 104t123 119.5t71 133.5h3q12 45 12 90q0 53 -19.5 88t-52.5 56.5t-76 29.5t-90 8q-209 0 -348 -19t-225 -36q-63 -12 -101 -58t-55 -102v2 l-9 -28l-9 -31l-38 -132q-19 -67 -30 -112l2 2l-188 -667v2q-8 -23 -15.5 -50.5t-7.5 -52.5zM575 764l78 307q43 10 95.5 17.5t108.5 12.5t112.5 8t105.5 3q25 0 48.5 -2t23.5 -12q0 -4 -2 -13h2q-14 -47 -72.5 -95t-141.5 -91t-177.5 -79t-180.5 -56z" />
<glyph unicode="Q" horiz-adv-x="1290" d="M162 268q0 -150 77.5 -238.5t260.5 -88.5q117 0 233.5 38.5t231.5 110.5q10 -10 20 -23.5t23 -25.5q23 -25 43 -50.5t34 -58.5q41 -20 71 -30.5t56 -10.5q45 0 77 26t61 79l-25 -4l31 22q-20 35 -38 55l-34 37l-22 23v-2l-13 12q-6 6 -12 15q-31 33 -72 92 q117 117 205 259t135 308q33 104 33 201q0 80 -21.5 148.5t-63.5 118.5t-103.5 77.5t-143.5 27.5q-100 0 -206.5 -38.5t-210 -105t-198.5 -156t-174 -187.5t-136.5 -201.5t-83.5 -199.5q-18 -66 -26.5 -123.5t-8.5 -106.5zM410 317q0 39 7 80t19 84q29 104 104.5 222 t176 217.5t216.5 165t224 65.5q72 0 102.5 -49t30.5 -121q0 -37 -7 -75t-17 -79q-31 -113 -90.5 -213t-137.5 -186l-41 54q-18 26 -34 44v-2q-10 14 -12.5 16.5t-2.5 4.5q-25 27 -63 26q-25 0 -48.5 -11t-42 -29.5t-29.5 -43t-11 -51.5q0 -14 5 -32.5t21 -38.5 q16 -8 32.5 -33t37.5 -62q-72 -45 -147.5 -70.5t-153.5 -25.5t-108.5 38.5t-30.5 104.5z" />
<glyph unicode="R" horiz-adv-x="1095" d="M141 57q0 -43 18.5 -64.5t65.5 -21.5h4q43 0 71 13.5t46.5 35t29.5 50.5l21 57l99 358l385 -452q29 -33 63.5 -48.5t71.5 -15.5q49 0 92 31t59 90l-12 4q-4 35 -25.5 61.5t-50.5 49.5l-354 399q98 27 196.5 68t181.5 97t144.5 128t85.5 158q10 29 13.5 51t3.5 45 q0 190 -269 190q-170 0 -282.5 -7t-190.5 -19q-74 -10 -116.5 -65.5t-59.5 -127.5h2l-8 -28q-4 -14 -8 -31l-32 -128l-28 -124l2 2l-204 -659q-15 -56 -15 -97zM580 778l86 314q45 10 113.5 17t138.5 7q59 0 112 -6q57 -8 60 -27l-5 -12q-12 -47 -65 -93t-127 -85 t-157.5 -70t-155.5 -45z" />
<glyph unicode="S" horiz-adv-x="1232" d="M127 203q0 -49 18.5 -96.5t57.5 -84t99 -59t147 -22.5q117 0 261 38.5t278 118.5t242.5 203t155.5 293q14 51 15 94q0 68 -30 111t-72 67.5t-88 33.5t-78 9q-115 0 -218.5 -27.5t-187.5 -52.5q-47 -16 -85 -26t-62 -10q-14 0 -25.5 6t-11.5 22q0 6 -2 6q12 41 55 96.5 t107.5 104.5t149.5 84t181 35q41 0 57.5 -8.5t26.5 -14.5l4 -4q12 -12 22.5 -21t18.5 -18q18 -20 36 -28.5t75 -8.5q25 0 47 12.5t39.5 30t28 36t14.5 32.5q2 8 3 14.5t1 18.5q0 41 -25.5 76.5t-69.5 61.5t-103.5 41t-125.5 15q-123 0 -250.5 -46t-238.5 -123.5t-194 -180 t-115 -215.5l-7.5 -44t-3.5 -44q0 -55 20.5 -92t54.5 -57.5t76 -28.5t83 -8q53 0 120.5 16t143.5 39q78 23 156 41t149 18q25 0 41.5 -7t16.5 -29q0 -10 -1 -19.5t-4 -19.5q-31 -111 -108.5 -187t-169.5 -123t-180 -67.5t-137 -20.5q-41 0 -66 8.5t-39 19.5t-20.5 25.5 t-8.5 26.5h2q-12 47 -31.5 88t-72.5 41q-70 0 -107.5 -35.5t-54.5 -85.5q-6 -18 -8 -35.5t-2 -33.5z" />
<glyph unicode="T" horiz-adv-x="966" d="M322 1090q0 -39 27.5 -62.5t92.5 -23.5q20 0 33.5 1t28.5 3l184 36l-250 -907q-2 -8 -4 -14t-4 -14q-12 -35 -12 -62q0 -35 20.5 -55.5t77.5 -20.5q39 0 63.5 8.5t41 26t29 45t24.5 68.5l270 971l266 49q51 12 85 23.5t54.5 25.5t32 30.5t17.5 38.5l2 7q2 10 3 16t1 18 q0 43 -25.5 67t-70.5 24q-12 0 -19.5 -1.5t-15.5 -3.5l-104 -18l-95 -16l-95 -18q-48 -9 -103 -21q-70 -12 -153 -29l-200 -39q-4 -2 -11 -3t-11 -3l2 2l-57 -16q-28 -8 -52 -21.5t-42.5 -33t-26.5 -48.5q-2 -6 -3 -12t-1 -18z" />
<glyph unicode="U" horiz-adv-x="1193" d="M176 170q0 -102 82 -166.5t264 -64.5q127 0 245 36.5t212 95t157.5 133.5t86.5 152l223 799q6 10 17.5 38t11.5 56q0 35 -20.5 62.5t-80.5 27.5q-45 0 -73.5 -14t-46 -36.5t-26.5 -52.5t-16 -62l2 2l-243 -811q-10 -33 -48 -67t-96.5 -61.5t-133.5 -46t-156 -18.5 q-45 0 -77 14.5t-32 40.5l4 17h-2l270 960q4 12 5 21v14q0 35 -19.5 67.5t-81.5 32.5q-39 0 -63.5 -11t-41 -27.5t-25.5 -38.5l-17 -43l-267 -961q-14 -43 -14 -88z" />
<glyph unicode="V" horiz-adv-x="1007" d="M303 223q0 -68 5 -123t22 -88q31 -53 78 -53q33 0 69.5 27.5t79.5 93.5q20 37 63 97l91 130l101 140l93 126q23 29 39.5 53.5l28.5 41.5l32 45q13 18 30 39l42 49l68 78q14 14 27.5 30.5t29.5 32.5l54 63q19 22 28 31q10 12 15 17l20 16l55 92q10 35 10 49 q0 45 -26.5 66.5t-65.5 21.5q-33 0 -69.5 -17t-71.5 -54v2q-23 -23 -50 -59l-79 -101v2l-57 -67l-30.5 -38.5t-13.5 -20.5t-8 -15q-4 -6 -11 -19.5t-30 -46.5v2l-37 -50l-60 -76l-72 -88l-70 -89v2l-35 -43l-31 -39v74q0 41 1 77t2 59.5t1 25.5q4 70 5.5 100.5t3.5 50.5 q0 12 1 24.5t3 31t3 47t1 74.5q0 12 1 28.5t3 36.5q2 23 3 44.5t1 37.5v8q0 59 -34 88t-79 29q-41 0 -81 -24.5t-54 -73.5q-4 -12 -8 -33q0 -4 -1 -6t-1 -4v2q-2 -6 -2 -15q0 -6 -2 -12q-6 -29 -11.5 -61.5t-5.5 -55.5v-6q-4 -117 -6 -215q-2 -66 -3 -119t-1 -88v-73 q0 -25 -1 -71t-1 -93q-2 -39 -2 -76v-72z" />
<glyph unicode="W" horiz-adv-x="1505" d="M227 84q0 -68 19.5 -90.5t60.5 -22.5q4 0 11.5 1t11.5 1q25 2 41 5.5t34.5 16.5t43.5 44l65 86q10 12 54 74l103 147l124 183l118 182q0 -92 3.5 -189.5t7.5 -182.5t9 -146.5t9 -79.5q14 -53 26.5 -84t25 -46.5t24.5 -20.5t26 -5h23q39 0 80 28.5t90 114.5v-2l62 106 l100 163l138 230l144 244l128 227q58 108 92 179l-3 6q4 20 5 37q0 33 -21.5 60.5t-85.5 27.5q-31 0 -55.5 -13t-44 -34.5t-36.5 -49.5l-36 -56h2q-12 -18 -56 -89l-108 -175l-138 -231l-148 -255v178q0 102 -1 194.5t-2.5 158t-3.5 71.5v64q0 27 -2 53.5t-8 48t-18.5 34.5 t-30.5 13q-33 0 -54.5 -3t-43 -22.5t-49 -60.5t-74.5 -117q-10 -14 -31 -49l-51 -84l-64 -102l-71 -114l-74 -117l-72 -113q10 160 23.5 318.5t25.5 273.5q0 4 1.5 9t1.5 9q2 16 3 41t9 72q-16 70 -44 89t-73 19q-78 0 -109.5 -32.5t-44.5 -96.5q-35 -180 -46 -354t-17 -307 q-2 -33 -3 -61.5t-1 -53.5q-4 -51 -8 -109.5t-8 -107.5q-6 -59 -7 -86v4q-2 -12 -2 -26v-25z" />
<glyph unicode="X" horiz-adv-x="937" d="M31 51q8 -43 37.5 -63.5t68.5 -20.5q35 0 71 15.5t66 46.5l68 75l57 70l77 96l126 158l20 -79l23 -94q12 -48 26.5 -93t28.5 -78q4 -41 37 -72.5t86 -31.5q29 0 65 16t77 57l-11 64q4 8 4 26q0 16 -4 25.5l-8 19.5l-6 13l2 -2q-23 45 -35 74.5t-23.5 76.5t-24.5 126 l-38 222l46 46l110 111l132 131l114 110q31 33 59.5 81t28.5 89q0 29 -14.5 48t-49.5 27q-12 2 -20 4.5t-13 2.5q-47 0 -76.5 -24l-62.5 -52l-6 -6l-48 -54l-65 -71l-70 -79l-66 -75l-51 -58q-22 -24 -26 -30q2 6 -3 28l-12 52q-7 31 -17 69l-21 76h2l-19 72l-18 64 q-2 4 -2 8q0 6 -2 10l2 -2q-8 39 -24.5 65.5t-73.5 26.5t-93 -27.5t-52 -68.5q-4 -12 -4 -23v-18q0 -35 6 -63.5t10 -41.5v2q2 -14 16 -70l32 -126l35 -138q17 -69 27 -106l-158 -199l-91 -114q-35 -43 -62 -72l-67 -74v2l-2 -3l-11 -15q-12 -12 -31.5 -33.5t-37 -44 t-29.5 -43t-12 -33.5v-8z" />
<glyph unicode="Y" horiz-adv-x="1191" d="M354 1212q0 -43 35 -100l277 -477l-134 -473q-18 -59 -18 -96q0 -41 18.5 -66t59.5 -25h10q41 2 69.5 17.5t47 37t30 49t19.5 56.5l137 488l596 489q43 43 59.5 72.5t16.5 52.5t-13.5 38t-33.5 30l6 -2q-2 2 -5 4l-3 2q-27 16 -51 16q-27 0 -54.5 -13.5t-56.5 -35.5h2 q-6 -6 -22.5 -13.5t-40.5 -21.5l-451 -375l-221 328l4 -4q-33 68 -61.5 114t-65.5 46h-10q-25 -6 -50.5 -16.5t-47 -28t-35 -40t-13.5 -53.5z" />
<glyph unicode="Z" horiz-adv-x="1116" d="M63 63q0 -45 31 -71.5t80 -26.5h10q76 4 184 6l217 4q110 2 208 2h155h62q53 0 92 46.5t55 103.5v-4q8 16 8 37q0 39 -29.5 51t-82.5 12t-121 -6l-98 -6h-109q-47 0 -93 -1t-91 -3t-97 -6l1006 983q47 43 47 96q0 35 -23.5 60.5t-64.5 25.5h-10l-633 -37h2 q-94 -4 -149.5 -11t-86 -22.5t-44 -41t-23.5 -66.5l2 2q-4 -10 -4 -16v-13q0 -76 110 -76q31 0 69 5.5t83 13.5h-4l379 31l-977 -953q-33 -33 -46.5 -62.5t-13.5 -56.5z" />
<glyph unicode="[" horiz-adv-x="780" d="M68 -166q0 -41 20.5 -61.5t67.5 -20.5q39 0 100 12h-2l303 31h-2q59 6 81.5 35t37.5 74l2 2l7 35q3 14 3 28q0 41 -17.5 53.5t-52.5 12.5q-12 0 -25 -1t-28 -3h-18q-8 0 -19 -2l-174 -19l371 1342l195 53q18 6 40.5 10t38.5 8l40 11q15 4 24.5 13t15.5 25.5t15 45.5 q4 12 4 16v10q0 47 -37 70.5t-98 23.5h-33q-16 0 -33 -4l-197 -45q-78 -20 -139 -67t-82 -115l-391 -1483q-18 -59 -18 -90z" />
<glyph unicode="\" horiz-adv-x="768" d="M391 1217q0 -57 2 -142.5t6 -187t11.5 -211t17.5 -210.5t23.5 -190.5t29.5 -148.5q0 -18 3 -45t9.5 -53.5t16.5 -49t27 -32.5v2q35 -29 71 -29q41 0 66.5 37t25.5 123q0 41 -6 94q-23 147 -38 310t-25 306.5t-15.5 247t-5.5 131.5v45q-2 39 -5 75t-12 61.5t-25.5 41 t-47.5 15.5q-29 0 -59 -16h2q-53 -23 -62.5 -59t-9.5 -75v-40z" />
<glyph unicode="]" horiz-adv-x="782" d="M106 -184q0 -45 27 -63.5t68 -18.5q33 0 64 7l67 15h-2l149 23q16 0 37 4q37 6 65.5 13t50 19.5t37 34t25.5 58.5l449 1591l7 30q3 13 3 23q0 35 -20.5 58.5t-83.5 23.5q-18 0 -39 -3t-45 -7q-16 -4 -66.5 -11l-103.5 -14q-51 -8 -89 -26l-42 -21l26 31 q-74 -8 -109.5 -32.5t-50.5 -71.5q-6 -25 -6 -49q0 -47 28 -64.5t81 -17.5q12 0 25.5 1t27.5 3l170 22l-371 -1345l-186 -43h2q-8 -2 -17.5 -3t-17.5 -3h2q-29 -4 -52 -9.5t-43.5 -17.5t-35 -34.5t-24.5 -61.5h2q-9 -25 -9 -41z" />
<glyph unicode="^" horiz-adv-x="749" d="M627 979q0 -20 16 -35.5t57 -25.5h-2q10 -4 25 -5q23 0 46.5 13.5t59.5 48.5h-2l191 153l74 -141q16 -45 44.5 -59.5t49.5 -14.5q6 0 12 1t14 6q41 14 56.5 29.5t21.5 41.5v-2q4 10 4 25q0 10 -2 22.5t-8 26.5l-115 217q-8 35 -31.5 59.5t-62.5 24.5t-56.5 -13.5 t-33.5 -35.5l-283 -230q-6 -6 -8 -6q-23 -16 -38 -30.5t-25 -42.5l-4 -15v-12z" />
<glyph unicode="_" horiz-adv-x="911" d="M-84 -125q0 -23 19.5 -39t58.5 -16h887q53 0 81.5 29.5t28.5 60.5q0 23 -15 40t-56 17h-887q-53 0 -85 -30.5t-32 -61.5z" />
<glyph unicode="`" horiz-adv-x="917" d="M539 1208q6 -35 13 -57.5t20.5 -41.5t31.5 -38l45 -43q66 -51 76 -74q23 -41 45.5 -50t30.5 -9h6q41 16 60.5 28.5t19.5 47.5q0 25 -13 55v-2q-10 33 -26.5 71t-35.5 74.5t-43 66.5t-46 48q-61 45 -107 45q-35 0 -56 -25.5t-21 -78.5v-17z" />
<glyph unicode="a" horiz-adv-x="1021" d="M84 174q0 -41 13.5 -82t38 -74.5t58 -55t76.5 -21.5q57 0 115.5 11t116 27.5t108.5 34.5l95 35q6 2 11 4t11 4q-4 -6 -4 -14v-12q0 -31 21.5 -48.5t80.5 -17.5q127 0 152 137l2 2l154 578h-3q8 27 10.5 48.5t2.5 37.5q0 51 -17.5 83t-45 50.5t-61.5 25.5t-69 7 q-121 0 -260 -28.5t-260 -100.5l6 2q-4 -2 -9 -4t-9 -4q-29 -10 -58.5 -32t-50.5 -87v-12q0 -37 21.5 -51.5t52.5 -14.5q18 0 42 5t46.5 13.5l39.5 15.5l28 11l-2 -2l64 20l58 17q53 16 103.5 29.5t103.5 13.5q8 0 21.5 -1t13.5 -5v-8l-22 -80q-147 -6 -275.5 -33t-230 -74 t-173 -116.5t-106.5 -161.5v2q-6 -18 -8 -37t-2 -37zM309 203q0 16 2 22q10 37 59.5 71t122 60.5t160.5 47t174 32.5l-30 -110v2q-2 -4 -46 -33t-108.5 -62.5t-138.5 -60.5t-131 -27h-8q-4 0 -8.5 2.5t-14.5 2.5q-8 4 -20.5 17t-12.5 36z" />
<glyph unicode="b" horiz-adv-x="966" d="M131 43q0 -49 20.5 -76.5t71.5 -27.5q80 0 174.5 31.5t190.5 86t188 128t168 156.5t131 173t78 178q10 45 10 68q0 86 -59.5 122t-157.5 36q-92 0 -185 -24t-188 -75l113 387q6 27 6 64q0 45 -21.5 66.5t-82.5 21.5q-47 0 -77 -17.5t-49.5 -46t-31.5 -64.5t-20 -71 l-260 -1003q-8 -31 -13.5 -58.5t-5.5 -54.5zM408 197l81 307q33 41 79 74.5t97.5 57t105.5 37t101 13.5h5q4 0 8 1t10 1h10q6 0 6 -2v-2l-2 -2q-12 -51 -62 -120.5t-121 -140.5t-153.5 -131t-164.5 -93z" />
<glyph unicode="c" horiz-adv-x="888" d="M123 195q0 -51 13.5 -97.5t44 -80t79.5 -54t119 -20.5q102 0 183 20.5t142.5 51t103.5 65.5t66 61l82 74q76 88 76 145q0 35 -23.5 55.5t-76.5 20.5q-35 0 -59.5 -9t-43 -23.5t-30 -30t-19.5 -27.5h2q-4 -4 -10 -12t-4 -4q-18 -25 -53 -53.5t-79 -53t-96.5 -41 t-105.5 -16.5q-35 0 -49 22.5t-14 53.5q0 27 6 49q20 80 65 152.5t99.5 130t114 91t112.5 33.5t90 -9t47 -27q23 -16 45.5 -22.5t40.5 -6.5q53 0 93 31.5t40 80.5q0 51 -51 101q-57 49 -115.5 62.5t-144.5 13.5q-102 0 -208.5 -51.5t-200 -136.5t-165 -196.5t-102.5 -230.5 h2q-10 -31 -13 -58t-3 -54zM768 330l2 2l2 4q-2 -2 -2 -4z" />
<glyph unicode="d" horiz-adv-x="1087" d="M125 221q0 -59 21.5 -107t52 -83t67.5 -54.5t68 -19.5q102 0 177 11.5t128 26.5t89 32.5t58 29.5l13 6v-10q0 -31 3 -47t14 -24.5t30.5 -10.5t52.5 -2q86 0 114.5 41t37.5 117l32 86l248 977q8 18 14.5 39.5t6.5 44.5q0 35 -20.5 58.5t-80.5 23.5q-43 0 -69.5 -11.5 t-43 -31t-26.5 -46t-20 -57.5v2l-7 -20l-81 -311q-12 4 -26.5 5t-31.5 1q-174 0 -310 -59.5t-235.5 -143.5t-162 -176t-86.5 -158v2q-27 -65 -27 -131zM369 266v21q0 12 4 22q2 25 26 60q70 98 138.5 156.5t135 87t129 36.5t122.5 8q25 0 24 -10q0 -10 -4 -18l-31 -135v2 q-18 -76 -77.5 -135.5t-132 -101.5t-144.5 -64.5t-117 -22.5q-14 0 -26 4l2 -2q-23 14 -36 36.5t-13 55.5z" />
<glyph unicode="e" horiz-adv-x="903" d="M113 158q0 -115 66.5 -169.5t182.5 -54.5q100 0 208 33t199 79t152.5 93t69.5 76q12 37 13 59q0 66 -72 66q-25 0 -40 -1t-29.5 -4t-32.5 -11l-46 -23l-84 -52q-43 -28 -88 -51.5t-89 -38t-87 -14.5h-8q-18 0 -42 8.5t-26 53.5v35q0 10 5 24l230.5 57.5t217.5 71.5 t171 94.5t87 120.5q10 37 10 76q0 98 -66.5 157.5t-183.5 59.5q-123 0 -236.5 -54t-206.5 -141t-159.5 -198t-97.5 -221q-18 -72 -18 -131zM451 475q31 51 73.5 92t87.5 71t89 45t81 15q31 0 45.5 -10t14.5 -24q0 -2 -1 -4.5t-1 -4.5q-14 -23 -60.5 -51.5t-105 -55 t-119.5 -47t-104 -26.5z" />
<glyph unicode="f" horiz-adv-x="745" d="M215 74q0 -43 27.5 -71t70.5 -28h11q27 2 53 14.5t46.5 33t34 45t13.5 53.5l143 557l254 47q43 16 68 26.5t40 21.5t21.5 24.5t12.5 36.5l2 2q4 12 4 20v18q0 37 -18.5 58.5t-65.5 21.5q-23 0 -47 -6h4l-213 -28l12 67q2 12 11.5 42t24.5 59.5t39.5 53t59.5 23.5 q23 0 51.5 -11t40.5 -28l58 -16q23 -6 39 -6q27 0 65 16q45 25 63.5 55.5t18.5 59.5q0 37 -29 59l-50 32q-28 17 -64.5 32.5t-80.5 26t-95 10.5q-94 0 -161 -42t-114 -109.5t-77.5 -151.5t-51.5 -168l-14 -54l-37 -14l4 2q-6 -2 -13 -3t-14 -3h3q-18 -4 -35 -10t-30 -17.5 t-25.5 -32t-22.5 -53.5v2q-4 -10 -6 -21t-2 -20q0 -39 22.5 -53t55.5 -14h18q10 0 20 4l-131 -504q-6 -16 -10 -30.5t-4 -28.5z" />
<glyph unicode="g" horiz-adv-x="1017" d="M63 -285q0 -41 28 -72.5t73 -53t102.5 -33t116.5 -11.5q94 0 182 27t162 82t130 138t87 196l199 755q4 23 9 44.5t5 35.5q0 49 -35 75t-139 26q-150 0 -286 -33t-244.5 -94.5t-181 -148.5t-93.5 -193q-16 -92 -25.5 -159t-9.5 -118q0 -53 9.5 -88t26 -58.5t38 -40 t47.5 -30.5q16 -14 58 -14q33 0 81 10t105 32.5t119.5 57.5t122.5 84l-11 -38q-4 -15 -8 -28l-8 -28l-10 -35q-12 -51 -39 -93t-59.5 -70.5t-70.5 -45t-75 -16.5h-10q-41 4 -84 17t-68 36q-47 16 -63.5 20.5t-34.5 4.5h-19q-51 0 -78.5 -29t-43.5 -82l-3.5 -14.5t-1.5 -14.5 zM375 248q0 23 3 49.5t7 48.5l12 55l-2 -2q16 63 43 105.5t64 73t85 51t107 41.5l-2 -2q6 2 13.5 3t11.5 3h-2q47 10 91 17t77 7h8v-22q0 -33 -7 -75t-48 -85q-43 -57 -103.5 -116.5t-124 -108.5t-120 -81t-93.5 -32q-10 0 -15 20.5t-5 49.5z" />
<glyph unicode="h" horiz-adv-x="983" d="M137 66q0 -39 18.5 -66t67.5 -33h15q47 0 91 38t58 110v-2l90 346l102 72l99 66q47 30 88 48.5t70 18.5q10 0 10 -19q0 -18 -6 -41.5t-13 -40.5l-129 -446q-2 -6 -2 -43q0 -98 90 -109h15q49 0 79.5 32t59.5 116v2l141 538q25 86 25 133q0 74 -37 105t-113 31 q-100 0 -199.5 -40t-201.5 -104l94 367q8 29 12.5 55.5t8.5 42.5v-2q4 12 4 25v24q0 51 -21.5 62.5t-64.5 11.5q-47 0 -78 -22.5t-51.5 -57.5t-32.5 -81l-23 -91q0 -12 -2 -14l-254 -971v2q-10 -34 -10 -63z" />
<glyph unicode="i" horiz-adv-x="409" d="M127 57q0 -35 18.5 -57.5t65.5 -28.5h18q35 0 58.5 13.5t39 36t25.5 52.5l21 60h4l139 567l-2 -2q18 59 26.5 96t8.5 62q0 51 -21.5 63.5t-62.5 12.5q-49 0 -78 -10.5t-47 -33t-29.5 -60t-25.5 -93.5l-4 -24l-134 -549l-6 -23h2l-11 -45q-5 -21 -5 -37zM365 1096 q0 -53 31.5 -91t66.5 -38q43 0 76.5 16t60.5 43t44.5 60.5t27.5 68.5v45q6 25 6 43q0 37 -23.5 60.5t-83.5 23.5q-70 0 -124 -44t-78 -148l2 4q-4 -10 -5 -21.5t-1 -21.5z" />
<glyph unicode="j" horiz-adv-x="430" d="M-311 -309l89 -102q32 -36 53.5 -56t39.5 -31.5t47 -25.5q43 -16 72 -17q55 0 110.5 34t101.5 89.5t80.5 124t47.5 139.5v-2l223 854v-2l6 19q10 31 17.5 61.5t7.5 59.5q0 43 -21.5 70.5t-87.5 27.5q-43 0 -69.5 -15.5t-44 -38t-26.5 -51.5l-18 -55v2l-11 -34l-7 -21 l-211 -860h2q-31 -115 -61 -121q-6 2 -23 2q-16 4 -21 5t-14 9q-14 10 -20 17.5t-12 13.5v-2q-10 16 -24.5 29.5t-55.5 31.5q-8 2 -15.5 4.5t-13.5 2.5q-23 0 -47.5 -15.5t-45 -38t-34.5 -52t-14 -56.5zM373 1102q0 -53 26.5 -94t92.5 -41q86 0 152.5 56t86.5 167l-4 31 q6 14 6 34q0 37 -28.5 59.5t-102.5 22.5q-31 0 -65.5 -12t-66.5 -34.5t-56.5 -54.5t-32.5 -71l2 2q-6 -16 -8 -32.5t-2 -32.5z" />
<glyph unicode="k" horiz-adv-x="806" d="M141 74q0 -41 20.5 -72t71.5 -31q82 0 114 47.5t44 112.5l-2 -2l60 219l159 -274q4 -16 16.5 -35t29 -37t35 -31.5t32.5 -15.5h18q47 0 86 37t39 92q0 43 -26 82l2 -2l-191 348l285 207l8 4q33 16 53.5 29.5t32.5 31.5l25 -22v14q0 14 1 29.5t1 28.5v16q0 16 -4 36.5 t-14.5 38t-26 29t-37.5 11.5q-20 0 -27 -2l-58 -32q-22 -11 -36 -20q-10 -8 -22.5 -14t-28.5 -16l-256 -183l123 506l-2 -2q8 23 12 40.5t4 35.5q0 39 -20.5 62.5t-71.5 23.5q-4 0 -11.5 -1t-13.5 -1q-41 -6 -65.5 -18.5t-39 -30t-21.5 -40.5l-15 -52l2 2q-4 -10 -7 -20.5 t-7 -20.5l-260 -1037h2q-13 -36 -13 -71z" />
<glyph unicode="l" horiz-adv-x="405" d="M137 80q0 -109 86 -109h8q63 2 90 46t52 120v-2l256 1030l-2 -2q2 4 2 8t2 9q23 63 22 106q0 37 -17.5 59.5t-66.5 22.5h-12q-39 -4 -64.5 -21.5t-42 -44t-27.5 -58.5t-20 -62l-260 -1045q-6 -28 -6 -57z" />
<glyph unicode="m" horiz-adv-x="1480" d="M141 80q0 -37 19.5 -61.5t66.5 -34.5h-2q6 -2 15 -2h16q59 0 89 44t48 101v-2l125 381q33 23 76 47.5t85 46t79 37.5l59 25l-141 -515q-10 -51 -10 -77q0 -47 22.5 -66.5t75.5 -30.5h14q31 0 56.5 18.5t43 45t27.5 54.5t15 44l-2 -2l110 385q43 37 89 63.5t89 45t79 29 t58 14.5l-141 -541q-6 -25 -6 -49q0 -88 82 -103q4 0 10 -1t10 -1q90 0 142 144h4l170 635l-2 -2q4 12 5 23t1 24q0 25 -7 50t-22.5 47t-42 35t-63.5 13q-23 0 -51.5 -6t-59.5 -18l-83 -38l-97 -44q-23 -8 -44.5 -18.5t-45.5 -20.5l4 28q2 8 2 17v16q0 55 -24.5 68.5 t-67.5 19.5h-12q-55 0 -134 -32.5t-165 -77.5l-69 -33l-69 -33q6 16 8.5 27.5t2.5 21.5q0 76 -91 76q-57 0 -97 -25.5t-64 -101.5l-168 -623v3q-8 -20 -12.5 -37t-4.5 -33z" />
<glyph unicode="n" horiz-adv-x="966" d="M135 63q0 -35 20.5 -61.5t61.5 -26.5h10q41 2 70 18.5t48.5 38t28.5 45t9 42.5l-2 -6l135 452q51 35 102.5 56.5t95.5 34t76.5 16.5t45.5 4q-2 -4 -2 -6t-3 -6l-139 -533q-12 -47 -12 -74q0 -47 24.5 -62t71.5 -20h12q59 0 95.5 39t46.5 111l-2 -4l22 88l146 543l4 20 q2 10 2 14q0 33 -14.5 59.5t-37 45t-50 28t-56.5 9.5q-25 0 -60.5 -7.5t-77.5 -17.5t-87 -24l-84 -27q-16 -4 -30.5 -9t-31.5 -9v18q4 12 5 18v13q0 25 -12.5 38t-47.5 13q-12 0 -20.5 -1t-20.5 -3q-70 -10 -107.5 -50t-47.5 -96v2l-62 -233l-15 -60l-12 -49l-13 -42 q-7 -24 -16 -58l-23 -85l-31 -122l-7 -24l-6 -23l2 2q-4 -10 -4 -16v-13z" />
<glyph unicode="o" horiz-adv-x="1011" d="M123 199q0 -53 15.5 -99.5t49 -81t87 -55t131.5 -20.5q117 0 233.5 46t216.5 125t175 183t106 221q18 68 18 135q0 57 -15.5 107.5t-48 87.5t-84 58.5t-122.5 21.5q-141 0 -266 -58.5t-223.5 -148.5t-165 -198.5t-91.5 -209.5q-16 -55 -16 -114zM371 244q0 14 2 27.5 t6 27.5q18 63 57 132t96.5 126t131 95t163.5 38q45 0 62.5 -23.5t17.5 -58.5q0 -39 -10 -73q-18 -72 -63.5 -138.5t-105.5 -118t-132 -82t-145 -30.5q-45 0 -62.5 22.5t-17.5 55.5z" />
<glyph unicode="p" horiz-adv-x="1030" d="M-4 -492q0 -80 72 -79q20 0 28 2h-2q70 14 106 47t52 104l-2 -2l102 387h33q10 0 19.5 1t17.5 1h22q98 0 214 54.5t221.5 145.5t187.5 208t115 244q8 35 12 66.5t4 60.5q0 102 -56.5 158.5t-172.5 56.5q-88 0 -179.5 -17.5t-195.5 -71.5q-4 41 -30.5 58.5t-67.5 17.5h-23 q-37 -4 -63.5 -22.5t-45 -43t-28.5 -49t-14 -42.5l-7 -23l-303 -1165h2q-18 -60 -18 -97zM422 193v4l104 393v-2q6 14 39 35.5t84 40t115.5 32t132.5 13.5q47 0 47 -37q0 -4 -1 -14.5t-5 -20.5q-23 -82 -77 -163t-123.5 -144.5t-145.5 -102.5t-139 -39q-31 1 -31 5z" />
<glyph unicode="q" horiz-adv-x="1030" d="M123 197q0 -111 57.5 -170.5t171.5 -59.5q211 0 383 105l-135 -512q-6 -29 -6 -52q0 -55 27.5 -73.5t66.5 -18.5q29 0 88.5 20.5t120.5 51.5t110.5 67.5t59.5 69.5v-4l20 49l3.5 14.5t1.5 20.5q0 68 -70 68q-39 0 -72 -23l6 2l-65 -24l278 1071l-2 -2q4 10 4 14v12 q0 37 -25.5 59.5t-62 36t-76.5 17.5t-69 4q-109 0 -231.5 -41t-235.5 -117.5t-201 -190.5t-125 -257q-12 -41 -17 -74.5t-5 -62.5zM377 252q0 18 4 38.5l8 39.5q25 94 78 161.5t114.5 111.5t121 66.5t96.5 28.5q4 2 12 3t12 4l-2 -3l37 9q18 4 33 4h12q0 -6 -2 -13 q0 -4 -4 -12l-15 -68q-9 -40 -20.5 -82t-26 -82t-30.5 -71q-16 -35 -56 -67.5t-93.5 -58t-116 -41t-121.5 -15.5q-23 0 -32 13.5t-9 33.5z" />
<glyph unicode="r" horiz-adv-x="724" d="M141 74q0 -41 16.5 -70t63.5 -29h12q8 2 13 2h16q39 0 65.5 30t55.5 124l139 459q16 6 25.5 12t19.5 14q25 16 55.5 31t100.5 25q102 12 160.5 26.5t88 32t40 37.5t20.5 45q0 6 6 16l-34 91q-55 23 -113 22q-41 0 -135 -22q-10 -4 -16.5 -5.5t-10.5 -3.5q-27 -8 -43 -12 t-29.5 -8t-25.5 -9l-33 -14l-14 -7q-6 -3 -15 -5q-6 37 -21.5 50.5t-60.5 13.5q-98 0 -131.5 -35t-38.5 -103l-165 -635h2q-13 -36 -13 -73z" />
<glyph unicode="s" horiz-adv-x="1007" d="M70 137q0 -43 31.5 -80t79.5 -62.5t105.5 -39.5t106.5 -14q106 0 222 36.5t215.5 99t173 146.5t98.5 178q10 37 10 72q0 45 -16.5 78t-44 54.5t-62.5 30.5t-69 9q-90 0 -185.5 -27.5t-171.5 -52.5l-70.5 -23.5t-46.5 -9.5q-6 0 -6 -4q8 33 43 65t92.5 57.5t133 42 t165.5 16.5q20 -4 64 -4q23 0 50.5 2t49.5 8q39 14 64.5 46t25.5 64q0 39 -37.5 73t-129.5 34q-109 0 -231 -26.5t-231.5 -79t-192.5 -130.5t-113 -180q-6 -23 -7 -53q0 -31 9.5 -60.5t32 -52t58.5 -37t91 -14.5q59 0 132 23l144 45q53 20 102.5 33.5t82.5 13.5q20 0 20 -11 v-6q-12 -41 -54 -84t-101.5 -77.5t-130 -57t-138.5 -22.5q-29 0 -62.5 20.5t-82.5 63.5q-35 25 -78 24q-39 0 -77 -19.5t-56 -66.5q-8 -23 -8 -41z" />
<glyph unicode="t" horiz-adv-x="829" d="M227 760q0 -74 131 -74l33 6l-145 -565q-6 -18 -8 -32.5t-2 -28.5q0 -66 39.5 -87.5t91.5 -21.5q63 0 122.5 17.5t111.5 42t94 52t71 50.5l55 55q2 12 4 22.5t2 20.5q0 51 -31.5 75.5t-76.5 24.5q-35 0 -70 -12t-63 -37l-8 -8h2q-12 -12 -31 -26.5t-47 -18.5l131 512 l221 35q45 12 77 24.5t50 25.5t26.5 28.5t10.5 36.5q2 10 3 29.5t1 15.5q0 31 -14.5 50t-61.5 19q-14 0 -31.5 -2t-42.5 -10l5 2l-183 -25l17 68l8 43q4 20 4 41q0 37 -17.5 57.5t-64.5 24.5h-16q-117 0 -148 -152v2l-31 -122l-84 -15q-72 -20 -97 -51t-36 -72l4 6 q-4 -10 -5 -16t-1 -10z" />
<glyph unicode="u" horiz-adv-x="983" d="M154 115q0 -80 46 -119t130 -39q55 0 90 1t68.5 9t78.5 23.5t119 44.5q4 -41 31.5 -53.5t66.5 -12.5q66 0 115 30t49 105q0 4 -1 6.5t-1 6.5l172 651q29 63 29 109q0 41 -21.5 56t-56.5 15h-16q-61 -4 -101.5 -42t-74.5 -126l-132 -489q-27 -16 -61.5 -34.5t-71.5 -35 t-73.5 -27t-67.5 -10.5q-18 0 -39.5 1t-21.5 8v6l149 551v-5q20 43 21 86q0 41 -21.5 65t-66.5 26h-13q-39 0 -68.5 -15.5t-50 -39t-32 -51.5t-11.5 -52l-149 -565q-14 -45 -14 -84z" />
<glyph unicode="v" horiz-adv-x="782" d="M203 786q2 -53 5 -98t4 -90l2 -92q1 -47 1 -105q6 -27 7 -57.5t5 -69.5l9 -105q4 -54 14 -99t27.5 -75t48.5 -32h10q53 0 94 42t76 97h-2q16 23 56 72l93 115l108 134l107 138l93 126q41 58 59 95v2q18 33 18 66q0 35 -20.5 54.5t-63.5 19.5q-29 0 -49 -4.5t-38.5 -15.5 t-36 -30.5t-42.5 -50.5l-37 -48l-49 -60l-125 -162l-126 -162v43q0 33 -1 61.5t-1 53.5q-2 14 -3 26v25v18q0 8 3 19v57v88q0 47 -3 60q-14 47 -31.5 59t-43.5 12h-31q-39 0 -65.5 -14t-42 -34.5t-22.5 -42.5t-7 -36z" />
<glyph unicode="w" horiz-adv-x="1173" d="M152 86q8 -72 21 -95.5t52 -23.5h37q31 0 51.5 6.5t48 34t66.5 82.5l107 152q0 -2 14 16q20 23 49 63l61 87q2 -55 8.5 -110.5l12.5 -103.5l11 -86q5 -38 9 -59v-4q2 -35 9.5 -53.5t18.5 -27.5t25.5 -11t32.5 -2h41q25 0 49.5 19.5t47 47t42.5 59.5l35 58q4 10 7 12l4 5 l379 553v-3q35 41 54 74t19 62q0 57 -73 86l2 -2q-16 10 -29.5 12t-26.5 2q-49 0 -81.5 -39t-71.5 -100l-16 -25l-15 -27l-61 -96l-62 -96l-61 -99l-54 -83q-6 115 -9 179t-5 99l-3 51q-1 16 -1 35v13q0 70 -10 101.5t-72 31.5h-2q-2 0 -4 1t-6 1q-23 0 -63 -21.5 t-97 -105.5q-18 -33 -62 -98l-92 -132l-33.5 -47l-31.5 -43q4 25 7 50.5t7 50.5q10 66 14.5 111.5t12.5 88.5q2 6 2 15q0 8 2 16q4 18 6 36.5t2 39.5q0 43 -16.5 69.5t-69.5 26.5h-12q-72 -6 -104.5 -46t-47.5 -146q0 -10 -4 -38t-8 -68t-10 -90l-12 -101l-16 -121l-13 -109 q-6 -49 -9 -85t-3 -50z" />
<glyph unicode="x" horiz-adv-x="798" d="M23 47q0 -72 88 -72q53 0 83.5 19.5t57.5 42.5q6 6 22 16q14 12 37 34l49 48l55 54l50 51l37 36q18 -25 33.5 -52t25.5 -50l24 -42l26 -47l24 -41q10 -17 14 -21q29 -27 54.5 -36.5t48.5 -9.5q45 0 80.5 31t50.5 74q-18 59 -27.5 77.5t-13.5 30.5q-4 8 -13 21l2 -2 q-8 18 -23 49t-36 66l-42 70q-22 36 -42 65l96 91l58 55q23 22 42 38l48 41l35 33q37 37 62.5 68.5t25.5 60.5q0 18 -9.5 35.5t-35.5 27.5l2 -2q-14 8 -31.5 13.5t-40.5 5.5q-45 0 -94 -40t-92 -87l-193 -181l-38 63l-54 95q-4 4 -11 20l-16 31l2 -2q-16 39 -38.5 66 t-73.5 27q-14 0 -20.5 -1.5t-10.5 -1.5q-61 -18 -86 -48.5t-25 -65.5q0 -59 37 -103l-2 4q31 -47 51 -81l38 -65l31 -56l30 -58l-103 -96l-59 -56l-38 -36l-38 -37q-61 -53 -87.5 -97t-26.5 -73z" />
<glyph unicode="y" horiz-adv-x="899" d="M-61 -365v-16q23 -33 62.5 -41t88.5 -8h96q70 0 127.5 24.5t104.5 65.5t87 95.5t77 113.5l516 858q18 31 33.5 62.5t15.5 58.5q0 35 -23.5 56.5t-79.5 21.5q-35 0 -58 -6.5t-39.5 -18.5t-29 -29.5t-24.5 -40.5l-293 -503l-125 467h2q-2 6 -2 10q0 6 -2 12v-4 q-6 37 -21.5 68.5t-68.5 31.5q-23 0 -49 -8q-53 -16 -83 -50t-30 -89v-29q0 -12 4 -26l195 -674l-49 -82h2q-4 -8 -8.5 -13t-6.5 -10v2l-24 -38q-14 -23 -30.5 -43.5t-36 -35t-40.5 -14.5q-4 0 -15 1t-26 3q-16 4 -36.5 6.5t-45.5 2.5q-31 0 -61.5 -7.5t-53 -27t-36.5 -55.5 t-14 -91z" />
<glyph unicode="z" horiz-adv-x="897" d="M49 68q2 -29 3 -46.5t8.5 -27.5t24.5 -14.5t50 -4.5q16 0 40 1t54 4l455 6q23 -8 70 -9q45 0 71 11l-2 -2q55 23 81 53.5t30 87.5v4q0 41 -31 55.5t-76 14.5h-28q-12 0 -27 -2h2q-14 -2 -29 -2h-24h-252l528 483l-2 -2q59 43 78 66.5t27 56.5v-2q2 6 2 14v14 q0 49 -35 63.5t-88 14.5h-35q-18 0 -35 -2q-8 0 -13 -1t-11 -1l-445 -8h-12q-33 0 -59.5 -2t-47 -11.5t-38 -29t-31.5 -55.5q-8 -14 -8 -37q0 -45 32.5 -66.5t67.5 -21.5h62q35 0 71.5 1t71.5 3l72 4q37 2 77 2l-491 -453q-16 -14 -30.5 -23t-24.5 -20q-47 -35 -73 -60 t-30 -56z" />
<glyph unicode="{" horiz-adv-x="956" d="M258 705q0 -37 23.5 -65t74.5 -28q66 0 92.5 -13t26.5 -44q0 -20 -6 -47t-16 -57q-16 -63 -37 -123l-39 -115l-34 -91q-15 -42 -19 -65h2q-25 -86 -25 -147q0 -84 41 -127t139 -43q35 0 72 5t78 15q4 2 11 4.5t11 4.5v-2q18 4 41 10t44.5 18t40 32.5t28.5 55.5l2 2 q4 16 4 33q0 37 -19.5 63.5t-60.5 26.5q-27 0 -47 -12q-55 -27 -88 -27q-18 0 -26.5 10.5t-8.5 26.5q0 14 4 27q8 29 19 60l22 67l38 121q22 68 44 153q12 41 19.5 77t7.5 67q0 39 -10.5 72.5t-32.5 68.5q51 35 88 81t64.5 104.5t50 129t45.5 154.5l27 84q15 45 37 82 t50.5 61.5t65.5 24.5h41q35 0 64.5 15t45.5 81v-2q8 25 9 51q0 47 -25 60.5t-66 13.5q-92 0 -169.5 -39t-139 -103.5t-106.5 -146.5t-70 -166q-4 -16 -7 -30.5t-7 -28.5q-18 -68 -34.5 -118t-41.5 -85t-61.5 -52.5t-98.5 -17.5q-39 0 -71.5 -16t-56 -40.5t-37 -54 t-13.5 -56.5z" />
<glyph unicode="|" horiz-adv-x="419" d="M57 -184q0 -29 11.5 -48.5t28 -31.5t36 -17.5t37.5 -5.5q31 0 65.5 39t65.5 117l4 -2l397 1433q0 8 5.5 27t11.5 37q10 31 18 62.5t11 46.5q6 25 6 53q0 39 -16.5 63.5t-55.5 24.5q-4 0 -10 -1t-10 -1q-47 -10 -75 -25.5t-45.5 -41t-29.5 -63.5t-27 -96q-4 -12 -5 -24 t-5 -29l-403 -1452v4q-10 -20 -12.5 -36.5t-2.5 -32.5z" />
<glyph unicode="}" horiz-adv-x="956" d="M96 -162q0 -57 33 -76.5t72 -19.5q70 0 141.5 35t133 93t108.5 132t67 152l54 196q6 25 20 63t41 73.5t65.5 61t92.5 25.5q39 0 69.5 13.5t52 35t34 46t12.5 49.5q0 35 -26 61.5t-79 26.5h4l-45 4q-8 4 -13 5t-9 3h2q-12 4 -22.5 11.5t-10.5 35.5q0 10 2 26.5t6 39.5 q16 88 49 192.5t76 208.5q27 66 27 133q0 43 -12.5 81t-37 66.5t-64.5 45t-95 16.5t-95 -3t-92 -15q-47 -10 -75.5 -45t-34.5 -72l2 4q-4 -10 -4 -16v-13q0 -35 22.5 -61.5t73.5 -26.5l23 2q23 2 36 5l58 6q10 0 30 -4h-2q18 -6 19 -19q0 -20 -14 -43q-47 -117 -81 -231.5 t-57 -212.5q-4 -27 -6 -50.5t-2 -46.5q0 -86 37 -131q-86 -55 -135 -140t-80 -195l-51 -197q-6 -23 -16.5 -47.5t-24 -48t-33.5 -40t-49 -18.5q-78 -8 -126 -47t-65 -86q-4 -14 -5 -24.5t-1 -18.5zM946 809l8 -4q-4 0 -8 4z" />
<glyph unicode="~" horiz-adv-x="935" d="M399 950q0 -33 28 -54.5t73 -21.5q33 0 60.5 18.5t53.5 41.5l43 32q20 15 35 15q4 0 9.5 -8t15.5 -21l22 -30q12 -16 30.5 -29.5t45.5 -22t66 -8.5q59 0 109 10.5t90 36t71 70.5t53 115q4 8 5 12t1 8q0 29 -28.5 51.5t-69.5 22.5q-29 0 -56.5 -14.5t-49.5 -45.5 q-12 -12 -11.5 -15t-3.5 -11q-8 -18 -21.5 -41t-35.5 -23q-16 0 -25 14l-18 29q-18 33 -46 63t-95 30q-43 0 -98.5 -17.5t-107.5 -46.5t-91 -63.5t-50 -71.5l3 2q-7 -13 -7 -27z" />
<glyph unicode="&#xa1;" horiz-adv-x="411" d="M27 -272q0 -47 19.5 -78t70.5 -31q49 0 78.5 21.5t48 52.5t25.5 65.5t12 61.5l-2 -6l186 694v-4q33 78 33 127q0 82 -82 82q-72 0 -115 -50.5t-61 -132.5h2l-193 -682l-11 -37q-5 -17 -7 -28q-2 -12 -3 -26.5t-1 -28.5zM309 831q0 -45 23.5 -71.5t83.5 -26.5 q66 0 122 53.5t78 131.5v-5q4 10 5.5 21.5t1.5 23.5q0 41 -22.5 72t-76.5 31q-78 0 -128 -36t-81 -144h-2q-4 -12 -4 -25v-25z" />
<glyph unicode="&#xa2;" horiz-adv-x="929" d="M197 457q0 -66 20.5 -114t55 -82t81.5 -51t101 -20l-23 -98v4q-23 -72 -22 -98q0 -47 23.5 -55.5t70.5 -8.5h6q35 0 55.5 7.5t32.5 21.5t18 35l15 47q4 8 5 16.5t7 26.5l41 148q47 12 96 36.5t95.5 52t87.5 56.5l71 51q47 39 74 87t27 83q0 59 -56 64q-8 2 -12 2h-20 q-29 0 -77 -13.5t-102 -60.5q-12 -16 -40.5 -41t-65.5 -47l117 418q14 6 21 7t24 1q10 0 34 -6l48 -13v2q35 -14 49 -14h41q63 0 90.5 28.5t40.5 69.5v27q2 8 3 15.5t1 17.5q0 66 -48 85t-116 19h-78q-29 0 -47 -2l10 45v-2q4 12 9 23q6 16 13 39.5t7 48.5q0 33 -18.5 56.5 t-65.5 23.5q-41 0 -65.5 -8.5t-39 -22.5t-22.5 -35.5t-16 -48.5l-8 -29q-3 -12 -7 -24l-32 -129q-184 -66 -310.5 -193t-179.5 -327q-20 -64 -20 -121zM453 520q0 23 10 60h-2q25 86 63.5 142t104.5 99l-111 -397q-29 4 -47 29.5t-18 66.5z" />
<glyph unicode="&#xa3;" horiz-adv-x="1122" d="M137 530q0 -41 22.5 -70.5t73.5 -29.5q25 0 78 21h86q-10 -23 -18 -43.5t-19 -42.5l-36 -87q-18 -44 -35 -90q-2 -4 -3 -8t-3 -8q-10 -31 -16.5 -57.5t-6.5 -48.5q0 -37 17.5 -59.5t70.5 -22.5h12q51 4 81 29.5t51 60.5q57 -33 137 -62.5t155 -38.5h-2q10 -2 25 -2h27 q113 0 189.5 44t123.5 106.5t67.5 130t20.5 113.5q0 37 -11.5 60.5t-35.5 23.5h-4q-31 -4 -53.5 -10.5t-40 -22t-30.5 -44t-24 -73.5q-6 -35 -28.5 -55.5t-55 -29.5t-71.5 -11t-78 -2q-53 0 -101.5 20.5t-91.5 42.5l-25 14l-26 13q16 43 34 83l34 77h252q18 -8 29.5 -9.5 t21.5 -1.5h4q39 0 70.5 16.5t54 41t36 55.5t13.5 59q0 43 -25.5 71t-81.5 28q-33 0 -43 -2t-26 -17h-217q10 35 18 71l17 77h229q18 -10 33.5 -12.5t31.5 -2.5q63 0 99.5 33t52.5 92q8 25 8 47q0 43 -22.5 74t-69.5 31h-27q-10 0 -17 -2t-14 -6t-20 -13h-248l2 21 q2 25 5.5 54.5t7.5 57.5q6 31 6 58q0 51 -21.5 80.5t-68.5 29.5h-10q-70 -2 -96.5 -47t-53.5 -121v-6q0 -16 1 -32.5t1 -32.5t-1 -30.5t-1 -31.5h-90q-16 12 -34.5 14.5t-29.5 2.5q-37 0 -65.5 -16.5t-50 -43t-32.5 -57.5t-11 -59q0 -41 23.5 -71t70.5 -30q20 0 40.5 4 t37.5 15h108l-18 -79q-8 -36 -19 -69h-127q-14 10 -32.5 12.5t-32.5 2.5q-35 0 -64.5 -17.5t-50 -43t-32 -57.5t-11.5 -59z" />
<glyph unicode="&#xa5;" horiz-adv-x="1198" d="M215 240q0 -41 22.5 -71t73.5 -30q16 0 37 5.5t45 17.5h139q-14 -57 -14 -96q0 -41 17.5 -66t60.5 -25h10q41 2 70 17.5t47 37t29.5 49t19.5 56.5l8 27h185q18 -10 29.5 -11t21.5 -1h4q39 0 70.5 16t55 40.5t37 55.5t13.5 60q0 43 -25.5 70.5t-83.5 27.5q-33 0 -43 -2 t-26 -17h-172l43 148h178q16 -10 31.5 -12t31.5 -2q66 0 103 32.5t53 91.5q8 25 8 48q0 41 -23.5 71.5t-70.5 30.5q-31 0 -42 -2t-34 -16h-8l393 321q43 43 59.5 72.5t16.5 52.5t-13 38t-34 30l6 -2q-6 6 -10 6q-23 16 -49 16q-29 0 -55.5 -13.5t-55.5 -35.5h2 q-8 -6 -23.5 -13.5t-41.5 -21.5l-453 -375l-221 328l4 -4q-33 68 -61.5 114t-65.5 46h-12q-25 -6 -50.5 -16.5t-47 -28t-35 -40t-13.5 -53.5q0 -43 35 -100l187 -321h-29q-18 10 -37.5 12t-28.5 2q-37 0 -65.5 -16.5t-50 -42t-32.5 -56.5t-11 -59q0 -41 22.5 -72t71.5 -31 q20 0 40.5 5.5t37.5 15.5h145l-39 -148h-162q-14 10 -32.5 12.5t-32.5 2.5q-37 0 -65.5 -17.5t-50 -43t-33 -57t-11.5 -58.5z" />
<glyph unicode="&#xa6;" horiz-adv-x="419" d="M53 -223q0 -29 11.5 -48.5t28 -31.5t35.5 -17.5t38 -5.5q33 0 67.5 40t63.5 118l4 -2l115 418q6 29 18 59q6 29 15.5 59.5t13.5 59.5q6 27 6 59q0 37 -14.5 59.5t-55.5 22.5q-4 0 -10 -1t-10 -1q-47 -10 -73.5 -25.5t-44 -41t-30.5 -65.5l-28 -97q-4 -10 -7 -23.5 t-8 -23.5h2l-122 -447v4q-15 -34 -15 -69zM336 823q0 -31 11 -50t28.5 -30.5t37 -16.5t38.5 -5q31 0 65.5 39t65.5 117l4 -3l18 70q4 10 6 21.5t6 21.5l86 316q0 8 6.5 25.5t10.5 37.5q10 29 18 60.5t11 46.5q6 27 6 53q0 41 -15.5 64.5t-56.5 23.5q-4 0 -10 -1t-10 -1 q-47 -10 -74 -25.5t-45.5 -41t-30.5 -63.5t-27 -93q-4 -12 -5 -25.5t-5 -30.5l-125 -444v4q-14 -35 -14 -70z" />
<glyph unicode="&#xa7;" horiz-adv-x="794" d="M205 819q0 -39 27.5 -74.5t56.5 -35.5h16q23 8 52 15l62 14l61 14q30 6 55 10q-2 -10 -4.5 -17.5t-4.5 -15.5q-2 -14 -4 -26l-4 -21q-8 -33 -8 -70q0 -111 104 -110q27 0 51.5 10t43 25.5t30 33t15.5 31.5q-2 14 -3 23.5t-1 23.5q0 18 6 43v6l5 31q3 18 7 37h131 q20 0 38.5 11t34 27.5t25 35t11.5 34.5v-4q2 10 2 17v10q0 31 -14.5 48.5t-37 26.5t-51 12t-59.5 3q23 57 55.5 127t67.5 135l24 45q-6 12 -17 32t-26.5 37t-35 30.5t-39.5 13.5q-31 -12 -90.5 -52t-132.5 -95l-149 -119q-77 -63 -141.5 -123t-108.5 -109t-48 -73 q0 -4 -1 -8.5t-1 -8.5zM526 956q49 45 84 72t60 43q-8 -20 -15.5 -43.5t-17.5 -48.5q-29 -2 -56.5 -8.5t-54.5 -14.5z" />
<glyph unicode="&#xa8;" horiz-adv-x="839" d="M383 973q0 -45 31.5 -81t85.5 -36q37 0 67.5 13.5t53 34t37 45t20.5 44.5v-2q12 27 12 62t-19.5 60.5t-76.5 25.5q-37 0 -72 -12.5t-62.5 -33t-47 -44t-25.5 -45.5q-2 -6 -3 -13.5t-1 -17.5zM741 977q0 -41 31 -78t82 -37q39 0 69.5 14.5t53 35t37 45t20.5 44.5v-2l9 29 q5 16 6 33q0 33 -19.5 58.5t-79.5 25.5q-37 0 -70.5 -13.5t-62.5 -33t-48 -44t-26 -46.5q0 -6 -1 -13.5t-1 -17.5z" />
<glyph unicode="&#xa9;" horiz-adv-x="1439" d="M178 295q0 -205 106.5 -317.5t309.5 -112.5q160 0 322.5 71.5t303 196.5t249 291t161.5 354q25 88 39 172t14 162q0 88 -21.5 165t-68.5 134t-125.5 89t-191.5 32q-117 0 -233.5 -47t-225 -124t-206 -177.5t-175.5 -207t-133 -212t-80 -193.5q-23 -78 -34 -147.5 t-11 -128.5zM397 301q0 53 10.5 113.5t26.5 124.5q20 74 67.5 161.5t111 178t140 174.5t161.5 149.5t172.5 105.5t170.5 40q61 0 102.5 -19.5t66 -53.5t36 -80t11.5 -99q0 -68 -14.5 -142.5t-35.5 -148.5q-41 -152 -125 -288t-193.5 -239.5t-235.5 -164t-251 -60.5 q-117 0 -169 65.5t-52 182.5zM487 465q0 -47 12.5 -89t40 -73t71.5 -49t108 -18q92 0 163.5 18t126 46t92.5 59.5t62 56.5l80 71q59 70 60 125q0 33 -23 52.5t-70 19.5q-33 0 -56.5 -9t-39.5 -22.5t-26.5 -28t-16.5 -26.5q-16 -23 -47 -49.5t-72 -50t-88 -40t-94 -16.5 q-31 0 -42 19.5t-11 46.5q0 16 6 41h-2q18 70 58 135.5t88 116.5t100.5 80.5t99.5 29.5t78 -8t39 -24q23 -14 42 -19.5t38 -5.5q49 0 85.5 27.5t36.5 74.5q0 49 -49 93q-47 47 -101 58t-132 11q-92 0 -186.5 -46t-177.5 -123t-147.5 -176t-92.5 -208q-13 -49 -13 -100z" />
<glyph unicode="&#xaa;" horiz-adv-x="710" d="M113 504q0 -31 30.5 -55.5t89.5 -24.5q4 0 21 -4q10 -2 19.5 -3t25.5 -1q10 0 21.5 2t21.5 8l252 2l131 2q59 0 95 25.5t36 60.5q0 31 -35 55.5t-108 24.5q-6 0 -13.5 1t-15.5 1q-10 0 -19.5 1t-17.5 1q-25 0 -45 -6h-256q-8 2 -27 2q-10 0 -26.5 -1t-26.5 -3t-14 -2h-8 q-66 0 -98.5 -26.5t-32.5 -59.5zM221 821q0 -31 10.5 -61.5t29 -55t44 -40t57.5 -15.5q84 0 166 28l142 50v-6q0 -27 16 -41t64 -14q53 0 79.5 25.5t36.5 78.5l2 2l107 410q8 33 8 61q0 39 -12.5 63.5t-32.5 39t-46 19.5t-52 5q-84 0 -183.5 -19.5t-187.5 -72.5h2 q-4 -2 -7 -3t-7 -3l2 2q-23 -10 -43.5 -23.5t-30.5 -54.5v2q-4 -8 -4 -16v-11q0 -31 15.5 -42t43.5 -11q29 0 65 13.5t48 19.5h-2q23 6 42 12l40 13q39 12 73.5 21t73.5 9h8q6 0 9 2v-6l-15 -47q-102 -6 -192 -24.5t-162 -52.5t-122 -84t-75 -117q-10 -21 -10 -56zM395 844 l4 14h-2q6 25 40 46.5t83 39t107.5 31.5t115.5 24l-6 -67q-4 -4 -37.5 -22.5t-79 -40t-95.5 -39t-89 -17.5h-16q-18 4 -21.5 8.5t-3.5 22.5z" />
<glyph unicode="&#xab;" horiz-adv-x="878" d="M193 655q0 -31 14 -43t33 -24l-9 4l199 -240q2 -2 3 -4t3 -4q14 -20 28.5 -32.5t43.5 -18.5h22q20 0 41 16.5t43 61.5q8 16 9 37q0 18 -12.5 37.5t-41.5 48.5l-129 155l181 107q53 27 72.5 61.5t19.5 50.5v6q-10 49 -25.5 64.5t-50.5 19.5h-8q-31 0 -70 -20l-266 -164 q-35 -14 -62.5 -38.5t-35.5 -57.5l2 4q-4 -10 -4 -16v-11zM545 623q0 -31 14 -43.5t33 -24.5l-8 4l198 -240l6 -6q14 -20 28.5 -33.5t43.5 -17.5h23q23 0 41 15.5t41 60.5q8 16 8 37q0 39 -51 88l2 -4l-131 157l178 109q53 25 72.5 59.5t19.5 51.5v10q-10 47 -24.5 61.5 t-49.5 18.5h-8q-16 0 -34.5 -5.5t-35.5 -15.5l-266 -164q-35 -12 -62.5 -37.5t-35.5 -58.5v2q-2 -10 -2 -24z" />
<glyph unicode="&#xac;" horiz-adv-x="1890" d="M43 98q0 -20 8 -37.5t21 -33.5l24 -21q8 -8 11.5 -10t11.5 -10q14 -10 31.5 -20.5t42.5 -10.5q10 0 22 2t33 8l-2 -2q59 10 127 24l133 25q10 4 18 5t13 6q4 -8 22 -23q4 -4 19.5 -11t19.5 -12q8 -4 13 -7t14 -7q10 -4 20 -6t21 -2q16 0 28.5 8t28.5 31q4 8 9 14t9 15h-2 l30 43q15 23 36 47q47 12 106.5 20t118.5 14q0 -4 -1 -9t-1 -9q-2 -23 -3 -41t-3 -37q0 -41 12.5 -58.5t46.5 -25.5h-4q25 -10 49.5 -12t53.5 -2q41 0 54 12t19 45l4 53q4 -4 6.5 -7t6.5 -7q2 -2 0 -2l2 -2v2q25 -25 44 -41t50 -31q18 -10 33.5 -15t34.5 -5q16 0 29.5 3 t33.5 7q37 8 79 21.5t85 32t83 39t71 44.5q41 29 65.5 66t24.5 84v12q0 29 -10.5 55.5t-30.5 47.5q20 12 36.5 23l30.5 20q47 35 82 77.5t35 94.5v14q-4 51 -22.5 86t-47.5 66q-33 33 -90 43q4 2 8 2t11 2h-2q35 8 49 17t14 36q0 10 -2 20q-2 18 -6 37t-12 41 q-10 23 -26.5 34t-47.5 11h-21q-33 -4 -62.5 -5t-57.5 -5q2 2 2 4t2 4l-2 -2q8 16 14 35q45 10 90 17l92 16l37 4q35 8 50.5 17t15.5 38q0 10 -2 19q-2 20 -5.5 37.5t-13.5 39.5q-10 25 -28.5 34t-47.5 9h-12h-31q-14 0 -30 -2l6 11l21 45l22 43q39 4 74 8l69 8q16 2 34.5 4 l35.5 4q45 4 56 16.5t11 49.5q0 18 -3 35.5t-9 40.5q-18 55 -88 55q-106 -4 -211.5 -20.5t-185.5 -34.5l-21 -21l-18 -45q2 6 2 20q0 16 -8.5 27.5t-30.5 28.5h2q-23 16 -51.5 28.5t-57.5 20.5l-15 3q-5 1 -17 1q-41 0 -64 -47v2l-43 -95l-47 -110q-10 -27 -21 -52l-24 -54 q-20 -2 -39 -2q-18 0 -41 -2q4 10 10 23l13 26q43 96 75 157q6 12 7 31q0 31 -39 55q-25 16 -54.5 28.5t-54.5 21.5h2q-23 8 -41 8q-43 0 -61 -51q-4 -10 -8 -18.5l-9 -18.5q-4 16 -10 31.5t-14 31.5q-16 16 -32.5 25.5t-55.5 9.5q-51 -2 -115.5 -7t-133.5 -11.5 t-135.5 -13.5t-117.5 -15q-23 -6 -36 -16.5t-13 -34.5q0 -12 2 -19q-2 0 3 -12t9 -18v4q4 -18 12.5 -37t20.5 -35l-2 2q29 -35 63 -35q12 0 18.5 1t14.5 3q20 4 31 4l-48 -114l-49 -123q-24 -61 -43.5 -118.5t-31.5 -100.5v4q-8 -16 -8 -41q0 -45 39 -66h-2q-10 4 -18.5 5 t-14.5 1q-41 0 -64 -45q-33 -59 -70 -141l-74 -167l-67 -164q-31 -79 -49 -134v2q-8 -14 -8 -39zM334 195l111 241q58 123 108 213q6 12 6 29q0 18 -9 30.5t-28 24.5q-16 6 -26 15q20 -6 41 -7q23 0 36 9.5t21 35.5l58 143l65 151l66 152l65 144l53 4q27 2 49 4h19 q10 0 20 2q6 0 11.5 1.5t9.5 1.5l-20 -48l-19 -51l-80 -209q-41 -104 -80 -190q-10 -35 -10 -47q0 -39 39 -60l-2 2q18 -14 43 -21l51 -15q2 0 3 -1t5 -1h-4q6 -2 13 -3.5t18 -1.5q23 0 33 10.5t20 31t18.5 44t18.5 48.5q10 29 23 58l28 64q14 4 29 5q14 0 30 2q8 2 15 2 q6 0 16 2q-16 -41 -26.5 -75t-16.5 -56q-8 -16 -8 -37q0 -41 39 -62q-31 6 -74 6h-12q-45 0 -69.5 -15t-47.5 -38q-47 -57 -103 -134l-114 -160l-112 -164l-95 -146q-4 8 -6 16.5t-6 18.5q-18 25 -34.5 34t-45.5 9h-10q-35 -4 -63.5 -6t-59.5 -6zM508 469q0 -35 47 -49 q2 0 6 -1t8 -1q8 -2 19 -2h20q14 0 23 2q23 0 42 9t42 26l2 2q31 29 72.5 78t64.5 90q14 39 14 49v6q0 23 -10 39q-12 14 -28.5 28.5t-32.5 24.5l2 -2q-23 18 -47 18q-31 0 -58 -36l-30 -48l-39 -54l-40 -54l-38 -51q-8 -10 -13.5 -19.5t-11.5 -15.5q-6 -10 -10 -19.5 t-4 -19.5zM971 350q10 10 14 17l44 61q22 31 44 59q-4 -33 -9 -64.5t-9 -66.5q-23 -2 -42 -3t-42 -3zM1288 281q16 109 34.5 208t37.5 170l-2 -2q4 10 4 17v10q0 41 -37 59q33 6 45 48l-2 -5l68 169l75 175l75 165l65 141q0 2 2 2l-197 -512q-8 -23 -8 -39q0 -20 6 -35.5 t16 -30.5v2q12 -20 23.5 -29.5t24.5 -15.5q4 -4 9 -7t9 -7h-2l4 -4q-59 -18 -104 -37q-23 -86 -52 -171l-57 -167q-10 -27 -18.5 -53t-18.5 -51zM1501 186q4 6 7 15l8 18q4 10 10 20.5t10 22.5q25 6 46.5 10t37.5 4q35 0 37 -2q-4 -20 -45 -44t-111 -44zM1632 481l43 86 q82 29 123 29h17q-10 -20 -57.5 -53t-125.5 -62z" />
<glyph unicode="&#xad;" horiz-adv-x="729" d="M176 451q0 -35 26.5 -60.5t84.5 -25.5h8q6 0 12 -3q10 -2 19.5 -3t25.5 -1q10 0 21.5 2t21.5 7l248 2l131 2q59 0 98 34.5t39 71.5q0 35 -30.5 60.5t-100.5 25.5q-6 0 -13 1t-17 1q-8 0 -17.5 1t-17.5 1q-25 0 -43 -6h-254q-8 2 -27 2q-10 0 -25.5 -1t-27.5 -1 q-8 -2 -14 -2h-9q-68 0 -103.5 -34.5t-35.5 -73.5z" />
<glyph unicode="&#xae;" horiz-adv-x="989" d="M223 774q0 -84 31 -146.5t80 -103.5t110.5 -61.5t122.5 -20.5q80 0 183.5 32t201 101.5t176 177t109.5 261.5q6 27 8 52.5t2 49.5q0 104 -42 170t-101.5 102.5t-122.5 50t-109 13.5q-109 0 -214 -51t-193 -135t-150.5 -189.5t-83.5 -212.5q-8 -41 -8 -90zM373 791 q0 29 8 63q16 82 63.5 163t113 144.5t143 102.5t155.5 39q25 0 65 -8.5t78.5 -32t67.5 -65.5t29 -107q0 -31 -9 -64q-18 -94 -60 -163.5t-95 -123.5q20 29 43 84l-110 37q-44 14 -81 29q80 37 143.5 89t80.5 124q2 10 2 35q0 51 -29 83.5t-78 36.5q-6 2 -16 3h-21 q-31 0 -70.5 -6.5t-82.5 -21.5t-84 -39t-74 -60l-21 -103l-16 -72q-2 -8 -3 -14t-3 -14q-4 -12 -4 -23q0 -8 -4 -18q-8 -27 -10 -45l-29 -144q0 -4 -1 -7t-1 -7q0 -31 21.5 -47t50.5 -16q35 0 68.5 21.5t43.5 62.5l10 49l64 -23q37 -18 67.5 -29.5t57.5 -11.5q18 0 35 6 q-76 -55 -155 -81.5t-140 -26.5q-39 0 -77 12t-68.5 37t-49 63t-18.5 89zM707 1018l6 31l18 6q23 6 46.5 13t43.5 11q-16 -14 -47.5 -30.5t-66.5 -30.5z" />
<glyph unicode="&#xaf;" horiz-adv-x="727" d="M272 889q0 -35 27 -59.5t84 -24.5h459q61 0 100 33.5t39 72.5q0 33 -30.5 57.5t-100.5 24.5q-82 2 -143 2h-107q-92 0 -129 -1t-49 -1h-10q-70 0 -105 -33.5t-35 -70.5z" />
<glyph unicode="&#x2c9;" horiz-adv-x="727" d="M272 889q0 -35 27 -59.5t84 -24.5h459q61 0 100 33.5t39 72.5q0 33 -30.5 57.5t-100.5 24.5q-82 2 -143 2h-107q-92 0 -129 -1t-49 -1h-10q-70 0 -105 -33.5t-35 -70.5z" />
<glyph unicode="&#xb0;" horiz-adv-x="456" d="M264 940q0 -51 30 -86t103 -35q49 0 100.5 20.5t95.5 54.5t76.5 79t45.5 96h-2q10 37 10 64q0 53 -30.5 90t-98.5 37q-63 0 -117.5 -26t-97.5 -65t-71.5 -87t-39.5 -91q-2 -10 -3 -23.5t-1 -27.5zM455 983v2q0 6 2 12h-2q10 29 37.5 61t68.5 32v-3q0 -8 -2 -16 q-10 -35 -39.5 -61.5t-64.5 -26.5z" />
<glyph unicode="&#xb1;" horiz-adv-x="798" d="M117 229q0 -31 21.5 -53t64.5 -22q4 0 12 -2q6 -2 16 -2h23h12q8 0 17 4h403q8 -4 25 -4h20q12 0 19 2h-5q2 0 4.5 1t4.5 1q27 0 50 11t40.5 27.5t28 38t10.5 39.5q0 31 -18.5 50.5t-61.5 19.5l-74 -2h-418q-12 4 -20 4q-20 0 -37 -4l-8 -2q-59 0 -94 -35t-35 -72z M242 713q0 -29 21.5 -51.5t64.5 -22.5q4 0 12 -2q16 -4 39 -4q18 0 27 4h88l-27 -105q-8 -12 -12 -29.5t-9 -31.5l3 4q-4 -10 -5 -14v-6q-4 -14 -5 -22.5t-1 -12.5q0 -41 22.5 -56.5t51.5 -15.5q35 0 68.5 21.5t44.5 58.5q2 6 5 19l7 30q4 23 10 40.5t6 19.5l29 100h121 q10 -4 26 -4q27 0 33 2q10 4 12 4h3q57 0 94 39t37 78q0 31 -18.5 50t-61.5 19l-78 -2h-117l29 97q14 16 16 34v2q0 4 2 7q2 4 2 6q0 4 2 6q2 10 3 21.5t1 21.5q0 39 -21.5 57.5t-51.5 18.5q-35 0 -68 -25t-45 -68q-2 -6 -4 -10l-4 -8q-12 -25 -12 -47v-2l-33 -111h-115 q-8 4 -18 4q-18 0 -39 -4l-6 -2q-59 0 -94 -34.5t-35 -73.5z" />
<glyph unicode="&#xb2;" horiz-adv-x="679" d="M152 575q0 -35 21.5 -57t62.5 -22q20 4 27 5t30 7l-2 -2q43 10 108.5 20.5t128.5 10.5q74 0 114 -3.5t56 -5.5h15q68 0 95.5 31t35.5 70v-2q2 8 2 30q0 59 -52.5 83t-166.5 24h-19q-8 0 -18 -2l135 131q102 94 154.5 179t60.5 126v2q2 8 2 19v18q0 66 -41 105.5 t-119 39.5q-41 0 -87 -8t-91 -31q-37 -16 -85 -44.5t-91 -60.5t-73.5 -66.5t-37.5 -63.5v-16q0 -20 10.5 -39t24 -33t29.5 -22.5t29 -8.5q33 4 65.5 24.5t85.5 61.5q29 25 67 47.5t66 32.5q-25 -33 -80 -91l-118 -122l-124 -120q-60 -56 -93 -83q-74 -66 -97.5 -95.5 t-27.5 -39.5q-2 -6 -2 -14v-15z" />
<glyph unicode="&#xb3;" horiz-adv-x="710" d="M170 709q0 -39 22.5 -73t62.5 -58.5t93 -39t115 -14.5q70 0 136.5 17.5t121.5 53.5t94 89t51 125q4 12 4 25v28q0 78 -47 135q72 45 112 91.5t50 109.5v2q2 10 3 18.5t1 18.5q0 82 -59.5 128t-138.5 46q-47 0 -124 -25.5t-153 -65.5t-133 -87t-66 -88v-19 q0 -35 20.5 -61.5t55.5 -36.5q-16 -10 -23.5 -27.5t-11.5 -42.5v3q-2 -6 -2 -17v-16q0 -41 19.5 -74t56.5 -33h10q8 0 15 4h14q2 2 -6 2q68 23 119 23q27 0 44 -5t17 -16v-4q-8 -35 -51 -62.5t-111 -27.5q-33 0 -55.5 3t-24.5 14q-6 23 -20 37t-30.5 22t-30 11t-19.5 3 q-41 0 -80 -19.5t-49 -72.5l2 4q-4 -10 -4 -16v-12zM487 1053q72 63 146 101t110 40q-10 -20 -37.5 -40.5t-63.5 -40t-77 -35t-78 -25.5z" />
<glyph unicode="&#xb4;" horiz-adv-x="956" d="M504 956q0 -25 15.5 -36t45.5 -23l10 -2h5q16 0 33.5 7t58.5 46q31 31 110 78l63 42q26 17 46 36.5t37.5 44.5t36.5 59q14 31 14 60q0 61 -61 61q-23 0 -56 -11t-67 -32q-31 -18 -66 -48t-69.5 -64.5t-65.5 -71.5t-53 -68q-37 -53 -37 -78z" />
<glyph unicode="&#xb5;" horiz-adv-x="989" d="M55 -276q0 -35 18.5 -55.5t69.5 -28.5h21q37 0 61.5 13t40 35.5t25.5 52.5l20 60h2l41 156q49 0 81 2t64.5 10t75.5 24l115 42q4 -43 32 -54.5t66 -11.5q33 0 63 7.5t52.5 23.5t36.5 42t14 64q0 4 -1 5.5t-1 5.5l172 661q31 70 31 111t-22.5 57.5t-57.5 16.5h-16 q-63 -6 -103.5 -44t-74.5 -126l-129 -498q-29 -16 -64 -33.5t-72.5 -33t-75.5 -27t-69 -13.5h-6q-18 0 -30.5 11.5t-12.5 38.5q0 4 2 16t6 29l-2 -2l135 481v-4q18 43 19 86q0 41 -21.5 65.5t-66.5 26.5h-11q-37 0 -66.5 -14.5t-51 -38t-32.5 -50t-14 -51.5l-64 -246 l-44 -170q-18 -69 -27.5 -109t-15.5 -61.5t-7 -29.5t-3 -14v2l-80 -322q-2 -6 -2 -12t-2 -10q-19 -53 -19 -86z" />
<glyph unicode="&#x3bc;" horiz-adv-x="989" d="M55 -276q0 -35 18.5 -55.5t69.5 -28.5h21q37 0 61.5 13t40 35.5t25.5 52.5l20 60h2l41 156q49 0 81 2t64.5 10t75.5 24l115 42q4 -43 32 -54.5t66 -11.5q33 0 63 7.5t52.5 23.5t36.5 42t14 64q0 4 -1 5.5t-1 5.5l172 661q31 70 31 111t-22.5 57.5t-57.5 16.5h-16 q-63 -6 -103.5 -44t-74.5 -126l-129 -498q-29 -16 -64 -33.5t-72.5 -33t-75.5 -27t-69 -13.5h-6q-18 0 -30.5 11.5t-12.5 38.5q0 4 2 16t6 29l-2 -2l135 481v-4q18 43 19 86q0 41 -21.5 65.5t-66.5 26.5h-11q-37 0 -66.5 -14.5t-51 -38t-32.5 -50t-14 -51.5l-64 -246 l-44 -170q-18 -69 -27.5 -109t-15.5 -61.5t-7 -29.5t-3 -14v2l-80 -322q-2 -6 -2 -12t-2 -10q-19 -53 -19 -86z" />
<glyph unicode="&#xb6;" horiz-adv-x="964" d="M193 508q0 -109 57 -169t170 -60h31q16 0 30 2l-114 -457q-6 -25 -7 -51q0 -47 21.5 -71t56.5 -24h13q6 0 16 5l-4 -2q35 8 60.5 25.5t46 46t38 73.5t35.5 111l293 1087h18q2 0 5.5 1t7.5 1t11 -3t11 -13l-321 -1168v2q-10 -29 -11 -57q0 -47 22.5 -69.5t57.5 -22.5h11 q6 0 16 4l-4 -2q37 8 61.5 24.5t45 46t38 74.5t35.5 111l297 1159l-2 -2q4 10 4 14v13q0 37 -25.5 59.5t-62.5 34.5t-77 16t-66 4q-109 0 -232 -41t-235.5 -117.5t-200.5 -189t-125 -256.5q-12 -41 -17 -74.5t-5 -64.5z" />
<glyph unicode="&#xb7;" horiz-adv-x="364" d="M180 528q0 -51 34 -92t87 -41q39 0 70.5 16.5t55.5 41t39 52t21 52.5l9 34q4 17 4 34q0 41 -19.5 68.5t-79.5 27.5q-39 0 -74.5 -14.5t-64.5 -37t-49 -50t-27 -54.5v4q-4 -10 -5 -20.5t-1 -20.5z" />
<glyph unicode="&#xb8;" horiz-adv-x="847" d="M309 -188q0 -29 10.5 -51.5t45.5 -28.5q4 0 8 -1t8 -1q41 0 85 48t69 116v-3l51 113q2 8 3 15.5t-1 5.5q4 20 10 40.5t6 34.5q0 31 -16.5 53.5t-63.5 22.5q-66 0 -102.5 -52t-54.5 -118v2l-27 -90q-8 -12 -12 -20.5l-7.5 -15.5t-5.5 -16t-4 -24q-2 -10 -2 -30z" />
<glyph unicode="&#xb9;" horiz-adv-x="327" d="M203 573q0 -18 11 -35.5t34 -27.5q14 -12 25.5 -14t25.5 -2h4q53 0 69.5 23.5t26.5 64.5l25 139l42 187t35.5 139.5t29 98.5t22.5 66v-2q2 10 6 23.5t6 13.5q2 8 6 19.5t0 3.5l2 10v10q0 31 -14 50.5t-32.5 30.5t-34 14.5t-17.5 3.5q-25 0 -55.5 -15.5t-60 -35t-52 -40 t-28.5 -28.5v-2v-27q0 -53 49 -80q-4 -8 -5 -15t-4 -13q-10 -35 -12 -49.5t-6 -24.5l-68 -266q-4 -18 -8 -50t-9 -65t-9 -62t-4 -43z" />
<glyph unicode="&#xba;" horiz-adv-x="765" d="M125 502q0 -31 30.5 -55.5t90.5 -24.5l20 -4q10 -2 19.5 -3t25.5 -1q10 0 21.5 2t21.5 8l252 2l133 2q59 0 94 26.5t35 59.5t-33.5 56.5t-107.5 23.5q-8 0 -14 1t-17 1q-10 0 -18 1t-19 1q-10 0 -21 -1t-22 -3h-284h-27q-16 0 -26.5 -2t-16.5 -2h-6q-66 0 -98.5 -27.5 t-32.5 -60.5zM303 821q0 -78 45 -133t156 -55q80 0 162 31.5t150.5 87t120.5 128t75 154.5q8 25 11 48.5t3 45.5q0 82 -45 139.5t-152 57.5q-98 0 -184 -40t-153.5 -102.5t-113.5 -138t-65 -145.5q-10 -37 -10 -78zM492 850q0 14 4 35q12 41 37.5 87t63.5 84t87 63.5 t109 25.5q27 0 36 -13.5t9 -35.5q0 -10 -2 -21.5t-7 -25.5l2 2q-12 -47 -41.5 -91.5t-69.5 -79t-87 -55t-96 -20.5q-27 0 -36 13.5t-9 31.5z" />
<glyph unicode="&#xbb;" horiz-adv-x="880" d="M135 348q4 -51 20.5 -68.5t41.5 -17.5h20q33 4 53.5 19.5t42.5 35.5v-2l293 238q25 12 41.5 27.5t24.5 54.5q0 4 1 9t1 9q0 31 -18.5 52.5t-45.5 33.5l-186 152q-57 35 -84 35h-8q-31 -2 -51.5 -16.5t-42.5 -57.5q-8 -12 -9 -31q0 -23 12.5 -49.5t47.5 -46.5l-2 2 l129 -102l-195 -160h4q-59 -39 -74.5 -63.5t-15.5 -53.5zM502 381q4 -51 18.5 -69.5t40.5 -18.5h21q33 6 52 20.5t42 36.5v-2l295 238q25 12 41 27.5t24 52.5v20q0 31 -17.5 52.5t-43.5 33.5l-207 164q-33 23 -63 22h-9q-29 -4 -48 -17t-46 -56q-8 -16 -8 -33q0 -20 12 -47 t47 -47l129 -101l-196 -159h2q-53 -35 -69.5 -58.5t-16.5 -52.5v-6z" />
<glyph unicode="&#xbc;" horiz-adv-x="1259" d="M154 86q0 -74 98 -74q25 0 45 12.5t38.5 30t34 38t27.5 38.5q2 6 10 17l15 24q8 12 14 22.5t10 14.5q27 43 71 103l97 129l113 145l119 149l175 224q83 105 130 180v4q12 20 24.5 45.5t16.5 48.5q2 10 2 25q0 35 -17.5 54t-60.5 19q-74 0 -107.5 -29.5t-50.5 -62.5l3 6 l-94 -119l-130 -171l-148 -199l-148 -202l-128 -179q-57 -82 -88 -133h2q-63 -94 -71 -137l2 4q-4 -10 -4 -17v-10zM186 537q0 -20 14.5 -36t32.5 -24q16 -14 29.5 -16t30.5 -2h4q31 0 49.5 6t29.5 18.5t17 28.5t10 37l29 143q25 111 46.5 193t40 141l32.5 100l24 70 q10 23 14.5 37l6.5 20l2 11v10q0 33 -16.5 52.5t-37 29.5t-38 14t-19.5 4q-27 0 -60.5 -15.5t-65 -35.5t-56 -40.5t-33.5 -29.5v-2v-2q-2 -10 -2 -24q0 -55 56 -82q-16 -53 -21.5 -72.5l-9.5 -32.5v-2l-70 -256q-4 -20 -10 -54l-12 -70l-11.5 -68.5t-5.5 -48.5v-2zM563 322 q0 -20 8.5 -40t20.5 -36.5t27.5 -26.5t29.5 -10h17q25 8 54.5 15l61.5 15l63 13q30 6 54 10l-4 -20l-4 -21v2q-4 -12 -4 -22t-2 -21v2q-8 -33 -8 -71q0 -113 106 -113q29 0 53.5 11t43 26.5t29.5 34t15 32.5q-2 10 -2 21v20q0 12 1 22.5t5 27.5v2q0 4 2 8l5.5 27.5t7.5 35.5 h129q20 0 40.5 11.5t36 29t25.5 36.5t12 36l-2 -4q4 10 5 14v12q0 31 -14.5 49.5t-38 27.5t-54.5 12.5t-61 3.5l59 130q33 71 68 136l26 47l-17 32.5t-27.5 39t-36 32t-40.5 13.5q-31 -12 -92 -53.5t-136 -97.5t-154 -122l-145 -126q-67 -60 -111 -109t-50 -76q0 -4 -1 -9 t-1 -9zM893 463q51 47 87 73.5l60 43.5q-8 -20 -16 -44t-16 -53q-31 -2 -59.5 -7t-55.5 -13z" />
<glyph unicode="&#xbd;" horiz-adv-x="1261" d="M154 86q0 -74 98 -74q25 0 45 12.5t38.5 30t34 38t27.5 38.5q2 6 10.5 17.5t15.5 23.5l14 24q7 11 9 15q29 43 73 102l97 129l112 145l118 148l176 226q82 106 129 180v4q12 20 25.5 46t15.5 48q2 8 2 25q0 33 -17.5 52t-60.5 19q-72 0 -106.5 -29.5t-51.5 -62.5l3 6 q-35 -41 -94 -117l-129 -171l-148 -199l-148 -203l-127 -180l-90 -133h2q-63 -94 -71 -137l2 4q-4 -10 -4 -17v-10zM188 539q0 -23 13.5 -37.5t31.5 -24.5q16 -14 29.5 -16t30.5 -2h4q59 0 78.5 24.5t27.5 65.5l29 143q25 111 46.5 193t40 141l32.5 100l24 70q16 41 21 57 l2 13v10q0 33 -16.5 52.5t-37 29.5t-38 14t-19.5 4q-27 0 -60.5 -15t-65 -35.5t-56 -41t-33.5 -31.5l2 2q0 -2 -2 -2v-2v-24q0 -27 12.5 -48.5t41.5 -33.5q-16 -53 -21.5 -73.5t-9.5 -31.5v-2l-70 -258q-4 -20 -10 -54l-12 -70q-6 -36 -10.5 -68.5t-4.5 -48.5zM596 57 q0 -37 20.5 -60.5t67.5 -23.5l27.5 5.5t29.5 5.5l-2 -2q45 10 113 21t131 11q78 0 118 -3t56 -5h17q70 0 98 32t37 71v-3q2 8 2 31q0 61 -54.5 86t-171.5 25h-20q-8 0 -18 -2l139 133q51 47 91 94t67.5 88t42 75t18.5 54v6q2 10 3 18.5t1 18.5q0 68 -45 108t-123 40 q-43 0 -88 -9.5t-90 -31.5q-39 -16 -88 -45t-93 -63t-76 -68.5t-38 -65.5v-14q0 -20 10 -40t24.5 -34t31 -23.5t28.5 -9.5q33 4 68 25.5t88 62.5q31 25 68.5 47.5t66.5 32.5q-25 -35 -82 -94l-123 -123l-126 -121l-93 -86l-60 -55l-38 -37q-14 -14 -19.5 -22.5t-7.5 -12.5 q-6 -18 -7 -25.5t-1 -11.5z" />
<glyph unicode="&#xbe;" horiz-adv-x="1605" d="M176 692q0 -39 23.5 -72.5t64.5 -59t96.5 -41t118.5 -15.5q70 0 138.5 18.5t126 54t97.5 90t54 128.5q6 27 6 59q0 76 -49 135q72 47 114 94t52 113v2q4 20 4 37q0 82 -60.5 130t-144.5 48q-49 0 -129 -26.5t-157.5 -67.5t-137 -89t-67.5 -89v-17q0 -37 21.5 -65.5 t55.5 -38.5q-25 -16 -36 -72q0 -6 -1 -14t-1 -14q0 -43 21.5 -77t57.5 -34q16 0 25 4q2 0 5 1t5 1q63 23 121 23q29 0 47.5 -5.5t18.5 -15.5q0 -4 -2 -4v-2v2q-8 -35 -51.5 -63.5t-114.5 -28.5q-35 0 -58.5 4t-27.5 12l2 -2q-6 25 -19.5 40.5t-30 23.5t-32 11t-21.5 3 q-43 0 -83 -20.5t-50 -73.5l2 4q-4 -10 -4 -18v-13zM489 86q0 -74 99 -74q25 0 46 12.5t39.5 30t34 38t27.5 38.5q2 6 9 17l16 24q8 12 14 23.5t10 15.5q29 43 73 102l97 129l113 145l119 148l179 226q83 106 130 180v4q12 20 25.5 46t17.5 48v25q0 33 -17.5 53t-60.5 20 q-72 0 -106.5 -28.5t-50.5 -59.5l-95 -117l-131 -171l-149 -199l-149 -203l-129 -180q-58 -82 -91 -133h2q-63 -96 -69 -137l2 4q-4 -10 -5 -17v-10zM504 1047q74 63 148.5 102t113.5 41q-10 -20 -38 -41t-65.5 -40t-79.5 -35.5t-79 -26.5zM903 322q0 -41 31 -76t63 -35 q57 14 127 29.5t117 21.5l-4 -19.5l-4 -19.5q-4 -10 -5 -21.5t-3 -21.5v2q-6 -37 -6 -71q0 -113 108 -113q31 0 51.5 9t33.5 23.5t19.5 32t10.5 31.5l-3 25q-1 8 -1 24q0 10 1 19.5t5 23.5q2 12 7 34t11 44l156 2q20 0 40.5 11.5t36 29t26 36.5t14.5 36l-2 -4q4 10 4 16v10 q0 33 -15.5 51.5t-40 27.5t-56.5 12.5t-64 3.5l-25 -2q25 61 47.5 98t48.5 72l29 43q14 20 35 55l24 47q-6 12 -17 31.5t-27.5 38t-36 32t-42.5 13.5q-31 -12 -92 -53.5l-137 -97.5l-156 -121q-80 -65 -146.5 -126t-111.5 -110t-49 -76q0 -4 -1 -9t-1 -9zM1239 467l70 60 q33 28 63 51q-29 -45 -47 -97q-27 -2 -46 -6z" />
<glyph unicode="&#xbf;" horiz-adv-x="1024" d="M92 -154q0 -49 21.5 -90t57.5 -71.5t84 -47t101 -16.5q63 0 129 19.5t129.5 50t124 68.5t113.5 75q49 35 90 80t55 90q4 16 6.5 28.5t2.5 22.5q0 45 -24 67.5t-62 22.5q-41 0 -97.5 -29.5t-117.5 -90.5h2q-82 -66 -158 -114t-139 -48q-29 0 -50.5 7t-21.5 17v7 q8 35 76.5 86t160.5 110l130 88q66 45 123 94.5t99 101.5t60 111l2 9q2 0 4 8v-2q4 10 6 21t2 30q4 20 5 37q0 51 -31 78.5t-107 27.5q-37 0 -57 -28.5t-47 -77.5q-18 -35 -44 -77t-66 -88t-98 -92t-144 -89h2q-51 -25 -101.5 -60t-92.5 -78t-73.5 -91t-46.5 -101h2 q-6 -20 -8 -36t-2 -30zM739 848q0 -47 23.5 -75t77.5 -28q76 0 138 35t89 138q8 27 8 45q0 61 -42 86.5t-91 25.5q-76 0 -124 -45t-70 -125q-4 -14 -6.5 -27.5t-2.5 -29.5z" />
<glyph unicode="&#xc0;" horiz-adv-x="1163" d="M29 59q0 -35 21.5 -60.5t80.5 -29.5h8q49 0 91 52.5t92 130.5l-3 -2l248 362l40 -5q40 -5 97.5 -11.5t119 -11.5t104.5 -7l8 -33q4 -16 8 -28l-2 2l13 -58l8.5 -40t5.5 -33.5t6 -36.5q6 -35 17.5 -83t25.5 -92t29.5 -75t27.5 -31h15q84 0 117.5 57.5t33.5 135.5v26 q-6 72 -22.5 171.5l-36.5 211.5l-32 174q-15 88 -27.5 173.5t-21.5 162t-11 138.5v18q0 66 -28 107.5t-75 41.5q-37 0 -80 -31.5t-86 -107.5l2 2l-727 -1034q-8 -10 -19 -27.5t-22.5 -39t-18.5 -45.5t-7 -44zM688 694l184 279q4 -66 10.5 -138.5t16.5 -125.5zM803 1733 q6 -37 15 -64t23.5 -48.5t35 -40.5l51.5 -46q70 -57 84 -82q27 -47 51 -56.5t35 -9.5h6q45 16 67.5 32t22.5 52q0 27 -14 62v-2q-10 37 -28.5 78t-42.5 81t-49.5 73.5t-49.5 54.5q-68 51 -119 51q-41 0 -64.5 -29t-23.5 -88v-18z" />
<glyph unicode="&#xc1;" horiz-adv-x="1167" d="M29 59q0 -35 21.5 -60.5t80.5 -29.5h8q49 0 91 52.5t94 130.5l-2 -2l247 362l40 -5q40 -5 97.5 -11.5t120 -11.5t105.5 -7q4 -16 7 -32.5t7 -28.5l-2 2l13 -58l10 -39q4 -17 6 -34t6 -37q6 -35 17.5 -83t24.5 -92t28.5 -75t27.5 -31h17q84 0 117.5 57.5t33.5 135.5v26 q-6 72 -22.5 171.5l-36.5 211.5l-32 174q-15 88 -27.5 173.5t-21.5 162t-11 138.5v18q0 66 -29 107.5t-76 41.5q-37 0 -79 -31.5t-87 -107.5l2 2l-729 -1034q-8 -10 -19 -27.5t-22.5 -39t-18.5 -45.5t-7 -44zM690 694l187 279q4 -66 10 -138.5t14 -125.5zM823 1454 q0 -27 16.5 -39t51.5 -26l8 -3h6q16 0 36 8.5t63 51.5q16 16 46 37l72 49l68 46q29 19 51.5 40.5t40.5 48.5t39 66q14 35 14 67q0 68 -65 68q-25 0 -59.5 -13.5t-73.5 -35.5q-33 -18 -71 -52t-75 -72t-70.5 -79t-58.5 -76q-39 -57 -39 -86z" />
<glyph unicode="&#xc2;" horiz-adv-x="1167" d="M29 59q0 -35 21.5 -60.5t80.5 -29.5h8q49 0 91 52.5t94 130.5l-2 -2l247 362l40 -4l98 -10q57 -6 119.5 -11.5t105.5 -7.5q4 -18 7 -34.5t7 -26.5h-2l13 -58l10 -39q4 -17 6 -34t6 -37q6 -35 17.5 -83t24.5 -92t28.5 -75t27.5 -31h17q84 0 117.5 57.5t33.5 135.5v26 q-6 72 -22.5 171.5l-36.5 211.5l-31.5 175.5t-28 174.5t-21.5 160.5t-11 137.5v20q0 66 -29 106.5t-76 40.5q-37 0 -79 -31.5t-87 -105.5l2 2l-729 -1036q-8 -10 -19 -27.5t-22.5 -39t-18.5 -45.5t-7 -44zM635 1475q0 -23 17.5 -39.5t60.5 -28.5h-2q10 -4 24 -4 q23 0 48.5 14.5t64.5 52.5h-2l196 170l78 -155q16 -49 47 -65.5t52 -16.5q6 0 13 1t13 5q41 16 58.5 33.5t23.5 46.5v-2q4 10 4 16v10q0 14 -3 26l-7 28l-123 239q-6 39 -30.5 65.5t-63.5 26.5q-41 0 -59.5 -15t-34.5 -38l-295 -254q-6 -6 -8 -6q-23 -16 -40.5 -33.5 t-27.5 -46.5l-4 -16v-14zM690 694l187 279q4 -66 10 -138.5t14 -125.5z" />
<glyph unicode="&#xc3;" horiz-adv-x="1169" d="M29 59q0 -35 21.5 -59.5t80.5 -28.5h8q49 0 91 51.5t94 127.5l-2 -3l247 363l40 -4l98 -10q57 -6 119.5 -11.5t105.5 -7.5q4 -18 8 -33.5t8 -27.5l-2 2l13 -58l8.5 -40t5.5 -33.5t6 -36.5q6 -35 17.5 -83t25.5 -91t29.5 -74t27.5 -31h15q84 0 118.5 56.5t34.5 134.5v26 q-8 70 -24.5 170.5t-36.5 210.5l-32 174q-15 88 -27.5 173t-21.5 161t-11 137v21q0 66 -28 106.5t-75 40.5q-37 0 -80 -31.5t-88 -105.5h2l-729 -1032q-8 -10 -19 -27.5t-22.5 -38t-18.5 -44.5t-7 -44zM690 692l187 277q4 -63 10 -136t16 -126zM705 1495q0 -31 22.5 -53.5 t63.5 -22.5q27 0 49 16.5t45 39.5l30 26q14 12 25 12l12 -20h-2l19 -27q10 -14 25.5 -26.5t38 -20.5t54.5 -8q47 0 87 9.5t73 33t57.5 64.5t41.5 104l2 8q0 2 1 4t1 4q0 29 -25 49.5t-59 20.5q-23 0 -46.5 -11t-39.5 -36q-4 -4 -7.5 -12.5t-5.5 -16.5l-17 -35 q-9 -18 -24 -18q-10 0 -15 9t-11 22q-14 31 -38 58.5t-77 27.5q-33 0 -77 -15.5t-85 -40t-72.5 -56.5t-41.5 -64q-4 -8 -4 -15v-10z" />
<glyph unicode="&#xc4;" horiz-adv-x="1169" d="M29 59q0 -35 21.5 -59.5t80.5 -28.5h8q49 0 91 51.5t94 127.5l-2 -3l247 363l40 -4l99 -10q58 -6 119.5 -11.5t104.5 -7.5q4 -18 8 -33.5t8 -27.5l-2 2l13 -58l8.5 -40t5.5 -33.5t6 -36.5q6 -35 18.5 -83t25.5 -91t28.5 -74t27.5 -31h17q84 0 117.5 56.5t33.5 134.5v26 q-6 70 -22.5 170.5t-36.5 210.5l-32 174q-15 88 -27.5 173t-21.5 161t-11 137v21q0 66 -29 107.5t-76 41.5q-37 0 -80 -32.5t-86 -106.5l2 2l-731 -1034q-8 -10 -19 -27.5t-22.5 -38t-18.5 -44.5t-7 -44zM686 1536q0 -53 33 -95t88 -42q39 0 70.5 16.5t55 41t40 52 t22.5 52.5v-2q12 31 13 69q0 41 -20.5 72t-80.5 31q-39 0 -74.5 -15.5t-65.5 -39t-50.5 -52.5t-26.5 -55q-2 -6 -3 -12.5t-1 -20.5zM692 692l187 279q4 -66 9 -138.5t15 -125.5zM1059 1544q0 -53 32.5 -95t88.5 -42q39 0 71.5 16.5t56 40t39 52t21.5 53.5v-2q4 16 8 34.5 t4 36.5q0 39 -20.5 70t-79.5 31q-39 0 -75 -15.5t-65.5 -39t-51 -51t-27.5 -54.5q0 -6 -1 -14.5t-1 -20.5z" />
<glyph unicode="&#xc5;" horiz-adv-x="1167" d="M29 59q0 -35 21.5 -60.5t80.5 -29.5h8q49 0 91 52.5t94 130.5l-2 -2l247 362l40 -5q40 -5 97.5 -11.5t120 -11.5t105.5 -7q4 -16 7 -32.5t7 -28.5l-2 2l13 -58l10 -39q4 -17 6 -34t6 -37q6 -35 17.5 -83t24.5 -92t28.5 -75t27.5 -31h17q84 0 117.5 57.5t33.5 135.5v26 q-6 72 -22.5 171.5l-36.5 211.5l-32 174q-15 88 -27.5 173.5t-21.5 162t-11 138.5v18q0 55 -20.5 93t-55.5 50q51 8 99 33t89 61.5t72 83t43 97.5h-2q6 18 8 36.5t2 34.5q0 57 -32.5 98.5t-102.5 41.5q-68 0 -128 -29t-106.5 -73t-77 -96t-42.5 -99q-6 -29 -6 -58 q0 -51 26.5 -89t91.5 -44q-29 -10 -61.5 -41.5t-67.5 -89.5l2 2l-729 -1034q-8 -10 -19 -27.5t-22.5 -39t-18.5 -45.5t-7 -44zM690 694l187 279q4 -66 10 -138.5t14 -125.5zM1040 1565q0 4 1 8t1 8q10 31 40 62.5t71 31.5q2 0 2 -2q0 -8 -2 -16q-10 -37 -42 -67.5t-69 -30.5 q-2 0 -2 6z" />
<glyph unicode="&#xc6;" horiz-adv-x="1961" d="M-25 -23q0 -27 18.5 -44t63.5 -19h9q41 0 101 44t138 110l-2 -2q6 4 11 9t12 9l432 365h389l-57 -211l-7.5 -19.5l-7.5 -19.5v2q-14 -41 -22.5 -74t-8.5 -61q0 -47 28 -74t104 -27h18q10 0 18 2h-2l633 45q51 0 86 10.5t56.5 25.5t32 34.5t14.5 38.5l-2 -4q4 14 5 24.5 t1 20.5q0 47 -33 66.5t-96 19.5h-31l-549 -45l94 334l441 47q10 2 21 3t22 1q49 0 93 19.5t64 86.5v2q10 25 11 37q0 35 -28 61.5t-110 26.5h-26q-12 0 -27 -2l-393 -49q18 68 33 113l24 75q10 31 17.5 50.5t11.5 33.5l475 31q10 0 21.5 1t21.5 1q45 2 78 4t56.5 13.5 t38.5 34t28 63.5v-2q4 12 5 21.5t1 17.5q0 51 -36 68.5t-91 17.5q-18 0 -36.5 -1t-37.5 -3q-8 0 -16 -1t-15 -1q-180 -12 -280 -17.5t-160 -5.5h-135q-41 0 -88 -16.5t-70 -38.5l-1218 -1069q-2 -4 -7.5 -8.5t-9.5 -8.5h2l-40 -37q-22 -20 -41 -42.5t-32.5 -45.5t-13.5 -41z M973 641l295 283l-4 -35l-8 -30q-3 -13 -7 -28l-19 -77.5t-22 -75.5z" />
<glyph unicode="&#xc7;" horiz-adv-x="1120" d="M176 317q0 -131 51.5 -225t155.5 -131l-29 -90q-18 -29 -22 -40t-10 -46v2q-4 -20 -5 -39q0 -29 14.5 -51.5t51.5 -30.5q4 0 9 -1t7 -1q25 0 50.5 14.5t49 39t44 57t35.5 69.5q8 16 13 29.5t11 24.5q14 35 25 57q78 16 154.5 51t145 79t127 95t97.5 101l-2 -2 q43 49 43 90q0 37 -25.5 55t-66.5 18q-43 0 -97.5 -23.5t-97.5 -74.5q-18 -27 -57 -56.5t-85 -55t-94 -42t-89 -16.5q-84 0 -117 51t-33 125q0 82 25 168q33 119 92 233.5t137 205t167 146.5t179 56q53 0 79 -6t36 -18l23 -28l22 -26q23 -29 42 -47t34 -18q33 0 62.5 13 t52 37t36 52.5t13.5 59.5q0 45 -35 86q-66 76 -151 103.5t-185 27.5q-131 0 -263 -73t-247 -192.5t-205 -274.5t-135 -320q-16 -59 -24.5 -115t-8.5 -103z" />
<glyph unicode="&#xc8;" horiz-adv-x="1036" d="M143 76q0 -47 29 -75t100 -28h19q10 0 18 2h-2l619 48q51 0 84.5 11t54 26.5t31 35t14.5 37.5l-2 -4q4 14 5 23.5t1 19.5q0 49 -31.5 68.5t-93.5 19.5h-31l-536 -45l90 338l432 47q10 2 21.5 3t21.5 1q47 0 90 19.5t64 89.5v2q10 20 10 37q0 35 -27.5 62.5t-107.5 27.5 h-25q-14 0 -26 -2l-385 -52l75 275l473 33q10 0 20.5 1t20.5 1q45 2 77 4t54.5 13t39 33.5t28.5 63.5v-2q4 14 5 22.5t1 16.5q0 53 -35.5 70.5t-89.5 17.5q-18 0 -36.5 -1t-36.5 -3q-6 0 -14.5 -1t-14.5 -1q-176 -12 -274.5 -17t-155.5 -5h-133q-41 0 -72 -16.5t-51.5 -39 t-31.5 -50t-13 -48.5l-9 -41q-5 -23 -14 -53l-46 -200q-28 -120 -68 -273l-91 -338q-4 -10 -6 -19.5t-6 -19.5v2q-14 -41 -23.5 -74.5t-9.5 -62.5zM758 1733q6 -37 14 -64t22.5 -48.5t35.5 -40.5l53 -46l54 -48q22 -19 28 -34q29 -47 53 -56.5t33 -9.5h6q47 16 68.5 31 t21.5 53q0 27 -14 62v-2q-10 37 -29 78t-41.5 81t-48 73.5t-49.5 54.5q-66 49 -121 49q-39 0 -62.5 -28t-23.5 -87v-18z" />
<glyph unicode="&#xc9;" horiz-adv-x="1036" d="M143 76q0 -47 29 -75t100 -28h19q10 0 18 2h-2l619 48q51 0 84.5 11t54 26.5t31 35t14.5 37.5l-2 -4q4 14 5 23.5t1 19.5q0 49 -31.5 68.5t-93.5 19.5h-31l-536 -45l90 338l432 47q10 2 21.5 3t21.5 1q47 0 90 19.5t64 89.5q10 20 10 39q0 35 -27.5 62.5t-107.5 27.5h-25 q-14 0 -26 -2l-385 -52l75 275l473 33q10 0 20.5 1t20.5 1q45 2 77 4t54.5 13t39 33.5t28.5 63.5v-2q4 14 5 22.5t1 16.5q0 53 -35.5 70.5t-89.5 17.5q-18 0 -36.5 -1t-36.5 -3q-6 0 -14.5 -1t-14.5 -1q-176 -12 -274.5 -17t-155.5 -5h-133q-41 0 -72 -16.5t-51.5 -39 t-31.5 -50t-13 -48.5l-9 -41q-5 -23 -14 -53l-46 -200q-28 -120 -68 -273l-91 -338q-4 -10 -6 -19.5t-6 -19.5v2q-14 -41 -23.5 -74.5t-9.5 -62.5zM803 1454q0 -27 16.5 -39t50.5 -26l11 -3h4q16 0 35.5 8.5t62.5 51.5q16 16 46 37l73 49l67 46q29 19 51.5 40.5t41 48.5 t36.5 66q16 39 17 65q0 68 -66 68q-55 0 -133 -47q-33 -18 -70.5 -52t-74.5 -72t-71 -79t-58 -76q-39 -57 -39 -86z" />
<glyph unicode="&#xca;" horiz-adv-x="1036" d="M143 76q0 -47 29 -75t100 -28h19q10 0 18 2h-2l619 48q51 0 84.5 11t54 26.5t31 35t14.5 37.5l-2 -4q4 14 5 23.5t1 19.5q0 49 -31.5 68.5t-93.5 19.5h-31l-536 -45l90 338l432 49q10 2 21.5 3t21.5 1q47 0 90 19.5t64 89.5l7 18q3 8 3 19q0 37 -27.5 63.5t-107.5 26.5 h-25q-14 0 -26 -2l-385 -49l75 272l473 33q10 0 20.5 1t20.5 1q45 2 77 4t54.5 13t39 33.5t28.5 63.5v-2q4 14 5 23.5t1 17.5q0 51 -35.5 68.5t-89.5 17.5q-18 0 -36.5 -1t-36.5 -3q-6 0 -14.5 -1t-14.5 -1q-176 -12 -274.5 -16t-155.5 -4h-133q-41 0 -72 -16.5t-51.5 -40 t-31.5 -51t-13 -48.5l-9 -41q-5 -23 -14 -53l-46 -200q-28 -120 -68 -273l-91 -338q-4 -10 -6 -19.5t-6 -19.5v2q-14 -41 -23.5 -74.5t-9.5 -62.5zM629 1475q0 -23 16.5 -39.5t59.5 -28.5h-3q10 -4 15 -4h10q25 0 49.5 14.5t63.5 52.5h-2l196 168l78 -153q16 -49 46 -65.5 t52 -16.5q4 0 11.5 1t15.5 5q41 16 57.5 33.5t24.5 46.5v-2q4 10 4 16v10q0 23 -12 54l-121 239q-8 39 -31.5 65.5t-64.5 26.5q-39 0 -57.5 -15t-35.5 -38l-294 -254q-6 -6 -9 -6q-23 -16 -39 -33.5t-26 -46.5l-4 -16v-14z" />
<glyph unicode="&#xcb;" horiz-adv-x="1036" d="M143 76q0 -47 29 -75t100 -28h19q10 0 18 2h-2l619 48q51 0 84.5 11t54 26.5t31 35t14.5 37.5l-2 -4q4 14 5 23.5t1 19.5q0 49 -31.5 68.5t-93.5 19.5h-31l-536 -47l90 340l432 47q10 2 21.5 3t21.5 1q47 0 90 19.5t64 89.5l7 18q3 8 3 19q0 35 -27.5 62.5t-107.5 27.5 h-25q-14 0 -26 -2l-385 -50l75 273l473 31q10 0 20.5 1t20.5 1q45 2 77 4t54.5 13t39 33.5t28.5 63.5v-2q4 14 5 23.5t1 17.5q0 53 -35.5 69.5t-89.5 16.5q-18 0 -36.5 -1t-36.5 -3q-6 0 -14.5 -1t-14.5 -1q-176 -10 -274.5 -15t-155.5 -5h-133q-41 0 -72 -16.5t-51.5 -40 t-31.5 -51.5t-13 -48l-9.5 -40t-13.5 -52l-46 -200q-28 -120 -68 -273l-91 -336q-4 -10 -6 -20.5t-6 -20.5v2q-14 -41 -23.5 -73.5t-9.5 -61.5zM678 1536q0 -53 32.5 -95t90.5 -42q39 0 69.5 16.5t54 41t40 52t22.5 50.5q12 31 12 69q0 41 -20.5 72t-79.5 31 q-37 0 -72.5 -15.5t-65.5 -39t-50.5 -52.5t-28.5 -55q-2 -8 -3 -13.5t-1 -19.5zM1049 1544q0 -53 33.5 -95t86.5 -42q39 0 72 16.5t56.5 40t39 52t21.5 53.5v-2l9 34.5t5 36.5q0 39 -21.5 69t-80.5 30q-37 0 -74 -15.5t-65.5 -38t-50 -50t-27.5 -54.5q-4 -17 -4 -35z" />
<glyph unicode="&#xcc;" horiz-adv-x="417" d="M133 70q0 -41 21.5 -68t70.5 -33h21q63 0 88.5 43t46.5 109q0 4 1 7l1 5l274 1018l5 12q2 6 4 11h-2l16 55q8 27 8 49q0 35 -17.5 56.5t-62.5 21.5q-49 0 -80.5 -10.5t-51 -32t-30 -53t-18.5 -74.5l2 2l-278 -1034v4q-10 -23 -14.5 -46.5t-4.5 -41.5zM451 1733 q6 -37 14 -64t21.5 -48.5t33.5 -40.5l49 -46l53.5 -48.5t28.5 -33.5q25 -47 49.5 -56.5t32.5 -9.5h6q45 16 65.5 32t20.5 52q0 25 -12 62v-2q-10 37 -28.5 78t-40 81t-46 73.5t-49.5 54.5q-63 51 -114 51q-39 0 -61.5 -29t-22.5 -88v-18z" />
<glyph unicode="&#xcd;" horiz-adv-x="421" d="M135 70q0 -41 21.5 -68t70.5 -33h23q61 0 88 43t47 109q0 4 1 7l1 5l277 1018q2 6 5 12l5 11h-2q6 29 15 55t9 49q0 35 -17 56.5t-65 21.5q-49 0 -80.5 -10.5t-51 -32t-30 -53t-18.5 -74.5l2 2l-282 -1034v4q-10 -23 -14.5 -46.5t-4.5 -41.5zM428 1454q0 -27 15.5 -39 t48.5 -26l10 -3h6q16 0 34.5 8.5t59.5 51.5q31 31 117 86l64 46q28 19 50.5 40.5t41 48.5t36.5 66q6 18 10.5 34.5t4.5 32.5q0 68 -66 68q-23 0 -56.5 -13.5t-72.5 -35.5q-31 -18 -67.5 -52t-72.5 -72t-69 -79t-57 -76q-20 -29 -28.5 -49.5t-8.5 -36.5z" />
<glyph unicode="&#xce;" horiz-adv-x="423" d="M135 70q0 -41 21.5 -68t72.5 -33q4 0 10.5 -1t10.5 -1q31 0 52.5 11.5t36.5 32t26.5 49t21.5 61.5q0 4 1 7t-1 -1l2 6l277 1018q2 6 5 12t5 13h-2q6 27 15 54t9 48q0 35 -17 56.5t-65 21.5q-49 0 -80.5 -10.5t-51 -32t-31 -52t-19.5 -73.5l2 2l-282 -1036v4 q-19 -43 -19 -88zM291 1475q0 -23 16.5 -39.5t57.5 -28.5h-3q10 -4 15 -4h10q23 0 47.5 14.5t61.5 52.5h-2l192 170l78 -155q16 -49 45 -65.5t49 -16.5q6 0 13.5 1t13.5 5q41 16 57 33.5t23 46.5v-2q4 10 4 16v10q0 14 -3 26l-8 28l-118 239q-8 39 -32 65.5t-63 26.5 t-56 -15t-34 -38l-288 -254q-6 -6 -9 -6q-23 -16 -39 -33.5t-26 -46.5l-2 -16v-14z" />
<glyph unicode="&#xcf;" horiz-adv-x="423" d="M135 70q0 -41 21.5 -68t72.5 -31q4 0 10.5 -1t10.5 -1q31 0 53.5 11.5t37.5 32t26.5 48t21.5 60.5v12l279 1014q2 6 5 12t5 12h-2q6 27 15 54.5t9 48.5q0 35 -18 56.5t-64 21.5q-51 0 -82.5 -10.5t-51 -32t-30 -52t-18.5 -73.5l2 2l-282 -1034v4q-10 -20 -15.5 -44 t-5.5 -42zM319 1526q0 -53 32 -95t87 -42q37 0 69 16t54.5 40.5t37.5 52.5t22 52v-2q12 31 12 70q0 41 -19.5 71.5t-78.5 30.5q-37 0 -73 -16t-64.5 -43t-48 -57.5t-27.5 -57.5q-3 -6 -3 -20zM682 1534q0 -53 33 -95t86 -42q39 0 69.5 16.5t54 41t39 52t21.5 52.5v-3 q4 16 8 35t4 37q0 39 -19.5 70t-78.5 31q-37 0 -72.5 -15.5t-64.5 -39t-49.5 -51.5t-26.5 -54q-2 -6 -3 -14.5t-1 -20.5z" />
<glyph unicode="&#xd0;" horiz-adv-x="1185" d="M111 678q0 -41 27.5 -74t86.5 -33h56l-91 -323q-4 -10 -7 -22.5t-7 -22.5q-10 -35 -16 -70t-6 -67q0 -43 17 -69t71 -26q55 0 150 20.5t211 65.5t240 116t236.5 170t202.5 231.5t135 297.5q25 86 25 156q0 72 -21.5 135.5t-67.5 111.5t-116 75.5t-166 27.5q-70 0 -127 -7 t-107.5 -17.5t-94.5 -23.5l-87 -27q-16 -6 -34.5 -10.5t-34.5 -10.5h2q-82 -29 -124 -91.5t-42 -125.5l-74 -250h-26q-25 0 -36.5 -1t-19.5 -3q-6 -2 -14 -2q-72 0 -106.5 -42t-34.5 -89zM430 240l94 333l144 2q31 0 57.5 12.5t46 31t29.5 42t10 48.5q0 41 -31.5 72.5 t-103.5 31.5h-84l67 246q66 33 154 61.5t188 28.5t140.5 -50t40.5 -120q0 -43 -13 -92l2 2q-41 -145 -127 -256t-191 -189.5t-217 -128.5t-206 -75z" />
<glyph unicode="&#xd1;" horiz-adv-x="1282" d="M133 63q0 -94 109 -94h16q31 2 56.5 16.5t43 36t26.5 47t9 52.5v6l199 713q4 -10 10 -23.5t14 -25.5q45 -84 86 -169t66 -151q14 -39 40 -96l54 -117l57 -116l46 -93l6 -12l-2 2q4 -10 11 -22.5t20.5 -21.5t37 -15.5t60.5 -6.5q31 0 53.5 15.5t38.5 37t28.5 46t18.5 45.5 v2l301 1079q6 29 10 51.5t4 38.5q0 47 -22.5 65.5t-81.5 18.5q-41 0 -67.5 -13t-42 -34.5t-23.5 -47.5l-15 -50l-221 -795l-24 44q-12 22 -15 30q-25 43 -45 85l-40 85l-40 90l-43 102l-42 97l-48 110q-14 20 -14 27q-6 10 -12 26.5t-21 73.5q-6 20 -17 46t-27.5 49.5 t-38 39t-48.5 15.5q-29 0 -51.5 -6.5t-40.5 -24.5t-34.5 -51t-33.5 -84l-292 -1043v2q-19 -49 -19 -82zM723 1485q0 -33 21.5 -52.5t62.5 -19.5q27 0 49.5 15.5t44.5 37.5l31 27q14 12 24 12l5 -6q4 -6 10 -14h-2q16 -27 43.5 -54.5t93.5 -27.5q47 0 88 9t73.5 32.5 t57.5 64.5t41 105v8q0 2 1 4t1 4q0 29 -24.5 49.5t-59.5 20.5q-23 0 -47.5 -11.5t-38.5 -35.5q-8 -12 -16 -33l2 2q-6 -16 -14.5 -33.5t-22.5 -17.5q-10 0 -16.5 10l-14.5 23q-14 31 -36.5 57.5t-78.5 26.5q-35 0 -78.5 -15.5t-85.5 -41t-73 -57.5t-39 -65l2 2 q-4 -10 -4 -16v-10z" />
<glyph unicode="&#xd2;" d="M176 313q0 -178 91 -276t272 -98q137 0 277 62t262 171t216.5 254t141.5 311q20 76 32.5 150t12.5 139q0 70 -14.5 131.5t-46 110.5t-84 80.5t-128.5 44.5q37 14 55.5 28.5t18.5 48.5q0 12 -3 29t-11 33v-2q-10 37 -28.5 79t-42 82t-49.5 73.5t-50 54.5q-33 23 -62.5 36 t-56.5 13q-41 0 -64.5 -28t-23.5 -87v-20q6 -37 14 -62.5t23.5 -47t36 -42t51.5 -47.5q68 -51 84 -82q10 -23 23.5 -35t25.5 -18h-25q-100 0 -201.5 -41t-195.5 -108.5t-179 -154.5t-152.5 -181.5t-115 -186.5t-67.5 -170q-37 -140 -37 -244zM422 356q0 43 8 89.5t23 97.5 q16 55 51 123.5t82 137t106.5 134.5t123 116t130 80.5t129.5 30.5q90 0 126 -55t36 -135q0 -53 -11.5 -110.5t-27.5 -112.5q-33 -117 -96.5 -222.5t-146.5 -184.5t-178 -126t-189 -47q-86 0 -126 49t-40 135z" />
<glyph unicode="&#xd3;" horiz-adv-x="1247" d="M176 313q0 -178 91 -276t272 -98q137 0 277 62t263 171t217.5 254t141.5 311q20 76 32.5 150t12.5 139q0 80 -18.5 147.5t-60.5 117.5t-109.5 79t-168.5 29h-14q10 6 23 17l32 30q31 35 119 86l68 46q29 19 51 40.5t40.5 48.5t37.5 66q8 20 12 35.5t4 31.5q0 68 -65 68 q-27 0 -62 -12.5t-72 -34.5q-33 -20 -70.5 -53t-74.5 -72t-70.5 -80t-58.5 -76q-23 -29 -31 -49.5t-8 -36.5q0 -25 14.5 -38t42.5 -25q-94 -16 -187 -63.5t-179 -116t-162 -152.5t-137.5 -171t-104.5 -173t-61 -158q-37 -140 -37 -244zM422 356q0 43 8 89.5t23 97.5 q16 55 51 123.5t83 137t106.5 134.5t123 116t131 80.5t129.5 30.5q90 0 125 -55t35 -135q0 -53 -10 -110.5t-27 -112.5q-33 -117 -96.5 -222.5t-146.5 -184.5t-179 -126t-190 -47q-86 0 -126 49t-40 135z" />
<glyph unicode="&#xd4;" d="M176 313q0 -178 91 -276t272 -98q137 0 277 62t262 171t216.5 254t141.5 311q20 76 32.5 150t12.5 139q0 80 -18.5 147.5t-60.5 118.5t-109.5 80t-168.5 29q-100 0 -201.5 -41t-195.5 -108.5t-179 -155.5t-152.5 -181.5t-115 -186.5t-67.5 -171q-37 -140 -37 -244z M422 358q0 41 8 87.5t23 97.5q16 55 51 123.5t82 137t106.5 134.5t123 116t130 80.5t129.5 30.5q90 0 126 -55t36 -135q0 -53 -11.5 -110.5t-27.5 -112.5q-33 -117 -96.5 -222.5t-146.5 -184.5t-178 -126t-189 -47q-86 0 -126 49t-40 137zM782 1475q0 -23 17.5 -39.5 t58.5 -28.5h-2q10 -2 14 -2h13q23 0 47 13.5t63 51.5h-2l199 170l78 -155q16 -49 45.5 -64.5t52.5 -15.5h10q8 0 17 4q41 16 57 33.5t25 46.5v-2q4 10 4 16v13q0 14 -3 24t-10 27l-120 239q-8 41 -32 68t-65 27q-39 0 -58.5 -15.5t-35.5 -38.5l-295 -254q-6 -6 -8 -6 q-23 -18 -39 -35.5t-27 -46.5l-4 -16v-14z" />
<glyph unicode="&#xd5;" d="M176 313q0 -178 91 -276t272 -98q137 0 277 62t262 171t216.5 254t141.5 309q20 76 32.5 149.5t12.5 139.5q0 78 -18.5 145.5t-60.5 117.5t-109.5 79t-168.5 29q-100 0 -201.5 -41t-195.5 -108.5t-179 -154.5t-152.5 -180.5t-115 -185.5t-67.5 -168q-37 -142 -37 -244z M422 356q0 41 8 87t23 98q25 84 89 191.5t151 202.5t186.5 160.5t195.5 65.5q90 0 126 -54t36 -134q0 -53 -11.5 -110.5t-27.5 -112.5q-33 -117 -96.5 -221.5t-146.5 -183.5t-178 -126t-189 -47q-86 0 -126 49t-40 135zM825 1497q0 -33 22.5 -54.5t63.5 -21.5 q27 0 49.5 15.5t45.5 38.5q16 16 30.5 27t24.5 11l4 -6l8 -12h-2q8 -14 18.5 -28.5t25.5 -27t38 -20.5t55 -8q47 0 87 9.5t72 33t56.5 64.5t42.5 104l2 8q0 2 1 4t1 4q0 29 -24.5 49.5t-59.5 20.5q-23 0 -46 -11t-40 -34q-6 -10 -14 -33v2q-6 -16 -15 -34.5t-24 -18.5 q-10 0 -15 10l-11 23l-17 29q-8 15 -21.5 27.5t-31.5 20t-45 7.5q-33 0 -77 -15.5t-85 -40t-72.5 -56.5t-42.5 -64q-4 -8 -4 -15v-8z" />
<glyph unicode="&#xd6;" d="M176 313q0 -178 91 -276t272 -98q137 0 277 62t262 171t216.5 254t141.5 309q20 76 32.5 149.5t12.5 139.5q0 78 -18.5 146.5t-60.5 118.5t-109.5 79t-168.5 29q-100 0 -201.5 -41t-195.5 -108.5t-179 -154.5t-152.5 -180.5t-115 -185.5t-67.5 -170q-37 -142 -37 -244z M422 356q0 41 8 87t23 98q16 55 51 123.5t82 137t106.5 134t123 116t130 81t129.5 30.5q90 0 126 -55t36 -135q0 -53 -11.5 -110.5t-27.5 -112.5q-33 -117 -96.5 -221.5t-146.5 -183.5t-178 -126t-189 -47q-86 0 -126 49t-40 135zM768 1536q0 -51 33 -93t90 -42 q39 0 70.5 16.5t55 40t39 51t21.5 52.5v-2q12 33 13 71q0 41 -20.5 71t-80.5 30q-37 0 -72.5 -15.5t-65.5 -39t-50.5 -51.5t-28.5 -54q-2 -8 -3 -14.5t-1 -20.5zM1141 1544q0 -53 33.5 -94t87.5 -41q39 0 71.5 16.5t56 40t39 52t21.5 53.5v-2l8 34q4 17 4 37q0 39 -20.5 69 t-79.5 30q-39 0 -75 -15.5t-65.5 -38t-50 -50t-26.5 -54.5q-4 -17 -4 -37z" />
<glyph unicode="&#xd7;" horiz-adv-x="894" d="M121 215q0 -37 22 -59v2q16 -20 41 -30.5t52 -10.5q16 0 36.5 5t38.5 19q6 4 19.5 14.5t31.5 20.5q25 16 48.5 33.5t35.5 28.5l129 88l101 -125q6 -18 20.5 -30.5t24.5 -23.5l8 -8q41 -47 105 -47q27 0 51 9.5t43.5 25.5t32 36.5t12.5 45.5q0 14 -5 30.5t-22 34.5l-61 74 l2 -2l-107 129l148 103q25 6 47 28q20 14 24 15q39 31 55.5 60.5t16.5 53.5q0 43 -28.5 71t-75.5 28t-93 -33l-18 -11l-14 -10q-16 -8 -30.5 -16t-20.5 -21l-146 -102l-88 111q-6 16 -19.5 29.5t-25.5 23.5h2q-4 4 -8 6t-8 6l2 -4q-23 29 -49.5 40t-53.5 11q-53 0 -92 -33.5 t-39 -82.5q0 -39 25 -70q2 -2 4 -5t8 -14q8 -16 20.5 -33.5t30.5 -27.5l82 -102l-151 -109q-20 -6 -39 -20l-35 -27q-6 -8 -10 -11t-6 -5q-39 -27 -56.5 -54.5t-17.5 -54.5z" />
<glyph unicode="&#xd8;" d="M174 313q0 -213 133 -307q-23 -41 -35 -72.5t-12 -60.5q0 -78 107 -78q29 0 53 14.5t44.5 35t38 45t29.5 44.5h-2q0 4 2 5h7q137 0 277 62t262 171t216.5 253t141.5 308q20 78 32.5 149.5t12.5 137.5q0 88 -24.5 164t-80.5 127q27 47 44.5 88t17.5 67q0 35 -18.5 56.5 t-63.5 21.5q-43 0 -73 -10t-50.5 -25.5t-33.5 -34t-23 -34.5h2q-6 -10 -12.5 -19.5t-10.5 -19.5q-2 -4 -6 -8h-4q-6 0 -11.5 1t-9.5 1q-100 0 -201.5 -41t-195.5 -108.5t-179 -154.5t-152.5 -180.5t-115 -185.5t-67.5 -170q-39 -136 -39 -242zM422 354q0 84 31 187 q20 76 75.5 171t132 184t165.5 158.5t178 94.5l-136 -225l-147 -243l-143 -238l-127 -210q-29 45 -29 121zM686 184l25 35l123 193l136 212l136 215l123 201q6 -31 6 -71q0 -51 -10.5 -107.5t-26.5 -111.5q-29 -102 -81 -194.5t-119.5 -168.5t-147.5 -129.5t-164 -73.5z" />
<glyph unicode="&#xd9;" horiz-adv-x="1193" d="M176 172q0 -104 81 -168.5t265 -64.5q127 0 245 36.5t212 96t157.5 135.5t86.5 153l223 809q6 10 17.5 38t11.5 57q0 37 -20.5 64.5t-80.5 27.5q-45 0 -73.5 -14.5t-46 -38t-26.5 -53t-16 -62.5l2 2l-243 -821q-10 -33 -48 -67t-96.5 -62.5t-133.5 -47t-156 -18.5 q-45 0 -77 14.5t-32 40.5l4 17h-2l270 973q4 12 5 20v14q0 35 -19.5 69t-81.5 34q-39 0 -63.5 -11.5t-41 -29t-25.5 -39.5l-17 -43l-267 -971q-14 -45 -14 -90zM780 1733q6 -37 15.5 -62.5t24 -47t34.5 -42t51 -47.5q68 -51 84 -82q27 -47 51.5 -56.5t34.5 -9.5h6 q47 16 68.5 32t21.5 52q0 12 -3 29t-11 33v-2q-10 37 -28.5 79t-41 82t-48 73.5t-52.5 54.5q-33 23 -62.5 36t-56.5 13q-41 0 -64.5 -28t-23.5 -87v-20z" />
<glyph unicode="&#xda;" horiz-adv-x="1193" d="M176 172q0 -104 81 -168.5t265 -64.5q127 0 245 36.5t212 96t157.5 135.5t86.5 153l223 809q6 10 17.5 38t11.5 57q0 37 -20.5 64.5t-80.5 27.5q-45 0 -73.5 -14.5t-46 -38t-26.5 -53t-16 -62.5l2 2l-243 -821q-10 -33 -48 -67t-96.5 -62.5t-133.5 -47t-156 -18.5 q-45 0 -77 14.5t-32 40.5l4 17h-2l270 973q4 12 5 20v14q0 35 -19.5 69t-81.5 34q-39 0 -63.5 -11.5t-41 -29t-25.5 -39.5l-17 -43l-267 -971q-14 -45 -14 -90zM913 1454q0 -27 15.5 -39t50.5 -26l10 -3h6q16 0 36 8.5t63 51.5q31 35 118 86l68 46q29 19 51.5 40.5t41 48.5 t36.5 66q8 20 12 35.5t4 31.5q0 68 -65 68q-27 0 -60.5 -12.5t-72.5 -34.5q-33 -20 -71 -53t-75 -72t-70.5 -80t-58.5 -76q-39 -53 -39 -86z" />
<glyph unicode="&#xdb;" horiz-adv-x="1193" d="M176 172q0 -104 81 -168.5t265 -64.5q127 0 245 36.5t212 96t157.5 135.5t86.5 153l223 809q6 10 17.5 38t11.5 59q0 35 -20.5 62.5t-80.5 27.5q-45 0 -73.5 -14.5t-46 -37t-26.5 -53t-16 -63.5l2 2l-243 -821q-10 -33 -48 -67t-96.5 -62.5t-133.5 -47t-156 -18.5 q-45 0 -77 14.5t-32 40.5l4 17h-2l270 973q4 12 5 20v16q0 35 -19.5 68t-81.5 33q-39 0 -63.5 -11.5t-41 -29t-25.5 -39.5l-17 -43l-267 -971q-14 -45 -14 -90zM723 1475q0 -23 17.5 -39.5t60.5 -28.5h-2q10 -2 24 -2q23 0 48.5 13.5t62.5 51.5h-2l198 170l78 -155 q16 -49 46 -64.5t53 -15.5q16 0 26 4q41 16 58.5 33.5t23.5 46.5v-2q4 10 4 16v13q0 14 -3 24t-7 27l-123 239q-6 41 -30.5 68t-63.5 27q-41 0 -59.5 -15.5t-34.5 -38.5l-295 -254q-6 -6 -8 -6q-23 -18 -40.5 -35.5t-27.5 -46.5l-4 -16v-14z" />
<glyph unicode="&#xdc;" horiz-adv-x="1193" d="M176 172q0 -104 81 -168.5t265 -64.5q127 0 245 36.5t212 96t157.5 135.5t86.5 153l223 807q6 10 17.5 38t11.5 57q0 35 -20.5 62.5t-80.5 27.5q-45 0 -73.5 -14.5t-46 -37t-26.5 -53t-16 -63.5l2 2l-243 -817q-10 -33 -48 -68t-96.5 -62.5t-133.5 -46t-156 -18.5 q-45 0 -77 14.5t-32 40.5l4 17h-2l270 971q4 10 5 18v16q0 35 -19.5 68t-81.5 33q-39 0 -63.5 -11.5t-41 -28t-25.5 -38.5l-17 -43l-267 -969q-14 -45 -14 -90zM707 1536q0 -51 32.5 -93t87.5 -42q39 0 71 16.5t55.5 40t40 51t22.5 52.5v-2q10 37 10 71q0 41 -19.5 71 t-78.5 30q-39 0 -75 -15.5t-65.5 -39t-50 -51.5t-26.5 -54q-2 -8 -3 -14.5t-1 -20.5zM1077 1544q0 -53 34 -94t87 -41q39 0 72 16.5t56.5 40t38.5 52t21 53.5v-2q4 16 9.5 33.5t5.5 37.5q0 39 -21.5 69t-81.5 30q-39 0 -74.5 -15.5t-65.5 -38t-50.5 -50t-26.5 -54.5 q-4 -17 -4 -37z" />
<glyph unicode="&#xdd;" horiz-adv-x="1191" d="M354 1225q0 -43 35 -101l277 -481l-134 -479q-18 -59 -18 -98q0 -41 18.5 -67t59.5 -26h10q41 4 69.5 18.5t47 37t30 50t19.5 58.5l137 494l596 493q43 43 59.5 74t16.5 53q0 25 -13.5 39.5t-33.5 28.5l6 -2q-2 2 -5 4t-3 4q-27 16 -51 16q-27 0 -54.5 -14t-56.5 -37h2 q-6 -4 -22.5 -12t-40.5 -23l-451 -378l-221 331l4 -4q-33 68 -61.5 114t-65.5 46h-10q-25 -6 -50.5 -16.5t-47 -27.5t-35 -40.5t-13.5 -54.5zM905 1442q0 -27 15.5 -39t50.5 -27l10 -2h6q16 0 35.5 8.5t60.5 51.5q16 16 46 36l73 50l68 46q29 19 51 40.5t40.5 48t39.5 65.5 q6 18 10 35t4 33q0 66 -65 65q-25 0 -60 -12t-73 -35q-33 -18 -71 -52t-75 -71.5t-69.5 -78.5t-57.5 -76q-39 -57 -39 -86z" />
<glyph unicode="&#xde;" horiz-adv-x="1017" d="M137 68q0 -39 22.5 -66t73.5 -31h13q33 0 56.5 14.5t39.5 39t28.5 54.5t22.5 60q4 10 6 16.5t7 16.5v2l8 31h88q98 0 212.5 54t220 145.5t187.5 208t115 241.5h-2q10 37 14 68.5t4 58.5q0 102 -55 158.5t-174 56.5q-82 0 -168 -16.5t-184 -61.5l6 17q2 6 5 13t5 13h-2 q6 27 15.5 53.5t9.5 47.5q0 35 -18.5 56t-65.5 21q-51 0 -83 -10t-51.5 -31.5t-30.5 -52.5t-20 -74l2 3l-286 -1022v4q-10 -23 -15.5 -45.5t-5.5 -42.5zM481 428v6l37 135h-2l74 260q16 16 52 36t84 37.5t106.5 28.5t117.5 11q49 0 49 -39q0 -8 -6 -33h2q-23 -82 -77 -161.5 t-124.5 -142t-146.5 -101.5t-139 -39q-27 0 -27 2z" />
<glyph unicode="&#xdf;" horiz-adv-x="1175" d="M180 -104q0 -43 26.5 -71t72.5 -28h12q57 6 101 49t46 99l256 1046q2 12 12.5 40t29 58.5t46 57.5t64.5 37q29 8 55.5 13t46.5 5t32.5 -8t12.5 -31q0 -6 -2 -12q-14 -16 -30 -31l-33 -28q-35 -31 -69 -65t-63.5 -73t-49 -85t-21.5 -101q-16 -31 -16 -70q0 -47 22.5 -100 t63.5 -97t99 -74t130 -30h2q16 0 16 -18t-12 -39v2q-4 -8 -6 -15.5t-6 -13.5q-16 -31 -28.5 -51t-25 -33.5t-27.5 -21.5t-40 -14h-6q-23 0 -53.5 23.5t-73.5 64.5q-31 25 -78 24q-39 0 -78 -20.5t-59 -67.5q-8 -23 -8 -43q0 -41 26.5 -77t67.5 -63.5t93 -44t101 -16.5h41 q63 10 128 40t121.5 79t101.5 122t69 169h2q4 12 4 25v30q0 92 -55 143.5t-131 51.5q-92 0 -143.5 32.5t-51.5 79.5q0 39 30 83t93 90l63 44q24 17 36 30.5t19 24.5t18 30l8 14q43 76 43 135q0 51 -24.5 91t-65.5 66.5t-93.5 41t-109.5 14.5q-51 0 -90 -8 q-96 -18 -162 -62.5t-112 -108t-75.5 -140t-52.5 -160.5l-14 -56l-37 -14l2 2q-4 -2 -11 -3t-13 -3h2q-18 -4 -36 -9t-31 -16.5t-25.5 -32t-22.5 -55.5v2q-8 -23 -8 -40q0 -39 22.5 -54.5t55.5 -15.5q18 0 38 4l-167 -686l4 6q-19 -34 -19 -63z" />
<glyph unicode="&#xe0;" horiz-adv-x="1021" d="M84 178q0 -41 13.5 -84t38 -77.5t58 -56t76.5 -21.5q57 0 115.5 11t116 28.5t108.5 36.5l95 36q6 2 11 4t11 4q-4 -8 -4 -16v-12q0 -31 21.5 -48.5t80.5 -17.5q127 0 152 139l2 2l154 590h-3q8 29 10.5 50.5t2.5 37.5q0 51 -17.5 84t-45 51.5t-61.5 25.5t-69 7 q-121 0 -260 -29.5t-260 -101.5l6 2q-4 -2 -9 -4t-9 -4q-29 -10 -58.5 -31.5t-50.5 -89.5v-12q0 -37 21.5 -52.5t52.5 -15.5q18 0 42 5.5t46.5 13.5t39.5 16l28 13l-2 -3l64 19q30 8 58 18q53 16 103.5 29.5t103.5 13.5h21q14 0 14 -4v-10l-22 -82q-147 -6 -275.5 -32.5 t-230 -75t-173 -120t-106.5 -165.5v2q-6 -18 -8 -37t-2 -37zM309 207v12q0 6 2 10q10 39 60.5 73t123 61.5t161.5 48t175 32.5l-18 -114q0 -4 -47 -33t-114.5 -62.5t-143.5 -60.5t-135 -27h-8q-4 0 -9 3q-8 4 -14 4q-8 4 -20.5 17t-12.5 36zM598 1325q6 -37 15.5 -62.5 t23.5 -47t34.5 -42t51.5 -45.5l54 -48q22 -19 28 -33q27 -45 51.5 -54.5t34.5 -9.5h6q45 16 66.5 30.5t21.5 51.5q0 25 -12 61v-2q-12 37 -30.5 78t-41 81t-48.5 73t-50 53q-61 49 -117 49q-41 0 -64.5 -27.5t-23.5 -87.5v-18z" />
<glyph unicode="&#xe1;" horiz-adv-x="1021" d="M84 178q0 -41 13.5 -84t38 -77.5t58 -56t76.5 -21.5q57 0 115.5 11t116 28.5t108.5 36.5l95 36q6 2 11 4t11 4q-4 -8 -4 -16v-12q0 -31 21.5 -48.5t80.5 -17.5q127 0 152 139l2 2l154 590h-3q8 29 10.5 50.5t2.5 37.5q0 51 -17.5 84t-45 51.5t-61.5 25.5t-69 7 q-121 0 -260 -29.5t-260 -101.5l6 2q-4 -2 -9 -4t-9 -4q-29 -10 -58.5 -31.5t-50.5 -89.5v-12q0 -37 21.5 -52.5t52.5 -15.5q18 0 42 5.5t46.5 13.5t39.5 16l28 13l-2 -3l64 19q30 8 58 18q53 16 103.5 29.5t103.5 13.5h21q14 0 14 -4v-10l-22 -82q-147 -6 -275.5 -32.5 t-230 -75t-173 -120t-106.5 -165.5v2q-6 -18 -8 -37t-2 -37zM309 207v12q0 6 2 10q10 37 59.5 71t121 61.5t157.5 48t172 32.5l-47 -133q0 -4 -41 -29.5t-101.5 -55t-129 -53.5t-125.5 -24q-12 0 -21 3q-8 4 -14 4q-8 4 -20.5 17t-12.5 36zM616 1049q0 -27 15.5 -39.5 t50.5 -24.5l8 -2h6q16 0 36 8t63 49q14 16 44 37l72 49q39 25 67 45.5t50.5 42t40.5 47t39 64.5q6 18 10 34.5t4 33.5q0 66 -65 65q-25 0 -59.5 -12t-71.5 -35q-33 -18 -70 -51t-74 -72t-69.5 -79t-57.5 -74q-23 -29 -31 -49.5t-8 -36.5z" />
<glyph unicode="&#xe2;" horiz-adv-x="1024" d="M84 178q0 -41 13.5 -84t38 -77.5t59 -56t77.5 -21.5q55 0 114.5 11t116 28.5t108.5 36.5l96 36q4 2 9 4t11 4q-4 -8 -4 -16v-12q0 -31 21.5 -48.5t80.5 -17.5q68 0 105 34t49 105l2 2l154 592h-2q8 27 10 48.5t2 37.5q0 51 -17.5 84t-45 52.5t-62.5 26.5t-68 7 q-123 0 -261 -30.5t-261 -102.5l6 2l-8 -4l-8 -4q-14 -4 -29.5 -11t-30 -19.5t-28 -34t-23.5 -54.5v-14q0 -37 22.5 -52.5t51.5 -15.5q18 0 42 5.5t46.5 13.5t40.5 16t27 13l-2 -3l65 20q31 9 60 19l102 29.5t102 13.5q10 0 22.5 -1t12.5 -5v-10l-20 -80 q-147 -6 -275.5 -33.5t-231 -76t-174 -120t-106.5 -165.5v2q-6 -16 -8 -36t-2 -38zM309 207v12q0 8 2 12q10 37 60.5 71t122 61.5t158.5 48t173 32.5l-49 -165q0 -4 -41 -25t-100.5 -44.5t-127 -43t-124.5 -19.5q-16 0 -27 3q-8 4 -12 4q-10 4 -22.5 17t-12.5 36zM483 1069 q0 -23 16.5 -39t59.5 -26h-2q10 -4 25 -5q23 0 47 13.5t63 52.5h-2l197 168l78 -154q16 -49 45.5 -64.5t50.5 -15.5q6 0 12 1t14 6q41 16 57.5 32.5t24.5 44.5v-2q4 10 5 17v12q0 8 -2.5 22.5t-10.5 30.5l-119 236q-6 39 -30.5 65.5t-65.5 26.5t-58.5 -15.5t-33.5 -37.5 l-293 -252q-6 -6 -8 -6q-23 -16 -39 -34t-27 -46l-4 -17v-14z" />
<glyph unicode="&#xe3;" horiz-adv-x="1021" d="M84 176q0 -41 13.5 -83t38 -76.5t58 -56t76.5 -21.5q57 0 115.5 11t116 28.5t108.5 36.5l95 36q6 2 11 4t11 4q-4 -8 -4 -16v-12q0 -31 21.5 -48.5t80.5 -17.5q127 0 154 139l2 2l152 588h-3q8 27 10.5 48.5t2.5 37.5q0 51 -17.5 84t-45 51.5t-61.5 25.5t-69 7 q-121 0 -259 -29.5t-261 -101.5l6 2q-4 -2 -9 -4t-9 -4q-29 -10 -58.5 -31.5t-50.5 -87.5v-14q0 -37 21.5 -51.5t52.5 -14.5q18 0 42 5.5t46 13.5l41 15q18 7 27 11h-2q35 8 65.5 17.5t59.5 19.5l102 29.5t102 13.5q10 0 22.5 -1t12.5 -5v-10l-22 -80q-147 -6 -275.5 -32.5 t-230 -75t-173 -119t-106.5 -164.5q-10 -29 -10 -74zM309 205v12q0 8 2 12q10 37 59.5 71t121 60.5t158.5 47t173 32.5l-49 -139q0 -4 -41 -27.5t-101.5 -52t-129 -51.5t-125.5 -23q-12 0 -21 3q-8 4 -14 4q-8 4 -20.5 16t-12.5 35zM518 1087q0 -29 23.5 -50t60.5 -21 q27 0 49.5 15.5t44.5 35.5l30 29q13 12 24 12l4 -6l10 -15h-2q16 -27 42.5 -54t92.5 -27q94 0 159.5 42t98.5 166v9q0 2 1 4t1 4q0 29 -24.5 48t-59.5 19q-23 0 -46 -10t-40 -35q-2 -4 -5 -12l-7 -18v2l-18 -35q-9 -18 -21 -19q-10 0 -16.5 10.5t-10.5 20.5 q-16 31 -38.5 58.5t-75.5 27.5q-35 0 -78 -15.5t-84 -41t-73 -57t-40 -64.5l2 2q-2 -6 -3 -10.5t-1 -14.5z" />
<glyph unicode="&#xe4;" horiz-adv-x="1024" d="M84 176q0 -41 13.5 -83t38 -76.5t59 -56t77.5 -21.5q55 0 114.5 11t116 28.5t108.5 36.5l96 36q6 2 10 4t10 4q-4 -8 -4 -16v-12q0 -31 22.5 -48.5t79.5 -17.5q68 0 105 34t49 105l2 2l154 588h-2q8 27 10 48.5t2 37.5q0 51 -17.5 84t-45 52.5t-61.5 26.5t-69 7 q-123 0 -261 -30.5t-261 -102.5l6 2l-8 -4l-8 -4q-14 -4 -29.5 -11t-30 -19.5t-28 -34t-21.5 -54.5v-14q0 -37 21.5 -51.5t52.5 -14.5q18 0 42 5.5t45.5 13.5t39.5 16l27 12l-2 -2l65.5 18.5t59.5 18.5l102 29.5t102 13.5q10 0 22.5 -1t12.5 -5v-10l-20 -80 q-147 -6 -275.5 -32.5t-231 -75t-174 -119t-106.5 -164.5v2q-6 -18 -8 -37t-2 -39zM311 207v22q10 39 60.5 72t123 60.5t159.5 48t173 32.5l-32 -125q0 -4 -44 -30.5t-108.5 -57t-137.5 -56.5t-130 -26h-10q-4 0 -9 3q-8 4 -12 4q-10 4 -21.5 16t-11.5 37zM496 1130 q0 -53 32.5 -94t87.5 -41q39 0 70 15.5t54.5 39t39 51t21.5 52.5v-2q12 33 12 72t-20.5 68.5t-77.5 29.5q-39 0 -75 -14.5t-65.5 -38t-49 -51t-27.5 -52.5q-2 -8 -2 -35zM864 1137q0 -49 33 -92.5t86 -43.5q39 0 70.5 16.5t55.5 40t39 52.5t21 53v-2q4 16 9.5 33.5t5.5 36.5 q0 39 -20.5 68.5t-80.5 29.5q-39 0 -74.5 -15.5t-65.5 -38t-49.5 -51t-25.5 -53.5q-2 -8 -3 -16t-1 -18z" />
<glyph unicode="&#xe5;" horiz-adv-x="1021" d="M84 178q0 -41 13.5 -84t38 -77.5t58 -56t76.5 -21.5q57 0 115.5 11t116 28.5t108.5 36.5l95 36q6 2 11 4t11 4q-4 -8 -4 -16v-12q0 -31 21.5 -48.5t80.5 -17.5q127 0 152 139l2 2l154 590h-3q8 29 10.5 50.5t2.5 37.5q0 51 -17.5 84t-45 51.5t-61.5 25.5t-69 7 q-121 0 -260 -29.5t-260 -101.5l6 2q-4 -2 -9 -4t-9 -4q-29 -10 -58.5 -31.5t-50.5 -89.5v-12q0 -37 21.5 -52.5t52.5 -15.5q18 0 42 5.5t46.5 13.5t39.5 16l28 13l-2 -3l64 20l58 17q53 16 103.5 29.5t103.5 13.5h21q14 0 14 -4v-10l-22 -82q-147 -6 -275.5 -32.5t-230 -75 t-173 -120t-106.5 -165.5v2q-6 -16 -8 -36t-2 -38zM309 207v12q0 6 2 10q10 39 59.5 73t122 61.5t160.5 48t174 32.5l-34 -122q0 -4 -44 -32t-109 -59.5t-137.5 -57.5t-129.5 -26h-8q-4 0 -9 3q-8 4 -14 4q-8 4 -20.5 17t-12.5 36zM623 1118q0 -55 31.5 -94t111.5 -39 q55 0 109.5 21.5t101.5 59.5t82 87t47 104h-2q12 39 12 72q0 57 -32.5 97t-104.5 40q-68 0 -126 -28.5t-104.5 -71.5t-77 -94t-42.5 -98q-6 -29 -6 -56zM829 1169q0 4 1 8.5t1 8.5q10 31 39 62.5t70 31.5q2 0 2 -4q0 -8 -2 -16q-10 -37 -42 -67t-67 -30q-2 0 -2 6z" />
<glyph unicode="&#xe6;" horiz-adv-x="1591" d="M86 174q0 -41 13.5 -82t38 -74.5t60 -55t78.5 -21.5q57 0 118 11t118 27.5t110.5 35l96.5 34.5q18 6 32.5 13.5t24.5 11.5l2 -2q2 0 4 -2q37 -35 62.5 -53.5t73.5 -26.5q55 -23 131 -23q104 0 214.5 33t203 79t154.5 94t71 77q12 33 12 57q0 68 -74 68q-25 0 -40 -1 t-27.5 -4t-27.5 -11l-40 -19q-4 -4 -13 -8t-14 -8v2l-85 -52q-44 -27 -89 -47t-89 -33.5t-85 -13.5h-8q-18 0 -40.5 7.5t-27.5 48.5l9 63q115 27 235.5 58.5t223 72.5t174 94.5t90.5 120.5q10 37 10 74q0 98 -68.5 158.5t-187.5 60.5q-102 0 -193.5 -34t-175.5 -91 q-16 72 -73.5 96.5t-116.5 24.5q-123 0 -266.5 -30t-266.5 -99l6 2q-4 -2 -9 -4t-9 -4q-29 -10 -59.5 -32t-51.5 -85v-14q0 -37 22.5 -51.5t53.5 -14.5q18 0 43 5t47.5 13.5t41 16.5t26.5 12l-2 -2q35 8 66 18l61 17q53 16 104 29.5t105 13.5q10 0 23.5 -1t13.5 -5v-8 l-23 -80q-150 -6 -281 -32t-234 -74t-177 -117.5t-109 -161.5v2q-8 -18 -9 -37t-1 -37zM315 203q0 16 2 22q10 37 61.5 71t125.5 60.5t163 47t177 32.5q-16 -53 -21.5 -76.5l-7.5 -31.5q-6 -6 -10 -15q-31 -20 -83 -48.5t-110.5 -55.5t-119 -45.5t-109.5 -18.5 q-14 0 -18.5 2.5t-14.5 2.5q-10 4 -22.5 17t-12.5 36zM1135 510q33 51 75.5 92t90 70.5t93.5 45t83 15.5q33 0 47 -11t14 -26v-8q-14 -23 -61 -51.5t-108.5 -55t-125 -47t-108.5 -24.5z" />
<glyph unicode="&#xe7;" horiz-adv-x="888" d="M123 195q0 -84 37 -148.5t121 -91.5l-29 -92q-18 -29 -22.5 -40t-10.5 -46v2q-2 -10 -2 -37q0 -29 13.5 -51.5t50.5 -30.5q4 0 8 -1t8 -1q47 0 97 52t79 126l-2 -4l59 127q68 12 122.5 34.5t97.5 49.5t73.5 52.5t50.5 47.5l82 76q76 88 76 146q0 35 -23.5 56t-76.5 21 q-35 0 -59.5 -9t-43 -23.5t-30 -29.5t-19.5 -28h2q-4 -6 -10 -14t-4 -4q-18 -25 -53 -53.5t-79 -54t-96.5 -42t-105.5 -16.5q-35 0 -49 22.5t-14 53.5q0 27 6 51q20 80 65 154.5t99.5 131t114 91.5t112.5 35t90 -8.5t47 -28.5q23 -16 45.5 -22.5t40.5 -6.5q53 0 93 33t40 82 q0 23 -11 49t-40 53q-57 49 -115.5 62.5t-144.5 13.5q-102 0 -208.5 -52.5t-200 -138.5t-165 -198.5t-102.5 -233.5q-14 -50 -14 -116zM768 334l2 2l2 4q-2 -2 -2 -4z" />
<glyph unicode="&#xe8;" horiz-adv-x="903" d="M113 162q0 -117 66.5 -173.5t182.5 -56.5q100 0 208 34t199 81t152.5 95t69.5 79q12 33 13 60q0 68 -72 67q-25 0 -40 -1t-29.5 -5t-32.5 -12l-46 -23l-84 -54q-43 -28 -88 -51.5t-89 -37.5t-87 -14h-8q-18 0 -42 8t-26 55v35q0 10 5 24q113 27 230.5 58.5t217.5 73.5 t171 95.5t87 125.5q10 37 10 75q0 100 -66.5 162t-183.5 62q-123 0 -236.5 -55.5t-206.5 -145.5t-159.5 -202.5t-97.5 -225.5q-18 -72 -18 -133zM451 485q31 53 73.5 95.5t87.5 72t89 46t81 16.5q31 0 45.5 -11.5t14.5 -23.5q0 -4 -1 -6t-1 -4q-14 -23 -60.5 -51.5t-105 -56 t-119.5 -49.5t-104 -28zM596 1325q6 -37 14 -62.5t22.5 -47t35 -42t51.5 -45.5q66 -53 82 -81q27 -45 51.5 -54.5t34.5 -9.5h4q47 16 68.5 30.5t21.5 51.5q0 27 -14 61v-2q-10 37 -28.5 78t-41.5 81t-48.5 73t-49.5 53q-61 49 -117 49q-41 0 -63.5 -26.5t-22.5 -85.5v-21z " />
<glyph unicode="&#xe9;" horiz-adv-x="909" d="M115 162q0 -117 65.5 -173.5t184.5 -56.5q100 0 208.5 34t199.5 81t153.5 95t70.5 79q12 33 13 60q0 68 -72 67q-25 0 -40 -1t-29.5 -5t-33 -12t-47.5 -23l-83 -54q-43 -28 -88.5 -51.5t-90.5 -37.5t-88 -14h-8q-18 0 -41.5 8t-26.5 53v37q0 10 5 24q113 27 231.5 58.5 t220 73.5t172 95.5t86.5 125.5q10 37 10 75q0 100 -66.5 162t-182.5 62q-125 0 -240 -55.5t-208 -145.5t-160.5 -202.5t-98.5 -225.5q-8 -35 -12 -67.5t-4 -65.5zM453 485q33 53 74.5 95.5t88 72t90.5 46t80 16.5q33 0 46.5 -11.5t13.5 -23.5q0 -4 -1 -6t-1 -4 q-14 -23 -60.5 -51.5t-104.5 -56t-119.5 -49.5t-106.5 -28zM674 1049q0 -27 16.5 -39.5t48.5 -24.5l11 -2h6q16 0 35.5 8t60.5 51q16 14 45 36t74 48l66 46q28 19 50.5 41t41 47.5t36.5 64.5q16 39 17 68q0 66 -66 65q-25 0 -59.5 -12t-73.5 -35q-31 -18 -68.5 -51 t-74.5 -72t-70 -79t-57 -74q-39 -57 -39 -86z" />
<glyph unicode="&#xea;" horiz-adv-x="907" d="M115 162q0 -117 65.5 -173.5t184.5 -56.5q100 0 208.5 34t199.5 81t152.5 95t69.5 79q12 33 13 60q0 68 -72 67q-25 0 -40 -1t-29.5 -5t-33 -12t-47.5 -23l-83 -54q-44 -28 -89 -51.5t-90 -37.5t-88 -14h-6q-20 0 -42.5 8t-25.5 55v35q0 10 5 24q113 27 231.5 58.5 t219 73.5t171 96.5t86.5 124.5q10 41 10 75q0 100 -66.5 162t-182.5 62q-123 0 -238 -55.5t-208 -145.5t-160.5 -202.5t-98.5 -225.5q-8 -35 -12 -67.5t-4 -65.5zM453 487q33 51 74.5 94.5t86.5 72t90.5 45t81.5 16.5q31 0 45.5 -10.5t14.5 -24.5q0 -4 -1 -6t-1 -4 q-14 -23 -60.5 -51.5t-104.5 -56t-119.5 -49.5t-106.5 -26zM471 1069q0 -23 16.5 -39t57.5 -26h-2q10 -4 14 -5h12q23 0 47.5 13.5t63.5 52.5h-2l194 168l78 -154q16 -49 46 -64.5t51 -15.5q6 0 13 1t13 6q41 16 57.5 32.5t24.5 44.5v-2q4 10 4 17v12q0 8 -2 22.5t-10 30.5 l-117 236q-8 39 -32.5 65.5t-65.5 26.5q-39 0 -57.5 -15.5t-34.5 -37.5l-293 -252l-6 -6q-23 -16 -40.5 -34t-27.5 -46l-2 -17v-14z" />
<glyph unicode="&#xeb;" horiz-adv-x="909" d="M115 162q0 -117 65.5 -173.5t184.5 -56.5q100 0 208.5 34t199.5 80t153.5 95t70.5 78q12 37 13 60q0 70 -72 69q-25 0 -40 -1t-29.5 -5t-32.5 -13l-48 -24l-83 -52q-43 -28 -88.5 -51.5t-90.5 -37.5t-88 -14h-8q-18 0 -41.5 8t-26.5 51v39q0 10 5 22q113 27 231.5 59.5 t220 73.5t172 95.5t86.5 124.5q10 37 10 75q0 98 -66.5 160t-182.5 62q-125 0 -240 -55.5t-208 -144.5t-160.5 -200.5t-98.5 -224.5q-8 -35 -12 -67.5t-4 -65.5zM453 485q33 51 74.5 94.5t88 72t90.5 45t80 16.5q33 0 46.5 -11.5t13.5 -25.5v-8q-14 -23 -60.5 -51.5 t-105.5 -56.5t-120.5 -49.5t-106.5 -25.5zM504 1130q0 -53 33.5 -94t89.5 -41q39 0 69.5 16.5t53 40t38 51t21.5 50.5v-2q12 33 12 72q0 41 -19.5 70.5t-78.5 29.5q-39 0 -75 -15.5t-64.5 -38t-49 -51t-26.5 -53.5q-4 -17 -4 -35zM874 1137q0 -49 32 -92.5t85 -43.5 q39 0 72 16.5t55.5 40t37.5 52.5t22 53v-2q4 16 9 33.5t5 38.5q0 37 -20.5 66.5t-79.5 29.5q-39 0 -75 -15.5t-64.5 -38t-48 -51t-25.5 -53.5q-2 -8 -3.5 -16t-1.5 -18z" />
<glyph unicode="&#xec;" horiz-adv-x="407" d="M127 57q0 -35 18.5 -57.5t65.5 -28.5h18q70 0 97.5 49.5t44.5 112.5h4l141 569l-2 -2l25.5 96.5t9.5 63.5q0 49 -22.5 62.5t-63.5 13.5q-49 0 -78 -10.5t-47.5 -33t-29.5 -61t-23 -94.5l-4 -22l-134 -551l-6 -25h2l-11 -45q-5 -21 -5 -37zM301 1323q6 -37 14.5 -62.5 t22.5 -47t34 -41.5l48 -46l51.5 -46t26.5 -33q27 -47 50 -56.5t32 -9.5h6q43 16 63.5 31.5t20.5 52.5q0 25 -13 59v-2q-10 37 -27.5 78t-39 81t-45 74t-47.5 54q-66 49 -113 49q-39 0 -61.5 -27.5t-22.5 -87.5v-20z" />
<glyph unicode="&#xed;" horiz-adv-x="417" d="M129 57q0 -35 18.5 -57.5t69.5 -28.5h19q37 0 60 13.5t38.5 36t24.5 52.5l20 60h4l143 569l-2 -2q18 59 27.5 96.5t9.5 63.5q0 49 -22.5 62.5t-65.5 13.5q-49 0 -78.5 -10.5t-48 -33t-30 -61t-25.5 -94.5l-4 -22l-137 -551l-5 -25h2q-8 -25 -13 -45.5t-5 -36.5zM322 1049 q0 -27 15 -39.5t48 -26.5l10 -2h4q16 0 35 8t60 51q31 31 114 84l65 46q28 19 49 41t39.5 47.5t37.5 64.5q14 37 14 68q0 68 -63 67q-23 0 -57 -12t-70 -35q-31 -18 -68 -52t-73 -72t-67.5 -79l-56.5 -75q-36 -51 -36 -84z" />
<glyph unicode="&#xee;" horiz-adv-x="417" d="M129 57q0 -35 19.5 -57.5t68.5 -28.5h19q37 0 60 13.5t38.5 36t25.5 52.5l21 60h4l141 569l-2 -2q18 59 27.5 97.5t9.5 62.5q0 51 -22.5 64.5t-63.5 13.5q-51 0 -80.5 -10t-48 -34t-30 -62.5t-25.5 -94.5l-4 -22l-135 -551l-7 -25h2q-8 -25 -13 -45.5t-5 -36.5zM156 1069 q0 -23 16 -39t57 -29h-2q10 -4 15 -4h10q23 0 47.5 14.5t60.5 53.5h-2l189 168l76 -154q16 -49 44.5 -65.5t49.5 -16.5q6 0 12 1t14 6q41 16 56.5 33.5t23.5 45.5v-2q4 10 4 27q0 10 -2 23.5t-10 29.5l-115 236q-8 39 -31.5 66.5t-62.5 27.5t-56.5 -15.5t-33.5 -37.5 l-285 -252q-6 -6 -8 -6q-20 -18 -36.5 -35t-26.5 -47l-4 -15v-14z" />
<glyph unicode="&#xef;" horiz-adv-x="417" d="M131 57q0 -35 18.5 -57.5t67.5 -28.5h19q37 0 60 13.5t38.5 36t25.5 52.5l21 60h4l143 567l-2 -2q18 59 26.5 96t8.5 62q0 51 -21.5 63.5t-64.5 12.5q-49 0 -79.5 -9.5t-49 -33t-30 -61t-23.5 -93.5l-6 -24l-135 -549l-7 -23h2q-16 -53 -16 -82zM178 1128q0 -51 33 -93 t86 -42q37 0 66.5 16.5t53 40t38 51t20.5 52.5v-2q12 31 12 70q0 41 -20.5 70.5t-75.5 29.5q-37 0 -71.5 -15.5t-63.5 -38t-48.5 -50t-27.5 -54.5q-2 -8 -2 -35zM537 1135q0 -49 31.5 -91.5t84.5 -42.5q37 0 68 16.5t54.5 40t37.5 51.5t21 52v-2q4 16 9 33.5t5 38.5 q0 39 -20.5 68.5t-77.5 29.5q-37 0 -72 -15.5t-63.5 -39t-48 -51t-25.5 -54.5q-2 -8 -3 -15t-1 -19z" />
<glyph unicode="&#xf0;" horiz-adv-x="1026" d="M197 444q0 -137 66.5 -251.5t189.5 -165.5l53 -13q35 -8 82 -8q49 0 108.5 11.5t123 43t126 88t117.5 144.5q29 45 51.5 106.5t38.5 132t25.5 147.5t9.5 155q0 143 -35 278l39 25h-2q37 23 56.5 54.5t19.5 65.5q0 39 -27 69t-74 30q-43 0 -106 -39q-27 35 -56.5 60.5 t-64.5 41.5q-16 4 -30.5 9.5t-26.5 5.5q-35 0 -73 -21.5t-60 -56.5v-10q0 -12 12 -35t33 -51h-2l22 -37l25 -43l-9 -9q-39 -25 -55 -55.5t-16 -58.5q0 -53 33 -80q-47 12 -93 12q-127 0 -241.5 -72.5t-186.5 -195.5q-35 -68 -54 -137.5t-19 -139.5zM453 422q0 74 39 178 q31 57 81 98q4 4 9.5 7.5t5.5 5.5q16 16 38.5 31.5t61.5 15.5q35 0 103 -23h-3q49 -23 78 -63.5t29 -100.5q0 -82 -51 -172q-43 -78 -101.5 -116.5t-115.5 -38.5q-31 0 -62 12q-41 16 -76.5 52t-35.5 114zM862 954q33 0 72 21q8 -37 12 -74q-53 37 -84 53zM1051 1313l4 2 q-2 -2 -4 -2z" />
<glyph unicode="&#xf1;" horiz-adv-x="968" d="M135 66q0 -37 20.5 -64t61.5 -27h10q39 2 68 16.5t48 35t28.5 44t11.5 44.5l135 460q49 37 100.5 58.5t96.5 33t77.5 15.5t45.5 4q-2 -4 -2 -6l-2 -4l-142 -543h2q-8 -23 -10 -42t-2 -32q0 -49 24.5 -64t71.5 -20h13q59 0 95 40t46 112l-2 -4l22 88l146 553l4 20 q2 10 2 17q0 33 -14.5 59.5t-37 45t-50 28.5t-56.5 10q-25 0 -60.5 -7t-77.5 -18.5t-87 -25.5l-84 -27q-16 -6 -32 -10l-30 -8v18q4 12 5 21v12q0 25 -12.5 37t-49.5 12q-10 0 -19.5 -1t-19.5 -1q-72 -10 -109.5 -51t-47.5 -96v2l-62 -240q-8 -39 -13 -60.5t-14 -47.5 q-6 -18 -13 -43t-16 -61l-23 -87l-31 -123q0 -6 -3 -12l-4 -12l-6 -23l2 2q-4 -10 -4 -18v-10zM500 1079q0 -33 21.5 -52t62.5 -19q27 0 48 15t44 38l30 26q13 12 23 13l4 -6l10 -15h-2q16 -27 43 -54.5t93 -27.5q47 0 85.5 9.5t70.5 33t56.5 64.5t43.5 104l2 6q0 2 1 4.5 t1 4.5q0 29 -25 49t-59 20q-23 0 -47.5 -12t-40.5 -41h2q-4 -4 -8.5 -13t-6.5 -14q-6 -14 -15 -30.5t-19 -16.5t-16.5 9.5t-14.5 23.5q-14 29 -36 55.5t-77 26.5q-33 0 -76 -15.5t-84 -40t-71.5 -56t-38.5 -64.5v2q-4 -10 -4 -16v-11z" />
<glyph unicode="&#xf2;" horiz-adv-x="1011" d="M123 203q0 -53 15.5 -100.5t49 -83t87 -57t131.5 -21.5q117 0 233.5 47t216.5 128t175 187.5t106 226.5q18 68 18 138q0 57 -15.5 108t-48 89t-84 59.5t-122.5 21.5q-141 0 -266 -59.5t-223.5 -150.5t-165 -201.5t-91.5 -212.5q-16 -62 -16 -119zM371 248q0 16 2 29.5 t6 27.5q18 63 57 134t96.5 130.5t131 97.5t163.5 38q45 0 62.5 -25t17.5 -59q0 -39 -10 -76q-18 -72 -63.5 -139.5t-105.5 -120t-132 -84t-145 -31.5q-45 0 -62.5 22.5t-17.5 55.5zM598 1325q6 -37 14.5 -62.5t22.5 -47t34.5 -42t51.5 -45.5q70 -57 84 -81 q27 -45 50.5 -54.5t33.5 -9.5h6q45 16 66.5 30.5t21.5 51.5q0 12 -2 27.5t-10 33.5v-2q-10 37 -28.5 78t-41 81t-48.5 73t-50 53q-66 49 -119 49q-39 0 -62.5 -27.5t-23.5 -87.5v-18z" />
<glyph unicode="&#xf3;" horiz-adv-x="1013" d="M125 203q0 -53 15.5 -100.5t49 -83t87 -57t131.5 -21.5q117 0 233.5 47t216.5 128t176 187.5t107 226.5q8 35 13 69t5 69q0 57 -15.5 108t-48 89t-83.5 59.5t-123 21.5q-143 0 -268 -59.5t-223.5 -150.5t-166 -201.5t-92.5 -212.5q-14 -56 -14 -119zM373 248q0 16 2 29.5 t6 27.5q18 63 57 134t96.5 130.5t131 97.5t163.5 38q47 0 63.5 -25t16.5 -59q0 -39 -10 -76q-18 -72 -63 -139.5t-105.5 -120t-132.5 -84t-145 -31.5q-47 0 -63.5 22.5t-16.5 55.5zM711 1049q0 -27 15 -39.5t50 -24.5l8 -2h7q16 0 35.5 8t62.5 49q14 16 44 37l73 49 q39 25 67.5 45.5t51 42t41 47t36.5 64.5q16 39 17 66q0 35 -18.5 51t-49.5 16q-53 0 -131 -47q-33 -18 -70 -51t-73.5 -72t-69.5 -79t-57 -74q-23 -29 -31 -49.5t-8 -36.5z" />
<glyph unicode="&#xf4;" horiz-adv-x="1013" d="M125 203q0 -53 14.5 -100.5t48 -83t88 -57t132.5 -21.5q117 0 233.5 47t216.5 128t175 187.5t106 226.5q10 35 15 69t5 69q0 57 -15.5 108t-48 89t-85 60.5t-123.5 22.5q-141 0 -267 -59.5t-224.5 -151.5t-165 -202.5t-91.5 -212.5q-8 -29 -11 -58.5t-3 -60.5zM373 248 q0 16 2 30l4 27q18 63 57 134t97.5 130.5t132 97.5t163.5 38q45 0 62.5 -25t17.5 -59q0 -39 -10 -76q-18 -72 -63 -139.5t-106.5 -120t-133.5 -84t-145 -31.5q-45 0 -61.5 22.5t-16.5 55.5zM510 1069q0 -23 16.5 -39t59.5 -26h-2q10 -4 24 -5q23 0 47.5 13.5t63.5 52.5h-2 l196 168l76 -154q16 -49 46 -64.5t52 -15.5q6 0 12.5 1t14.5 6q41 16 57.5 32.5t24.5 44.5v-2q4 10 4 17v12q0 8 -2 22.5t-10 30.5l-119 236q-8 39 -32.5 65.5t-63.5 26.5q-41 0 -58.5 -15.5t-33.5 -37.5l-293 -252q-6 -6 -8 -6q-23 -16 -39.5 -34t-26.5 -46l-4 -17v-14z " />
<glyph unicode="&#xf5;" horiz-adv-x="1013" d="M125 203q0 -53 14.5 -100.5t48 -83t88 -57t132.5 -21.5q117 0 233.5 47t216.5 127t175 186.5t106 224.5q10 35 15 69t5 69q0 57 -15.5 108t-48 89t-85 59.5t-123.5 21.5q-141 0 -267 -59.5t-224.5 -150.5t-165 -200.5t-91.5 -212.5q-14 -50 -14 -116zM373 248 q0 14 2 28.5t4 26.5q18 63 57 134t97.5 130.5t132 97t163.5 37.5q45 0 62.5 -25.5t17.5 -60.5q0 -37 -10 -73q-18 -72 -63 -139.5t-106.5 -120t-133.5 -84t-145 -31.5q-45 0 -61.5 22.5t-16.5 57.5zM567 1087q0 -29 23.5 -50t62.5 -21q27 0 48.5 15.5t43.5 35.5 q16 16 31 28.5t25 12.5l12 -21q16 -27 43 -54t92 -27q94 0 160 42t98 166v9q0 2 1 4t1 4q0 29 -24.5 48t-59.5 19q-23 0 -46 -10t-40 -35q-4 -4 -6 -12t-6 -18v2l-17 -35q-9 -18 -22 -19q-10 0 -16 11l-13 20q-14 31 -36.5 58.5t-75.5 27.5q-35 0 -78 -15.5t-84 -41 t-72.5 -57t-40.5 -64.5l2 2q-4 -6 -5 -10.5t-1 -14.5z" />
<glyph unicode="&#xf6;" horiz-adv-x="1015" d="M125 203q0 -53 15.5 -100.5t49 -83t87 -57t131.5 -21.5q117 0 234.5 47t218 127t175 186.5t105.5 226.5q10 35 15 69t5 69q0 57 -15.5 107t-48 88t-84.5 60.5t-124 22.5q-143 0 -268 -59.5t-223.5 -150.5t-166 -201.5t-92.5 -213.5q-6 -29 -10 -57t-4 -59zM373 248 q0 14 2 28.5t6 26.5q18 63 57 134t96.5 130.5t132 97t164.5 37.5q45 0 62.5 -24.5t17.5 -59.5q0 -39 -10 -75q-18 -72 -63 -139.5t-106.5 -120t-133.5 -84t-145 -31.5q-47 0 -63.5 23.5t-16.5 56.5zM553 1130q0 -53 34 -94t89 -41q39 0 69.5 15.5t54 39t39 51t21.5 52.5v-2 q12 33 12 72t-20.5 68.5t-79.5 29.5q-39 0 -73.5 -14.5t-64.5 -38t-49.5 -51t-27.5 -52.5q-4 -17 -4 -35zM924 1135q0 -47 32.5 -90.5t85.5 -43.5q39 0 71 16.5t55.5 40t39 52.5t21.5 53v-2l9 33q5 18 5 37q0 39 -21.5 68.5t-80.5 29.5q-37 0 -73 -15.5t-65.5 -38t-49 -51 t-25.5 -53.5q-2 -8 -3 -16t-1 -20z" />
<glyph unicode="&#xf7;" horiz-adv-x="729" d="M150 434q0 -41 26.5 -72.5t83.5 -31.5q2 0 8 -1t15 -1q20 -4 43 -4q10 0 21 2t22 6l249 2l132 2q31 0 55 12t42.5 30.5t29 42t10.5 46.5q0 41 -30 72.5t-101 31.5q-6 0 -13.5 1t-15.5 1q-10 0 -18.5 1t-18.5 1q-25 0 -43 -6h-254q-8 2 -26 2q-12 0 -25.5 -1t-28.5 -1 q-8 -2 -14 -2h-10q-68 0 -103.5 -43t-35.5 -90zM233 90q0 -55 36 -102t96 -47q43 0 77.5 18t61 45t43 58.5t24.5 58.5l8.5 38.5t4.5 37.5q0 45 -21.5 76.5t-85.5 31.5q-43 0 -83 -18.5t-72.5 -46t-56 -62.5t-32.5 -65v-23zM442 760q0 -57 36 -103.5t95 -46.5q43 0 78 18.5 t60.5 45t43 58.5t23.5 59l9 39q5 22 6 38q0 43 -21.5 76t-87.5 33q-43 0 -82 -16.5t-70.5 -42t-53 -57.5t-29.5 -60v2q-4 -14 -5.5 -23.5t-1.5 -19.5z" />
<glyph unicode="&#xf8;" horiz-adv-x="1011" d="M125 203q0 -72 25.5 -131.5t89.5 -94.5q-33 -51 -51.5 -92t-18.5 -71q0 -76 104 -76q29 0 53.5 13t44 33.5t37 45.5t29.5 45q18 25 23 33l18 39q109 14 213.5 65t193.5 129t154.5 177.5t94.5 209.5q20 68 20 136q0 66 -21.5 123t-68.5 98q10 16 17 30l12 23 q18 33 35.5 72t17.5 73q0 35 -18.5 56.5t-63.5 21.5q-43 0 -71.5 -10t-49 -25.5t-34 -33t-23.5 -33.5q-14 -27 -41 -72l-13.5 -23.5t-15.5 -25.5q-131 -14 -244.5 -76.5t-201.5 -150.5t-148.5 -191.5t-83.5 -200.5q-8 -29 -11 -58t-3 -58zM371 248q0 14 2 28.5t6 28.5 q12 45 36.5 96.5t59.5 98.5t79 89t97 70l-138 -234l-136 -222q-6 18 -6 45zM674 244l24 38q12 19 27 40l91 141l91 141q-2 -12 -5 -27.5t-7 -31.5q-23 -88 -83 -168t-138 -133z" />
<glyph unicode="&#xf9;" horiz-adv-x="983" d="M154 117q0 -82 46 -121t130 -39q55 0 90 1t68.5 9t78.5 23.5t119 44.5q4 -43 31.5 -54.5t66.5 -11.5q33 0 63 7.5t52.5 23.5t35.5 42t13 64q0 4 -1 6.5t-1 6.5l172 663q29 66 29 111q0 41 -21.5 58.5t-56.5 17.5h-16q-61 -6 -101.5 -44t-74.5 -128l-132 -500l-61.5 -35.5 t-71.5 -36t-73.5 -27t-67.5 -10.5q-18 0 -39.5 1t-21.5 8v6l149 563v-4q20 41 21 86q0 41 -21.5 65.5t-66.5 26.5h-13q-39 0 -68.5 -16.5t-50 -40t-32 -52t-11.5 -53.5l-149 -575q-14 -45 -14 -86zM596 1325q6 -37 15.5 -62.5t23.5 -47t35 -41.5l49 -48q70 -53 84 -79 q27 -47 51.5 -56.5t32.5 -9.5h6q45 16 66.5 31.5t21.5 52.5q0 25 -12 61v-2q-10 37 -28.5 78t-41 81t-48.5 73t-50 53q-33 23 -62.5 36t-56.5 13q-39 0 -62.5 -27.5t-23.5 -87.5v-18z" />
<glyph unicode="&#xfa;" horiz-adv-x="985" d="M154 117q0 -82 46 -121t130 -39q55 0 90 1t69.5 9t78.5 23.5t120 44.5q2 -43 29.5 -54.5t68.5 -11.5q31 0 61 7.5t53.5 23.5t36.5 42t13 64q0 4 -1 6.5t-1 6.5l172 663q29 74 29 111q0 41 -21.5 58.5t-58.5 17.5h-14q-63 -6 -103.5 -44t-74.5 -128l-129 -500l-62 -35.5 t-73 -36t-74.5 -27t-67.5 -10.5q-18 0 -39.5 1t-21.5 8v6l149 563v-4q20 41 21 86q0 41 -20.5 65.5t-67.5 26.5h-11q-39 0 -69.5 -16.5t-51 -40t-31 -52t-10.5 -53.5l-151 -575q-14 -45 -14 -86zM655 1049q0 -27 16.5 -39.5t51.5 -26.5l8 -2h6q16 0 36 8t61 51q33 33 118 86 q39 25 67 45.5t49.5 42t39.5 47t39 64.5q14 35 14 66q0 68 -65 67q-25 0 -58.5 -12t-72.5 -35q-31 -18 -69 -51t-75 -72t-69.5 -80l-57.5 -75q-39 -53 -39 -84z" />
<glyph unicode="&#xfb;" horiz-adv-x="983" d="M154 117q0 -82 46 -121t130 -39q55 0 90 1t68.5 9t78.5 23.5t119 44.5q4 -43 31.5 -54.5t66.5 -11.5q33 0 63 7.5t52.5 23.5t35.5 42t13 64q0 4 -1 6.5t-1 6.5l172 665q29 66 29 111q0 41 -21.5 57.5t-56.5 16.5h-16q-61 -6 -101.5 -44t-74.5 -128l-132 -500l-61.5 -35.5 t-71.5 -36t-73.5 -27t-67.5 -10.5q-18 0 -39.5 1t-21.5 8v6l149 563v-4q20 43 21 86q0 41 -21.5 66.5t-66.5 27.5h-13q-39 0 -68.5 -16.5t-50 -41t-32 -52t-11.5 -52.5l-149 -577q-14 -45 -14 -86zM457 1069q0 -23 17.5 -39t57.5 -29h-2q10 -4 15 -4h10q23 0 47.5 14.5 t63.5 53.5h-2l194 168l78 -154q16 -49 46 -65.5t50 -16.5q6 0 12.5 1t14.5 6q41 16 57.5 33.5t24.5 45.5v-2q2 10 2 15v12q0 10 -1 23.5t-9 29.5l-119 238q-6 39 -31 65.5t-65 26.5q-39 0 -57.5 -15.5t-35.5 -37.5l-290 -252q-6 -6 -9 -6q-23 -18 -39 -35t-26 -45l-4 -17 v-14z" />
<glyph unicode="&#xfc;" horiz-adv-x="985" d="M154 115q0 -80 47 -119t129 -39q55 0 90 1t69.5 9t79.5 23.5t119 44.5q4 -43 30.5 -54.5t67.5 -11.5q31 0 61 7.5t53.5 23.5t36.5 42t13 64q0 4 -1 6.5t-1 4.5l172 663q14 35 21.5 61.5t7.5 49.5q0 41 -21.5 57.5t-56.5 16.5h-16q-63 -6 -103.5 -44t-74.5 -126l-129 -498 l-62 -35.5t-73 -36t-74.5 -27t-67.5 -10.5q-18 0 -39.5 1t-21.5 8v6l151 559v-4q18 45 19 88q0 41 -20.5 65.5t-65.5 26.5h-13q-39 0 -69.5 -16.5t-51 -40t-31 -52t-10.5 -53.5l-151 -573q-14 -49 -14 -88zM489 1128q0 -51 33 -93t88 -42q39 0 70 16.5t54.5 40t38.5 51 t22 52.5v-2q10 35 10 70q0 41 -19.5 70.5t-78.5 29.5q-39 0 -74 -14.5t-63.5 -38t-49 -51t-26.5 -52.5q-5 -17 -5 -37zM858 1135q0 -47 32 -90.5t85 -43.5q39 0 70.5 16.5t55 40t39 52.5t21.5 53v-2q4 14 8.5 32.5t4.5 37.5q0 39 -20.5 68.5t-80.5 29.5q-37 0 -72.5 -15.5 t-64.5 -39t-48.5 -51t-25.5 -54.5q-2 -6 -3 -14t-1 -20z" />
<glyph unicode="&#xfd;" horiz-adv-x="899" d="M-61 -369v-16q23 -33 62.5 -41t88.5 -8h96q70 0 127.5 24.5t104.5 65.5t87 96t77 115l516 868q18 33 33.5 64.5t15.5 58.5q0 35 -23.5 56.5t-79.5 21.5q-35 0 -58 -6t-39.5 -17.5t-29 -29t-24.5 -41.5l-293 -510l-125 473h2q-2 6 -2 10q0 6 -2 12v-4q-6 37 -21.5 69 t-68.5 32q-18 0 -49 -6q-53 -16 -83 -50t-30 -92v-31q0 -12 4 -24l195 -684l-49 -82h2q-4 -8 -8.5 -13t-6.5 -10v2l-24 -39q-14 -24 -30.5 -44.5t-36 -35t-40.5 -14.5q-4 0 -15 1t-26 3q-16 4 -36.5 6.5t-45.5 2.5q-31 0 -61.5 -7.5t-53 -28t-36.5 -56.5t-14 -91zM623 1057 q0 -27 15 -39t50 -27l10 -2h7q16 0 35.5 8.5t60.5 51.5q35 35 119 86l67 46q29 19 51.5 40.5t41 48t36.5 65.5q8 20 12.5 35.5t4.5 32.5q0 68 -66 67q-27 0 -60.5 -12t-72.5 -35q-33 -20 -71 -53t-74.5 -71.5t-69.5 -79.5t-57 -76q-23 -29 -31 -49.5t-8 -36.5z" />
<glyph unicode="&#xfe;" horiz-adv-x="1030" d="M-4 -496q0 -80 72 -79q20 0 28 2h-2q70 14 106 46.5t52 106.5l-2 -2l100 387q10 0 19.5 -1t17.5 -1q37 0 43 2l10 2h4q98 0 214 55.5t221.5 147.5t187.5 210t115 245q8 37 12 68.5t4 60.5q0 102 -56.5 159.5t-172.5 57.5q-84 0 -172 -17.5t-187 -64.5l60 237l-2 -2 q35 102 34 150q0 57 -26.5 72.5t-71.5 15.5q-53 0 -84 -10.5t-49 -34t-29.5 -61t-25.5 -95.5l-6 -24l-398 -1536h2q-18 -60 -18 -97zM422 195v4l108 401q16 16 53.5 36.5t86.5 38t107.5 29t119.5 11.5q47 0 47 -37q0 -4 -1 -14.5t-5 -22.5q-23 -84 -77 -164t-123.5 -144.5 t-145.5 -103.5t-139 -39q-31 1 -31 5z" />
<glyph unicode="&#xff;" horiz-adv-x="899" d="M-61 -369v-16q23 -33 62.5 -41t88.5 -8h96q70 0 127.5 24.5t104.5 65.5t87 96t77 115l516 868q18 31 33.5 62.5t15.5 60.5q0 35 -23.5 55.5t-79.5 20.5q-35 0 -58 -6t-39.5 -17.5t-29 -29t-24.5 -41.5l-293 -510l-125 473h2q-2 6 -2 10q0 6 -2 12v-4q-6 37 -21.5 69 t-68.5 32q-18 0 -49 -7q-53 -16 -83 -50t-30 -91v-29q0 -12 4 -26l195 -682l-49 -82h2q-4 -8 -8.5 -13t-6.5 -10v2l-24 -39q-14 -24 -30.5 -44.5t-36 -35t-40.5 -14.5q-4 0 -15 1t-26 3q-16 4 -36.5 6.5t-45.5 2.5q-31 0 -61.5 -7.5t-53 -28t-36.5 -55.5t-14 -92zM397 1141 q0 -53 34 -95t89 -42q39 0 71 16t54.5 39.5t37.5 51.5t22 52v-2q12 33 12 72q0 41 -19.5 70.5t-79.5 29.5q-39 0 -74.5 -15t-65 -38t-49 -50.5t-28.5 -53.5q-4 -17 -4 -35zM770 1147q0 -49 33 -92t86 -43q39 0 70.5 16t55 40t39 52.5t21.5 53.5v-3q4 16 9.5 34t5.5 38 q0 39 -21.5 68.5t-81.5 29.5q-37 0 -73.5 -15t-65.5 -38.5t-48.5 -51.5t-25.5 -54q-2 -8 -3 -16.5t-1 -18.5z" />
<glyph unicode="&#x152;" horiz-adv-x="1939" d="M178 311q0 -178 94.5 -275t274.5 -97q125 0 250 49t239 133v-21q0 -47 29 -72.5t100 -25.5h21q10 0 20 2h-2l633 45q51 0 86 10.5t55.5 26.5t29.5 36.5t13 39.5l-2 -4q8 25 9 43q0 47 -31 65.5t-96 18.5h-33l-549 -45l96 335l440 48q10 2 21.5 3t21.5 1q25 0 48.5 4 t44 16t38 35t29.5 57q2 8 4 17.5t2 15.5q0 35 -27.5 61.5t-107.5 26.5h-26q-14 0 -29 -2l-393 -49l80 272l481 31q10 0 20.5 1t20.5 1q45 2 77.5 4t56.5 13.5t40 34t29 63.5v-2q4 12 5 21t1 18q0 51 -37 68.5t-90 17.5q-16 0 -36 -1t-38 -3h2q-8 0 -16.5 -1t-16.5 -1 q-178 -12 -279.5 -16.5t-158.5 -4.5h-135q-29 0 -48.5 -7t-37.5 -18q-90 84 -256 84q-102 0 -204.5 -39.5t-199 -107.5t-182.5 -154t-154.5 -179t-117.5 -184t-70 -167q-39 -138 -39 -242zM430 354q0 41 8 86t21 97q25 84 91 190.5t154.5 201.5t190.5 159.5t199 64.5 q92 0 126.5 -54.5t34.5 -135.5v-23q0 -10 -2 -25v3l-30 -126q-16 -67 -39 -145v4q-41 -100 -105.5 -188t-142.5 -152.5t-165 -102.5t-173 -38q-88 0 -128 49t-40 135z" />
<glyph unicode="&#x153;" horiz-adv-x="1626" d="M127 199q0 -53 15.5 -99.5t49 -81t89 -55t135.5 -20.5q104 0 209.5 34.5t199.5 100.5q23 -72 85.5 -106.5t160.5 -34.5q104 0 215 32.5t203 78.5t154.5 93t70.5 76q12 37 12 59q0 68 -73 68q-25 0 -39.5 -1t-28.5 -5t-33 -12l-49 -23l-86 -52q-45 -28 -91 -50.5 t-92 -36.5t-89 -14h-8q-20 0 -44 7t-26 52q0 27 1 36t5 21l235 58.5t224 72.5t175 94.5t91 120.5q10 41 10 76q0 98 -68.5 158.5t-187.5 60.5q-106 0 -204.5 -38t-184.5 -103q-27 72 -90 117t-168 45q-145 0 -273 -58.5t-228.5 -148.5t-168 -198.5t-94.5 -209.5 q-6 -27 -10 -55t-4 -59zM379 244q0 14 2 27.5t6 27.5q18 63 58 132t98.5 126t134.5 95t168 38q47 0 63.5 -23.5t16.5 -58.5q0 -20 -2 -38.5t-6 -34.5q-18 -72 -64.5 -137.5t-109 -118t-136 -83t-147.5 -30.5q-47 0 -64.5 22.5t-17.5 55.5zM1157 479q33 51 77 92t90 70t92 45 t83 16q33 0 47.5 -11t14.5 -23q0 -4 -1 -6.5t-1 -4.5q-14 -23 -61.5 -51t-108 -55t-124 -47.5t-108.5 -24.5z" />
<glyph unicode="&#x178;" horiz-adv-x="1191" d="M354 1223q0 -43 35 -101l277 -481l-134 -477q-18 -59 -18 -98q0 -41 18.5 -67t59.5 -26h10q41 4 69.5 18.5t47 37t30 50t19.5 58.5l137 492l596 493q43 43 59.5 74t16.5 53q0 23 -13.5 38.5t-33.5 27.5l6 -2q-2 2 -5 4t-3 4q-27 16 -51 16q-27 0 -54.5 -14t-56.5 -35h2 q-6 -6 -22 -14l-41 -21l-451 -379l-221 330l4 -4q-33 70 -61.5 116t-65.5 46h-10q-25 -6 -50.5 -16.5t-47 -28t-35 -40.5t-13.5 -54zM713 1520q0 -53 33.5 -95.5t89.5 -42.5q39 0 70.5 16.5t55 41t39 52.5t21.5 52v-2q6 16 9 36.5t3 37.5q0 39 -19.5 68.5t-78.5 29.5 q-39 0 -75 -15.5t-65.5 -39t-50 -51t-28.5 -54.5q-2 -6 -3 -14t-1 -20zM1085 1526q0 -49 34 -92t87 -43q41 0 73 16t55.5 39.5t39 52.5t21.5 53l-2 -2l9 35t5 37q0 39 -21.5 68.5t-80.5 29.5q-37 0 -73 -15t-64.5 -39t-49 -51.5t-28.5 -53.5q-2 -8 -3.5 -15.5t-1.5 -19.5z " />
<glyph unicode="&#x2c6;" horiz-adv-x="749" d="M346 979q0 -20 15.5 -35.5t56.5 -25.5h-2q10 -4 14 -5h10q23 0 47.5 13.5t61.5 48.5h-2l188 153l76 -141q16 -45 45 -59.5t49 -14.5q4 0 11.5 1t13.5 6q41 14 56 29.5t24 41.5v-2q4 10 4 25q0 10 -2 22.5t-11 26.5l-114 217q-6 35 -31 59.5t-61 24.5q-39 0 -56.5 -13.5 t-33.5 -35.5l-285 -230l-6 -6q-23 -16 -39.5 -30.5t-26.5 -42.5l-2 -15v-12z" />
<glyph unicode="&#x2dc;" horiz-adv-x="915" d="M434 909q0 -25 22.5 -43t59.5 -18q25 0 46.5 14.5t41.5 30.5l30 22q13 10 23 11l13 -17h-2q16 -23 42.5 -46t88.5 -23q92 0 154.5 35.5t93.5 140.5v6q0 2 1 4l1 2q0 25 -24 41t-56 16q-23 0 -45.5 -8t-36.5 -28q-6 -6 -15 -27v2q-6 -14 -15 -29.5t-21 -15.5q-10 0 -16 8 l-11 19q-14 25 -35.5 48t-73.5 23q-33 0 -74.5 -13t-80.5 -33.5t-69 -47.5t-38 -53h2q-4 -6 -5 -9.5t-1 -11.5z" />
<glyph unicode="&#x2000;" horiz-adv-x="950" />
<glyph unicode="&#x2001;" horiz-adv-x="1900" />
<glyph unicode="&#x2002;" horiz-adv-x="950" />
<glyph unicode="&#x2003;" horiz-adv-x="1900" />
<glyph unicode="&#x2004;" horiz-adv-x="632" />
<glyph unicode="&#x2005;" horiz-adv-x="475" />
<glyph unicode="&#x2006;" horiz-adv-x="315" />
<glyph unicode="&#x2007;" horiz-adv-x="315" />
<glyph unicode="&#x2008;" horiz-adv-x="237" />
<glyph unicode="&#x2009;" horiz-adv-x="378" />
<glyph unicode="&#x200a;" horiz-adv-x="104" />
<glyph unicode="&#x2010;" horiz-adv-x="729" d="M176 451q0 -35 26.5 -60.5t84.5 -25.5h8q6 0 12 -3q10 -2 19.5 -3t25.5 -1q10 0 21.5 2t21.5 7l248 2l131 2q59 0 98 34.5t39 71.5q0 35 -30.5 60.5t-100.5 25.5q-6 0 -13 1t-17 1q-8 0 -17.5 1t-17.5 1q-25 0 -43 -6h-254q-8 2 -27 2q-10 0 -25.5 -1t-27.5 -1 q-8 -2 -14 -2h-9q-68 0 -103.5 -34.5t-35.5 -73.5z" />
<glyph unicode="&#x2011;" horiz-adv-x="729" d="M176 451q0 -35 26.5 -60.5t84.5 -25.5h8q6 0 12 -3q10 -2 19.5 -3t25.5 -1q10 0 21.5 2t21.5 7l248 2l131 2q59 0 98 34.5t39 71.5q0 35 -30.5 60.5t-100.5 25.5q-6 0 -13 1t-17 1q-8 0 -17.5 1t-17.5 1q-25 0 -43 -6h-254q-8 2 -27 2q-10 0 -25.5 -1t-27.5 -1 q-8 -2 -14 -2h-9q-68 0 -103.5 -34.5t-35.5 -73.5z" />
<glyph unicode="&#x2012;" horiz-adv-x="729" d="M176 451q0 -35 26.5 -60.5t84.5 -25.5h8q6 0 12 -3q10 -2 19.5 -3t25.5 -1q10 0 21.5 2t21.5 7l248 2l131 2q59 0 98 34.5t39 71.5q0 35 -30.5 60.5t-100.5 25.5q-6 0 -13 1t-17 1q-8 0 -17.5 1t-17.5 1q-25 0 -43 -6h-254q-8 2 -27 2q-10 0 -25.5 -1t-27.5 -1 q-8 -2 -14 -2h-9q-68 0 -103.5 -34.5t-35.5 -73.5z" />
<glyph unicode="&#x2013;" horiz-adv-x="1050" d="M164 432q0 -31 26.5 -52.5t81.5 -21.5l25 -4q10 -2 21.5 -3t23.5 -1q10 0 21.5 1t21.5 5h565q18 -6 33 -6q12 0 28.5 3l28.5 5h4q37 0 69 12.5t55.5 31t37 40t13.5 39.5q0 29 -24 49.5t-79 20.5l-104 -2h-588q-8 2 -23 2h-28q-8 0 -11.5 -1t-3.5 -3h-6q-10 -2 -18 -2 q-78 0 -124 -37t-46 -76z" />
<glyph unicode="&#x2014;" horiz-adv-x="1482" d="M168 432q0 -31 26.5 -52.5t81.5 -21.5l25 -4q10 0 21.5 -1t25.5 -1h21q12 0 22 4l987 -2q10 -2 17.5 -3t17.5 -1t27.5 2t29.5 4h5q37 0 69.5 12.5t56 31t38 41t14.5 40.5q0 29 -24.5 49.5t-80.5 20.5l-106 -2l-1012 2q-6 0 -11 1t-11 1h-29q-8 0 -11 -1t-4.5 -2t-5.5 -1 q-10 -2 -18 -2q-82 0 -127 -38t-45 -77z" />
<glyph unicode="&#x2018;" horiz-adv-x="296" d="M258 829q0 -59 13.5 -100t62.5 -45h8q51 0 75.5 55.5t24.5 132.5l-2 2l6 220q0 6 1.5 14t1.5 14q0 10 1 19.5t1 17.5q0 43 -15.5 75t-75.5 32q-37 0 -56 -15.5t-28.5 -41t-11.5 -57.5t-2 -65l-4 -227v-31z" />
<glyph unicode="&#x2019;" horiz-adv-x="262" d="M178 764q0 -31 12.5 -53.5t47.5 -26.5q2 0 7 -1t7 -1q43 0 89 48t69 120v-2l98 242q2 8 4 15t-2 1l12 45q6 23 6 37q0 33 -17 55.5t-65 22.5q-68 0 -105.5 -54.5t-55.5 -121.5v2l-78 -220q-6 -14 -10 -22l-7.5 -15.5t-5.5 -15.5t-4 -22q0 -6 -1 -14.5t-1 -18.5z" />
<glyph unicode="&#x201a;" horiz-adv-x="262" d="M6 -180q0 -31 12.5 -52.5t44.5 -27.5q4 0 8.5 -1t8.5 -1q41 0 87 49t71 121v-2l98 239q2 10 4 16.5t-2 2.5q4 23 11 44t7 36q0 33 -17 55.5t-65 22.5q-68 0 -105.5 -53.5t-57.5 -123.5v2l-74 -217l-10 -20l-7.5 -15.5t-5.5 -16.5t-6 -23q-2 -10 -2 -35z" />
<glyph unicode="&#x201c;" horiz-adv-x="677" d="M209 823q0 -18 3 -40.5t13.5 -43t27.5 -36t46 -19.5h12q49 0 83 50t36 124l19 238q0 4 -1.5 9t-1.5 11q0 25 -3 51.5t-14 48t-33.5 36t-61.5 14.5q-68 0 -94.5 -47.5t-26.5 -110.5q0 -6 1 -12t1 -15l-2 -215q-4 -12 -4 -18v-25zM535 829q0 -29 3 -54t12 -44.5t27.5 -32 t47.5 -14.5h10q59 0 88 55.5t29 132.5v2l6 220q0 6 1 14t1 14q0 10 1 19.5t1 17.5q0 43 -18.5 75t-86.5 32q-43 0 -66.5 -15.5t-34.5 -41t-13 -57.5t-2 -65l-6 -227v-31z" />
<glyph unicode="&#x201d;" horiz-adv-x="595" d="M193 764q0 -31 14 -53.5t49 -26.5q4 0 9 -1t7 -1q47 0 96.5 48t73.5 120v-2l109 242q2 6 2 12q0 8 0 4q4 23 11 45.5t7 36.5q0 33 -17 55.5t-71 22.5q-72 0 -113.5 -54.5t-62.5 -121.5v2l-82 -220q-16 -29 -20 -38t-8 -37q-4 -17 -4 -33zM524 756q0 -33 15.5 -51.5 t52.5 -20.5h10q57 0 103.5 53.5t72.5 130.5h-2l86 215v-2q2 10 10 27l19.5 45.5t9.5 44.5q0 31 -19.5 49.5t-68.5 18.5q-41 0 -67.5 -14.5t-46 -39t-33 -54.5t-23.5 -60l-88 -230q-14 -31 -22.5 -60t-8.5 -52z" />
<glyph unicode="&#x201e;" horiz-adv-x="595" d="M6 -184q0 -29 11.5 -52.5t50.5 -29.5q4 0 9 -1t7 -1q47 0 96 49t76 119v-2l106 241q2 6 3 13q0 8 0 4q4 23 11 45t7 37q0 33 -17.5 55t-70.5 22q-72 0 -114 -54t-62 -122v2l-82 -221l2 6q-8 -14 -13.5 -22t-8.5 -15.5t-5 -16.5t-4 -26q-2 -10 -2 -30zM338 -195 q0 -70 65 -71h11q55 0 102 53t76 131l-2 2l84 213q2 4 2 8t4 9l22.5 51t10.5 45q0 31 -19.5 50t-68.5 19q-41 0 -68 -14t-46 -38.5t-32.5 -55.5t-23.5 -62l-88 -227v2q-29 -64 -29 -115z" />
<glyph unicode="&#x2022;" horiz-adv-x="516" d="M154 494q0 -37 13 -75t36.5 -66.5t57.5 -47t77 -18.5q61 0 110.5 25.5t86 63.5t61.5 82t35 83q8 25 13 53.5t5 56.5q0 57 -29.5 100.5t-115.5 43.5q-61 0 -118.5 -23.5t-103.5 -60.5t-79 -81t-45 -83q-2 -10 -3 -23.5t-1 -29.5z" />
<glyph unicode="&#x2026;" horiz-adv-x="1343" d="M111 137q0 -51 36.5 -92t98.5 -41q45 0 80.5 16.5t63.5 40t45.5 51t23.5 52.5l9 34.5t5 34.5q0 39 -23.5 68t-89.5 29q-43 0 -83.5 -15.5t-73.5 -38t-55.5 -50t-30.5 -54.5v2q-4 -10 -5 -18.5t-1 -18.5zM563 131q0 -51 37 -92t98 -41q45 0 81 16.5t62.5 40t44 52 t25.5 53.5q4 16 9.5 33.5t5.5 33.5q0 41 -22.5 70t-88.5 29q-45 0 -86 -15.5t-73.5 -38t-56.5 -50t-32 -54.5v4q-4 -10 -4 -20v-21zM1004 135q0 -51 36.5 -92t98.5 -41q45 0 80.5 16.5t62.5 40t44 51t26 52.5q4 16 8 34.5t4 34.5q0 39 -22.5 68t-88.5 29q-45 0 -86 -14.5 t-74.5 -38t-56 -51t-28.5 -52.5h2q-4 -10 -5 -18.5t-1 -18.5z" />
<glyph unicode="&#x202f;" horiz-adv-x="378" />
<glyph unicode="&#x2039;" horiz-adv-x="487" d="M180 621q0 -31 13.5 -43.5t29.5 -24.5l-6 4l189 -238q2 -2 3 -4t3 -4q14 -20 27.5 -32.5t41.5 -18.5h21q20 0 37.5 15.5t40.5 62.5q4 8 5 16t1 19q0 23 -10.5 42t-36.5 46l2 -4l-125 157l170 107q51 27 69.5 60.5t18.5 49.5v11q-10 47 -23.5 61.5t-48.5 18.5h-6 q-35 0 -68 -21l-254 -162q-31 -14 -58.5 -38.5t-33.5 -57.5l2 4q-4 -10 -4 -16v-10z" />
<glyph unicode="&#x203a;" horiz-adv-x="487" d="M129 346q4 -51 19.5 -68.5t39.5 -17.5h19q31 6 50 20.5t42 36.5v-2l281 238q23 10 38 26.5t21 51.5q0 4 1 10t1 10q0 31 -16.5 51.5t-42.5 34.5l-179 150q-53 35 -79 35h-9q-29 -2 -47 -16.5t-41 -55.5q-8 -16 -8 -33q0 -23 11.5 -49.5t45.5 -46.5l-2 2l123 -100 l-186 -160h2q-53 -39 -68.5 -63.5t-15.5 -53.5z" />
<glyph unicode="&#x205f;" horiz-adv-x="475" />
<glyph unicode="&#x20ac;" horiz-adv-x="1175" d="M80 457q0 -41 22.5 -71t73.5 -30q20 0 49 6v-47q0 -82 20.5 -150.5t62.5 -118.5t103.5 -77.5t143.5 -27.5q92 0 188.5 30.5t183.5 78.5t159.5 108.5t119.5 120.5l-2 -3q43 49 43 89q0 37 -26.5 56t-67.5 19t-96.5 -23.5t-95.5 -74.5q-20 -27 -59.5 -56.5t-85.5 -55 t-95 -42t-88 -16.5q-86 0 -120 51t-34 127v27h350q20 -10 30.5 -11t21.5 -1h4q39 0 71.5 16t55 42t36 56.5t13.5 59.5q0 43 -25.5 70.5t-81.5 27.5q-33 0 -43 -2t-28 -17h-344q27 70 71 148h324q16 -10 31.5 -12t31.5 -2q63 0 101.5 32.5t54.5 92.5q8 25 8 47 q0 43 -23.5 73.5t-70.5 30.5h-27q-10 0 -17 -2t-14.5 -6t-19.5 -12h-196q68 66 141.5 104.5t150.5 38.5q96 0 113 -23l47 -53h-2q53 -66 78 -65q33 0 62.5 13t52 35.5t36 51.5t13.5 59q0 45 -35 86q-66 76 -151 102.5t-187 26.5q-80 0 -162 -27.5t-160.5 -77.5 t-152.5 -119.5t-137 -151.5h-84q-20 12 -40 14t-26 2q-37 0 -66.5 -16.5t-51 -43t-33 -57t-11.5 -59.5q0 -41 24 -72t73 -31q29 0 59 11q-16 -33 -29.5 -65t-25.5 -64q-12 4 -24.5 5t-22.5 1q-37 0 -67 -17.5t-51.5 -43t-32.5 -57t-11 -58.5z" />
<glyph unicode="&#x2122;" horiz-adv-x="1583" d="M283 1167q0 -29 19.5 -46t68.5 -17h18q10 0 19 2l108 20l-158 -555v2q-2 -4 -2 -8t-2 -8q-8 -23 -8 -45q0 -25 14.5 -42t57.5 -17q57 0 75.5 23.5t38.5 78.5l175 604l170 31q53 12 80.5 25.5t37.5 31.5l-200 -665q-2 -10 -3 -18.5t-1 -14.5q0 -43 19 -58.5t52 -19.5h10 q20 0 37 11.5t30 28.5t22.5 35.5t13.5 33.5l94 335q14 -49 26 -96l21 -94v2l6 -34q2 -11 4 -19t4.5 -15.5t6.5 -17.5q2 -4 3 -8t3 -8q4 -20 28.5 -39t59.5 -19q23 0 48.5 10.5t49.5 38.5q18 18 27 30l20 28q6 8 14.5 20.5t24.5 32.5q23 29 76 86l113 123l-103 -348v2 q-12 -31 -12 -53q0 -27 14.5 -45.5t55.5 -20.5h8q51 0 79.5 35t32.5 78l-2 -4l191 657q4 18 5 27.5t1 17.5q0 41 -18.5 55.5t-59.5 18.5h-6q-23 0 -62.5 -36t-78.5 -79l-170 -201l-111 -127q-16 -20 -30.5 -35.5t-24.5 -27.5l-18 -21q-7 -8 -13 -16q-8 43 -18 92l-19 90 l-13 59q-5 24 -5 27q-16 86 -36 127t-38 56l33 2q-8 45 -34 68.5t-56 23.5q-53 0 -84 -66v6q0 68 -76 68h-12q-6 0 -17 -4l4 2q-66 -10 -115 -19l-110 -20l-114 -22l-154 -29q-41 -10 -81 -25.5t-50 -58.5v2q-4 -10 -4 -16v-9z" />
<glyph unicode="&#xe000;" horiz-adv-x="925" d="M0 925h925v-925h-925v925z" />
<glyph unicode="&#xfb01;" horiz-adv-x="964" d="M215 74q0 -43 27.5 -71t70.5 -28h11q27 2 53 14.5t46.5 33t34 45t13.5 53.5l143 557q96 16 148.5 26.5t79.5 16.5l-140 -565q-2 -8 -4 -13.5l-4 -11.5h2q-16 -49 -16 -80q0 -37 19.5 -59.5t72.5 -26.5h16q35 0 58.5 12.5t39 33t25.5 48.5l21 60l1 2q1 2 1 6h2l149 567 q43 137 43 201q0 82 -65 82h-14l-373 -55l12 65q2 12 11.5 42t24.5 60.5t39.5 54t59.5 23.5q23 0 51.5 -12t40.5 -29l58 -16q23 -6 39 -6q29 0 65 18q45 23 63.5 53.5t18.5 59.5q0 37 -29 59l-50 32q-28 17 -64.5 32.5t-80.5 26t-95 10.5q-94 0 -161 -42t-114 -109.5 t-77.5 -151.5t-51.5 -166l-14 -56l-37 -14l4 2q-6 -2 -13 -3t-14 -3h3q-18 -4 -35 -9t-30 -16.5t-25.5 -32t-22.5 -55.5v2q-4 -10 -6 -21t-2 -20q0 -39 22.5 -53t55.5 -14h18q10 0 20 4l-131 -504q-6 -16 -10 -30.5t-4 -28.5z" />
<glyph unicode="&#xfb02;" horiz-adv-x="1114" d="M217 74q0 -43 27.5 -71t72.5 -28h11q57 4 102 47.5t47 98.5l144 557l256 47q59 23 87.5 35t39.5 31l-170 -639q-2 -14 -3.5 -27.5t-1.5 -30.5q0 -53 22.5 -81.5t68.5 -28.5h10q68 2 94.5 43t48.5 108l6 6l273 1039l-2 -2q2 4 2 8t2 8q23 63 22 109q0 35 -17.5 57 t-70.5 22h-14q-49 -4 -79 -29.5t-50 -60.5q-57 35 -137 69t-158 34q-96 0 -162.5 -42t-115 -109.5t-79 -151.5t-51.5 -168l-16 -54l-37 -14h2q-6 -2 -12 -2t-10 -2q-18 -4 -35 -10t-31 -17.5t-26.5 -32t-22.5 -53.5v2q-6 -23 -6 -41q0 -39 22.5 -53t55.5 -14h18q10 0 21 4 l-134 -504q-6 -16 -10 -30.5t-4 -28.5zM682 920l14 67q2 12 11.5 42t26 59.5t41 53t59.5 23.5q53 0 101 -20.5t91 -42.5q12 -8 27 -16l26 -13l-51 -199q0 37 -19.5 58.5t-64.5 21.5q-25 0 -49 -6h4z" />
<glyph unicode="&#xfb03;" horiz-adv-x="1900" d="M1618 57q0 -35 18.5 -57.5t65.5 -28.5h18q35 0 58.5 13.5t39 36t25.5 52.5l21 60h4l139 567l-2 -2q18 59 26.5 96t8.5 62q0 51 -21.5 63.5t-62.5 12.5q-49 0 -78 -10.5t-47 -33t-29.5 -60t-25.5 -93.5l-4 -24l-134 -549l-6 -23h2l-11 -45q-5 -21 -5 -37zM1856 1096 q0 -53 31.5 -91t66.5 -38q43 0 76.5 16t60.5 43t44.5 60.5t27.5 68.5v45q6 25 6 43q0 37 -23.5 60.5t-83.5 23.5q-70 0 -124 -44t-78 -148l2 4q-4 -10 -5 -21.5t-1 -21.5zM960 74q0 -43 27.5 -71t70.5 -28h11q27 2 53 14.5t46.5 33t34 45t13.5 53.5l143 557l254 47 q43 16 68 26.5t40 21.5t21.5 24.5t12.5 36.5l2 2q4 12 4 20v18q0 37 -18.5 58.5t-65.5 21.5q-23 0 -47 -6h4l-213 -28l12 67q2 12 11.5 42t24.5 59.5t39.5 53t59.5 23.5q23 0 51.5 -11t40.5 -28l58 -16q23 -6 39 -6q27 0 65 16q45 25 63.5 55.5t18.5 59.5q0 37 -29 59 l-50 32q-28 17 -64.5 32.5t-80.5 26t-95 10.5q-94 0 -161 -42t-114 -109.5t-77.5 -151.5t-51.5 -168l-14 -54l-37 -14l4 2q-6 -2 -13 -3t-14 -3h3q-18 -4 -35 -10t-30 -17.5t-25.5 -32t-22.5 -53.5v2q-4 -10 -6 -21t-2 -20q0 -39 22.5 -53t55.5 -14h18q10 0 20 4l-131 -504 q-6 -16 -10 -30.5t-4 -28.5zM215 74q0 -43 27.5 -71t70.5 -28h11q27 2 53 14.5t46.5 33t34 45t13.5 53.5l143 557l254 47q43 16 68 26.5t40 21.5t21.5 24.5t12.5 36.5l2 2q4 12 4 20v18q0 37 -18.5 58.5t-65.5 21.5q-23 0 -47 -6h4l-213 -28l12 67q2 12 11.5 42t24.5 59.5 t39.5 53t59.5 23.5q23 0 51.5 -11t40.5 -28l58 -16q23 -6 39 -6q27 0 65 16q45 25 63.5 55.5t18.5 59.5q0 37 -29 59l-50 32q-28 17 -64.5 32.5t-80.5 26t-95 10.5q-94 0 -161 -42t-114 -109.5t-77.5 -151.5t-51.5 -168l-14 -54l-37 -14l4 2q-6 -2 -13 -3t-14 -3h3 q-18 -4 -35 -10t-30 -17.5t-25.5 -32t-22.5 -53.5v2q-4 -10 -6 -21t-2 -20q0 -39 22.5 -53t55.5 -14h18q10 0 20 4l-131 -504q-6 -16 -10 -30.5t-4 -28.5z" />
<glyph unicode="&#xfb04;" horiz-adv-x="1896" d="M1628 80q0 -109 86 -109h8q63 2 90 46t52 120v-2l256 1030l-2 -2q2 4 2 8t2 9q23 63 22 106q0 37 -17.5 59.5t-66.5 22.5h-12q-39 -4 -64.5 -21.5t-42 -44t-27.5 -58.5t-20 -62l-260 -1045q-6 -28 -6 -57zM960 74q0 -43 27.5 -71t70.5 -28h11q27 2 53 14.5t46.5 33t34 45 t13.5 53.5l143 557l254 47q43 16 68 26.5t40 21.5t21.5 24.5t12.5 36.5l2 2q4 12 4 20v18q0 37 -18.5 58.5t-65.5 21.5q-23 0 -47 -6h4l-213 -28l12 67q2 12 11.5 42t24.5 59.5t39.5 53t59.5 23.5q23 0 51.5 -11t40.5 -28l58 -16q23 -6 39 -6q27 0 65 16q45 25 63.5 55.5 t18.5 59.5q0 37 -29 59l-50 32q-28 17 -64.5 32.5t-80.5 26t-95 10.5q-94 0 -161 -42t-114 -109.5t-77.5 -151.5t-51.5 -168l-14 -54l-37 -14l4 2q-6 -2 -13 -3t-14 -3h3q-18 -4 -35 -10t-30 -17.5t-25.5 -32t-22.5 -53.5v2q-4 -10 -6 -21t-2 -20q0 -39 22.5 -53t55.5 -14 h18q10 0 20 4l-131 -504q-6 -16 -10 -30.5t-4 -28.5zM215 74q0 -43 27.5 -71t70.5 -28h11q27 2 53 14.5t46.5 33t34 45t13.5 53.5l143 557l254 47q43 16 68 26.5t40 21.5t21.5 24.5t12.5 36.5l2 2q4 12 4 20v18q0 37 -18.5 58.5t-65.5 21.5q-23 0 -47 -6h4l-213 -28l12 67 q2 12 11.5 42t24.5 59.5t39.5 53t59.5 23.5q23 0 51.5 -11t40.5 -28l58 -16q23 -6 39 -6q27 0 65 16q45 25 63.5 55.5t18.5 59.5q0 37 -29 59l-50 32q-28 17 -64.5 32.5t-80.5 26t-95 10.5q-94 0 -161 -42t-114 -109.5t-77.5 -151.5t-51.5 -168l-14 -54l-37 -14l4 2 q-6 -2 -13 -3t-14 -3h3q-18 -4 -35 -10t-30 -17.5t-25.5 -32t-22.5 -53.5v2q-4 -10 -6 -21t-2 -20q0 -39 22.5 -53t55.5 -14h18q10 0 20 4l-131 -504q-6 -16 -10 -30.5t-4 -28.5z" />
</font>
</defs>
</svg>
