<?xml version="1.0"?>
<!DOCTYPE svg PUBLIC "-//W3C//DTD SVG 1.0//EN" 
              "http://www.w3.org/TR/2001/REC-SVG-20010904/DTD/svg10.dtd">
<svg xmlns="http://www.w3.org/2000/svg" width="335" height="296">
<path class="st0" d="M65,0.3c0.1,0,0.3,0,0.8,0l-1.6,0L65,0.3z"/>
<polygon class="st0" points="57.2,0.4 55.7,0.4 61.3,0.4 "/>
<path class="st0" d="M127.4,0c-0.1,0-0.3,0-0.4,0C127.1,0,127.3,0,127.4,0z"/>
<path class="st0" d="M101.2,0.2l0.7,0L101.2,0.2C101.2,0.2,101.2,0.2,101.2,0.2z"/>
<path class="st0" d="M65.3,0.3l0.3,0l-0.6,0C64.9,0.3,65,0.3,65.3,0.3z"/>
<path class="st0" d="M89.5,0.2c0.8,0-2.7,0.1,1.9,0l-0.5,0c3,0,4.2,0,6.7,0c1.5,0-2.5,0-1.1,0c3.2,0,10,0,9.8,0c2.3,0,2.7,0,3.3,0
	c3.7-0.1,13.7,0,13.6-0.1l-5.5,0l0-0.1c-2.9,0-0.4,0-4.5,0l1.2,0l-11.7,0c0.4,0-2.1,0-1.7,0c-2.4,0-4.8,0-6,0L89.5,0.2z"/>
<path class="st0" d="M100.1,149.5l1,0C100.4,149.5,99.9,149.5,100.1,149.5z"/>
<polygon class="st0" points="111.3,149.4 111.4,149.4 111.7,149.4 "/>
<path class="st0" d="M8.8,0.2l0.5,0C8.9,0.2,8.7,0.2,8.8,0.2z"/>
<path class="st0" d="M1,71.6l0-0.5C1,71,1,71.1,1,71.6z"/>
<path class="st0" d="M36.5,149.4c0.2,0,0.3,0,0.5,0L36.5,149.4z"/>
<path class="st0" d="M38.8,149.4c-0.4,0-1.1,0-1.7,0c0,0,0,0,0,0l0.2,0L38.8,149.4z"/>
<polygon class="st0" points="37.3,149.4 37.2,149.4 36.1,149.4 "/>
<path class="st0" d="M92.5,149.4c0.2,0-1.5,0-0.6,0l4.5,0c-1.4,0,0.4-0.1-1.9-0.1l0.4,0l-5.5,0L92.5,149.4z"/>
<path class="st0" d="M77.1,0.4c0.7,0,1.4,0,2.1,0C78.3,0.4,77.4,0.4,77.1,0.4z"/>
<path class="st0" d="M1,139.8l0-1.2C0.9,140.2,0.9,140.7,1,139.8z"/>
<path class="st0" d="M54.2,149.4l-0.1,0C54.7,149.4,54.6,149.4,54.2,149.4z"/>
<path class="st0" d="M84.1,149.3c-0.2,0-0.4,0-0.5,0c0,0-0.1,0-0.1,0L84.1,149.3z"/>
<path class="st0" d="M31.4,149.3c0.9,0,0.1,0,2.7,0l-1.7,0C32.3,149.3,32,149.3,31.4,149.3z"/>
<path class="st0" d="M88.7,149.4l0.7,0l-0.2,0C89.1,149.3,89,149.3,88.7,149.4z"/>
<path class="st0" d="M87.2,149.3c-1.4,0,0.2,0,1.4,0l-1.2,0C87.4,149.3,87.3,149.3,87.2,149.3z"/>
<path class="st0" d="M7.4,149.3c-0.5,0-0.3,0,0.2,0c0.7,0,1.4,0,2.1,0l-5.1,0L7.4,149.3z"/>
<path class="st0" d="M38.3,149.3l2.1,0c-0.4,0-0.9,0-1.3,0l2.1,0l-3.4,0c-0.1,0-0.2,0.3-0.3,0.3c0,0,0,0.3-0.1,0.3h-0.1l0.1-0.3
	c-0.5,0-1.9-0.1-2-0.1c1.7,0,2.4,0,4.4-0.1c1.5,0-1.7,0,1.4,0c0.7,0,1.2,0,1.6,0c-0.7,0-1.3,0-1.9-0.1L38.3,149.3z"/>
<path class="st0" d="M112.4,149.4l-1,0l-3,0c2.5,0-1.7,0,0.9-0.1c3.6,0,6.7,0,8.7,0l-9.4,0l2.2,0l-5,0.1c-0.1,0-1.9,0-3.2,0
	l-0.6,0.1L112.4,149.4z"/>
<path class="st0" d="M34.1,149.8l2.5-0.2c-0.4,0-0.7-0.2-0.1-0.2c-0.8,0-1.1,0.2-1.1,0.2c-0.3,0-0.6,0.2-1,0.2
	C34.2,149.8,34.2,149.8,34.1,149.8z"/>
<path class="st0" d="M32.4,149.3C32.3,149.3,32.3,149.3,32.4,149.3L32.4,149.3C32.5,149.3,32.5,149.3,32.4,149.3z"/>
<path class="st0" d="M32.6,149.3C32.5,149.3,32.5,149.3,32.6,149.3c0.2,0,0.5,0,1.1,0C33.2,149.3,32.9,149.3,32.6,149.3z"/>
<path class="st0" d="M89.4,149.3c0.1,0-0.4,0-1.1,0c-0.1,0-0.5,0-1.3,0l0.4,0C88.4,149.3,89.9,149.3,89.4,149.3z"/>
<path class="st0" d="M83.6,149.3c0.1,0,0.2,0,0.2,0C83.4,149.3,83.2,149.3,83.6,149.3z"/>
<path class="st0" d="M88.6,149.3l0.7,0C89.8,149.3,89.3,149.3,88.6,149.3z"/>
<path class="st0" d="M86.5,149.2l-2,0c-0.2,0-0.5,0-0.7,0c0.7,0,2.1,0,2.3,0c0.4,0,1.4,0,2.2,0C88.7,149.3,87.6,149.3,86.5,149.2z"
	/>
<polygon class="st0" points="1.4,149.2 1.4,149.2 1.4,149.2 1.4,149.2 1.5,149.3 1.5,149.2 "/>
<path class="st0" d="M102.6,149.3L102.6,149.3l-0.5,0l-0.7,0C101.4,149.3,101.9,149.3,102.6,149.3z"/>
<path class="st0" d="M1.5,149.2L1.5,149.2L1.5,149.2L1.5,149.2C1.5,149.3,1.5,149.3,1.5,149.2z"/>
<polygon class="st0" points="101.7,149.3 101.4,149.3 99.7,149.3 100.9,149.3 97,149.3 95,149.3 "/>
<path class="st0" d="M32.4,149.3c0,0,0.1,0,0.1,0C31.9,149.3,32.2,149.3,32.4,149.3z"/>
<path class="st0" d="M115.7,149.4l4.5,0c0.8,0.1-3.6,0-4.6,0.1l8.5-0.1C122.5,149.3,115.8,149.3,115.7,149.4z"/>
<polygon class="st0" points="113.7,149.4 113.9,149.4 116.2,149.4 115.9,149.4 "/>
<polygon class="st0" points="30.4,149.5 31.5,149.5 31.7,149.5 "/>
<polygon class="st0" points="32,149.6 33,149.5 30,149.5 "/>
<path class="st0" d="M0.9,144.5c0,2,0,1.6,0,1.2C0.9,145.9,0.9,142.1,0.9,144.5z"/>
<path class="st0" d="M0.9,145.7c0,0,0-0.1,0-0.2C1,145.6,0.9,145.6,0.9,145.7z"/>
<polygon class="st0" points="95.6,0.2 98,0.2 97.8,0.2 "/>
<polygon class="st0" points="113.5,0.2 115.7,0.2 115.5,0.2 113.3,0.2 "/>
<path class="st0" d="M132.2,0.1l-4.6,0.1l13.5,0c2.2,0,0.8-0.1,0.9-0.2c-0.3,0-5.9,0-6.1,0c2.6,0-3.6,0,1.2,0c0.4,0-1.8,0.1-4.1,0
	c0.2,0,2.2,0,0.8,0C132.3,0.1,131.7,0.1,132.2,0.1z"/>
<path class="st0" d="M131.7,0l-2.3,0C129.6,0,130.8,0,131.7,0z"/>
<path class="st0" d="M0.8,136.1c0,2.7,0,2.8,0,3.1c0,1.8,0,3.6,0,1.6l0,5.1l0-3c0,0.8,0,4.8,0,5.8l0-5.5l0,0.3l0-4.5c0,0.1,0,0,0,1
	c0-6.6-0.1-1.8-0.1-7.3l0,1.4C0.8,135.5,0.8,136.6,0.8,136.1z"/>
<path class="st0" d="M149.9,127.3c0-0.1,0-0.3,0-0.5C149.9,127,149.9,127.1,149.9,127.3z"/>
<path class="st0" d="M149.7,101l0,0.7L149.7,101C149.7,101,149.7,101,149.7,101z"/>
<path class="st0" d="M149.7,56.7l0,0.9l0-6.7c0,0.1,0,0.1,0,0.2c0,0.4,0,0.8,0,1.4L149.7,56.7z"/>
<path class="st0" d="M149.7,58.2l0-0.6l0,1.4C149.7,59.2,149.7,59.2,149.7,58.2z"/>
<polygon class="st0" points="0.8,108.4 0.8,108.3 0.8,108.3 "/>
<path class="st0" d="M0.9,12c0,0.5,0,1.5,0,1C0.9,13.9,0.9,13.9,0.9,12z"/>
<polygon class="st0" points="0.5,111.1 0.5,111.3 0.5,111.5 "/>
<path class="st0" d="M149.7,9.1c0-0.5,0-0.6,0-0.5L149.7,9.1z"/>
<polygon class="st0" points="0.7,36.9 0.7,35.7 0.7,35.5 "/>
<polygon class="st0" points="0.7,37.1 0.6,38.4 0.6,41 "/>
<polygon class="st0" points="1,108.4 1,110.6 1,110.6 "/>
<polygon class="st0" points="0,97.5 0.1,96.7 0,95 "/>
<polygon class="st0" points="0.7,1.3 0.7,1.3 0.7,1.3 0.7,1.3 "/>
<path class="st0" d="M0.9,75.8L0.9,75.8C0.9,75.8,0.9,75.8,0.9,75.8C0.9,75.8,0.9,75.8,0.9,75.8z"/>
<polygon class="st0" points="0,59.1 0.1,57 0,56 "/>
<path class="st0" d="M149.7,1l0,4.2C149.7,3.8,149.7,2.4,149.7,1z"/>
<path class="st0" d="M0,36.9c0,0.6,0,0.6,0,0.4c0-0.8,0-1.8,0-2.9V36.9z"/>
<path class="st0" d="M0.8,110.2c0,0.9,0,3.1,0,2.6C0.8,112.9,0.8,108.9,0.8,110.2z"/>
<path class="st0" d="M0.7,112.8c0,0.1,0,0.1,0,0.7l0-2.3L0.7,112.8z"/>
<path class="st0" d="M0.6,120c-0.1,0.8,0-3.6-0.1-4.6l0.1,8.5c0-1.6,0-8.3,0-8.4L0.6,120z"/>
<polygon class="st0" points="0.5,113.8 0.5,116 0.5,115.8 0.5,113.6 "/>
<path class="st0" d="M0.6,11.7l0,1.8C0.6,13.1,0.6,10.6,0.6,11.7z"/>
<polygon class="st0" points="149.7,97.6 149.7,95.4 149.7,97.9 "/>
<path class="st0" d="M149.8,137c0,0.4-0.1-1.8,0-4.1c0,0.2,0,2.2,0,0.8c0-1.5,0.2-2.1,0.1-1.6l0.1-3.9v-10.5l0,0c0-0.9,0-1.3,0-1.5
	v-2.7l-0.2,2.1l-0.1-0.2l0.1-2.2l0.1,0.2v-3.1v-2.5l-0.1,0.7c0,8.4-0.1-2.1-0.1,1.8l0,4.6c0-6.7,0.1,0.9,0-5.8c0,1,0,4.9,0,7.1
	c0,2.6,0-2.3-0.1-2.8c0,2.7,0,2.2,0,3.4c0,4.2,0,8.8,0,11.3c0,3.1,0,2.9,0,4.6c0,0.3,0-3.6,0-5.2c0,0.1,0,0.2,0,0.1l0-2.7
	c0,2.5,0-0.4,0-1.7c0-1,0-2.9,0-2.7l0,1.5l0-6.2c0-0.1,0,0.7,0,0.8l0-7.8l0,1.9c0-2.7,0-8.7,0-12.9c0,0.5,0,1.3,0,0.8
	c0-2.5,0-4.3,0-3.2l0.2-12.5l0-11.6v-1.5v-1c0,0-0.1,2-0.1,1.8l-0.1-2.2c0,1.4,0-2.2,0-3.6l0-5.7c0-0.3,0-0.8,0,1.5l0,4.3
	c0-0.1,0-0.2,0,1.8c0,0.1,0.2,0,0.2,1.5c0,0.8,0.1-1.9,0.1-2.5v-3.1l0,1.3l0-6.9v-0.2v-5.2v-0.1c0,0.4,0-0.1,0-0.5
	c0-1.5,0-1.5,0-1.4v-0.2v-5.7c0-0.8-0.2-1.6-0.2-2.5l-0.1,8.1c0-3.6,0,4.9,0,3l0-7l0,0.7l0-7.6c0-0.7,0-1.1,0-1.2
	c0-1.1,0.1-2,0.1-2.4L150,36v-2.8l-0.1,1.6c0,0,0.1,0.1,0.1,0.4c0-4.4,0-4,0-4v-9.5l-0.1,2c0-1.5-0.1-1.2-0.1-3.4c0-2.7,0,0.4,0,0.7
	l0.1-7.1c0,0.5,0.1,0.2,0.1,1v-2.8c0-0.5-0.2-0.9-0.1-0.8l-0.1-0.5l0-2.4l0.1-0.8c0,0,0.1,0.1,0.1,0.1V2.2V1.7V1.4V1V0.8h-0.4h-0.3
	h-0.5l0-0.1l0.1-0.2v0l-0.2,0c0,0-0.1,0-0.1,0l-0.1,0l-0.1,0l0,0l-0.6,0l0.5-0.1c-4.8,0-3.6,0-8,0l0.2,0l-2.7,0
	c-5.6,0.1-6.2,0-9.6-0.1l0.7,0l-10.8,0c2.4,0,0.8,0,2.5,0.1c2.1,0,1.5-0.1,5,0c-0.5,0-4.9,0-5.8,0.1c-2,0-3.3-0.1-3.5-0.1l-13.6,0
	c-2.1,0-3.8,0.1-8.8,0.1l0.3,0c-0.2,0-2.4,0-3.4,0c1.7,0-2.1,0,0,0.1c-2.9,0-3.4,0-3.7-0.1c-1.4,0-3.5,0-6.1,0c0,0-0.1,0.2-0.5,0.2
	l-0.3,0.2c-0.4,0-0.8,0-1.2,0c0.4,0,0.8-0.2,1.1-0.2l-5,0c-2.5,0-3.7-0.1-5.5-0.1c0.2,0,0.4-0.1,0.6-0.1c0.5,0,1,0,1.5,0l-1.3,0
	c0.1,0,0.2,0,0.1,0l-0.5,0c1.5,0,1.2,0,4.3,0c-1.4,0-1.7,0.1,1.7,0.1l22-0.2c0.3,0,6.5,0,9.5,0c-1.2,0-3.4,0-5.7,0l5.8,0l0.8-0.1
	c8.4,0-2.1,0,1.8,0.1l4.6,0c-6.7,0,0.9-0.1-5.8-0.1c1,0,4.9,0,7.1,0c2.6,0-2.3,0-2.8,0.1c2.7,0,2.2,0,3.4,0c4.2,0,8.8-0.1,11.3,0
	c3.1,0,2.9,0,4.6-0.1c0.3,0-3.7,0-5.3,0c0.1,0,0.2,0,0.1,0l-2.7,0c2.5,0-0.4,0-1.7,0c-1,0-2.9,0-2.7,0l1.5,0l-6.2,0
	c-0.1,0,0.7,0,0.8,0l-7.8,0l1.9,0c-2.7,0-8.7,0-12.9,0c0.5,0,1.3,0,0.8,0c-2.5,0-4.3,0-3.2,0L83,0L69.3,0.2l-0.8-0.1
	c1.2,0-1.6,0-3.2,0c0.3,0,0.7,0,1.6,0c0.1,0,0,0,1.5,0c0,0,0.1,0,0.1,0l-0.6,0l0.6,0c0.2,0-3.4,0.1-2.6,0.1l-0.4,0.2L66,0.8
	c0,0,0,0,0,0l-7.1-0.1l-0.7-0.1l0.3-0.1l-0.9,0l-2.3,0l0.5,0l-0.9,0l0.4,0c-0.1,0-0.5,0-1,0l-1.8,0l-0.7,0c0,0,0,0,0,0l0.8,0l0.4,0
	c0,0-0.6,0-1.2,0c-0.2,0-0.4,0.2-0.5,0.2l13.8,0.2c0.1,0,0.3,0,0.4,0c-0.4,0-0.3-0.3-0.3-0.3l-4.3-0.1c-3.9,0,0.2-0.1-2.3-0.1
	l-1.5,0l-4.2,0c-6.1,0,0.9,0.1-6.1,0.1c0.9,0-1.9-0.1-5.1-0.1l8.1,0c-3.6,0,4.9,0,3-0.1l-7,0l0.7,0l-7.6,0c-1.7,0-1.4,0.1-1.1,0.1
	c-1.4,0-2.7,0.1-2.7,0.1l0.2,0l-6.2,0L35,0.1c0,0,0.1,0,0.4,0c-6.1,0-2.9,0.1-4.4,0.1c-1.3,0-2.5,0-3.7,0l0.6,0c-3.8,0-1.2,0-4.6,0
	c-2.7,0,2.4,0,0.7,0c-3.6,0-2.2,0.1-7.9,0c0.3,0-0.6,0,2.7,0l-3.2,0l5.4,0l3-0.1c-1.5,0-1.2,0-3.4,0c-2.7,0,0.4,0,0.7,0l-7.1,0
	c0.6,0,0,0,2.3,0.1c-2.2,0-5.1,0-4.9-0.1l-0.5,0l-2.4,0L8,0.2c1.6,0,3,0,5.8,0c-1.1,0,1.6,0.1-2.1,0.1c-1.6,0-0.2,0-0.3,0
	c-4.8,0-6.8,0-8.9,0c-0.4,0-0.9,0-1.3,0L1,0.2v0v0.3l0,0.1L0.7,0.8H0l0,0h0.2L0.2,1c0,0.7,0,1.6,0,2.5L0,1l0.1,4.2
	C0.1,9.8,0,15,0,15.6v17.2c0-0.2,0.2-0.7,0.3-0.6l0.2,4.2l0,2.8c0,0.3-0.1-0.9-0.1-2.3c0-0.8-0.1-1.5-0.1-0.7c0-2.6-0.1,0.3-0.2,1
	c0,2.1,0.1,3.6,0.1,5.3c0,1.9,0.2,5.7,0.2,9.3c0-1.4-0.1,3.9-0.1,2.1L0.1,57l0.1,2.4c0,0.2,0.2,0.1,0.2,0.1c0,2.4,0.1,0.8,0.1,4.9
	c0,10.9-0.1-1.5-0.1,0c0,0.4,0,5.2,0,7.3l0-0.5c0,1.1,0,2.7,0,3.9l0.1,2.7l0,4.9l0-1l0,3.1c0,0.4,0-1,0-2.5c0,0.8,0,1.8,0,2.9l0-0.6
	c0,1,0,4.3,0,3.4l0,4.2c0,0.2-0.1-1.5-0.1-0.6l-0.1,4.5c0-1.4-0.1,0.4-0.1-1.9l-0.2,2.3l0.2,5.8l0.2-0.6l0.1,10.4l0-1l0-3
	c0,2.5,0-1.7,0.1,0.9c0,3.6,0,6.7,0,8.7l0-7.2l-0.1-5c0-0.2,0-4.4,0-4.3l0,4.6l0-6.4l0,2.3l0-13.2c0,3.1,0-4,0-1.5c0,1,0,2.7,0,2.2
	c0,0.3,0-2.4,0-3.2c0-0.4,0-4.5,0-2.1l0-3.3l0.1,9.7l0-1l0,9.6c0-0.1,0-0.5,0,0.1l0,8.8l0-0.4c0,0.3,0,2.2,0,1.8l0-5.6l0,4.7l0,0.2
	l0,6.1l0-2.4l0,0.4l0-2.3c0-3.6,0-5.4,0-6c0-0.1,0-0.2,0-0.3c0,2.3,0.1,2.8,0.1,5.5c0-1.9,0-0.7,0,0.9c0-0.6,0-1.3,0-1.9l0,9l0-1.1
	l0-7.4l0,6.3c0,2.9,0,1,0-1.3l0,1.2c0,0.2,0,4.4,0,3.4l0,0.4l0,1.2c0,0.5,0,1,0,1.4c0-1.1,0,0.5,0,0.2l0-2.8c0-0.6,0,1.3,0,2.7
	c0-1.3,0,0.4,0,0.6l0,1.7c0,0.7,0,0.9,0,2.4c0-0.2,0-0.5,0,2l0-2.3l0-3.9c0,0,0-2.9,0-1l0,1.7c0-0.4,0-5.1-0.1-4l0,5.4l0,6.2l0,2
	l0-0.7l0.1-0.1l0-2.7l0.1,4.5c0-1,0-3.2,0-5.2l0.1,1.4v2.8v0.1v5.4l0-0.4c0,1,0,1.7,0,2.1l0,1.7l0,0.6l0.1,7.7H1l0-0.8l0-0.8
	c0,0.1,0,0.1,0,0.3v0c0,0.7-0.1,0.1-0.1-1l0,1.8l-0.2,0.5c0.1,0,0.1,0,0.2,0l0-0.1l0,0.2l0.1-0.1H1l0,0.1l0-0.1c0,0,0,0,0.1,0h0h0.1
	L1,149.4v-0.1v0v0l0.4,0.5h0h0h0h0h0H1l0,0l0,0l0,0l0,0l0,0h0.5H1l0,0h0.5l0.5-0.6v0l2.8,0.3l7.1,0.3h3.9c-0.4,0-3-0.3-6.1-0.2
	l1.5-0.1l-1.7,0l-1,0.2l-0.9,0.2c0,0,0,0,0,0c-0.2,0-0.4,0-0.7,0l-1.3,0h0.1c-1.7,0-3.3,0-4.6,0l-0.1,0h0.1l4.1-0.2
	c0.3,0,2.8-0.1,1.2-0.1c2.8,0,2.6-0.1,2-0.1l1.8,0l6.5-0.1l-4,0l8.4,0c0,0-3.6,0-4,0c-0.4,0,3.7,0,1.1,0l10.3,0l0.4,0
	c2.1,0,1.9,0.3,3.6,0.3c0.1,0,0.3,0.3,0.4,0.3h1.5c1.2,0,2.1,0,3,0c0.2,0,0.1,0-0.4,0h4.1h0.1h3.1l-0.4-0.3l-2.7-0.1l2.3-0.1l-3.2,0
	c0.1,0,0.3,0,0.4,0l3.8,0.2c-0.2,0-0.1,0.3-1.9,0.3c0,0,0,0,0,0c1.9,0,5.6-0.2,9.2-0.1c0.4,0,1.7-0.1,2.3-0.2l3.4-0.2l2,0
	c0.2,0,0.1,0.2,0.1,0.2c2.4,0,0.8-0.1,4.9-0.1c10.9,0-1.5,0.1,0,0.1c0.4,0,5.2,0,7.3,0l-0.5,0c1.1,0,2.7,0,3.9,0l2.7,0.1l4.9,0.2h-1
	l3-0.2c-0.4,0-1.4-0.1-2.4-0.1c0.3,0,0.6-0.1,1-0.1l-5.4,0c0.5,0-3.3,0-4,0l-2,0l5.8-0.1c0.8,0,2.4,0,1.9,0l0,0l4.6,0
	c0.3,0,0.5,0,0.8,0c0.3,0,0.7,0.3,1.1,0.3l2.1,0.3h1.1l-0.2,0l1,0h4.7l1.9,0l0.6,0h9.9h0h0h24.5h0.7h0.1h15.7h0.7h0.6v-1.1v-15.4
	l-0.2,7.6c0,2.2,0,0.8,0.1,0.9c0-0.3,0-5.9-0.1-6.1C149.8,138.3,149.8,132.1,149.8,137z M0.9,118.6c0-0.3,0-0.9,0-1.9
	c0,0.2,0,2.1,0,3.7L0.9,118.6z M0.9,75.3l0,0.4c0-0.4,0-0.7,0-1c0-0.3,0-0.3,0,0.2c0,0.2,0,0.4,0,0.8l0,0.9c0,0.4,0,0.8,0,1.2
	c0-2,0,0.1-0.1-2.3C0.9,75.5,0.9,75.4,0.9,75.3z M1.2,0.6L1.2,0.6L1.2,0.6C1.2,0.5,1.2,0.5,1.2,0.6L1.2,0.6L1.2,0.6l0.3,0v0L1.2,0.6
	L1.2,0.6L1.2,0.6C1.2,0.6,1.2,0.6,1.2,0.6L1.2,0.6L1.2,0.6L1.2,0.6L1.2,0.6z M32.6,0.5l0.3,0l1.6,0L32.6,0.5z M1,82.3
	c0,0.3,0,0.4,0,0.5l0,0.1l0,0.9l0-0.1l0-0.8l0,0v-0.1c0,0,0,0,0-0.1V82.3z M1,57.8L1,57.8c0-2,0-2,0-2.1c0-0.1,0,0,0,0
	c0-0.1,0-0.1,0-0.3c0-4,0-5.3,0-7.4l0,1.8v2.5c0,0.1,0,0.2,0,0.2c0,0.2,0,0.3,0,0.5v6.1C1,59.4,1,58.8,1,57.8z M1,70.4
	c0-0.2,0-0.4,0-0.6V70.4z M0.9,63.5l0,2.9c0-3.8,0-5.1,0-9.5c0-0.4,0-0.6,0-0.7l0,3.9l0-0.8l0,3.8c0-0.5,0-1.2,0-1.9
	c0,0.2,0,0.3,0,0.3c0-0.9,0-3.3,0-3l0,6.1c0-0.1,0-1.3-0.1,3.3c0-0.9,0-3.1,0-2.6L0.9,63.5z M1,1C1,1,1,1,1,1L1,1L1,1z M1,1.3L1,1.3
	L1,1.3C1,1.3,1,1.3,1,1.3L1,1.3z M1,1.3L1,1.3C1,1.3,1,1.3,1,1.3L1,1.3L1,1.3z M1,2.2c0-0.3,0-0.6,0-0.8l0,0L1,2.2z M1,8.9l0,0.2
	V7.8c0,0.2-0.1,0.3-0.1,0.5l0-2.2l0,0.4l0-1.5L1,8.9z M0.9,8.8c0,0.4,0,0.9,0,2l0-0.6L0.9,8.8z M0.9,13l0.1-2c0,0.3,0.1,0.4,0.1,0.3
	V9.8l0,1.9l0,6.5c0-0.3,0-3.9-0.1-4.6C0.9,13.4,0.9,13.2,0.9,13z M1,1L1,1C1,1,1,1,1,1L1,1C1,1,1,1,1,1L1,1L1,1L1,1C1,1,1,1,1,1L1,1
	L1,1L1,1L1,1C0.9,1.1,0.9,1.1,1,1L1,1L1,1L1,1C1,1,1,1,1,1L1,1C1,1,1,1,1,1L1,1L1,1z M0.9,1C0.8,1,0.8,1,0.7,1L0.9,1
	C0.8,1,0.9,1,0.9,1C0.9,1,0.9,1,0.9,1z M0.7,1.3L0.7,1.3L0.7,1.3L0.7,1.3C0.7,1.3,0.7,1.3,0.7,1.3l0.2-0.2c0,0,0,0,0,0L0.7,1.3
	c0.1-0.1,0.1-0.1,0.1-0.1L0.7,1.3L0.7,1.3L0.7,1.3L0.7,1.3L0.7,1.3C0.7,1.3,0.7,1.3,0.7,1.3z M0.9,18c0,0.5,0,1.1,0,1.7
	C0.9,19.3,0.9,18.7,0.9,18z M1,60.5c0,0.1,0,0.2,0,0.3c0,1.5,0,2.4,0,2.9L1,60.5z M1,59.2l0-0.5c0-0.7,0-1.1,0-1.4L1,58
	C1,58.8,1,59.2,1,59.2z M0.9,60.9L0.9,60.9l0-0.3L0.9,60.9z M0.9,61c0,1.8,0,3.3,0,4.6l0-1.9L0.9,61z M0.9,65.8L0.9,65.8
	c0,2.4,0,4.2,0.1,5.7l0,1.8c0,0.6,0-1.9,0-3.8c0-0.1,0-0.3,0-0.8c0,0.9,0,1.8,0,2.4c0,0.3,0,2.4,0,2.5v0.1c0,0.3,0,0.7,0,1.4
	c0-0.1,0-0.4,0-0.3c0-3.1,0,1.4,0-2.3c0,0.4,0,0.8,0,1.2C0.9,70.9,0.8,70.3,0.9,65.8z M0.9,99.6c0-0.4,0-0.5,0-0.5l0,2.4l0-0.3
	L0.9,99.6z M1,90.7L1,90.7v2.4C1,93,1,93,1,93C1,92.2,1,91.4,1,90.7z M149.7,107.5c0-1.2,0.1-3.4,0.1-5.7l0.2,4.7V101c0,0,0,0,0,0
	c0-0.1,0-0.3,0-0.4v-2.1v-4.1v-5.1l-0.1,8.6C149.9,98.2,149.7,104.5,149.7,107.5z M69.7,0.2c1.2,0,1.9,0,0.4,0.1l-0.7-0.1L69.7,0.2z
	 M51.8,0.4C51.8,0.4,51.8,0.4,51.8,0.4C51.8,0.4,51.8,0.4,51.8,0.4L51.8,0.4z M35.5,0.5l0.2,0c-1.8,0-3.4,0-4.2,0L35.5,0.5z
	 M27.6,0.5c0.7,0,0.9,0,1.1,0l-1.7,0L27.6,0.5z M6.1,0.4c0.2,0,3.8,0,4.8-0.1c0.9,0,5,0,4.1,0c-2.9,0-2.6,0.1-5.3,0
	c-0.4,0,0.3,0,1.3,0c-0.4,0-0.6,0-0.6,0l-3,0C6.6,0.5,5.9,0.5,6.1,0.4z M0,6.7c0-0.1,0-0.3,0-0.4C0,6.5,0,6.7,0,6.7z M0.5,40.9
	c0-3,0,0.2,0-1.4c0-2.3,0-3,0-5.4c0-2.9,0-2,0-2.9c0,2.9,0-1.4,0,2.3c0-3,0-2.2,0-4.7l0-0.4l0-10.3c0,2.6,0-1.5,0-1.1c0,0.5,0,4,0,4
	l0-8.4l0,4l-0.1-6.5l0-4.7l0,2.9l0,1l0,1.7l0.1-6.6l0.1,19.2l0-0.5l0,7.8l0-1c0,0.6,0,3.3,0,5.9c0,0.8,0,2.5,0,3.6l0-0.4l0,6.1
	l0-1.2l0-2.7l0,2.3l-0.1-5.3l0,6.3C0.6,44.2,0.6,44.4,0.5,40.9z M0.8,79.8l-0.2,0l0-1.8c0,0.5,0-3.3,0-4l0.1-2l0.1,2.1
	c0,0.1,0,0.3,0-0.1c0,0.3,0,0.5,0,0.8c0,0,0,0.1,0,0.1l0-0.8c0-0.1,0,0,0,1.9c0,3.8,0-1.1,0,2.7c0,0.2,0,0.5,0,0.3l0,0.5
	c0-0.1,0.1-0.2,0.1-0.4v-0.1c0,0,0,0.1,0,0.1c0-0.1,0-0.2,0-0.3c0,0.7,0,1.3,0,1.9c0,0,0-0.1,0-0.1V81c0,0,0,0,0,0
	c0-0.4,0-0.9,0-1.8c0,0,0,0,0,0l0,2.2l-0.1-1.8C0.9,79.8,0.8,80,0.8,79.8z M0.9,97.7c0-0.3,0-0.5,0-0.8c0-0.3,0-0.6,0-0.9
	C1,97.1,1,97.7,0.9,97.7z"/>
<path class="st0" d="M149.9,131.6l0-2.3C149.8,129.5,149.9,130.6,149.9,131.6z"/>
</svg>
