<?xml version="1.0"?><svg width="640" height="480" xmlns="http://www.w3.org/2000/svg"> <!-- Created with SVG-edit - http://svg-edit.googlecode.com/ --> <g>  <title>Layer 1</title>  <g id="svg_2">   <g id="svg_1">    <g>     <path d="m52.642902,85.379623c-1.005932,-0.141266 -2.010529,0.131409 -2.902111,0.590927c-0.896912,0.460587 -1.697605,1.098953 -2.432465,1.797829c-1.464916,1.412941 -2.653427,3.102814 -3.657497,4.87532c-0.999798,1.777306 -1.806889,3.666557 -2.353035,5.611786c-0.270008,0.97261 -0.473911,1.959618 -0.581863,2.945023c-0.104214,0.983536 -0.109013,1.972679 0.061844,2.898911c0.168716,0.923309 0.526417,1.779434 1.112011,2.388229c0.071964,0.077286 0.148731,0.149261 0.22736,0.218559c0.083961,0.073563 0.148468,0.12368 0.261211,0.20977c0.175919,0.131935 0.374226,0.266273 0.573601,0.387817c0.401413,0.244949 0.830276,0.457657 1.275669,0.643166c1.789299,0.74205 3.790497,1.090157 5.801029,1.290062c1.008595,0.099152 2.026783,0.156731 3.052975,0.195641c0.513626,0.017868 1.031517,0.037582 1.532085,0.043716c0.492573,0.005066 0.990471,-0.008263 1.481979,-0.038918c1.966812,-0.128738 3.899509,-0.545082 5.647495,-1.354027c1.749313,-0.800163 3.298458,-1.985748 4.529346,-3.45546c1.237289,-1.467049 2.152336,-3.20517 2.777641,-5.049377c1.25248,-3.702805 1.347107,-7.803558 0.582657,-11.686279c-0.775368,-3.886719 -2.413002,-7.619911 -4.859863,-10.696342c-1.222363,-1.536354 -2.653694,-2.896248 -4.252144,-4.011993c-0.400085,-0.278275 -0.810825,-0.540817 -1.231964,-0.786034l-0.320915,-0.181519l-0.306255,-0.162056c-0.211639,-0.109543 -0.427799,-0.212692 -0.646633,-0.311325c-0.875858,-0.395279 -1.802891,-0.707664 -2.755779,-0.958481c-1.909512,-0.494438 -3.912308,-0.771103 -5.941227,-0.916374c-2.030785,-0.151123 -4.087959,-0.172714 -6.164593,-0.204437l-1.556873,-0.022926c-0.510426,-0.00666 -1.005661,-0.001595 -1.51236,0.016266c-1.006199,0.037048 -2.009731,0.123138 -3.002598,0.270805c-1.985741,0.292664 -3.934166,0.824944 -5.761847,1.640564c-1.82688,0.813225 -3.530352,1.909508 -5.01446,3.263016c-1.487839,1.349236 -2.760845,2.941025 -3.79796,4.681541c-1.03845,1.741592 -1.827681,3.63485 -2.417273,5.5886c-0.585327,1.956146 -0.976078,3.977341 -1.169588,6.019852c-0.390217,4.086365 -0.086893,8.244164 0.824949,12.253487c0.45632,2.004929 1.063236,3.975739 1.82608,5.882324c0.759645,1.907379 1.690413,3.74572 2.798962,5.464111c1.107748,1.716797 2.394882,3.31765 3.884052,4.691948c0.372627,0.342773 0.759113,0.669281 1.157595,0.97847l0.29986,0.227898l0.31212,0.229492c0.203371,0.147133 0.412075,0.293465 0.622643,0.437927c0.841742,0.576004 1.7152,1.108818 2.608385,1.607788c3.578594,1.995064 7.457317,3.445061 11.409607,4.538948c3.959484,1.0811 8.02319,1.782639 12.100487,2.046249c2.03825,0.130325 4.080498,0.146591 6.107548,0.029037c2.026791,-0.113007 4.040516,-0.362762 6.005993,-0.786026c1.963623,-0.426193 3.879791,-1.025658 5.684021,-1.836746c1.802094,-0.812675 3.486107,-1.852203 4.945961,-3.131599c1.459846,-1.278336 2.690216,-2.793892 3.623642,-4.483772c0.921165,-1.734924 1.729057,-3.628441 2.43779,-5.519829c1.411079,-3.801689 2.382889,-7.765976 2.946098,-11.785698c0.564796,-4.020256 0.71833,-8.098885 0.470444,-12.15033c-0.255615,-4.050377 -0.883591,-8.077835 -1.919098,-11.996002c-1.033394,-3.918175 -2.484711,-7.721725 -4.332916,-11.313385c-1.841812,-3.595127 -4.113281,-6.96315 -6.772034,-9.987606c-2.663292,-3.019661 -5.733597,-5.675488 -9.122681,-7.847275c-1.695473,-1.083496 -3.46825,-2.049179 -5.305794,-2.87759c-0.917171,-0.409409 -1.859665,-0.810287 -2.778969,-1.12854c-0.934765,-0.324379 -1.897518,-0.597855 -2.873859,-0.83321c-3.913639,-0.937431 -8.00853,-1.316719 -12.09116,-1.348438c-4.086891,-0.016792 -8.188442,0.305725 -12.219894,1.022987c-2.015593,0.358768 -4.011995,0.821217 -5.974813,1.39455c-1.963083,0.570667 -3.891516,1.259945 -5.75358,2.093956c-1.861799,0.834011 -3.653763,1.820221 -5.326049,2.978611c-1.669621,1.159992 -3.211036,2.509762 -4.516293,4.066902c-1.305791,1.55394 -2.374892,3.316055 -3.092423,5.229027c-0.723396,1.909775 -1.106151,3.95549 -1.161592,6.019325c-0.002132,0.077293 -0.066369,0.138336 -0.143666,0.1362c-0.074632,-0.001862 -0.133804,-0.06237 -0.136203,-0.1362c-0.058373,-2.089958 0.200973,-4.20977 0.853202,-6.224564c0.646631,-2.014793 1.664823,-3.916039 2.959952,-5.601383c1.295395,-1.687748 2.847204,-3.168392 4.535749,-4.452591c1.688546,-1.2882 3.521291,-2.372223 5.417472,-3.310188c3.800095,-1.871395 7.859531,-3.148129 11.984806,-4.013596c4.129007,-0.86306 8.336908,-1.33511 12.560541,-1.407341c2.111813,-0.036785 4.228157,0.022125 6.342373,0.196442c2.113678,0.176983 4.22736,0.46032 6.323982,0.923565c1.047779,0.233227 2.091557,0.509632 3.126274,0.848675c1.050442,0.344639 2.028652,0.743118 3.016193,1.162926c1.966282,0.84547 3.870457,1.839939 5.69627,2.962883c3.655632,2.242687 6.964752,5.041912 9.834351,8.222561c2.875725,3.179317 5.296989,6.749649 7.272865,10.535614c1.971886,3.791031 3.478119,7.808891 4.563744,11.926178c1.085091,4.118607 1.742386,8.345695 1.953491,12.593315c0.433388,8.488037 -0.797493,17.084297 -3.861938,25.036324c-0.383286,0.992867 -0.79509,1.975067 -1.235153,2.944748c-0.219093,0.48378 -0.448586,0.965691 -0.685547,1.452126c-0.225227,0.450455 -0.476845,0.963554 -0.754051,1.443863c-1.099754,1.935631 -2.551071,3.676155 -4.244682,5.104813c-1.69175,1.433731 -3.604721,2.564949 -5.603249,3.426949c-1.999611,0.866791 -4.089294,1.460907 -6.196045,1.864456c-4.220428,0.801483 -8.506699,0.855865 -12.711403,0.459518c-4.208435,-0.40062 -8.353966,-1.248749 -12.376892,-2.478851c-4.020256,-1.234352 -7.930431,-2.850929 -11.573532,-4.980865c-0.908375,-0.535751 -1.797827,-1.107216 -2.656893,-1.725067c-0.214567,-0.154594 -0.427534,-0.311592 -0.6413,-0.473907l-0.310255,-0.239357l-0.315052,-0.251083c-0.415007,-0.336906 -0.812424,-0.693542 -1.199175,-1.060043c-1.545147,-1.469177 -2.856001,-3.154526 -3.973881,-4.944351c-2.220829,-3.594589 -3.739853,-7.572998 -4.653561,-11.668159c-0.905443,-4.097816 -1.245285,-8.327049 -0.892651,-12.521889c0.350504,-4.184181 1.407078,-8.373161 3.491171,-12.099953c1.034185,-1.860733 2.33198,-3.591927 3.879789,-5.083237c1.54648,-1.491035 3.334711,-2.741913 5.272741,-3.68734c1.937763,-0.948357 4.014393,-1.596054 6.12674,-1.982544c1.056572,-0.194839 2.123009,-0.323845 3.191311,-0.400612c0.530952,-0.037582 1.074432,-0.061569 1.602985,-0.073029l1.560074,-0.031456c2.078495,-0.04744 4.179649,-0.071701 6.298393,0.021057c2.116611,0.099953 4.261478,0.302795 6.385284,0.823883c1.060574,0.259613 2.116348,0.592796 3.14307,1.034714c0.25668,0.110352 0.511494,0.226837 0.763641,0.351303l0.385689,0.196182l0.36063,0.196175c0.481644,0.269211 0.952091,0.55867 1.410545,0.86599c1.837273,1.224762 3.458652,2.751785 4.83427,4.45713c2.753914,3.420799 4.53096,7.530884 5.338043,11.793953c0.403816,2.134201 0.566406,4.316132 0.456322,6.494301c-0.111679,2.176857 -0.497101,4.35424 -1.225288,6.438866c-0.727936,2.080627 -1.823158,4.063972 -3.295265,5.754646c-1.466248,1.692551 -3.322983,3.060707 -5.37056,3.953087c-2.047314,0.899055 -4.254814,1.341515 -6.4338,1.416946c-0.546146,0.019455 -1.088024,0.019455 -1.633904,-0.000267c-0.538151,-0.021065 -1.057907,-0.054642 -1.581928,-0.086891c-1.049114,-0.067444 -2.104618,-0.155128 -3.161194,-0.287064c-1.056305,-0.13195 -2.114746,-0.306793 -3.16732,-0.556282c-1.05098,-0.25161 -2.100887,-0.572533 -3.11348,-1.036583c-0.50563,-0.23243 -1.001934,-0.499496 -1.47691,-0.81295c-0.23856,-0.157799 -0.465652,-0.32225 -0.698879,-0.510963c-0.091156,-0.074364 -0.228161,-0.188713 -0.335308,-0.291061c-0.11248,-0.106354 -0.22123,-0.216705 -0.32225,-0.333176c-0.827347,-0.933167 -1.234356,-2.105957 -1.398281,-3.222237c-0.164989,-1.127472 -0.112213,-2.237892 0.039185,-3.313385c0.153259,-1.076569 0.417934,-2.121681 0.750317,-3.137207c0.667953,-2.029984 1.593651,-3.951218 2.710735,-5.748253c1.124538,-1.790092 2.452454,-3.465843 4.05624,-4.86306c0.803356,-0.693268 1.689342,-1.308189 2.673149,-1.738914c0.491238,-0.213768 1.008064,-0.378227 1.540882,-0.462456c0.530956,-0.083427 1.083759,-0.081024 1.605652,0.024788l0.005596,0.001068c0.075699,0.015457 0.124744,0.089287 0.109283,0.164986c-0.014393,0.071434 -0.083427,0.119408 -0.156193,0.109283z"/>    </g>    <g>     <path d="0"/>Error: Problem parsing d="0"    </g>    <g>     <path d="m96.849472,41.578465c0.222565,0.819347 0.355568,1.619511 0.473907,2.422337c0.114883,0.801224 0.196442,1.597919 0.256958,2.393284c0.060768,0.795097 0.102081,1.58886 0.11834,2.382622c0.02906,0.793766 0.013863,1.587257 -0.074097,2.382889c-0.166595,1.590458 -0.581062,3.196907 -0.613312,4.79776c-0.041321,1.600857 0.164726,3.194244 0.508553,4.778568c0.164726,0.792698 0.341187,1.584332 0.474716,2.378624c0.137802,0.794029 0.222832,1.590988 0.316124,2.387947c0.186043,1.594193 0.377686,3.191055 0.402481,4.798302c0.02478,1.606979 -0.04985,3.220894 -0.213768,4.835342c-0.17112,1.613922 -0.420067,3.229691 -0.895317,4.83268c-0.022926,0.077301 -0.104218,0.121544 -0.181519,0.098618c-0.048775,-0.014656 -0.084488,-0.053299 -0.098351,-0.098618c-0.47525,-1.599251 -0.77697,-3.18544 -1.035522,-4.772438c-0.251343,-1.586731 -0.448326,-3.172661 -0.563728,-4.764442c-0.115685,-1.591797 -0.082367,-3.193176 -0.056244,-4.797234c0.013329,-0.802025 0.017586,-1.60405 0.076492,-2.409271c0.054649,-0.804962 0.153534,-1.612316 0.244164,-2.418873c0.195633,-1.614449 0.267601,-3.220364 0.12207,-4.820148c-0.136475,-1.599255 -0.625572,-3.194511 -0.820953,-4.806026c-0.102348,-0.805225 -0.120476,-1.613113 -0.081032,-2.420204c0.026924,-0.807354 0.092224,-1.614712 0.192184,-2.419937c0.099953,-0.805222 0.23642,-1.608849 0.423538,-2.407143c0.190575,-0.796429 0.413139,-1.59499 0.745247,-2.373028c0.031448,-0.075428 0.11808,-0.111145 0.193504,-0.079426c0.04319,0.01812 0.073837,0.055969 0.085564,0.097816z"/>    </g>    <g>     <path d="m65.44146,59.877659c3.443192,-1.094158 6.954086,-1.860733 10.48365,-2.494038c1.765572,-0.31345 3.53727,-0.587727 5.314316,-0.81855c1.775436,-0.242817 3.559135,-0.420868 5.350037,-0.51656c3.582863,-0.192177 7.186783,-0.071434 10.756844,-0.273739c1.786102,-0.094887 3.567406,-0.24202 5.347374,-0.419804c1.779968,-0.176449 3.556473,-0.410206 5.335106,-0.637836c1.778107,-0.231892 3.557549,-0.469646 5.340714,-0.646366c1.782631,-0.19244 3.569,-0.312386 5.355362,-0.438995c3.572731,-0.251083 7.148666,-0.474445 10.7286,-0.515488c3.579926,-0.03812 7.160934,0.030918 10.739777,0.203102c3.578857,0.18951 7.156128,0.431263 10.728867,0.91024c0.077301,0.010395 0.131668,0.081299 0.121277,0.158592c-0.00853,0.064507 -0.059708,0.113018 -0.121277,0.121277c-3.57193,0.478977 -7.139603,0.754585 -10.705124,1.021393c-3.565292,0.249214 -7.128418,0.438725 -10.691284,0.573601c-3.562607,0.131935 -7.128151,0.134068 -10.694748,0.170586c-1.783165,0.017059 -3.565536,0.055973 -5.351105,0.039448c-1.784767,-0.000801 -3.572998,-0.045845 -5.360962,-0.067436c-1.787697,-0.017323 -3.576202,-0.022655 -5.360168,0.047977c-1.783966,0.069569 -3.565002,0.188709 -5.340172,0.379826c-3.551674,0.370224 -7.063103,1.144527 -10.586258,1.69574c-1.762115,0.276138 -3.529289,0.492306 -5.301796,0.667423c-1.770905,0.186848 -3.544472,0.354233 -5.320717,0.506962c-3.554077,0.299328 -7.114014,0.56427 -10.72406,0.609581c-0.078094,0.000801 -0.142067,-0.061573 -0.143135,-0.139668c-0.001068,-0.064236 0.041046,-0.118877 0.098885,-0.137268z"/>    </g>    <g>     <path d="m126.107552,71.11055c0.05864,0.229225 0.134872,0.441399 0.209503,0.67675c0.07357,0.231895 0.14846,0.480042 0.167389,0.760178c0.005592,0.069832 0.006134,0.141266 0.004799,0.214035l-0.007469,0.110085l-0.002129,0.027718c-0.017326,0.07196 -0.002136,0.018661 -0.016533,0.066368c-0.022385,0.063171 -0.026649,0.068764 -0.035446,0.092224c-0.057838,0.138069 -0.107414,0.241493 -0.160995,0.355301c-0.106613,0.22123 -0.210831,0.438995 -0.324104,0.651436c-0.448059,0.85186 -0.900116,1.696266 -1.373497,2.527618c-0.942757,1.664551 -1.928169,3.298988 -2.940498,4.915039c-1.012062,1.61631 -2.049973,3.21476 -3.11721,4.793488c-1.058441,1.585663 -2.15979,3.138275 -3.336845,4.64904c-0.28466,0.377151 -0.617844,0.766838 -0.886513,1.11068l-0.869728,1.10775c-0.576797,0.74205 -1.144806,1.494766 -1.664024,2.256279c-0.252953,0.374763 -0.514694,0.777504 -0.665558,1.11628l-0.042641,0.102615c-0.010666,0.022385 -0.010933,0.042381 -0.016266,-0.008789c-0.005592,-0.017326 -0.007462,-0.08876 -0.062637,-0.181786c-0.01413,-0.025589 -0.035454,-0.05864 -0.058372,-0.083694c-0.022125,-0.026123 -0.144463,-0.131676 -0.081024,-0.076233c0.020523,0.017593 -0.006927,-0.007729 -0.054916,-0.036781c-0.040245,-0.024254 -0.090889,-0.041046 -0.088493,-0.039978c-0.088493,-0.021591 -0.048767,-0.001602 -0.022652,-0.001068c0.145798,0.016792 0.388351,0.000267 0.606384,-0.020264c0.907845,-0.098351 1.84581,-0.291595 2.76857,-0.4963l1.39669,-0.326508c0.06263,-0.013863 0.117805,-0.027725 0.202301,-0.041855l0.184448,-0.027718l0.363823,-0.046112l0.717537,-0.082626l2.849609,-0.302788c1.896179,-0.206039 3.787292,-0.46299 5.67868,-0.720734c1.890846,-0.261742 3.78064,-0.534424 5.67308,-0.755119c1.891129,-0.236946 3.786499,-0.409943 5.676025,-0.605316l2.826416,-0.300926c0.468048,-0.051712 0.936356,-0.105011 1.39241,-0.163918c0.226028,-0.02906 0.455261,-0.061577 0.651962,-0.093025l0.125534,-0.022919c0.016815,-0.003471 0.027725,-0.006409 0.026398,-0.006668l-0.024261,0.005333l-0.034119,0.009857c-0.029846,0.009064 -0.059433,0.019722 -0.088226,0.031723c-0.107941,0.055702 -0.096741,0.019188 -0.35556,0.211899c-0.477097,0.481369 -0.460846,0.73645 -0.421143,0.572266c0.019745,-0.048248 -0.028259,0.0597 -0.055435,0.169785c-0.028244,0.122612 -0.031708,0.180191 -0.035172,0.216438c-0.012527,0.189774 0.011978,0.288124 0.022125,0.345703c0.029846,0.122871 0.041306,0.132469 0.041565,0.139931l-0.081818,-0.120743c-0.046127,-0.064766 -0.102097,-0.13887 -0.163132,-0.215363c-0.122345,-0.153793 -0.262543,-0.317451 -0.405426,-0.484047c-0.290512,-0.335846 -0.597839,-0.665817 -0.931015,-1.029114l-0.134079,-0.149261l-0.08075,-0.093292l-0.055984,-0.068497l-0.061295,-0.081039l-0.20845,-0.289726l-0.416855,-0.579193c-0.276688,-0.389954 -0.561356,-0.778038 -0.831619,-1.172523c-2.182724,-3.14093 -4.238831,-6.353828 -6.238434,-9.595795c-0.50322,-0.808151 -0.991791,-1.626434 -1.486496,-2.439919l-0.741257,-1.221031l-0.729523,-1.231964l-1.452927,-2.460175c-0.243622,-0.408348 -0.481377,-0.821754 -0.730858,-1.222374c-0.124741,-0.197235 -0.250015,-0.40567 -0.375824,-0.579193l-0.040512,-0.053307c-0.003998,-0.006393 -0.010132,-0.010925 0.006126,-0.004005c0.00853,-0.002388 0.02079,0.023727 0.117546,0.010933c0.138603,-0.030121 0.163391,-0.179382 0.154335,-0.174583c-0.001602,-0.042648 -0.0056,-0.025856 -0.005341,-0.024254c0.000267,0.007195 0.001602,0.017326 0.004005,0.028786c0.004532,0.022385 0.011459,0.048782 0.019188,0.074898c0.031456,0.106079 0.0709,0.218826 0.111679,0.329445c0.0056,0.014656 0.010132,0.029587 0.013863,0.04451l0.001068,0.006134zm-0.277733,0.057571c-0.064774,-0.092491 -0.129807,-0.184181 -0.190315,-0.287598c-0.016258,-0.028252 -0.032516,-0.05677 -0.048508,-0.090088c-0.007996,-0.016525 -0.015991,-0.034653 -0.023987,-0.055977c-0.006935,-0.026917 -0.018661,-0.039444 -0.019196,-0.111946c-0.009064,-0.009331 0.021851,-0.176453 0.175919,-0.208969c0.111412,-0.014664 0.138603,0.017059 0.159927,0.021858c0.042374,0.02079 0.060242,0.034386 0.078888,0.04718c0.035988,0.025322 0.062645,0.047165 0.089302,0.069023c0.201767,0.171661 0.369156,0.339851 0.539474,0.51577c0.335846,0.349693 0.664764,0.701538 0.984612,1.060303c0.636772,0.719131 1.267677,1.44146 1.876991,2.17952c0.613846,0.733521 1.223953,1.465981 1.819687,2.214691c0.599182,0.744186 1.199432,1.487572 1.784241,2.241623c2.349823,3.007935 4.613831,6.065971 6.855728,9.122147l0.832932,1.147728l0.420074,0.577332l0.210037,0.288666c0.001068,0.001602 0.015732,0.021858 0.005859,0.008263l-0.013855,-0.01786c-0.005066,-0.006126 -0.002136,-0.002136 0,0.000801l0.035187,0.042381l0.102615,0.118073c0.303864,0.343849 0.639175,0.716209 0.96463,1.106155c0.164719,0.196167 0.327042,0.400345 0.492554,0.62558c0.082901,0.112747 0.166595,0.231621 0.25322,0.364624c0.087433,0.137001 0.176193,0.276405 0.279602,0.494171c0.050903,0.114609 0.109024,0.234558 0.165512,0.47364c0.024536,0.115417 0.056244,0.273476 0.039734,0.522423c-0.003998,0.050911 -0.009079,0.123413 -0.041061,0.260681c-0.029846,0.124741 -0.08075,0.247086 -0.067429,0.212433c0.034653,-0.149796 0.045578,0.119148 -0.443787,0.609856c-0.270554,0.2015 -0.273483,0.170578 -0.39476,0.232956c-0.042908,0.016785 -0.086349,0.032516 -0.130341,0.046371l-0.077286,0.022125l-0.111145,0.026657l-0.148727,0.027718l-0.227371,0.032524c-0.274536,0.034645 -0.518433,0.053841 -0.765778,0.074097c-0.490707,0.03891 -0.970749,0.069298 -1.45079,0.098351l-2.866928,0.147133c-1.906845,0.086891 -3.809692,0.179382 -5.716522,0.207901c-1.905518,0.043983 -3.813965,0.034393 -5.72081,0.042915c-1.906311,0.013062 -3.812614,0.031189 -5.711197,0.131409c-0.949158,0.049309 -1.898048,0.111145 -2.838409,0.205231c-0.234825,0.02372 -0.46965,0.045578 -0.701271,0.076767l-0.343575,0.048782l-0.167923,0.027718l-0.146599,0.033318c-0.449928,0.109543 -0.912643,0.246819 -1.371895,0.372093c-0.923836,0.255348 -1.833542,0.527748 -2.802422,0.753517c-0.25135,0.054108 -0.48111,0.111679 -0.81189,0.129005c-0.092491,-0.001869 -0.173248,0.011986 -0.375557,-0.046112c-0.011993,-0.002403 -0.075966,-0.02639 -0.129539,-0.057045c-0.061577,-0.034912 -0.102348,-0.067169 -0.093025,-0.059708c0.050911,0.046921 -0.082634,-0.06823 -0.112747,-0.10688c-0.031448,-0.037315 -0.062904,-0.081825 -0.084229,-0.119942c-0.080223,-0.146866 -0.097816,-0.276939 -0.103951,-0.353699c-0.010925,-0.170326 0.00853,-0.268944 0.02346,-0.362236c0.017052,-0.088493 0.036781,-0.16819 0.057571,-0.239883c0.171913,-0.558144 0.37529,-0.991539 0.58532,-1.446793c0.423004,-0.892921 0.883064,-1.743721 1.354836,-2.590256c0.234833,-0.423805 0.481918,-0.838013 0.731659,-1.256218l0.770844,-1.214638c1.016853,-1.600319 2.08596,-3.176109 3.196373,-4.719391c1.100555,-1.551285 2.224297,-3.08683 3.366966,-4.609322c1.142128,-1.522751 2.305588,-3.03138 3.49437,-4.52108l1.795692,-2.223228l0.445389,-0.550949l0.201241,-0.25988c0.004272,-0.003197 0.013863,-0.024246 0.00267,0.011459c-0.007996,0.034126 0.011192,-0.033577 -0.00267,0.023994l0.005341,-0.016258l0.021317,-0.066109c0.011726,-0.045578 0.023193,-0.092484 0.030647,-0.141533c0.069572,-0.389687 -0.014122,-0.875854 0.005074,-1.363365z"/>    </g>    <g>     <path d="m126.329849,26.664091c0.074898,1.047512 0.137276,2.051577 0.230827,3.047644c0.091957,0.994471 0.202843,1.974812 0.337181,2.948757c0.134338,0.973946 0.292931,1.940697 0.465111,2.905045c0.183914,0.962749 0.3601,1.925236 0.509102,2.903179c0.298798,1.948421 0.516281,3.996536 1.239151,5.88472c0.708206,1.887917 1.783966,3.627373 3.082291,5.164257c0.643433,0.772972 1.32312,1.507565 1.995346,2.233356c0.675674,0.723129 1.338562,1.446259 2.038773,2.128078c1.402542,1.364162 2.916504,2.568932 4.458725,3.700134c1.543015,1.13414 3.170517,2.141937 4.92038,2.965282c0.875046,0.412346 1.780746,0.773239 2.717911,1.097889c0.939316,0.31559 1.910049,0.579994 2.920242,0.82415c0.077301,0.018391 0.125015,0.095955 0.106613,0.173252c-0.012787,0.054375 -0.055695,0.094357 -0.106613,0.106617c-1.026718,0.244419 -2.092621,0.334511 -3.16066,0.306789c-1.070709,-0.018124 -2.143524,-0.167923 -3.194778,-0.416607c-2.105133,-0.498165 -4.114868,-1.410538 -5.911911,-2.605179c-1.800217,-1.199711 -3.338699,-2.728863 -4.69487,-4.359837c-0.679413,-0.816418 -1.323639,-1.657894 -1.883652,-2.554008c-0.563202,-0.893448 -1.048035,-1.832211 -1.497971,-2.77737c-0.888641,-1.899647 -1.715988,-3.776371 -2.619034,-5.629902c-0.887062,-1.853271 -1.989471,-3.672955 -2.675026,-5.677887c-0.342506,-0.998466 -0.574127,-2.033447 -0.703934,-3.083363c-0.141541,-1.048042 -0.202835,-2.108616 -0.181252,-3.168385c0.021057,-1.059507 0.128746,-2.11928 0.341705,-3.157993c0.214836,-1.037117 0.52375,-2.05904 0.991539,-3.010328l0.000801,-0.0016c0.035179,-0.071701 0.12207,-0.101286 0.193779,-0.066103c0.047432,0.023457 0.076492,0.070101 0.080223,0.119411z"/>    </g>    <g>     <path d="m135.063644,15.734791c0.249207,0.295328 0.415527,0.55121 0.560013,0.809488c0.142593,0.255348 0.251343,0.4995 0.33876,0.73859c0.091965,0.238554 0.154327,0.472046 0.204971,0.703671c0.053314,0.231625 0.071167,0.462183 0.020264,0.710337c-0.098358,0.488037 -0.408875,1.082426 -0.312393,1.593122c0.082367,0.508562 0.442734,0.924902 0.921432,1.192244c0.234024,0.138067 0.478973,0.250549 0.690613,0.371826c0.215103,0.11861 0.39183,0.25588 0.581604,0.376358c0.381149,0.24122 0.771896,0.420605 1.098419,0.695675c0.329178,0.27507 0.646362,0.598389 0.996597,0.967548c0.348373,0.375559 0.724197,0.782568 1.132278,1.360699l0.001862,0.002666c0.059448,0.08396 0.039185,0.200172 -0.044769,0.259346c-0.0056,0.003998 -0.011734,0.007729 -0.017609,0.011194c-0.63063,0.346237 -1.276474,0.440594 -1.912704,0.411274c-0.634369,-0.03545 -1.263931,-0.20977 -1.819412,-0.527222c-0.558136,-0.31665 -0.988876,-0.824148 -1.344437,-1.351103c-0.178848,-0.263344 -0.348907,-0.530951 -0.457657,-0.83481c-0.112213,-0.300924 -0.168716,-0.628506 -0.211899,-0.944359c-0.076492,-0.641033 -0.175659,-1.190645 -0.459518,-1.681614c-0.269745,-0.48884 -0.853745,-0.927301 -1.141068,-1.486774c-0.145538,-0.275871 -0.201782,-0.572533 -0.202835,-0.870527c-0.003998,-0.297728 0.023453,-0.595722 0.098618,-0.889183c0.070633,-0.2932 0.180176,-0.581331 0.340103,-0.858002c0.161789,-0.273472 0.362228,-0.549343 0.660767,-0.783634l0.005325,-0.004264c0.082886,-0.06637 0.204163,-0.053576 0.272675,0.027453z"/>    </g>   </g>  </g> </g></svg>